<svg xmlns="http://www.w3.org/2000/svg" xmlns:xlink="http://www.w3.org/1999/xlink" viewBox="0 0 197.63872 184.19614"><defs><style>.cls-1{fill:none;}.cls-2{isolation:isolate;}.cls-3{clip-path:url(#clip-path);}.cls-4{clip-path:url(#clip-path-2);}.cls-5{fill:#c3c2c2;opacity:0.24;}.cls-6{opacity:0.35;}.cls-7{clip-path:url(#clip-path-3);}.cls-8{opacity:0.25;mix-blend-mode:soft-light;}.cls-9{fill:#fff;}.cls-10{fill:#1e1e1c;}.cls-11{fill:#c6c6c6;}.cls-12{fill:#018c93;}.cls-13{fill:#0a6939;opacity:0.5;}.cls-14{fill:#fabd60;}</style><clipPath id="clip-path"><rect class="cls-1" x="536.36914" y="-78.52557" width="720" height="1280"/></clipPath><clipPath id="clip-path-2"><rect class="cls-1" x="535.75923" y="-236.31878" width="1734.0057" height="1332.16773"/></clipPath><clipPath id="clip-path-3"><rect class="cls-1" x="-75.11442" y="-565.40111" width="2955.753" height="1671.39508"/></clipPath></defs><title>Logotipo-bazfex</title><g class="cls-2"><g id="Layer_1" data-name="Layer 1"><g class="cls-3"><g class="cls-4"><rect class="cls-5" x="-84.8444" y="-560.89306" width="2975.21297" height="843.2653"/><g class="cls-7"><g class="cls-8"><path class="cls-9" d="M21.29966,1392.46352l-.40813-.763c30.94057-27.0782,54.18226-67.95859,67.21674-118.21426,11.44356-44.12624,14.74358-94.84239,9.29056-142.80461-5.58953-49.17443-18.10071-96.37974-30.19643-142.02844-10.377-39.15232-21.10595-79.64379-27.45643-121.2796C3.83468,631.85134,123.00312,350.11971,311.05044,225.98307c8.78208-5.79837,17.9225-11.45812,26.76418-16.9332,34.66612-21.46026,70.51146-43.65365,95.53941-80.52478C456.26787,94.76722,467.7513,51.74293,466.55692,4.10246a294.07547,294.07547,0,0,0-30.86311-123.0586c-19.48974-38.468-45.248-71.84429-70.155-104.11974-21.11024-27.35586-42.93645-55.64205-60.91787-86.95973-28.64583-49.8989-48.20768-110.20058-56.57731-174.38319C239.67274-548.62823,242.51-616.71826,256.246-681.328a621.14476,621.14476,0,0,1,73.39515-186.65164c34.284-57.49106,77.44294-107.85461,124.80809-145.64664l.37356.79289c-47.27138,37.71382-90.34171,87.97527-124.55857,145.35182a620.03818,620.03818,0,0,0-73.247,186.27321c-13.709,64.47923-16.539,132.43223-8.18353,196.51585,8.352,64.05447,27.87455,124.235,56.4621,174.03332,17.95138,31.27,39.76486,59.53618,60.86,86.86921,24.92983,32.30435,50.70795,65.709,70.23312,104.24828A295.07072,295.07072,0,0,1,467.35605,3.9447c1.19868,47.89592-10.35439,91.167-33.41545,125.13583-25.15628,37.05981-61.09148,59.30823-95.84123,80.82337-8.83739,5.47063-17.97337,11.1276-26.74392,16.91918C123.64241,350.74012,4.68116,631.97425,40.53142,867.074c6.34084,41.5845,17.06321,82.04544,27.435,121.1722,12.10593,45.68861,24.62275,92.92747,30.22371,142.17814,5.46809,48.09991,2.15566,98.96969-9.325,143.23784C75.77392,1324.15456,52.40738,1365.23459,21.29966,1392.46352Z"/><path class="cls-9" d="M15.48086,1391.7851l-.65019-1.03079c26.89357-26.71178,47.49268-67.64546,59.56838-118.373,10.44179-43.85718,14.35436-94.6314,11.0222-142.975-.40526-5.875-.90625-11.977-1.49273-18.142-3.84472-40.36132-11.47-78.65612-18.84593-115.69207C57.322,956.59034,49.29329,916.27484,46.048,874.677c-4.94128-63.30109,3.98348-131.90949,13.36578-190.67179,11.90052-74.55448,25.97706-133.22234,44.29542-184.63093,27.79984-77.94941,67.71535-148.50038,115.42873-204.02784,21.23663-24.76976,42.69209-45.64619,65.58922-63.82217,12.49289-9.91609,25.73964-19.096,39.76261-28.81465,12.65292-8.76938,25.74092-17.83648,38.10669-27.43087,19.49035-15.1223,34.09906-29.44908,45.97221-45.09,23.86754-31.5619,37.51344-69.54356,40.55519-112.88772,2.81784-40.12035-3.76475-82.38823-18.53334-119.018-14.41148-35.60637-34.49306-66.859-53.91473-97.08163-17.099-26.61175-34.78193-54.129-48.83209-84.84617-21.5426-47.13736-34.70494-104.00364-38.06454-164.45174-3.6029-64.17913,3.77759-132.7393,21.35147-198.26654,17.21354-64.08422,45.22533-128.94624,81.00345-187.57424,35.7037-58.50979,79.3454-111.1482,126.20537-152.22278l.58557,1.09606c-46.74643,40.97434-90.28235,93.48574-125.90172,151.85574-35.69394,58.48863-63.63455,123.19106-80.80385,187.11118C294.694-580.7487,287.33-512.37685,290.92661-448.37323c3.34964,60.26323,16.4688,116.94888,37.9384,163.93075,14.01413,30.6371,31.67314,58.11888,48.7506,84.698,19.45188,30.26825,39.56321,61.56847,54.01811,97.28241,14.84993,36.83037,21.46956,79.34021,18.6368,119.69565-3.02654,43.07651-17.1718,82.43617-40.906,113.82292-11.95856,15.75226-26.65516,30.169-46.24933,45.37054-12.39466,9.61527-25.49593,18.69482-38.1644,27.47347-14.00626,9.70562-27.23327,18.8734-39.69016,28.76418-22.82476,18.11763-44.21194,38.92661-65.38869,63.62552C172.28874,351.66426,132.48087,422.03012,104.756,499.777,86.47324,551.07913,72.42173,609.64558,60.5386,684.09259,51.17386,742.75532,42.263,811.23494,47.193,874.36686c3.2365,41.50255,11.25412,81.77,19.00877,120.71,7.38045,37.07329,15.01279,75.40664,18.86883,115.84457.585,6.18026,1.08728,12.29915,1.49332,18.18227,3.34378,48.51248-.58454,99.47154-11.06432,143.49473C63.34932,1323.64187,42.59627,1364.85924,15.48086,1391.7851Z"/><path class="cls-9" d="M9.69355,1391.07628l-.94748-1.24321c50.89905-58.53585,66.79346-173.58156,64.69569-261.72669-.1382-5.83346-.34057-11.892-.59226-18.01862-1.58436-37.60477-6.056-72.50946-10.38079-106.26735-5.26862-41.10958-10.24466-79.942-10.11785-121.8839.13553-44.671,8.4466-93.81936,17.25077-145.855,2.42273-14.324,4.92746-29.13106,7.28333-43.99213q2.87274-18.13659,5.5713-35.89448c8.18216-53.25163,15.91193-103.55131,28.32192-150.10831,20.39248-76.356,52.00722-146.36987,91.429-202.46819,18.99048-27.15831,36.31321-47.67854,56.17151-66.5242,16.07947-15.26249,35.73573-29.84785,54.74464-43.95236,7.45309-5.53068,15.16181-11.251,22.5931-16.95987,20.88089-16.05538,35.70991-29.733,48.08178-44.34714,25.24285-30.02359,41.33812-65.54353,47.83519-105.56809,5.95429-36.7169,3.767-76.06481-6.15779-110.79876-9.51711-32.91362-24.15191-62.16372-38.30248-90.45221-12.87687-25.738-26.19066-52.35075-36.12158-82.32453-15.09783-45.64924-22.07065-100.71492-20.16942-159.23786,1.96982-62.74118,14.12284-130.12747,35.14386-194.87568C408.18153-740.94691,486.97962-867.517,582.21885-958.67884l.82536,1.3714C488.04791-866.37761,409.45287-740.13655,367.40985-610.957c-20.95441,64.541-33.06854,131.70741-35.03034,194.237-1.89482,58.28481,5.04707,113.10875,20.07044,158.54544,9.89389,29.85579,23.18037,56.41346,36.03156,82.09935,14.18449,28.35511,28.85192,57.67391,38.416,90.74535,10.004,35.0145,12.20662,74.68571,6.20162,111.71183-6.5623,40.44461-22.82485,76.333-48.33288,106.67055-12.46777,14.73008-27.38679,28.49291-48.37878,44.6311-7.44119,5.71988-15.15463,11.44494-22.615,16.97918-18.96465,14.07389-38.57807,28.62365-54.57754,43.81237-19.75521,18.74759-36.99648,39.168-55.90469,66.21445-39.27367,55.88556-70.772,125.6447-91.09227,201.74436-12.3801,46.429-20.09847,96.67144-28.27011,149.85811q-2.72775,17.75718-5.57613,35.90912c-2.3551,14.86916-4.86185,29.68387-7.28592,44.01116-8.7845,51.94092-17.084,100.9998-17.218,145.4899-.12492,41.80112,4.843,80.56663,10.10057,121.60834,4.331,33.80029,8.80893,68.747,10.396,106.44558.25519,6.13553.45316,12.20926.59517,18.05175C77.04782,1216.384,61.01475,1332.05691,9.69355,1391.07628Z"/><path class="cls-9" d="M3.934,1390.31938l-1.30549-1.36148c50.80531-69.545,57.87805-218.25718,58.83607-262.1792q.19842-9.06129.309-17.89915c.40642-33.82524-1.20064-64.71-2.75566-94.57382-2.2-42.29772-4.27941-82.24595-.35812-125.16035,2.80829-30.71073,10.21615-64.37393,18.0598-100.014,6.2746-28.51546,12.76512-58.00179,17.63354-88.95886,5.2354-33.2898,8.6005-65.14063,11.85659-95.94352,3.39809-32.19565,6.61089-62.60854,11.63219-91.37191,13.01-74.27391,36.31763-143.74109,67.399-200.89263,11.69609-21.50283,24.93956-44.5637,46.762-69.26216,19.26649-21.81556,45.88355-42.06882,71.62115-61.65386l5.21028-3.96608c16.93692-12.9089,34.7441-27.12812,50.21062-43.61615a229.86656,229.86656,0,0,0,55.1119-98.30028c9.02733-33.48874,11.2276-69.92234,6.19234-102.589-4.72266-30.63133-13.75967-56.95106-23.33006-84.81651-8.43153-24.5539-17.14964-49.94422-22.77495-78.807-8.56438-44.20247-9.33877-97.45406-2.24569-154.00442,7.58583-61.32011,24.50593-127.52427,48.93654-191.455C469.72766-703.854,551.78948-833.128,646.08422-931.1838L647.17-929.563c-94.05795,97.81414-175.91337,226.75787-224.57745,353.77-24.34838,63.71383-41.21031,129.68752-48.768,190.78238-7.06175,56.27155-6.29227,109.239,2.21912,153.1793,5.59522,28.7023,14.2885,54.01846,22.6945,78.49964,9.60348,27.96446,18.67264,54.37671,23.42663,85.21561,5.09113,33.02434,2.86669,69.85672-6.25813,103.71468a232.5583,232.5583,0,0,1-55.75606,99.466c-15.58245,16.61605-33.47848,30.90714-50.49448,43.87645l-5.21091,3.968c-25.64986,19.517-52.17521,39.69964-71.283,61.34-21.64489,24.49473-34.801,47.40515-46.42067,68.77363-30.93787,56.88074-54.137,126.04655-67.09706,200.01306C114.64289,541.70433,111.4351,572.07,108.039,604.2179c-3.25768,30.83878-6.62435,62.72548-11.87447,96.08349-4.883,31.04558-11.38,60.57414-17.664,89.13092-7.82514,35.54907-15.21291,69.12588-18.00607,99.66316-3.90142,42.71513-1.82625,82.57321.3692,124.77242,1.55414,29.90817,3.16552,60.83063,2.75469,94.74336q-.11471,8.85084-.30549,17.92831C62.34822,1170.66948,55.22279,1320.11177,3.934,1390.31938Z"/><path class="cls-9" d="M-1.79473,1389.50376l-1.72754-1.35439c26.38378-44.741,44.22024-133.12885,53.01648-262.72026l1.2068-17.78856c1.89511-28.19459,2.62133-53.80615,3.32458-78.57764,1.27761-45.10732,2.48627-87.71347,10.96249-132.77131,4.27254-22.71442,11.46013-47.41,19.06966-73.5624C94.05981,788.366,105.39508,749.41607,111.824,708.25651c7.09894-45.441,8.58988-87.13308,10.03114-127.452.76775-21.43055,1.49236-41.67558,3.04728-61.125,5.8488-72.2288,20.84-141.14058,43.34807-199.27969,8.223-21.234,17.54165-45.29922,37.354-72.048,18.682-25.244,47.73615-48.73936,76.35087-70.37015,17.71878-13.39306,36.04226-27.24371,52.354-42.89931C362.486,108.04462,383.48319,77.3987,396.724,43.99593c11.93526-30.11749,18.50862-63.652,18.50566-94.42692.00072-28.706-4.19845-53.73261-8.64472-80.23185-3.87169-23.05983-7.87132-46.90319-9.14046-74.21962-1.92142-42.791,3.50266-94.219,15.68739-148.72844,13.26919-59.96346,34.95947-124.97422,62.72256-188.002C530.971-666.38617,616.29388-798.35423,709.93708-903.67856l1.3728,1.84622C617.872-796.7416,532.74535-665.08021,477.75869-540.60591c-27.67117,62.82177-49.28687,127.61122-62.512,187.35807-12.12079,54.229-17.51963,105.35775-15.609,147.86283,1.25878,27.13183,5.24411,50.88816,9.10092,73.86077,4.46832,26.62461,8.6875,51.77264,8.68746,80.73507.00061,31.18622-6.6576,65.16241-18.74826,95.67224-13.4108,33.84269-34.66046,64.86516-63.15453,92.21079-16.43152,15.7659-34.81725,29.66436-52.59547,43.10568-28.452,21.50516-57.32118,44.84375-75.78359,69.78743-19.55053,26.39365-28.78279,50.2391-36.926,71.27576C147.8226,379.09754,132.91213,447.6746,127.088,519.58454c-1.5509,19.37377-2.27393,39.58292-3.03712,60.9785-1.44532,40.41481-2.94135,82.2062-10.073,127.847C107.5158,749.78133,96.14846,788.8462,86.11838,823.3099c-7.58634,26.0665-14.751,50.68858-18.99425,73.23431-8.42543,44.79948-9.62987,87.27759-10.90487,132.25223-.70251,24.79982-1.429,50.44395-3.33174,78.70478l-1.208,17.79235C42.85213,1255.41176,24.85916,1344.30853-1.79473,1389.50376Z"/><path class="cls-9" d="M-7.49757,1388.6027l-2.19967-1.18416c23.37338-52.28059,35.28913-157.7941,44.86409-242.57447l2.35785-20.78865q1.0297-8.98747,2.10608-17.68167c2.32164-18.76586,4.23081-36.16918,6.07631-53.0028,5.9092-53.82525,11.01081-100.31174,25.63819-149.997C76.398,886.206,83.31773,867.74344,90.647,848.196c14.54388-38.80329,31.02863-82.78468,38.64806-131.855,8.39031-54.06372,6.15881-103.85677,4.18948-147.78612-.6589-14.66549-1.2778-28.51993-1.506-41.99976-1.10658-69.85061,5.55744-138.18093,19.27715-197.61257l.33213-1.44343c5.21873-22.62534,10.61735-46.02269,27.60034-73.459,14.14829-22.88,38.97391-47.46678,75.89181-75.15962q5.66631-4.2491,11.27259-8.40672c15.26582-11.3521,29.68549-22.07245,43.24044-33.787,29.91933-25.85645,53.38543-54.09371,69.74309-83.9255a287.72859,287.72859,0,0,0,30.82475-86.34406c4.97524-27.61924,5.681-52.12964,6.43072-78.07737.60138-20.84777,1.22-42.40471,4.08471-67.18191,4.87176-41.505,16.49537-91.08217,33.61762-143.38062,19.06012-58.7184,45.51057-122.52477,76.4926-184.51724,60.8283-121.34543,149.39482-255.99333,242.99881-369.41868l1.66895,2.04218c-93.43383,113.2235-181.83541,247.61339-242.54062,368.714-30.89357,61.818-57.26694,125.43606-76.268,183.973-17.044,52.05429-28.60877,101.36693-33.45107,142.6107-2.842,24.61019-3.46069,46.08449-4.05969,66.85241-.75411,26.09556-1.46414,50.7439-6.49223,78.6498a291.71017,291.71017,0,0,1-31.245,87.54636c-16.5702,30.21277-40.2989,58.77678-70.52616,84.89978-13.64129,11.78887-28.10312,22.54254-43.41092,33.92844q-5.60156,4.16238-11.26373,8.39911c-36.58728,27.4436-61.13634,51.722-75.05063,74.2218-16.64348,26.891-21.96372,49.96121-27.11156,72.2732l-.33523,1.44289c-13.64624,59.13107-20.27875,127.14048-19.177,196.68671.22836,13.4274.84634,27.253,1.50334,41.894,1.97565,44.10484,4.21673,94.09464-4.23213,148.53542-7.679,49.47188-24.24292,93.6591-38.855,132.64308-7.301,19.47556-14.19464,37.87338-19.20813,54.90426C59.20317,953.40715,54.12026,999.73,48.23036,1053.36733c-1.847,16.84926-3.76069,34.26733-6.08462,53.06059q-1.08177,8.67517-2.10048,17.6433l-2.35559,20.78108C28.08482,1229.90613,16.12853,1335.75843-7.49757,1388.6027Z"/><path class="cls-9" d="M-15.88667,1386.78782c11.05983-36.53245,19.02837-98.23952,27.46383-163.56805,4.40688-34.13365,8.965-69.43159,13.986-100.5637q1.44021-8.958,3.01147-17.58529l.09088-.49274c14.59193-80.59166,24.23427-133.83429,49.07272-194.17518,5.2713-12.80738,11.65984-26.3847,18.42378-40.75868,19.6666-41.80162,41.95694-89.18061,50.60012-145.21625,9.40835-60.99028,2.24293-114.98288-4.07827-162.61475-1.30946-9.857-2.54516-19.16746-3.61023-28.34031-7.71581-66.96234-9.37271-134.70185-4.79236-195.8884l.21912-2.95917c1.6653-22.5709,3.38557-45.91211,18.25888-74.85617,16.37242-31.87769,50.06558-61.09239,75.44483-79.98836,8.10018-6.03186,16.2244-11.85261,24.07754-17.48434,11.4-8.16963,22.16416-15.885,32.61063-24.0146,32.53652-25.31673,57.76463-50.43775,77.12388-76.79927a347.12456,347.12456,0,0,0,43.165-78.35139c11.18571-28.41265,17.60538-54.27441,24.40335-81.65672,4.20682-16.95146,8.559-34.47977,14.3907-54.39068,11.98265-40.601,29.79555-88.305,51.51349-137.96235a2018.65938,2018.65938,0,0,1,90.24121-181.00513c65.95287-117.40383,155.40675-251.2022,251.89318-376.74207l1.98572,2.21224C743.24532-721.02557,653.905-587.41049,588.05268-470.17907a2014.97022,2014.97022,0,0,0-90.04617,180.60885c-21.64445,49.4903-39.38913,97.01354-51.31831,137.431-5.80522,19.8141-10.14322,37.29634-14.343,54.20368-6.83371,27.53043-13.28763,53.53332-24.58082,82.2237a351.5231,351.5231,0,0,1-43.70844,79.33443c-19.57433,26.65659-45.03711,52.0241-77.84591,77.55387-10.49987,8.16976-21.29241,15.90455-32.71743,24.09294-7.8437,5.62223-15.953,11.4356-24.02827,17.44907-25.0612,18.65691-58.29737,47.441-74.30338,78.6118-14.45789,28.1316-16.14465,51.01079-17.776,73.14046l-.21912,2.95917c-4.56173,60.92988-2.90934,128.39361,4.77565,195.10433,1.06339,9.136,2.29691,18.43332,3.6022,28.27338,6.35684,47.90894,13.56452,102.20916,4.06149,163.80755-8.74339,56.683-31.18109,104.37618-50.97675,146.45261-6.73953,14.32527-13.10355,27.85352-18.333,40.55641-24.6573,59.89654-34.26476,112.95237-48.80733,193.26043l-.08816.49358q-1.56786,8.57975-2.997,17.49675c-5.01057,31.06671-9.56567,66.32508-13.96945,100.42745-8.45919,65.51918-16.4495,127.401-27.61884,164.29935Z"/><path class="cls-9" d="M-22.06353,1386.27005c3.09768-19.8109,6.12566-47.407,9.63221-79.35567,6.28367-57.24866,14.105-128.49655,26.04375-185.68283,1.26072-6.04908,2.57941-11.9349,3.92208-17.49475,19.85014-82.83016,37.91038-133.33706,66.64137-186.34791,4.88928-9.01809,10.33908-18.421,16.10873-28.37932,24.20537-41.77066,54.3293-93.75638,63.94952-156.50142,10.268-66.96466-2.65039-123.95185-14.04923-174.22906-1.37581-6.08068-2.72443-12.03152-3.99825-17.85483a1478.48316,1478.48316,0,0,1-28.83341-194.13069l-.26726-3.23011c-1.88625-22.89563-3.83758-46.57368,9.24555-77.529,15.70906-37.20227,53.73188-69.13212,75.0002-84.8544,12.669-9.36981,25.34293-17.94885,37.59938-26.245,7.2203-4.88773,14.33244-9.70209,21.27429-14.56216,35.74932-25.0279,63.40555-47.82471,84.549-69.6933A463.60237,463.60237,0,0,0,400.32427-.22372c22.34685-34.35565,36.95064-64.60733,55.43862-102.90492,3.67825-7.62282,7.51217-15.56682,11.59568-23.92877,20.90932-42.60573,44.24377-87.18412,69.359-132.505,32.58884-59.18011,67.57237-118.89592,103.97306-177.48C706.794-543.125,792.09012-668.74369,901.45369-821.079l2.316,2.35836C794.46643-666.46792,709.22778-540.93255,643.18109-434.94119c-36.35546,58.50912-71.29345,118.14966-103.846,177.2624-25.07814,45.25337-48.37463,89.75911-69.244,132.28664-4.07705,8.35153-7.90866,16.288-11.58516,23.90513-18.56552,38.4556-33.22928,68.83018-55.74189,103.44564a468.37248,468.37248,0,0,1-56.10842,71.08126c-21.32587,22.05842-49.1719,45.01715-85.128,70.189-6.9578,4.8717-14.08607,9.69721-21.32582,14.59509-12.22134,8.27636-24.86276,16.83149-37.47285,26.15453-20.91439,15.462-58.27894,46.80115-73.54983,82.97192-12.6041,29.819-10.7023,52.893-8.86248,75.20533l.26367,3.24057a1474.93056,1474.93056,0,0,0,28.74929,193.55649c1.27134,5.81015,2.61767,11.74831,3.994,17.81675,11.48583,50.66717,24.50456,108.093,14.096,175.95089-9.76306,63.68587-40.14992,116.12345-64.56549,158.25721-5.75384,9.92684-11.18555,19.30264-16.041,28.26254-28.50264,52.58885-46.4376,102.759-66.17615,185.12307-1.32667,5.50815-2.63559,11.34077-3.88723,17.34016-11.886,56.95207-19.692,128.06747-25.96542,185.21061-3.513,32.01116-6.5501,59.65693-9.66386,79.58355Z"/><path class="cls-9" d="M-28.20929,1385.83828c.471-57.40865,7.292-178.04692,29.87885-266.05653,1.545-6.02248,3.17151-11.87446,4.8344-17.40079C31.09534,1020.23737,56.93954,973.3611,90.663,924.34962c3.766-5.47682,7.7647-11.14081,11.90517-17.00753,30.52561-43.26258,68.514-97.09757,79.13594-166.74607,11.03515-72.37076-9.12171-134.1524-25.3151-183.79246l-3.06165-9.40328c-18.96392-58.8729-35.75762-119.99635-52.8498-192.36211l-.666-2.81129c-5.30313-22.303-11.31539-47.58831.08818-80.89153,10.16272-29.71006,37.3361-62.42522,74.55724-89.75877,17.55682-12.89777,35.12722-23.88307,52.11871-34.50534l8.96093-5.61407c37.7144-23.7216,67.79355-43.44165,92.00615-62.57708C356.51422,55.9845,379.11333,33.488,395.56493,16.44516c33.48572-34.688,59.30444-66.57645,95.25941-117.65437,24.03824-34.01156,52.17894-75.49492,84.76571-123.53l25.64467-38.02918c28.39559-42.15794,60.58085-89.94122,94.42623-139.44377,32.63634-47.60583,66.49746-96.351,102.34477-147.95834,55.92979-80.51866,113.76666-163.77675,167.27275-243.3532l2.65916,2.48363C914.40629-711.433,856.56015-628.15555,800.61957-547.62191c-35.845,51.59975-69.70081,100.33833-102.32593,147.92778-33.83106,49.48669-66.01318,97.2606-94.40326,139.41033l-25.65572,38.044c-32.59968,48.05719-60.75323,89.561-84.81828,123.60893C457.2991-47.32476,431.35127-15.276,397.6712,19.61015c-16.5495,17.14413-39.29007,39.7811-68.47159,62.84189-24.35618,19.25082-54.53981,39.04166-92.36523,62.83411l-8.97188,5.619c-16.92828,10.583-34.43223,21.528-51.86561,34.33476-36.44879,26.76589-62.98385,58.58337-72.80128,87.29372-10.89489,31.81322-5.3169,55.28205.07772,77.98048l.66911,2.81266c17.06652,72.2525,33.83014,133.26588,52.7567,192.02275l3.05631,9.38924c16.35013,50.12418,36.70047,112.49792,25.47845,186.08649-10.81749,70.94836-49.21736,125.36684-80.07339,169.09319-4.12884,5.85005-8.11294,11.49828-11.87056,16.95742-33.4291,48.58127-59.04352,95.0521-83.428,176.501-1.64015,5.45233-3.248,11.23316-4.7733,17.18072-22.45339,87.494-29.234,207.57566-29.70293,264.73907Z"/><path class="cls-9" d="M-34.29551,1385.46117c-7.64661-53.88632-3.54936-176.70493,24.03365-267.14637,1.813-5.95213,3.74915-11.77754,5.75435-17.31977,29.1063-80.77241,64.71462-126.36379,101.6974-169.70057l5.16373-6.04033C138.27628,883.30692,187.47191,825.85347,199.175,748.68c11.74156-77.44387-15.66925-140.9664-37.69123-192.00979l-.98672-2.28463c-26.35907-61.29478-49.01759-119.33346-69.005-170.53889l-8.64216-22.11858c-8.95341-22.8353-19.10428-48.71834-9.37439-84.56562,8.5887-31.69869,36.29358-67.09563,74.10614-94.68753,20.84853-15.21573,41.83686-27.33555,63.29586-39.43431,15.61942-8.80788,30.17853-16.74154,44.25965-24.41421,19.92359-10.85936,38.7454-21.11468,55.22869-31.02532,31.11983-18.70813,58.14473-38.01085,80.47738-54.423C432.14856,2.82173,468.95772-27.24961,514.34-75.33577c29.57859-31.23767,63.90289-71.02514,104.932-121.64148,36.99473-45.85919,79.96868-101.60406,131.37453-170.412,114.97-153.5118,206.05168-283.88227,278.45322-398.56825l3.00886,2.587c-72.48516,114.814-163.65248,245.30734-278.71242,398.937-51.44494,68.86208-94.45764,124.65992-131.49927,170.57949-41.12413,50.72847-75.53368,90.61867-105.20569,121.95244C471.05111-23.54558,434.04986,6.6845,392.53462,37.1962c-22.41515,16.474-49.54527,35.851-80.82115,54.65254-16.56087,9.9554-35.418,20.23251-55.386,31.11252-14.06614,7.66488-28.61039,15.59277-44.20285,24.385-21.34349,12.03342-42.2116,24.08316-62.86634,39.15471-36.865,26.89833-63.80108,61.13933-72.05391,91.58913-9.22721,34.0046.16456,57.95932,9.24818,81.12555l8.644,22.12288c19.976,51.1697,42.61762,109.171,68.947,170.39588l.984,2.2838c22.27821,51.62668,50.00285,115.87911,38.022,194.90816-11.96444,78.89318-61.78954,137.08091-98.17129,179.5693L99.721,934.52593C63.09472,977.44747,27.8369,1022.58166-.9283,1102.40969c-1.97165,5.44344-3.87425,11.17009-5.65552,17.01914-27.3283,89.61143-31.39464,211.25357-23.82129,264.61283Z"/><path class="cls-9" d="M-40.32247,1385.09856c-16.48138-56.06419-13.08112-180.02962,18.14309-268.27453,2.09909-5.94107,4.34793-11.739,6.67757-17.22949,33.34658-78.92115,77.01642-120.82471,119.25262-161.35263,37.39942-35.88428,99.98992-95.9406,112.89122-181.47494,12.39935-82.21332-23.06234-147.62863-48.95673-195.39488-17.756-32.8282-34.52014-64.50451-50.73207-95.14294-17.53233-33.131-34.0927-64.42565-50.09222-93.736l-.5767-1.05284c-12.77119-23.379-27.24813-49.88141-19.2286-88.4332,7.0768-34.07608,34.6126-71.32459,73.65168-99.63716,22.79174-16.52941,45.91342-28.86357,65.52485-38.74941,27.59842-13.91278,53.63-25.11853,76.59431-35.00513,10.66965-4.59274,20.74583-8.92982,30.38052-13.2695,34.30684-15.447,64.93481-31.41489,92.9196-46.36888,53.28482-28.46719,99.48062-56.26341,151.74975-99.39456,36.82469-30.29674,78.10871-69.41432,122.71472-116.26832,44.33964-46.7842,93.14444-102.935,145.05059-166.89164,78.19813-96.1418,191.514-244.58093,287.27869-405.80207l3.36584,2.66854C1000.326-574.16456,886.81308-425.46723,808.48733-329.16877,756.4892-265.099,707.58564-208.83357,663.139-161.93885,618.37679-114.9188,576.92872-75.65,539.94154-45.21763,487.357-1.82635,440.92619,26.11377,387.39324,54.71629c-28.05663,14.9906-58.7637,30.99865-93.1888,46.49981-9.668,4.35382-19.762,8.69783-30.44689,13.29787-22.90922,9.863-48.87523,21.041-76.35592,34.89284-19.44628,9.80311-42.36211,22.027-64.87584,38.35543-37.89651,27.4814-64.55422,63.32117-71.31662,95.86739-7.56482,36.36709,6.41328,61.9575,18.74683,84.53594l.57555,1.05661c16.017,29.336,32.58368,60.64084,50.12161,93.78551,16.20813,30.62942,32.966,62.29554,50.71167,95.10444,26.24843,48.416,62.19633,114.72282,49.49639,198.91819-13.23378,87.7442-76.77884,148.71385-114.74356,185.143-41.79786,40.106-85.02151,81.58136-117.85715,159.29543-2.27654,5.36959-4.4731,11.03856-6.52953,16.85141-29.92524,84.57621-34.17973,209.3767-17.989,264.45983Z"/><path class="cls-9" d="M-46.29973,1384.71856c-23.954-53.461-23.81825-180.03164,12.21291-269.39833,2.39076-5.92789,4.94892-11.69567,7.60332-17.14709C8.82073,1025.54,54.6349,989.2871,103.14248,950.904l7.19323-5.69938c51.11651-40.55966,111.37686-97.71207,123.77707-180.35323,11.976-79.78923-24.28994-143.2603-59.22475-196.4879l-14.409-22.01408c-38.68308-59.11288-75.22434-114.9486-110.38851-165.16357C33.35737,357.29557,14.39422,330.218,20.648,288.86333c6.46735-42.87878,42.04753-82.14689,73.18766-104.59594,19.17047-13.82263,40.705-25.918,67.7645-38.06743,34.3542-15.42625,67.0505-25.87961,95.89839-35.10261,6.32781-2.02432,12.52068-4.00167,18.56418-5.98028,39.94641-13.06826,75.66718-26.68822,105.341-38.28847,55.17121-21.57424,115.16965-47.44177,180.01841-90.28493C605.502-52.5122,652.774-89.83451,701.9213-134.389c50.63263-46.06545,104.03608-101.035,158.72686-163.38151C942.131-390.48351,1059.644-537.39712,1156.73493-710.791l3.72819,2.73153C1063.08056-534.152,945.25961-386.84695,863.56735-293.89741c-54.83777,62.51535-108.40386,117.65067-159.20468,163.87023C654.99944-85.27667,607.50208-47.7794,563.19143-18.57252c-65.23279,43.09872-125.50772,69.08914-180.92451,90.759-29.73407,11.62017-65.527,25.26836-105.58,38.37249-6.05056,1.98058-12.25071,3.96148-18.5893,5.98909-28.73484,9.18667-61.30429,19.60048-95.426,34.9209-26.74942,12.01039-48.002,23.94406-66.8819,37.55555-30.09059,21.69384-64.43353,59.38919-70.57921,100.123C19.3355,328.00736,37.64,354.14406,53.7883,377.205,88.9951,427.47727,125.55273,483.3424,164.257,542.49029l14.40835,22.00561c35.48853,54.07545,72.318,118.63166,60.01151,200.63592-12.76431,85.06733-74.14191,143.38185-126.18846,184.681l-7.20139,5.70472c-47.9394,37.93211-93.22,73.7638-127.85477,145.025-2.58363,5.30375-5.07136,10.91548-7.39882,16.68927-35.4073,87.81124-35.63544,211.96045-12.1856,264.298Z"/><path class="cls-9" d="M-52.24551,1384.30816c-34.7828-57.56361-31.7958-186.49825,6.2659-270.50746,2.66256-5.88075,5.53341-11.621,8.53756-17.0617,37.76578-68.56395,86.84432-100.52488,138.80291-134.365,5.18878-3.37762,10.385-6.7604,15.58065-10.19212C197.46743,899.00852,241.51023,840.3755,251.58163,772.943c11.85856-79.39762-26.381-141.88916-69.472-197.59892C137.87457,518.08065,85.60634,451.2583,33.32922,389.84859c-19.38283-22.606-43.51231-50.74618-39.0847-95.11123,2.97665-29.904,23.648-74.39489,72.724-109.57692,20.347-14.58718,42.59034-26.46476,70.00509-37.379,38.7068-15.41034,76.40675-23.76547,109.66991-31.13717l12.27089-2.73294c35.76046-8.037,72.07561-17.35031,117.74667-30.19884C437.325,66.38266,509.5241,43.18634,584.96065,2.539c51.22972-27.55484,104.4921-63.091,158.30481-105.62474C799.85989-147.94493,857.864-201.73889,915.662-262.96739c122.73056-129.80788,228.15823-275.12024,304.88524-420.228l4.09594,2.77593C1147.60906-534.73625,1041.79506-388.881,918.64025-258.62411c-58.00931,61.44993-116.2385,115.44953-173.066,160.497C691.49386-55.38468,637.95589-19.665,586.44413,8.04121,510.58825,48.91505,438.08022,72.21565,377.15868,89.61758c-45.76121,12.87373-82.14575,22.2062-117.98526,30.26108l-12.28387,2.73474c-33.09608,7.3346-70.605,15.6476-108.96019,30.91763C110.91707,164.2846,89.03,175.965,69.05061,190.28748,39.51386,211.4614,3.496,251.50329-.8024,294.66133c-4.14989,41.58918,19.1266,68.73709,37.8336,90.55029,52.34475,61.49082,104.655,128.362,148.92349,185.67249,43.863,56.70528,82.76568,120.46587,70.53787,202.34882C246.08689,842.8917,201.06321,903.144,118.8461,957.4321q-7.80971,5.15436-15.60878,10.21158c-51.2822,33.39831-99.71777,64.94357-136.64967,131.984-2.907,5.26883-5.68786,10.8306-8.26541,16.528-37.23488,82.17688-40.28729,208.08518-6.40618,264.1527Z"/><path class="cls-9" d="M-58.1733,1383.87106c-42.99965-56.39991-42.85171-185.85607.31407-271.602,2.96417-5.8893,6.1494-11.59705,9.471-16.9728,40.53414-65.69138,95.81855-95.27312,149.28633-123.88,7.56354-4.048,15.13005-8.095,22.65747-12.2425,59.13783-32.57875,132.38516-89.92958,145.49422-178.14765,12.3081-82.7864-33.387-146.90306-79.70737-198.70589C124.60607,509.859,68.09381,449.72689,16.57637,398.49416-5.04509,377.097-34.66492,347.79049-32.15135,300.61745-29.57893,252.248,8.374,208.673,40.09612,186.05975c21.21739-15.13255,44.85457-27.13683,72.26631-36.69616,41.45823-14.6335,83.002-20.30257,119.65521-25.30283l9.74542-1.33577c41.62428-5.75508,84.19176-12.98565,130.13183-22.10394C466.1496,81.65373,539.11952,59.42689,608.486,28.55676,666.85851,2.6194,726.11563-31.13512,784.62119-71.769c62.44444-43.4749,125.0461-96.09462,186.065-156.39791,129.08115-127.40281,237.54767-275.20334,313.67417-427.42467l4.46255,2.80387C1212.31689-499.80737,1103.35-351.30893,973.70162-223.344c-61.28707,60.56591-124.1759,113.42591-186.92328,157.11063C727.97218-25.3873,668.39552,8.54755,609.70291,34.62664c-69.72375,31.029-143.01479,53.35877-237.64242,72.40117-46.03571,9.13933-88.69015,16.38368-130.40348,22.14982l-9.7554,1.33642c-38.21051,5.21391-77.719,10.6042-118.71382,25.07556-26.93052,9.39024-50.10944,21.156-70.87348,35.96212-30.37986,21.66116-66.71663,63.1022-69.13607,108.61322-2.3526,44.1551,26.22587,72.43172,47.091,93.07991,51.58837,51.30288,108.16345,111.49888,172.964,184.032,47.23654,52.8269,93.80736,118.37879,81.072,204.05668-13.58833,91.42416-88.58851,150.35915-149.11544,183.70118-7.54659,4.15813-15.12923,8.21633-22.71486,12.27363C49.7565,1005.51567-4.75539,1034.68518-44.27226,1098.73209c-3.20376,5.17767-6.27258,10.68357-9.12965,16.35909-41.28142,82.00336-41.58978,210.31641-.63406,264.03Z"/><path class="cls-9" d="M-64.08694,1383.39739c-50.34652-54.5569-53.08541-187.0712-5.63835-272.67228,3.25458-5.872,6.75529-11.55179,10.40963-16.88151,43.48293-63.51835,102.98538-89.57257,160.52872-114.768,9.52971-4.174,19.38236-8.4872,28.9569-12.89C182.32537,942.21238,271.98606,887.33,286.5225,789.11485c12.69555-85.80707-38.34081-149.16367-89.942-199.825C126.50982,520.45193,62.15007,460.86234-.17371,407.12032c-23.45653-20.1651-58.91066-50.63911-58.365-100.61975.345-31.9073,19.347-82.36285,71.76171-119.54961,22.05411-15.64033,46.42932-27.41783,74.528-36.00326,43.84154-13.52019,87.029-16.24656,128.79544-18.8827l8.06422-.51225c47.164-3.03013,95.1092-7.7426,142.51006-14.007,101.44532-13.57187,185.61477-33.576,264.88761-62.95187C697.58289,30.3186,762.84272-1.658,825.9786-40.44766c68.22222-41.98015,135.42631-93.42991,199.73867-152.92079,135.6564-125.37625,247.15792-275.66439,322.45128-434.61426l4.83859,2.82231c-75.74511,159.90285-187.86923,311.04677-324.25,437.09426-64.64,59.79187-132.19077,111.51031-200.78085,153.71463C764.50389,4.643,698.8992,36.7901,632.97618,61.19462c-79.64625,29.51523-164.1674,49.60722-265.99448,63.2312-47.50974,6.27727-95.56618,11.00017-142.83432,14.03841l-8.07075.5123c-41.48087,2.61727-84.37285,5.32534-127.64883,18.67013-27.513,8.408-51.34212,19.90944-72.85261,35.168-49.98626,35.46306-68.1,82.95556-68.42489,112.85122-.47176,43.1673,26.39019,69.86729,56.35831,95.62872C65.919,455.1079,130.35233,514.76846,200.49848,583.682c22.04559,21.64069,49.83578,51.07512,69.23114,86.86864,21.132,39.00282,28.45426,77.89048,22.38716,118.88684C277.00785,891.5446,185.0204,948.036,131.531,972.625c-9.62133,4.42023-19.49984,8.74573-29.05163,12.929C45.77709,1010.38228-12.85521,1036.05841-55.147,1097.832c-3.50606,5.11742-6.86709,10.56949-9.99237,16.20723-45.98869,82.96608-43.48942,211.22983,5.13969,263.92346Z"/><path class="cls-9" d="M-69.99961,1382.90046c-58.51846-53.91245-64.14675-186.93936-11.58127-273.72354a199.79114,199.79114,0,0,1,11.35169-16.79c46.54289-61.7591,110.419-84.49213,172.18856-106.47614,11.48262-4.09046,23.35633-8.3153,34.82737-12.69982,138.90568-53.11227,163.09742-148.147,167.20692-176.012,13.14315-89.22042-46.6266-154.256-100.16573-200.94866C129.4423,531.35274,55.17045,470.61832-16.92638,415.7337c-33.657-25.58744-66.63653-54.64322-67.99209-103.344-1.40329-50.29312,34.78555-98.78923,71.273-124.54241,22.82083-16.10683,47.94032-27.65563,76.79076-35.31378,45.37838-12.10374,91.25013-12.1185,135.61444-12.13282l8.685-.00662c51.6276.06083,103.73618-1.93018,154.88967-5.9155,107.75-8.471,203.65442-26.07969,293.189-53.83425A1158.31386,1158.31386,0,0,0,867.34222-9.11447C941.31771-49.5508,1013.12192-99.835,1080.755-158.57c142.36621-123.58271,256.90156-276.35276,331.22181-441.79429l5.2134,2.82466c-74.84257,166.60267-190.12479,320.396-333.385,444.7557C1015.79024-93.71669,943.5764-43.1447,869.17308-2.47619A1164.32352,1164.32352,0,0,1,656.25351,87.74939C566.335,115.62565,470.05515,133.30705,361.911,141.80813c-51.2837,3.99573-103.52461,5.99235-155.27283,5.93083l-8.685.00662c-44.0393.01335-89.57415.02874-134.29147,11.95791-28.16427,7.47393-52.63976,18.71814-74.82717,34.37785-34.65047,24.45354-69.02537,70.14126-67.71424,117.08081,1.26693,45.54206,33.11424,73.47886,65.62724,98.19453,72.1859,54.9562,146.544,115.76175,221.01487,180.73383,54.761,47.75823,115.86554,114.49484,102.16982,207.448-6.42273,43.58258-28.04214,82.91967-64.25314,116.91329-36.43665,34.19908-78.73678,54.6273-107.807,65.74276-11.53559,4.40932-23.44239,8.64838-34.95543,12.74561C42.06491,1014.59668-20.85566,1036.994-66.03663,1096.9397a192.1263,192.1263,0,0,0-10.85255,16.05573c-50.71188,83.72186-45.40018,211.94191,10.93045,263.83457Z"/><path class="cls-9" d="M-75.9133,1382.3867c-34.38159-27.50516-54.7049-76.96543-55.75529-135.70521-1.05362-58.74078,17.36524-115.50577,50.53467-155.74893,49.684-60.28525,118.03578-79.831,184.13783-98.73211,13.341-3.8145,27.13851-7.75855,40.40475-11.951,117.8133-37.23674,169.22383-114.7959,178.05058-174.9599,13.65938-93.07343-56.4517-159.90594-110.379-202.08521-79.595-62.249-161.94388-122.43046-244.75857-178.86905-16.54648-11.279-35.4586-24.76538-50.46551-42.15277-16.77373-19.43154-25.65236-40.33516-27.14591-63.9089C-114.642,265.4928-78.15793,215.187-40.51266,188.74037c69.25871-48.65518,147.36817-44.22678,222.90709-39.94194l7.88817.44442c276.41171,15.42418,511.409-26.124,718.42109-127.01819,251.36782-122.51521,458.06128-339.37154,567.08046-594.9663l5.59138,2.81559C1371.52476-312.37934,1163.39867-93.93549,910.36373,29.389c-207.94152,101.35161-443.857,143.09325-721.2191,127.61508l-7.89446-.44429c-74.57943-4.22969-151.69811-8.602-219.15493,38.78491-35.60157,25.01255-70.13251,72.22218-67.01637,121.31018,3.04289,47.9601,38.672,76.08288,74.90985,100.77653C52.895,473.93449,135.334,534.18416,215.02131,596.50572c115.31249,90.189,119.55957,162.55006,112.7236,209.1334-14.0773,95.9554-104.03589,156.99259-183.53115,182.11364-13.34479,4.22036-27.18119,8.17726-40.55981,12-65.10962,18.62089-132.4356,37.87277-180.59245,96.30285-31.73524,38.50447-49.35649,92.96408-48.345,149.42,1.01416,56.45671,20.45985,103.92828,53.35906,130.24364Z"/></g></g></g></g><path class="cls-10" d="M0,136.46834H8.6235q5.39546,0,7.3357,2.45394,1.93772,2.455,1.99251,8.28471v1.03044a22.12729,22.12729,0,0,1-.78615,6.61691,5.81285,5.81285,0,0,1-2.81987,3.49846q4.39267,1.78993,4.39317,11.47152v1.00329q-.08142,7.15977-2.16944,10.26415-2.08853,3.10489-7.24121,3.10438H0Zm12.39339,10.82008v-.16286q0-4.77267-1.65473-5.64076a5.13608,5.13608,0,0,0-2.35945-.43328H5.61362v15.349H8.78636a3.88948,3.88948,0,0,0,2.31823-.52879,3.38026,3.38026,0,0,0,.99022-2.10209,31.1287,31.1287,0,0,0,.29858-5.15219ZM13.0981,169.01a18.95168,18.95168,0,0,0-.759-6.454,2.92058,2.92058,0,0,0-2.98374-1.84373H5.61362v18.956H9.05779a3.17252,3.17252,0,0,0,3.21295-1.87187q.82636-1.86987.82736-7.13163Z"/><path class="cls-10" d="M44.14892,136.46834h6.75163l7.89163,47.7278h-5.2879l-1.35615-9.11107H43.49749l-1.24758,9.11107H36.90772Zm-.02714,34.0607h7.32163L47.67352,145.309h-.08143Z"/><path class="cls-10" d="M78.23677,136.46834H92.9886v4.2846l-9.84394,38.77859h9.62679v4.66461H77.341v-4.8536L87.185,141.133H78.23677Z"/><path class="cls-10" d="M112.45932,136.46834h14.37283v4.69074H118.0458v15.07856h8.24449v4.746H118.0458v23.21246h-5.58648Z"/><path class="cls-10" d="M146.35716,136.46834h14.26426V141.133h-8.65064v16.32513H160.161v4.6636h-8.19021v17.40985H160.73v4.66461H146.35716Z"/><path class="cls-10" d="M192.378,136.46834h5.04361l-6.61691,24.48719,6.83406,23.24061H192.758l-4.85461-16.487-4.28461,16.487h-5.125l6.83305-25.27334-6.61691-22.45446h4.9089l4.66461,15.89184Z"/><rect class="cls-11" x="-0.22369" y="121.52431" width="198.0861" height="3.20711"/><rect class="cls-12" x="55.33852" y="3.39845" width="91.58239" height="91.58239" rx="8.55062"/><path class="cls-9" d="M99.98594,32.24075a10.001,10.001,0,0,1,14.08993-14.19694,2.87335,2.87335,0,0,1-4.04813,4.07888,4.25429,4.25429,0,0,0-5.99367,6.03918,2.87335,2.87335,0,1,1-4.04813,4.07888Z"/><path class="cls-9" d="M77.51863,54.83465A10.00157,10.00157,0,0,1,91.60938,40.63688a2.87336,2.87336,0,0,1-4.04814,4.07888,4.25486,4.25486,0,0,0-5.99447,6.04,2.87336,2.87336,0,0,1-4.04814,4.07888Z"/><path class="cls-9" d="M98.7367,77.71786a3.44768,3.44768,0,1,1,2.60986-6.38236c7.70261,3.14775,16.79374,1.03281,23.16389-5.38572a21.56354,21.56354,0,0,0,5.12118-23.12561,3.44732,3.44732,0,1,1,6.40017-2.564,28.45414,28.45414,0,0,1-6.62833,30.54733C121.06432,79.21005,109.02775,81.92372,98.7367,77.71786Z"/><path class="cls-13" d="M80.97215,100.39341S100.49193,43.39,155.798,4.91619L153.11049.53131S107.84722,25.00177,73.89976,85.4c0,0-14.00333-39.03957-29.98692-19.09544,0,0,12.02306.56579,24.329,42.85866Z"/><path class="cls-14" d="M78.9,99.8621S98.41982,42.85867,153.72588,4.38488L151.03838,0S105.7751,24.47046,71.82764,84.86864c0,0-14.00333-39.03957-29.98692-19.09544,0,0,12.02306.56579,24.329,42.85866Z"/></g></g></svg>