<svg id="Layer_1" data-name="Layer 1" xmlns="http://www.w3.org/2000/svg" viewBox="0 0 39.37189 79.04659"><defs><style>.cls-1{fill:#3f1011;}.cls-1,.cls-2,.cls-3,.cls-4{fill-rule:evenodd;}.cls-2{fill:#e95539;}.cls-3{fill:#fff;}.cls-4{fill:#9aae20;}</style></defs><title>ima</title><path class="cls-1" d="M30.746,79.04659c.72176-.62494-.74625-1.92162-1.3386-1.92508C28.92462,77.45272,29.92041,79.05005,30.746,79.04659Z"/><path class="cls-1" d="M21.286,30.26061a43.22126,43.22126,0,0,1,3.17746,4.14174,35.07775,35.07775,0,0,1,1.95887,5.191c1.791,5.13048,3.45137,11.041,3.56217,15.965.12238,5.338-1.088,10.423-.40584,15.66655.077.59126.4653,1.27686.53407,1.97988.049.48859-.17957.99938-.06291,1.454A5.34074,5.34074,0,0,0,33.06743,77.602c1.749-1.46921,1.85512-3.47942,2.45092-5.56545C36.89192,67.22089,38.68064,61.90271,38.824,57.55c.03034-.91293-.2111-1.95887-.18184-2.7296.09325-2.40088.576-4.69551.66338-6.97747.27987-7.21413-1.77464-13.50243-3.15525-20.75035C34.50858,18.47814,29.88077,7.55952,18.40719,1.59073c-.71473.54578-1.47149.44429-2.18395,1.11472-1.19172-.94207-2.2982-.62852-3.36862.22387A9.55033,9.55033,0,0,0,1.91976.91792,5.7377,5.7377,0,0,0,.06811,2.1703C-.30382,3.0972.94964,3.896,1.36,4.66324a11.70553,11.70553,0,0,1,4.25947-.204C7.18433,5.75229,8.67444,5.93533,10.244,7.296c-1.03782,2.55706-1.355,5.87553,1.31519,7.65136a5.66108,5.66108,0,0,0,1.95779,2.77282A76.34724,76.34724,0,0,0,21.286,30.26061Z"/><path class="cls-2" d="M32.31652,73.62226c-.51306-6.01069-.35676-12.07046-.47926-18.10576a42.16022,42.16022,0,0,0-1.48785-9.01216C29.644,43.559,29.047,40.39442,27.18019,37.68811c-.43259-.38005.22626-.33229.03392-.7275-1.56713-4.65122-5.67734-9.13455-8.24957-13.72046a19.61183,19.61183,0,0,1,4.47283,5.4254c1.15662,2.01953,2.57916,3.77088,3.68336,5.64A36.276,36.276,0,0,1,31.505,45.70329c.58649-.48966.07236-1.29537-.04191-1.85392a35.00529,35.00529,0,0,0-1.44473-5.9467,56.02148,56.02148,0,0,0-5.0838-8.53051c-.59939-.90947-.93394-1.94956-1.47852-2.80422a31.50727,31.50727,0,0,0-3.48516-3.95869,28.25916,28.25916,0,0,1-2.84864-4.00168c-1.69416-2.68888-3.97612-4.9078-3.83845-8.0479C14.37865,9.4403,14.5138,8.38159,15.08059,7.296c3.42332.23211,6.50274,3.92251,8.67737,6.83873a64.18082,64.18082,0,0,1,4.93347,7.49042c.67509,1.22551,1.06337,2.536,1.70121,3.75571,2.57807,4.92416,3.30092,10.065,4.00287,15.29342,1.41668,10.57.72989,21.26221-.66457,31.16056C33.65272,72.37824,32.86922,73.09177,32.31652,73.62226Zm1.896-23.58489c-.04776-.36727.09206-1.12629-.39641-1.103.27976,1.72914.1865,3.91082.92,5.33919C34.63574,52.98857,34.3757,51.30373,34.21247,50.03737ZM33.528,38.55447c-.534-1.77117-.49779-3.68921-1.0155-5.57465-.238-.85932-.65419-1.72461-.89908-2.60016-.2542-.89789-.35557-1.85631-.66339-2.697-.386-1.04594-1.13226-2.03123-1.66156-3.11442-1.03077-2.12687-1.742-4.39475-3.32433-6.38741-.74744-.93991-1.615-2.30059-2.98737-2.46381,1.0518,2.16532,2.83108,3.6239,3.842,5.62946,1.00391,1.995,2.02072,3.86413,2.964,5.77058a41.73612,41.73612,0,0,1,1.99971,5.829c.62613,1.9332.88391,4.00168,1.52055,5.865C33.37871,38.72593,33.45333,38.6396,33.528,38.55447ZM21.2231,13.57858c-.576.44189-.0665.96307.39641,1.103C22.22236,14.284,21.70345,13.64616,21.2231,13.57858ZM19.98242,11.889c-.21217-.58768-.86517-.7287-1.3596-1.0389-.3859.24609-.55032.218-.76128.69491C17.98272,12.97692,20.49321,13.301,19.98242,11.889Z"/><path class="cls-3" d="M27.44024,10.09915c-.9374-.50136-1.69189-1.71291-2.50453-2.49175C25.97342,8.10171,26.553,9.32723,27.44024,10.09915Z"/><path class="cls-4" d="M12.01739,12.17467a1.5045,1.5045,0,0,1-.16907-2.56757A20.73849,20.73849,0,0,0,12.01739,12.17467Z"/><path class="cls-4" d="M11.24905,5.45606A11.106,11.106,0,0,0,4.3148,3.01565c-.43963-.01755-1.194.36023-1.39112-.30781-.10137-.32417.61455-.61217.92116-.71019,2.30525-.71939,5.21443.60165,7.84612,2.78452C11.35866,5.01882,11.52654,5.22168,11.24905,5.45606Z"/><path class="cls-2" d="M35.57208,61.95632c.12477-8.32526.70421-17.63592-1.11365-26.36583a42.69888,42.69888,0,0,0-2.35527-8.71127,84.84314,84.84314,0,0,0-7.47763-13.04537c-2.04641-3.00588-5.56428-7.01938-8.99928-8.02449a17.68358,17.68358,0,0,0,1.16486-1.85272c3.17268.86051,7.15108,4.21862,9.94252,7.64205,2.5536,3.12958,5.19461,6.81175,6.32329,10.21894.51772,1.56127.79054,3.34868,1.22087,4.99866.43019,1.65333.84068,3.29627,1.29429,4.91127a27.99464,27.99464,0,0,1,.90827,10.01715C35.96263,48.54142,36.46984,55.37072,35.57208,61.95632Z"/></svg>