<svg id="Layer_1" data-name="Layer 1" xmlns="http://www.w3.org/2000/svg" viewBox="0 0 96 57.13966"><defs><style>.cls-1{fill:#3f1011;}.cls-1,.cls-2,.cls-3,.cls-4{fill-rule:evenodd;}.cls-2{fill:#fff;}.cls-3{fill:#9aae20;}.cls-4{fill:#e95539;}</style></defs><title>ima</title><path class="cls-1" d="M2.32153,49.749c.03129.38667.32425.45692.251.96829C.99945,51.73222.23551,49.01318,2.32153,49.749Z"/><path class="cls-1" d="M24.42351,53.85416a40.58269,40.58269,0,0,1,7.13919.67517C29.69332,55.84679,25.37616,56.14454,24.42351,53.85416Z"/><path class="cls-1" d="M65.22065,18.73842c.1761-1.95191,2.91861-4.56654,5.39291-4.10659C70.10219,17.078,67.27235,17.58158,65.22065,18.73842Z"/><path class="cls-1" d="M95.78853,1.66773c.10122,2.56322-2.01447,4.484-3.37856,6.39392-1.42664,2.00508-2.81276,4.1192-4.219,6.14295-2.7893,4.01622-5.2074,8.55642-8.45825,12.12051-.65791.71875-1.506,1.25343-2.125,2.00348-2.10023,2.54279-3.56568,5.43649-5.54426,7.90456a54.27175,54.27175,0,0,1-6.97075,6.71818c-.7063.6252-1.23794,1.93339-2.46344,1.86937-.79826-1.00868,2.13759-2.33077,1.263-2.4181a42.98845,42.98845,0,0,1-20.19988,9.7179C36.5876,53.282,28.11693,55.50369,24.63234,50.70789c-.96972.04678-1.2488.66894-2.42129.54729-1.31123-.48024-1.73988-2.019-2.87646-2.70659a16.00906,16.00906,0,0,1-5.98233,1.199c-4.56815.148-10.0064.23692-12.79553-1.32065.49253-2.08921.56581-5.12628,2.82505-5.19334.56437-.01564.94946.6252,1.55757.84808,3.748,1.369,9.90341.5037,13.39118-1.20506-.04374-3.13542,1.43113-6.35194,4.39972-5.9932,2.4026-3.491,5.58944-6.98959,10.50369-7.69429.725-.10442,1.53891.07024,2.30123-.042,2.39479-.34469,5.29951-1.567,8.18379-2.38234,2.82362-.79682,5.725-1.75873,8.5221-2.24679,1.63708-.28673,3.42375-.09978,4.73657-.42707,1.32831-.33208,3.08545-1.634,4.55728-2.38712,1.57467-.8029,3.19609-1.69152,4.56192-2.38537,3.34743-1.70094,5.48805-4.19871,8.39261-5.52861,1.89588-2.69574,4.85664-4.50269,6.40495-7.49154,4.15032-2.10167,5.92774-7.86257,12.47429-5.895.48343.206.45693,1.02752.93556,1.23172C94.78448,1.46976,95.57653.82588,95.78853,1.66773Z"/><path class="cls-2" d="M2.58975,47.256c.21984-.01868.43808-.03736.65331-.056-.04376-.49268-.08735-.98234-.13109-1.47343A2.51031,2.51031,0,0,0,2.58975,47.256Z"/><path class="cls-3" d="M3.76367,45.67053c.05.54569.09978,1.08819.14816,1.63069,3.65462.22607,8.14164.81088,11.80407-.56437C11.369,46.81173,7.136,46.75872,3.76367,45.67053Z"/><path class="cls-3" d="M21.24132,44.09731c.65793-.20259,1.31282-.41477,1.91455-.66415q-.05364-.57308-.10282-1.14439a1.40621,1.40621,0,0,1-.99479-.07488q-.14034-1.55277-.27748-3.10412C20.97789,40.25256,21.4768,42.48211,21.24132,44.09731Z"/><path class="cls-3" d="M22.34675,49.10051c.10282.40855,1.95511.14959,2.11109-.35395C23.65175,48.78088,23.24639,49.14569,22.34675,49.10051Z"/><path class="cls-4" d="M26.678,38.66849c6.4407-5.89964,18.93383-8.05431,28.75151-11.63867-5.78437,1.3283-13.14484,3.4081-19.63072,5.05619-4.94093,1.25822-8.229,2.1063-10.53021,5.55815a9.861,9.861,0,0,0-1.18957,3.2352c1.7383-1.35338,3.68415-3.0449,6.47487-3.05272,4.53078-2.17351,9.55585-3.19145,14.43276-4.26113,10.12165-2.22013,19.18481-5.36321,26.91008-10.15757a59.781,59.781,0,0,0,10.34165-7.67849c1.6837-1.68865,2.93106-4.12862,4.381-6.157,1.44374-2.01433,3.176-3.84635,3.89937-6.11325-2.46649-.74207-4.00538,1.16466-5.83739,2.82984-3.47355,3.15553-6.13975,7.66923-9.40913,10.72354-5.1389,4.802-10.98857,7.5008-17.64608,10.64085-.60333.17929-.79826-.12788-1.31889-.04359-9.49181,3.957-22.08793,5.32266-29.464,11.04317C26.787,38.65923,26.734,38.66386,26.678,38.66849Z"/><path class="cls-4" d="M24.26913,43.0013c3.73092,6.49052,15.77511,3.56408,23.12935.88559,6.98943-2.54917,12.62724-5.0281,18.29618-8.89169,2.86082-1.95031,5.87155-3.80883,7.56322-5.619,2.69717-2.88588,4.50109-7.69733,6.8226-10.16077A70.71309,70.71309,0,0,1,56.80616,31.35c-4.47937,1.36583-9.62912,2.58973-14.65562,3.62348C34.69636,36.503,28.23075,38.61868,24.26913,43.0013Z"/><path class="cls-4" d="M26.50953,45.92773c-1.63388,1.15844.39131,3.603,1.5076,3.9819,1.92238.64547,7.45578.24171,9.71023-.05141,3.0433-.39594,6.29558-1.47487,9.3547-2.15787A27.51525,27.51525,0,0,0,55.54475,44.799a66.26833,66.26833,0,0,0,6.50776-4.53557c2.77205-2.12817,5.7344-3.65908,7.68024-6.12571a78.518,78.518,0,0,1-14.09444,8.01855c-6.20985,2.61-12.73948,5.736-20.538,5.9635a17.94225,17.94225,0,0,1-8.51906-1.37509C25.92026,46.45778,27.03655,46.17248,26.50953,45.92773Z"/></svg>