<svg id="Layer_1" data-name="Layer 1" xmlns="http://www.w3.org/2000/svg" viewBox="0 0 71.80634 147.59989"><defs><style>.cls-1{fill:#3d1314;}.cls-1,.cls-2{fill-rule:evenodd;}.cls-2{fill:#9bae20;}</style></defs><title>captus-480</title><path class="cls-1" d="M3.41811,57.7383a50.48606,50.48606,0,0,0,3.68633,8.75749c1.55117,2.71647,2.7588,5.508,4.37323,7.86435A34.82912,34.82912,0,0,0,15.47256,79.327c.35884.35627.99545,1.05715,1.58395.86482-.20942-.0859-.24441-.39886-.34614-.624a14.60416,14.60416,0,0,0,13.42657,4.406c3.03014,12.021,6.09758,26.87467,9.01987,39.38869,1.03061,4.41907,2.584,8.61249,3.39586,12.67791a33.18439,33.18439,0,0,1,.7704,5.92481c.01329,1.02269-.39944,2.12278-.1304,3.096.63046,2.28544,3.89767,2.71277,6.616,2.484.73453-.06307,1.58309-.43131,2.35177-.44165.86728-.01277,1.34251.42025,2.32547.36581,3.75806-.20538,5.09874-3.17463,6.507-5.5349.009-.70941-.66956.32132-.57907-.32471.4012-.71854.05377-1.76289-.081-2.66774-1.122-7.63767-2.79092-19.64688-4.02864-26.78528,4.64335-.62868,7.22316-2.62,9.753-5.2887,3.841-4.05539,5.37484-9.12011,5.69488-15.87218a37.91575,37.91575,0,0,0-.88284-10.86286c-1.10311-4.04186-5.91508-6.899-9.27038-3.34271-.1625-.46914.22827-.77414-.13832-1.05267-4.17883,6.655-1.25222,18.77514-6.272,24.78265-1.05247-19.12468-5.15068-39.40091-8.7239-57.63455a28.33923,28.33923,0,0,0,7.33126-5.37492c.28756-.335,1.00871-1.63395,1.06534-1.07671-.06024.1292-.47922.5565-.196.56119,1.76623-1.9807,2.54368-4.15233,3.35464-7.1307.41679-1.53422,1.125-3.06313,1.53834-4.61858A37.18673,37.18673,0,0,0,60.68692,14.3868a21.33651,21.33651,0,0,0,.1202-2.1571c-.42277-2.73146-4.30743-6.65347-6.37784-6.799-4.05869-.28531-5.29343,2.92892-7.00407,4.7964C46.09164,16.229,46.68574,23.71322,44.38137,28.965c-.70992-3.34264-.55943-7.09625-1.73574-10.21478a25.86989,25.86989,0,0,0-2.95842-5.23647A11.70541,11.70541,0,0,0,34.3931,8.84907a10.83654,10.83654,0,0,0-4.30453-1.18063c-2.87459.105-3.75719,2.00851-5.76308,3.02934C22.97528,6.96962,22.80878.79967,19.45936.08671a6.41769,6.41769,0,0,0-4.40565,1.11084c-3.14838,1.79219-3.62671,4.698-3.45727,9.42.24165,6.77626,1.9348,13.398,4.63551,17.06661.40289.38495.16844-.73508.52731-.06766.6471,1.00627,1.42978,2.022,2.289,3.18168.75625,1.02132,1.99241,2.0506,2.404,3.033a27.31684,27.31684,0,0,1,.89978,4.83622c2.07554,11.66971,3.48877,24.62818,5.67193,35.275C21.682,68.56132,20.31529,56.34192,17.716,46.23364c-1.159-4.50263-2.64613-10.07879-4.8957-12.88284-1.73881-2.16992-5.76585-3.83209-8.30879-2.12974C1.72287,33.09063-.58334,39.55032.13137,43.84252c.21649,1.28629.72537,2.0695.975,3.35458A79.05539,79.05539,0,0,0,3.41811,57.7383Z"/><path class="cls-2" d="M27.40453,10.69809c.231-.0684.28591.08825.14843.11388a19.646,19.646,0,0,0-1.41764,8.6192c-.02288.50254-.45776-1.61561-.53923-2.072a21.37336,21.37336,0,0,1-.56166-3.27367C25.14911,12.54487,26.84887,11.6567,27.40453,10.69809Z"/><path class="cls-2" d="M29.24792,10.45721c.201.04624.66093-.24221.67449.04531.68135.17059.462,1.35194.53819,2.07213.09064.86.1954,1.87389.343,2.632,1.492,7.62756,2.56573,15.39637,4.33919,22.99784,1.7387,7.45318,3.24307,14.99742,4.68235,22.54963,4.97708,26.10908,9.86768,52.40919,12.255,80.60386-1.83442-4.23658-2.42288-9.19157-3.31984-14.16077-1.78794-9.91679-3.04978-20.48988-4.52653-30.60258-.7517-5.15447-2.0178-10.0826-2.61638-14.92135-.11318-.91745-.35638-1.62665.25127-2.1756-.652-.23331-.58982-.39737-.81282-1.0981A51.32815,51.32815,0,0,1,39.981,71.176c-.32607-2.49726-.99469-4.9141-1.28818-6.79369a2.52416,2.52416,0,0,1,.13549-2.02559c-1.35543-1.39712-1.535-4.91861-2.21511-7.74436C35.22081,48.80294,33.944,42.636,32.7785,36.5043c-.78223-4.127-1.74805-8.27741-2.28822-12.41982-.58125-4.45184-1.04225-8.80922-1.58487-13.18156A.65679.65679,0,0,1,29.24792,10.45721Z"/><path class="cls-2" d="M27.54151,11.75c.20479,4.748-.18179,10.66153,1.19083,16.31146C25.65277,24.269,26.28186,15.828,27.54151,11.75Z"/><path class="cls-2" d="M33.60308,12.03045c1.76444,1.82219,3.10944,5.09517,4.44178,8.39028a53.89511,53.89511,0,0,1,3.16289,9.896,12.1731,12.1731,0,0,1,.46058,2.48488c-.15546,1.29233-2.79743,2.71142-2.776,4.37772A51.0663,51.0663,0,0,1,37.277,30.9641c-.26971-.64366.55674-.44037.40708-.99057-.74588-.73773-1.69906-2.66918-.87617-3.63353-.11935-.51059-.65158-.488-.79586-.96917C35.15115,20.85018,34.19917,16.03431,33.60308,12.03045Z"/><path class="cls-2" d="M35.73144,12.95768c1.0099,1.32713,3.00168,2.76948,3.92747,4.44064,1.56549,2.83333,1.89637,7.59957,2.5642,11.44656.17835,1.02934.71323,1.9903.26233,3.04654C41.268,24.23817,38.48058,18.62209,35.73144,12.95768Z"/><path class="cls-2" d="M28.263,14.19941c.69218,4.55631,1.43324,11.10609,1.97465,15.13992-1.15141-.56789-.90353-2.23587-1.12136-3.46879A68.50857,68.50857,0,0,1,28.263,14.19941Z"/><path class="cls-2" d="M26.61463,35.43435c1.19491,10.68742,2.6643,23.14777,5.33553,33.71106,2.03,8.03,3.35539,16.31953,4.92087,24.39245,3.183,16.38134,6.43031,32.54978,10.07548,48.49008-.48155.49127-1.6654-.68854-2.27712-1.04211a75.38232,75.38232,0,0,0-1.59219-11.17149,29.31892,29.31892,0,0,1-.8591-3.50356c-.026-.5269.26916-.90728.22478-1.368a55.48034,55.48034,0,0,0-1.381-5.44439c-1.13828-5.234-2.77362-10.80773-4.10456-16.06446-1.82168-7.21322-3.36434-14.98217-4.90883-22.25279-1.62815-7.661-3.33421-15.28129-4.34007-22.99648-.994-7.621-1.39144-15.36345-3.53227-22.96906-.01619-.13133-.03354-.26253-.05088-.39374C24.95311,35.02605,25.7492,35.27611,26.61463,35.43435Z"/><path class="cls-2" d="M27.79963,35.27844c.1313-.0163.26251-.03364.3961-.05031.49612,2.38061.91128,4.86836,1.3556,7.31986-.07108.49786-1.05465.29308-.80058,1.04258.02321.83511.854.56278,1.15612.651.41879,1.15257-.30755,1.42359-.38565,2.19361,1.45993.59957.82385,2.98782,1.522,4.48691.03378.53563-.91942.31654-.817.91012.009.708.80488.38991,1.04124.79979,1.15946,5.56259,1.88889,11.4465,2.961,17.55523.52692,3.001,1.50638,5.87984,1.02927,7.89691a10.90994,10.90994,0,0,1,1.12344,6.5485c.74439.80719,1.494,3.84184.46788,4.62448C35.04226,79.76949,32.38056,70.004,30.616,59.94738c-.68377-3.90121-1.25545-7.99673-1.97335-12.05886a63.5611,63.5611,0,0,1-.923-12.198C27.65386,35.48317,27.81493,35.44913,27.79963,35.27844Z"/><path class="cls-2" d="M43.72284,35.21132c.14878-.043.23793-.00308.27859.09665-.47922,1.60394-1.89728,2.489-2.7101,3.83375-.23648-.10449-.21769-.53937-.36687-.75446A8.45411,8.45411,0,0,0,43.72284,35.21132Z"/><path class="cls-2" d="M39.67658,39.08543c.10938,1.483,1.33259,3.045,1.17224,3.86252C39.98514,42.885,39.59562,40.40922,39.67658,39.08543Z"/><path class="cls-2" d="M44.29521,43.705c.08745-.01164.17707-.02362.2634-.035,1.71914,7.508,2.53968,15.58972,3.99554,23.44379.454,2.44838,1.27538,4.76487,1.7339,7.1362a200.79951,200.79951,0,0,1,2.61552,21.07936c.10457,1.22015.29071,2.48289.48056,3.68609.14.88075.72052,2.112-.01663,2.94762C51.80712,91.80923,50.605,81.99332,48.582,72.4638c-2.01647-9.49291-4.20538-18.92967-4.79538-28.55919C44.06721,43.92365,44.12323,43.76892,44.29521,43.705Z"/><path class="cls-2" d="M26.1249,75.79572a2.02038,2.02038,0,0,0,2.32208.36652c.02075.94855.39119,1.44183.4428,2.35164A4.14183,4.14183,0,0,1,26.1249,75.79572Z"/><path class="cls-2" d="M62.93806,77.82218c.33491-.05119.1726.07527.16587.245-1.03582,2.12711-1.25977,4.87311-1.70612,7.45065C60.72771,82.93535,61.81559,79.80052,62.93806,77.82218Z"/><path class="cls-2" d="M36.91982,89.78261c.28413.04132.416.27846.822.16046.00518,1.22948.72053,2.34593.44689,3.42347C36.90241,93.29382,37.32106,91.00568,36.91982,89.78261Z"/><path class="cls-2" d="M37.83409,94.75276c.26342-.0349.52572-.06956.79051-.10357.05293,1.10647.69743,2.66763-.28029,2.98139A24.2977,24.2977,0,0,0,37.83409,94.75276Z"/><path class="cls-2" d="M38.59539,98.53505c1.01421.5301.74367,2.08523.98994,3.48511.60084,3.4267,1.61023,7.76152,2.05448,11.64656.0635.55119.31986,2.57113-.02878.80691C40.57185,109.20716,39.59881,103.85061,38.59539,98.53505Z"/><path class="cls-2" d="M51.42143,110.65011a8.84732,8.84732,0,0,0,1.15748.65192c.96259,3.85149.87227,7.92785,1.03681,12.04934.24061,6.10013,1.5166,12.24766,2.15742,18.595a4.78058,4.78058,0,0,1-1.88858.91651C53.38452,132.372,51.69735,120.96937,51.42143,110.65011Z"/><path class="cls-2" d="M53.97976,111.79066c.12536.04266.25274.08371.29721.22876.81783.58187.63994,1.81216.75516,2.712.62919,4.81494,1.15266,9.95876,1.67812,14.90984a39.75759,39.75759,0,0,0,.64146,5.94167c.55584,1.94852,2.066,3.85454.32646,5.57957-1.06154-2.275-.90216-4.96705-1.4868-7.30252-.17117-.67935-.59669-1.15521-.768-1.77472-1.78654-6.49132.26909-13.12733-1.39256-19.89979C54.01467,112.05409,53.99711,111.92187,53.97976,111.79066Z"/><path class="cls-2" d="M16.25594,4.25279c-.87676,1.35261-.89429,3.46737-.77888,5.32229.60746,9.854,5.77589,16.44768,10.07985,21.84688-2.1071-.9847-4.17943-3.94834-6.12947-6.96542a24.40914,24.40914,0,0,1-4.11655-12.04738c-.3877-4.50077-.37639-11.77072,4.4587-9.95436,2.67492,6.27243,3.67309,14.72566,5.551,22.03649a5.7465,5.7465,0,0,0,3.85226,5.92227,7.40958,7.40958,0,0,1,.45845,2.48545c-1.59734-.70989-2.42664-2.4694-3.33085-3.98371a52.90092,52.90092,0,0,1-6.06716-16.74671c1.56507-.31,1.5747-1.86188-.25822-1.9746-.52432-2.65584-.35665-6.20812-1.80291-7.66428-.64694.47194.29008,2.49554.21848,3.72178-1.85743.42013-1.37333,2.793.22287,1.709.37147,7.35261,3.27913,15.14071,5.54014,19.89671A36.29567,36.29567,0,0,1,16.25594,4.25279Z"/><path class="cls-2" d="M27.11324,33.09356c-1.65164.19458-3.79764-.298-4.29274-2.11765-.69723-.14186-.23155.61118-.72.628-1.85141-1.06175-3.55588-3.81627-4.91162-6.85641-1.88579-4.22337-3.21012-8.36951-3.06841-13.25519a11.56876,11.56876,0,0,1,.92729-5.20852c-1.88973,8.30987,3.51973,19.89959,8.4647,24.86964a5.98442,5.98442,0,0,0,1.63843,1.25885C25.90629,32.70448,26.76243,32.33913,27.11324,33.09356Z"/><path class="cls-2" d="M56.572,11.57836c.079,3.77084.35507,7.69484-.47065,10.772.207.15672-2.21178-.55821-1.62427.88025.19492.4807.46728.51541,1.38408.35506-.0436.71554-.34084,1.23924-.41763,1.9284a1.24982,1.24982,0,0,0-1.3163.1722c-.091.7855.58806.56943.9114.818a21.60023,21.60023,0,0,1-1.91768,4.80235c.02855-.42657-.50856-1.56676-1.20893-1.04778-.586.59746.33963,1.85839,1.094,1.19654A23.19758,23.19758,0,0,1,42.04582,41.85605c-.01369-.239-.19715-.25675-.20009-.51076,9.65-5.24735,11.883-16.20276,12.04589-28.74776C52.83943,24.22189,50.89705,35.79472,41.48,40.59059c-.53773-.80472.48324-1.32809.84475-1.71682A42.65889,42.65889,0,0,0,50.03617,27.157c2.23043-5.122,1.37911-11.9423,2.58533-18.1431-1.03709.73079-.91187,2.23343-1.03485,3.34722-.403,3.61688-.22027,7.84061-1.06016,11.38509-1.09614,4.63346-3.69925,8.12306-6.128,11.51022,1.15873-3.01729,3.54674-5.41977,4.429-9.14608.85727-3.62084.90976-7.61428.972-12.04187-1.24707,4.40954-.929,10.02084-2.5746,14.12628.22753-3.13284,1.17143-7.82167,1.40163-11.83071.085-1.46766-.24353-3.07707-.03871-4.41441.37073-2.444,4.987-6.30949,7.30737-3.4974a1.29143,1.29143,0,0,0,.13746,1.05415c3.86087,4.40858,2.84262,10.3542,1.632,15.58566-.63312,2.73452-.88526,5.65816-1.80142,7.73-1.35237,3.05018-6.07245,5.35551-8.54,7.40832A31.26521,31.26521,0,0,0,57.42967,15.08092,7.46614,7.46614,0,0,0,56.572,11.57836ZM54.80791,14.485c3.35735-.04-.93211-3.25993,0,0Zm.17282,4.39527c.54213.29676,1.31026.07107,1.248-.69819A.71765.71765,0,1,0,54.98073,18.88025Z"/><path class="cls-2" d="M6.062,31.82334c1.99978.248,2.52082,4.16976,3.263,6.53648.32868,1.04832,1.28018,1.96843.52528,3.00939.32841.44682.83553.66.9803,1.34506-.03494.527-1.08736.269-.95046.928.05682.91213.88309.50931,1.28753.6347,2.91818,11.91112,5.774,23.90338,12.0072,31.50152C20.792,71.18765,17.84844,66.01589,15.895,59.9943,13.89948,53.83411,12.8344,47.104,11.168,41.198c-.28813-1.02007-1.20185-1.90321-.67656-3.125-1.27485-1.46359-1.39806-3.92772-2.84479-5.38614,1.055.12856,1.77285,1.17522,2.66267,1.92855.8297.70384,2.33612,1.4687,2.72933,2.45723,2.00221,5.025,3.21306,11.65989,4.4479,18.69754a99.18427,99.18427,0,0,0,3.55956,12.9232c1.46926,4.5154,3.20146,8.792,5.44329,10.93737-3.69588-.37815-4.96334-5.24735-7.20632-8.03085-.22745-.54191-.06047-.53684-.00476-1.06945-.16528-.40071-.72769-.28646-.89406-.68682-1.9869-4.71244-5.20857-9.43357-5.71139-15.052-1.13168-1.26576-1.63144-4.08348-2.34141-6.65749-1.23539-4.48293-2.239-9.98973-3.97856-14.0723C6.08419,33.42834,5.366,32.47283,6.062,31.82334ZM18.7223,62.16818c-1.0178-3.742-2.43358-7.52416-3.38735-11.6069-.95189-4.07392-1.72725-8.18964-3.3897-11.60745C14.25759,46.62455,14.69751,56.72709,18.7223,62.16818Z"/><path class="cls-2" d="M5.39224,32.84748c2.84229,7.5553,4.11408,17.58694,6.85059,24.81085.01343.48342-.7781.34768-.68591.89281.31014.72609,1.55043.24274,1.40857,1.55639.45849.41356-.59306.4215-.40606.99036.56058.55329,1.42668.70914,1.57252,1.80294-.02052.53554-.78325.5031-.50225,1.2711.13028.75832.89652.19651,1.25287.37241.54314,1.16311.86362,1.76949.37777,2.89424.00984.7066.87837.296,1.27044.50475.21465,1.13577,1.32939,1.93384.92039,2.9594,2.04434,1.90936,3.139,5.0554,5.30726,6.804.15106.39321-.32816.30085-.17732.693.68474,1.52269,2.35627,1.76061,3.55448,2.61585-1.11731-.14525-2.01183-1.3954-3.51458-1.28185-.13282.00966-.60321.26459-.772.23465-1.67554-.30043-4.438-4.10809-5.89473-6.19236-3.42545-4.89482-6.30792-9.55972-8.323-16.58694A112.33522,112.33522,0,0,1,4.60266,45.26791a56.27164,56.27164,0,0,1-1.17217-6.94269C3.38537,36.263,4.87555,34.5411,5.39224,32.84748ZM16.6575,73.0143A159.58956,159.58956,0,0,1,9.69134,57.5915C7.5686,51.84876,6.32139,45.38518,4.71817,38.96,6.09369,53.103,10.64522,64.39011,16.6575,73.0143Z"/><path class="cls-2" d="M30.56841,29.83063c1.48126,7.46723,2.91474,14.99765,4.51761,22.30443-1.99788.15364-.93831,2.87159.37187,1.825-.02045.4376.16967.60132.25222.90424-.56491.67478-1.30229.82258-.97823,1.73464.32548.91872.96764.22761,1.53286.47006.515,1.18286-.80041.96184-.99465,1.60218a1.84734,1.84734,0,0,0,.43427,1.28052c.38118.38612,1.12837-.31444,1.18435-.15341a7.887,7.887,0,0,1,.50341,1.80986c-.87118.56664-1.88786,2.46269.17836,2.38676.04191,4.36983,2.55606,10.83069,2.46724,14.80526a2.10077,2.10077,0,0,1-.25864,1.10446c.04523.55741.57342.48838.66565.98512q1.47074,7.62963,2.81486,15.4301c-.12024.57621-.93984.61808-1.04776,1.209.01206,1.37092.52349,2.09023,1.60829,2.06488.48177,1.27637-.33974,1.55488-.49669,2.33932a3.54032,3.54032,0,0,1,1.16781,2.79407c-.83036.5638-1.395,2.25376.29213,2.23835q.17946,1.381.3603,2.76306c-.80922.65267-1.65954,2.43639.30833,2.36968,1.85178,10.93811,2.92742,22.88249,6.755,31.25046a9.21959,9.21959,0,0,1-4.06963-.40749c-4.64483-19.33462-7.089-41.17386-11.04759-61.07864-.25477-.55113.474-.34677.29106-.84158-.57356-.56552-1.22478-2.26238-.37711-2.89674.04275-.6704-.59873-.4507-.77781-.83469-1.37151-8.25669-3.3921-17.2509-4.25252-25.41748-.51684-.35745-.54946-1.34042-.80263-2.037.03381-.5268,1.08576-.271.95046-.92795-.01877-.99392-1.08009-.394-1.30409-.76725a2.94591,2.94591,0,0,1,.11983-2.15939c-.09676-.64327-.72081-.60237-.83014-1.22918-.20287-1.83774-.6568-3.90927-1.08718-6.28419-.21959-1.20269-1.11116-2.95707-.03573-3.34222.57246.462.01117,1.35046.0296,2.27188.0222,1.28819.65367,2.61352.61138,3.66754,1.13631-1.79342-.07967-5.81378,1.51151-6.88857C31.29408,32.51188,29.95059,30.5822,30.56841,29.83063Z"/><path class="cls-2" d="M2.99931,41.1923c2.85351,15.28021,7.1095,28.73506,15.51241,36.80107-1.38013-.15661-2.58216-2.52409-4.08246-2.54581C7.93368,67.61684,4.46186,55.05411,2.99931,41.1923Z"/><path class="cls-2" d="M29.56417,81.63925c-.47828.77978-1.82327.14565-2.29059-.1025C27.20281,81.46876,28.897,81.6501,29.56417,81.63925Z"/><path class="cls-2" d="M52.652,109.82085c-.14263-.65317-.4759-.91584-.33584-1.56185,2.75783-.72344,5.088-2.62509,7.07372-4.27081a19.74869,19.74869,0,0,0,4.30355-4.97934,2.172,2.172,0,0,0,.887-.38332c.14082-.48947-.14783-.5795-.00725-1.0701,2.33064-4.32619,3.23839-9.74722,2.54864-16.39763-.21485,2.12412.03594,4.60849-.4929,6.49018-.01275.67562-.29231-.5328-.82427-.16a.66622.66622,0,0,0-.34363.44595c-.15061.73237.85255.99743.99036.40606.20611.20648-.09231,1.03-.07364,1.48354-.48814-.254-1.25917-.12919-1.26557.56586.01449.5973.481.607,1.00771.53726a15.206,15.206,0,0,1-.41963,1.92893c-.35-.07472-.77231-.11573-.90277.25414-.39332.58661.41935.59351.53182,1.00066a2.50141,2.50141,0,0,0-.42224.859c-.4869-.16106-1.4056-.3045-1.56276.33709-.07711.81831.50208.78346.92648.94853a1.41576,1.41576,0,0,1-1.44153,1.2598c-.312.35054.22272.9992.02121,1.202-2.69689,3.68913-6.5933,6.45651-10.73556,9.03148.19536-1.62219-.2308-2.54276-.56631-4.34314.42285-.47426.32816.71308,1.10411.25753.21962.7936.77254,2.25423-.3664,2.32323,3.55192.73826,5.56222-3.08589,6.93677-5.32258a42.51687,42.51687,0,0,0,3.27328-6.7194c2.0792-5.24912,1.70621-11.251,2.38015-16.64439,2.3617-.55325,3.98942-.01568,4.53871,1.95156,2.79461,10.0014.17825,21.24763-4.60074,26.30549C61.55933,107.40033,57.68409,110.87876,52.652,109.82085Zm8.54518-3.25656a19.55734,19.55734,0,0,0,4.76819-4.50372c3.56757-5.32742,4.83946-14.82721,2.58074-22.29274.96411,10.09666-.15879,18.589-5.45505,23.87149.01249-.68241-.3934-.82024-.79436-.96713-1.829.36351-.47116,1.81074-.63081,2.35846-.62436.48109-1.21656-.72935-2.00735-.00565-.60908.49863.37927.95.171,1.31668-.99938.429-1.80109,1.292-2.83828,1.84194-1.09727.58221-2.52551.61783-3.26867,1.63223C56.80525,110.38459,58.99839,108.17775,61.19716,106.56429Zm4.41313-24.67456c3.15444.0685-1.01546-3.09824,0,0Zm-.36,3.3947c.66627.72116,1.78782-.046,1.45905-1.12769a2.30639,2.30639,0,0,1-.57939-.32571A1.06564,1.06564,0,0,0,65.25025,85.28443Z"/><path class="cls-2" d="M57.64274,100.86828a30.69953,30.69953,0,0,0,3.89833-10.14709,98.97113,98.97113,0,0,1,2.27611-11.27451c-.01213-.04121.00032-.09116-.01646-.13257.3873.95994-.391,4.20221-.57764,5.83293a43.93181,43.93181,0,0,1-.82284,5.99754A31.02451,31.02451,0,0,1,57.64274,100.86828Z"/><path class="cls-2" d="M57.20226,101.59748a6.97923,6.97923,0,0,1-3.668,3.69044,8.23447,8.23447,0,0,0-.09225-1.72861A6.13157,6.13157,0,0,0,57.20226,101.59748Z"/><path class="cls-2" d="M31.326,10.98834c2.75492,2.98647,2.69156,9.63933,4.029,14.46838.11672.525-.73416.30488-.55562.87671-.07062.91488.81536.58133.96124,1.21187a3.00435,3.00435,0,0,1-.1025,2.29059c.09983.53773.50709.67645.79661.96665.22686,2.7095,1.68954,5.26851,1.83783,7.92782.02831.53207-.22764,1.10935-.18987,1.63141.08749,1.24323,1.28155,2.80354.61274,3.66842,1.27915.284,1.14607,2.4081,1.682,3.66265.70033-.48676-.01868-2.06781-.00071-3.07882.7751-.39424,1.79254-.01809,2.61656-.47565,1.34415,12.59856,4.12952,24.721,6.34326,37.32834,1.17513,6.69534,2.1263,13.56827,3.09023,20.616a1.22805,1.22805,0,0,0-1.98613,1.19636c-.97628-4.3417-2.31234-9.80242-2.51257-14.13077-.60161-1.55985-1.8985-6.16465-1.12707-7.61819-.20868-.39838-.62006-.52927-.79551-.967-.51713-3.64144-1.28218-6.95626-1.78514-10.61213-.18417-.69171.674-.58386.50246-1.27009-.00828-.71035-.57612-.68711-.92657-.94957-.18644-1.36746-.5869-2.89725.20936-3.508-.0203-.641-.7-.42246-.90958-.81948-.23958-1.05215-.28094-1.95138.3675-2.32358-.72676-.50542-1.51-2.76671-.5952-3.5362.06545-.85727-.78275-.52474-.71685-1.37986-.118-.68375.89547-.49579.78436-1.174.054-.88954-.92475-.43951-1.19113-.91444-.55284-1.06772.46894-.88376.5854-1.685-.254-.95117-1.613-.4681-1.346-2.09965a2.74928,2.74928,0,0,1-.77823,2.24437c.01285.75316.83547.45259,1.05912.933.34628.8971-.27981,1.04782-.46984,1.53388.06944.6284.68564.54538.81419,1.099.17109.646-.29823.79707-.37241,1.25287.20315.50905.53578.60005.67961,1.117.7276,2.57594.61782,6.74054,1.34009,10.26724.75677,3.68991,1.45067,8.20078,2.10694,12.04219.17111.4881-.33273.454-.29356.84093.59567.77407,1.26755,2.5737.4469,3.42359a4.745,4.745,0,0,1,1.20226,3.05534c.04613.50755-.90744.24817-.68683.89406-.01733.84486.69613.7368,1.07864,1.06387.3216,4.94566,2.42091,9.99966,2.579,14.65728a14.37976,14.37976,0,0,0,.03481,3.34348c.14485.53859.59558.9919.73384,1.51a10.4658,10.4658,0,0,1,.10732,1.86017c.51566,6.26207.633,13.01174,1.37419,19.7688q.17985,1.38289.36057,2.76431c.14956.299-.10722.63222-.11467.14978q-.04209-.32988-.08633-.65929c-2.21563-21.84257-5.9414-42.18842-9.45518-62.224C39.11785,51.00067,33.83516,32.066,31.245,11.40062,31.39773,11.36032,31.32468,11.14531,31.326,10.98834Z"/><path class="cls-2" d="M49.28777,145.60425c-1.78332-.031-3.74963-.50745-3.78323-2.31865C46.73054,143.78711,48.46651,144.32941,49.28777,145.60425Z"/></svg>