<svg id="Layer_1" data-name="Layer 1" xmlns="http://www.w3.org/2000/svg" viewBox="0 0 150.8992 56.55696"><defs><style>.cls-1{fill:#fabc1a;}.cls-2{fill:#48276c;}</style></defs><title>imagen-floresta-03-04</title><polygon class="cls-1" points="150.899 52.721 4.072 56.557 0 4.945 146.623 0.408 150.899 52.721"/><path class="cls-2" d="M6.20112,11.73376a1.14227,1.14227,0,0,0,.08676.9213l-.0161.00523a5.58125,5.58125,0,0,0-1.252.60928.74355.74355,0,0,0,.01443,1.12373c.58427.43965,1.32433-.82,1.52861-1.40444a.756.756,0,0,0,.88157.07653,3.11473,3.11473,0,0,0,.63915,1.16592,1.14448,1.14448,0,0,0,1.29359.261c.36917-.217.10572-.73191-.102-.95328-.40923-.4359-1.03786-.46242-1.55617-.69975.02253-.02609.04666-.04985.067-.07848a.90776.90776,0,0,0-.0816-1.20406c.83373-.26556,2.36506-1.35668,1.53446-2.17822a.84878.84878,0,0,0-1.28894.29819,4.32015,4.32015,0,0,0-.57232,1.6522.9143.9143,0,0,0-.95392.067c-.25336-.89215-1.42435-2.77623-2.30057-1.91057C3.33337,10.26566,5.48021,11.566,6.20112,11.73376Zm-.9639,2.42881c-.13965-.05306-.18348-.33346-.16005-.45533.03438-.17831.24493-.29579.38715-.37731a6.66991,6.66991,0,0,1,.76869-.31922,3.49875,3.49875,0,0,1-.32321.56572C5.81372,13.72114,5.4664,14.24965,5.23722,14.16257Zm3.974.0748c-.14808.121-.439.02561-.59821-.01581a.90186.90186,0,0,1-.44575-.36008,2.63194,2.63194,0,0,1-.35376-.65834c.2752.098.5617.16508.833.27422C8.801,13.53954,9.49262,14.00672,9.21126,14.23737ZM8.93832,9.54166c.83742.35492-.60034,1.404-1.23726,1.68985C7.83259,10.529,8.17784,9.21933,8.93832,9.54166Zm-1.56318,2.129a.62317.62317,0,0,1,.14547.94223.5201.5201,0,0,1-.85.06742.83841.83841,0,0,1-.12187-.98414A.63014.63014,0,0,1,7.37514,11.67071Zm-3.06937-1.922c.35363-.77359,1.48233.92963,1.78428,1.63626a4.74756,4.74756,0,0,1-.86042-.493C4.94818,10.7104,4.10827,10.18047,4.30577,9.74868Z"/><path class="cls-2" d="M7.25792,9.99906c.33953-.56145-.51874-1.0242-.81818-.62822C6.09983,9.93231,6.842,10.6927,7.25792,9.99906Z"/><path class="cls-2" d="M5.31006,12.44224c.33951-.56118-.51873-1.02393-.81832-.62794C4.15193,12.37546,4.8941,13.13584,5.31006,12.44224Z"/><path class="cls-2" d="M6.6528,14.03907c-.33979.56149.40237,1.32185.81818.62825C7.81047,14.10587,6.95237,13.64341,6.6528,14.03907Z"/><path class="cls-2" d="M8.50143,11.68457c-.3398.56146.40237,1.32185.81833.62824C9.65926,11.75163,8.801,11.28888,8.50143,11.68457Z"/><path class="cls-2" d="M141.1162,5.52074a.91269.91269,0,0,0,.03682,1.2092c.02328.02684.0487.04821.07336.072-.46582.26986-1.06858.35747-1.43231.783-.21143.24719-.45212.75781-.09594.9964a1.10338,1.10338,0,0,0,1.25316-.3036,2.67523,2.67523,0,0,0,.57424-1.27252.783.783,0,0,0,.8629-.1626,3.324,3.324,0,0,0,.64247.89781c.22549.24193.64246.6135.98844.3753A.7402.7402,0,0,0,144,7.00442c-.3783-.32794-.90956-.33089-1.3496-.52l-.00569-.00119a1.1852,1.1852,0,0,0-.01469-.92864,4.11946,4.11946,0,0,0,1.40617-.97979c.37242-.34387.91883-.97746.44787-1.45707-.87186-.88795-1.91938,1.25254-2.10251,2.125a.90986.90986,0,0,0-.95827.023c-.22248-.79165-1.027-2.77515-2.0417-1.76277C138.54568,4.33691,140.29516,5.32387,141.1162,5.52074Zm-1.18436,2.83762c-.17784-.031-.09826-.24955-.05209-.35318a1.00694,1.00694,0,0,1,.41306-.43831,7.59663,7.59663,0,0,1,.87832-.39886C140.99855,7.7833,140.6399,8.48128,139.93184,8.35836Zm3.91885-.49709c-.21217.25109-.82669-.56718-1.10075-1.02088.23547.07223.47983.11993.71011.20848C143.78944,7.17605,144.16157,7.493,143.85069,7.86127Zm.47679-4.46386c.3528.45942-.97387,1.46544-1.62311,1.792C142.91716,4.4455,143.8001,2.71,144.32748,3.39741Zm-2.04523,2.154a.84736.84736,0,0,1-.02691.99131.521.521,0,0,1-.85252.01456.67307.67307,0,0,1,.87943-1.00587Zm-2.58551-1.915c.68906-.45071,1.19324.89151,1.39347,1.56705C140.42088,4.99514,138.93386,4.13532,139.69674,3.63644Z"/><path class="cls-2" d="M142.16731,3.22635c-.33637-.36537-1.1459.17769-.75415.70393C141.8938,4.58074,142.55963,3.75256,142.16731,3.22635Z"/><path class="cls-2" d="M144.34107,5.47134c-.33638-.36537-1.14618.1777-.75417.70365C144.06727,6.82544,144.73307,5.99726,144.34107,5.47134Z"/><path class="cls-2" d="M142.40364,7.89346c-.33608-.36505-1.1459.17772-.75388.70394C142.13013,9.24785,142.79566,8.41971,142.40364,7.89346Z"/><path class="cls-2" d="M140.33747,5.72746c-.33636-.36507-1.14616.178-.75416.704C140.06369,7.08186,140.72949,6.25368,140.33747,5.72746Z"/><path class="cls-2" d="M9.66711,52.27517A.913.913,0,0,0,9.63044,51.066c-.0233-.02684-.04885-.0482-.0735-.072.46581-.26985,1.06869-.35747,1.43245-.783.21129-.24719.45182-.7578.09579-.99639a1.1034,1.1034,0,0,0-1.25315.30359,2.67513,2.67513,0,0,0-.57424,1.27252.78285.78285,0,0,0-.86278.1626,3.33065,3.33065,0,0,0-.6426-.8978c-.22564-.24193-.64246-.61351-.98832-.37531a.74012.74012,0,0,0,.01916,1.1113c.37848.328.90945.33092,1.34963.52l.0057.00122a1.1853,1.1853,0,0,0,.01454.92865,4.12094,4.12094,0,0,0-1.406.97979c-.37257.34387-.91871.97745-.4479,1.45707.87173.888,1.91941-1.25254,2.10268-2.125a.9096.9096,0,0,0,.95812-.023c.22264.79164,1.027,2.77514,2.04155,1.76277C12.23779,53.459,10.48815,52.472,9.66711,52.27517Zm1.18421-2.83762c.178.031.09856.24954.05209.35318a1.00551,1.00551,0,0,1-.41294.4383,7.6017,7.6017,0,0,1-.87814.39886C9.78476,50.0126,10.14341,49.31463,10.85132,49.43755Zm-3.91869.49709c.21228-.2511.82669.56717,1.10086,1.02087-.23543-.07223-.48-.12-.71008-.20849C6.99388,50.61986,6.62175,50.30292,6.93263,49.93464ZM6.45572,54.3985c-.35269-.45942.97414-1.46545,1.62322-1.792C7.86615,53.35041,6.98337,55.08592,6.45572,54.3985Zm2.04534-2.154a.84735.84735,0,0,1,.02691-.9913.52094.52094,0,0,1,.85252-.01456.67308.67308,0,0,1-.87943,1.00586Zm2.58567,1.915c-.68921.45072-1.19324-.89151-1.39378-1.567C10.36243,52.80077,11.8496,53.66058,11.08673,54.15946Z"/><path class="cls-2" d="M8.61613,54.56955c.33609.36539,1.14593-.17769.754-.70392C8.88951,53.21516,8.22384,54.04334,8.61613,54.56955Z"/><path class="cls-2" d="M6.44237,52.32456c.33625.36535,1.146-.17769.7542-.70365C6.71589,50.97047,6.05021,51.79865,6.44237,52.32456Z"/><path class="cls-2" d="M8.37967,49.90245c.33621.365,1.1459-.17772.754-.70395C8.65318,48.54806,7.9875,49.3762,8.37967,49.90245Z"/><path class="cls-2" d="M10.446,52.06844c.33623.36508,1.146-.178.75418-.704C10.71948,50.71405,10.0538,51.54222,10.446,52.06844Z"/><path class="cls-2" d="M144.582,46.06215a1.14163,1.14163,0,0,0-.0866-.92131l.0161-.00525a5.58157,5.58157,0,0,0,1.2521-.60926.74342.74342,0,0,0-.01454-1.12373c-.58412-.43965-1.32464.82-1.52877,1.40442a.75566.75566,0,0,0-.88126-.07651,3.11536,3.11536,0,0,0-.6393-1.16591,1.14432,1.14432,0,0,0-1.29344-.261c-.36932.217-.10572.7319.10181.95329.40938.43589,1.03786.46242,1.556.69976-.02222.02607-.04666.04984-.06669.07846a.90756.90756,0,0,0,.08146,1.20407c-.83385.26556-2.36522,1.35668-1.53462,2.17822a.84894.84894,0,0,0,1.2891-.2982,4.315,4.315,0,0,0,.57231-1.6522.91457.91457,0,0,0,.95408-.067c.2532.89215,1.42435,2.77623,2.30039,1.91058C147.45,47.53025,145.303,46.23,144.582,46.06215Zm.964-2.42881c.13965.05305.18349.33345.16021.45532-.03453.17831-.24509.2958-.38745.37732a6.66381,6.66381,0,0,1-.76855.31921,3.51933,3.51933,0,0,1,.32306-.56571C144.9696,44.07477,145.31676,43.54623,145.54609,43.63334Zm-3.974-.0748c.14823-.121.43889-.02561.59821.01581a.90364.90364,0,0,1,.4459.36007,2.63154,2.63154,0,0,1,.35345.65835c-.275-.098-.56169-.16507-.8328-.27423C141.98214,44.25638,141.29054,43.78919,141.57206,43.55854Zm.27309,4.6957c-.83757-.35492.60034-1.404,1.23726-1.68986C142.95087,47.26689,142.60533,48.57658,141.84515,48.25424Zm1.56287-2.129a.62335.62335,0,0,1-.14531-.94224.5201.5201,0,0,1,.85-.06742.83845.83845,0,0,1,.122.98414A.63056.63056,0,0,1,143.408,46.1252Zm3.06941,1.922c-.35355.77358-1.48237-.92963-1.784-1.63628a4.7525,4.7525,0,0,1,.8603.493C145.83513,47.0855,146.6749,47.61544,146.47743,48.04724Z"/><path class="cls-2" d="M143.5254,47.79685c-.33938.56144.51859,1.02421.81829.62821C144.68364,47.86359,143.94132,47.10321,143.5254,47.79685Z"/><path class="cls-2" d="M145.47341,45.35366c-.33966.56118.51857,1.02391.81829.62794C146.63135,45.42045,145.88906,44.66007,145.47341,45.35366Z"/><path class="cls-2" d="M143.31249,43.12858c-.33965.56146.51858,1.02391.818.62825C144.47016,43.19535,143.72814,42.435,143.31249,43.12858Z"/><path class="cls-2" d="M142.282,46.11133c.33964-.56146-.40265-1.32183-.8183-.62824C141.12405,46.04427,141.98229,46.507,142.282,46.11133Z"/><path class="cls-2" d="M11.464,11.9889c16.63274-.80031,33.27135-1.47629,49.9062-2.23294,16.99774-.77328,55.78522-2.252,72.76208-3.40408q1.61445-.1094,3.228-.22414a.11412.11412,0,0,0-.011-.22786c-16.81641,1.19219-55.44608,2.68061-72.286,3.45847-16.81868.77714-33.64154,1.46166-50.45942,2.25273q-1.57556.07409-3.15089.15A.11412.11412,0,0,0,11.464,11.9889Z"/><path class="cls-2" d="M139.26088,45.59927c-16.63244.8003-55.05963,2.13442-71.69447,2.8911-16.99774.77327-33.99665,1.59387-50.97365,2.74591q-1.61422.10939-3.2282.22415a.11413.11413,0,0,0,.011.22786C30.1921,50.4961,47.03334,49.66583,63.87327,48.888c16.81882-.77714,55.43-2.11984,72.24785-2.91089q1.57554-.07409,3.15074-.14994A.11412.11412,0,0,0,139.26088,45.59927Z"/><path class="cls-2" d="M141.94317,10.99749l1.42066,29.50385a.11413.11413,0,0,0,.22786-.011L142.171,10.98652A.11413.11413,0,0,0,141.94317,10.99749Z"/><path class="cls-2" d="M6.89832,17.10911,8.319,46.613a.11413.11413,0,0,0,.22787-.011L7.12619,17.09814A.11413.11413,0,0,0,6.89832,17.10911Z"/><path class="cls-2" d="M38.48669,39.55859c-1.23441-.18991-3.73638-.032-6.11247-.127-.064-6.55633-.47477-14.09534-.223-20.81066,1.23663.032,2.69408-.12587,4.08749,0-.12808,4.94209-.41294,10.64272-.3489,15.64774a25.82109,25.82109,0,0,1,2.66095-.18991C38.55073,36.04194,38.64569,37.81628,38.48669,39.55859Z"/><path class="cls-2" d="M48.49454,39.43162a18.58419,18.58419,0,0,1-4.40328,0c-.18991-2.37609-.22082-4.11731-.47477-6.01862H42.56977c-.47478,2.85087-.47478,4.40328-.72652,6.14559a35.68047,35.68047,0,0,1-3.67455,0c.72873-6.90523,1.13947-13.77845,2.184-20.68368a35.1552,35.1552,0,0,0,5.132-.18991C46.56231,25.11435,47.19608,31.63977,48.49454,39.43162ZM44.02722,28.631c-.22082-1.83727-.47477-3.38968-.72872-5.66971-.47478,2.53287-.56973,4.02235-.79056,5.79558Z"/><path class="cls-2" d="M54.09248,18.84289a41.14133,41.14133,0,0,1,8.13966.032,23.21008,23.21008,0,0,1-.159,3.80042,32.45573,32.45573,0,0,0-3.61051-.15789,12.00375,12.00375,0,0,0-.159,3.00875c.66689.032,2.75591,0,3.26381.064a24.782,24.782,0,0,1-.44386,4.30722c-.72873,0-1.61645.032-2.471.032-.47477,3.23069,0,5.9866-.095,9.37517a15.42874,15.42874,0,0,1-4.02346.032C54.53413,32.74831,54.15431,25.30426,54.09248,18.84289Z"/><path class="cls-2" d="M62.82616,39.30464c.064-6.84119-.12587-13.04972-.18991-20.49377,1.17258,0,3.67455-.12587,4.24428.3489.28486,5.16292-.12587,10.54777.3489,15.48875,2.15527-.06293,5.73265.064,7.85479.032-.15679,1.42544-.22083,3.19867-.25174,4.59319C71.12481,39.46364,65.90006,39.49455,62.82616,39.30464Zm6.11468-6.3344a30.815,30.815,0,0,1-.25395-14.00038c1.64736-.032,3.86445-.50679,5.28878.41184.88772,4.62411,1.64737,9.72409-.12587,13.71552A12.93755,12.93755,0,0,1,68.94084,32.97024Zm3.45151-4.18134a38.66018,38.66018,0,0,0-.50569-6.20853l-1.10855.127a37.87975,37.87975,0,0,0,.47478,6.27146Z"/><path class="cls-2" d="M80.78154,39.30464c-.12808-1.07652-.03313-4.6241-.413-5.92255h-.72873c-.12587,1.77323.064,5.35282,0,5.89164a9.43147,9.43147,0,0,1-3.64142-.064c.28487-6.74624.06183-13.65148-.12808-20.30276A36.92358,36.92358,0,0,1,82.45982,18.59c.88551,1.23442,1.5524,4.43419,1.58332,6.36642a41.37607,41.37607,0,0,1-.22083,5.22585L82.7756,31.133c.5079.28487,1.61644.8546,1.5524,1.7103-.064.79166-.159,4.71906-.47477,6.62037A11.31964,11.31964,0,0,1,80.78154,39.30464Zm.06183-10.64271a34.277,34.277,0,0,0-.28487-5.9866l-1.23442.3489c.12587,2.09012.18991,3.9274.22083,6.01862Z"/><path class="cls-2" d="M91.83168,39.24171c-.82368.3478-5.60678.25284-6.68441.15789-.03092-5.8276-.12587-13.6835-.03092-20.65167A38.61519,38.61519,0,0,1,91.167,18.685c-.09495,1.5513.095,3.16665-.064,4.75107a13.4157,13.4157,0,0,0-2.75591-.032c.03092.57084.064,1.20351.064,2.18618.8546-.09606,1.67828,0,2.566-.064a14.11692,14.11692,0,0,1,.22083,3.70657c-.63377-.032-1.23442.06294-1.93223,0-.095,1.83728,0,3.61051.03091,5.57476.82369-.095,1.80636.03091,2.63-.064C91.95755,35.78909,91.89572,38.70289,91.83168,39.24171Z"/><path class="cls-2" d="M100.1237,38.481c-.03091.60175-.47477.88772-1.39341.88772-1.42433,0-3.99033.34781-5.25787-.159-.98268-.60175-.63377-6.90524-.318-7.56992a6.96354,6.96354,0,0,1,1.93223.3478,11.71762,11.71762,0,0,0,.477,3.04078H96.7031a11.77977,11.77977,0,0,0,.12588-2.375c-.98047-1.04561-2.502-2.15416-3.89538-3.70657A31.79411,31.79411,0,0,1,92.96452,18.526a26.24331,26.24331,0,0,1,6.55854.159c.6956,1.67828.63156,5.54274.85459,7.75983-.223.60175-2.9149.63377-3.07169-.095.03092-1.14057-.09716-2.28-.12808-3.45262l-1.42433.44386a24.5139,24.5139,0,0,0,.03092,3.04078,29.82827,29.82827,0,0,1,4.52914,3.19866C100.37765,32.71629,100.21866,35.59918,100.1237,38.481Z"/><path class="cls-2" d="M106.20084,23.531c-.34891,4.846-.15679,10.86465-.15679,15.93261a11.04643,11.04643,0,0,0-3.83354.095,143.17265,143.17265,0,0,0-.56973-17.26308l-1.26754-.127c-.064-.37982,0-2.56489-.159-3.29362,2.75591-.095,5.132.18991,8.14186,0,0,0-.12808,3.23069-.12808,4.65612C107.62738,23.531,106.8037,23.499,106.20084,23.531Z"/><path class="cls-2" d="M117.59989,39.43162a18.58419,18.58419,0,0,1-4.40328,0c-.18991-2.37609-.22082-4.11731-.47477-6.01862h-1.04672c-.47478,2.85087-.47478,4.40328-.72652,6.14559a35.68047,35.68047,0,0,1-3.67455,0c.72873-6.90523,1.13947-13.77845,2.184-20.68368a35.1552,35.1552,0,0,0,5.132-.18991C115.66766,25.11435,116.30143,31.63977,117.59989,39.43162ZM113.13257,28.631c-.22082-1.83727-.47477-3.38968-.72872-5.66971-.47478,2.53287-.56973,4.02235-.79056,5.79558Z"/></svg>