<svg id="Layer_1" data-name="Layer 1" xmlns="http://www.w3.org/2000/svg" viewBox="0 0 150.8992 56.29266"><defs><style>.cls-1{fill:#fabc1a;}.cls-2{fill:#48276c;}</style></defs><title>imagen-elbosque-ubicanos-03</title><polygon class="cls-1" points="150.899 52.342 4.072 56.178 0 4.565 146.623 0.028 150.899 52.342"/><path class="cls-2" d="M6.20112,11.35456a1.1423,1.1423,0,0,0,.08676.92131l-.0161.00522a5.58125,5.58125,0,0,0-1.252.60928.74356.74356,0,0,0,.01443,1.12374c.58427.43965,1.32433-.82,1.52861-1.40444a.75606.75606,0,0,0,.88157.07652,3.11465,3.11465,0,0,0,.63915,1.16592,1.14448,1.14448,0,0,0,1.29359.261c.36917-.217.10572-.7319-.102-.95328-.40923-.4359-1.03786-.46242-1.55617-.69975.02253-.02609.04666-.04985.067-.07848a.90776.90776,0,0,0-.0816-1.20406c.83373-.26555,2.36506-1.35668,1.53446-2.17822a.84878.84878,0,0,0-1.28894.2982,4.32009,4.32009,0,0,0-.57232,1.6522.91428.91428,0,0,0-.95392.067c-.25336-.89215-1.42435-2.77623-2.30057-1.91057C3.33337,9.88646,5.48021,11.18676,6.20112,11.35456Zm-.9639,2.42881c-.13965-.05306-.18348-.33345-.16005-.45533.03438-.17831.24493-.29579.38715-.37731a6.67346,6.67346,0,0,1,.76869-.31922,3.49875,3.49875,0,0,1-.32321.56572C5.81372,13.34194,5.4664,13.87045,5.23722,13.78337Zm3.974.0748c-.14808.121-.439.02562-.59821-.01581a.90186.90186,0,0,1-.44575-.36008,2.63194,2.63194,0,0,1-.35376-.65834c.2752.098.5617.16508.833.27422C8.801,13.16034,9.49262,13.62752,9.21126,13.85817ZM8.93832,9.16246c.83742.35492-.60034,1.404-1.23726,1.68986C7.83259,10.14981,8.17784,8.84014,8.93832,9.16246ZM7.37514,11.29151a.62318.62318,0,0,1,.14547.94224.52011.52011,0,0,1-.85.06742.83842.83842,0,0,1-.12187-.98415A.63017.63017,0,0,1,7.37514,11.29151Zm-3.06937-1.922c.35363-.77359,1.48233.92963,1.78428,1.63627a4.74759,4.74759,0,0,1-.86042-.493C4.94818,10.33121,4.10827,9.80127,4.30577,9.36948Z"/><path class="cls-2" d="M7.25792,9.61986c.33953-.56145-.51874-1.0242-.81818-.62821C6.09983,9.55311,6.842,10.3135,7.25792,9.61986Z"/><path class="cls-2" d="M5.31006,12.063c.33951-.56118-.51873-1.02393-.81832-.62794C4.15193,11.99626,4.8941,12.75665,5.31006,12.063Z"/><path class="cls-2" d="M6.6528,13.65987c-.33979.5615.40237,1.32185.81818.62825C7.81047,13.72667,6.95237,13.26421,6.6528,13.65987Z"/><path class="cls-2" d="M8.50143,11.30537c-.3398.56147.40237,1.32185.81833.62824C9.65926,11.37244,8.801,10.90968,8.50143,11.30537Z"/><path class="cls-2" d="M141.1162,5.14154a.91269.91269,0,0,0,.03682,1.2092c.02328.02684.0487.04821.07336.072-.46582.26986-1.06858.35747-1.43231.783-.21143.2472-.45212.75781-.09594.9964a1.10337,1.10337,0,0,0,1.25316-.30359,2.67531,2.67531,0,0,0,.57424-1.27253.783.783,0,0,0,.8629-.16259,3.32415,3.32415,0,0,0,.64247.8978c.22549.24193.64246.6135.98844.3753A.7402.7402,0,0,0,144,6.62522c-.3783-.32794-.90956-.33089-1.3496-.52l-.00389-.00039a1.195,1.195,0,0,0-.01649-.92944,4.11946,4.11946,0,0,0,1.40617-.97979c.37242-.34387.91883-.97746.44787-1.45707-.87186-.88795-1.91938,1.25254-2.10251,2.125a.90988.90988,0,0,0-.95827.023c-.22248-.79165-1.027-2.77514-2.0417-1.76276C138.54568,3.95771,140.29516,4.94467,141.1162,5.14154Zm-1.18436,2.83762c-.17784-.031-.09826-.24955-.05209-.35318a1.00686,1.00686,0,0,1,.41306-.4383,7.59838,7.59838,0,0,1,.87832-.39887C140.99855,7.4041,140.6399,8.10208,139.93184,7.97916Zm3.91885-.49709c-.21217.2511-.82669-.56717-1.10075-1.02088.23547.07223.47983.11993.71011.20849C143.78944,6.79685,144.16157,7.11379,143.85069,7.48207Zm.47679-4.46385c.3528.45941-.97387,1.46543-1.62311,1.792C142.91716,4.0663,143.8001,2.33078,144.32748,3.01822Zm-2.04523,2.154a.84736.84736,0,0,1-.02691.99131.521.521,0,0,1-.85252.01456.67307.67307,0,0,1,.87943-1.00587Zm-2.58551-1.915c.68906-.45071,1.19324.89151,1.39347,1.56705C140.42088,4.61594,138.93386,3.75612,139.69674,3.25724Z"/><path class="cls-2" d="M142.16731,2.84715c-.33637-.36537-1.1459.17769-.75415.70393C141.8938,4.20155,142.55963,3.37336,142.16731,2.84715Z"/><path class="cls-2" d="M144.34107,5.09214c-.33638-.36537-1.14618.1777-.75417.70365C144.06727,6.44624,144.73307,5.61806,144.34107,5.09214Z"/><path class="cls-2" d="M142.40364,7.51426c-.33608-.36505-1.1459.17772-.75388.70394C142.13013,8.86865,142.79566,8.04052,142.40364,7.51426Z"/><path class="cls-2" d="M140.33747,5.34826c-.33636-.36507-1.14616.178-.75416.704C140.06369,6.70267,140.72949,5.87449,140.33747,5.34826Z"/><path class="cls-2" d="M9.66711,51.896a.913.913,0,0,0-.03667-1.20921c-.0233-.02683-.04885-.0482-.0735-.072.46581-.26986,1.06869-.35748,1.43245-.783.21129-.24719.45182-.75779.09579-.99639A1.1034,1.1034,0,0,0,9.832,49.139a2.67513,2.67513,0,0,0-.57424,1.27252.78285.78285,0,0,0-.86278.16259,3.33065,3.33065,0,0,0-.6426-.8978c-.22564-.24192-.64246-.6135-.98832-.37531a.74012.74012,0,0,0,.01916,1.1113c.37848.328.90945.33093,1.34963.52l.0057.00121a1.1853,1.1853,0,0,0,.01454.92865,4.12107,4.12107,0,0,0-1.406.97979c-.37257.34387-.91871.97746-.4479,1.45707.87173.88795,1.91941-1.25254,2.10268-2.125A.9096.9096,0,0,0,9.36,52.151c.22264.79164,1.027,2.77514,2.04155,1.76277C12.23779,53.07979,10.48815,52.09284,9.66711,51.896Zm1.18421-2.83761c.178.031.09856.24953.05209.35317a1.00559,1.00559,0,0,1-.41294.43831,7.60164,7.60164,0,0,1-.87814.39885C9.78476,49.63341,10.14341,48.93543,10.85132,49.05836Zm-3.91869.49708c.21228-.2511.82669.56717,1.10086,1.02087-.23543-.07222-.48-.12-.71008-.20848C6.99388,50.24066,6.62175,49.92372,6.93263,49.55544ZM6.45572,54.0193c-.35269-.45942.97414-1.46545,1.62322-1.792C7.86615,52.97121,6.98337,54.70673,6.45572,54.0193Zm2.04534-2.154A.84736.84736,0,0,1,8.528,50.874a.521.521,0,0,1,.85252-.01456.67308.67308,0,0,1-.87943,1.00587Zm2.58567,1.915c-.68921.45072-1.19324-.8915-1.39378-1.567C10.36243,52.42157,11.8496,53.28138,11.08673,53.78026Z"/><path class="cls-2" d="M8.61613,54.19035c.33609.36539,1.14593-.17769.754-.70392C8.88951,52.836,8.22384,53.66414,8.61613,54.19035Z"/><path class="cls-2" d="M6.44237,51.94536c.33625.36535,1.146-.17769.7542-.70365C6.71589,50.59127,6.05021,51.41945,6.44237,51.94536Z"/><path class="cls-2" d="M8.37967,49.52325c.33621.36505,1.1459-.17772.754-.70395C8.65318,48.16886,7.9875,48.997,8.37967,49.52325Z"/><path class="cls-2" d="M10.446,51.68924c.33623.36508,1.146-.178.75418-.70395C10.71948,50.33485,10.0538,51.163,10.446,51.68924Z"/><path class="cls-2" d="M144.582,45.683a1.14165,1.14165,0,0,0-.0866-.92132l.0161-.00525a5.58157,5.58157,0,0,0,1.2521-.60926.74342.74342,0,0,0-.01454-1.12373c-.58412-.43965-1.32464.82-1.52877,1.40442a.75568.75568,0,0,0-.88126-.07651,3.11543,3.11543,0,0,0-.6393-1.16591,1.1443,1.1443,0,0,0-1.29344-.261c-.36932.217-.10572.7319.10181.95328.40938.43589,1.03786.46242,1.556.69976-.02222.02607-.04666.04984-.06669.07846a.90756.90756,0,0,0,.08146,1.20407c-.83385.26556-2.36522,1.35669-1.53462,2.17823a.849.849,0,0,0,1.2891-.29821,4.31494,4.31494,0,0,0,.57231-1.6522.91457.91457,0,0,0,.95408-.067c.2532.89216,1.42435,2.77623,2.30039,1.91058C147.45,47.15105,145.303,45.85075,144.582,45.683Zm.964-2.42882c.13965.05306.18349.33345.16021.45532-.03453.17832-.24509.2958-.38745.37733a6.66559,6.66559,0,0,1-.76855.31921,3.51986,3.51986,0,0,1,.32306-.56572C144.9696,43.69557,145.31676,43.167,145.54609,43.25414Zm-3.974-.0748c.14823-.121.43889-.02561.59821.01581a.90364.90364,0,0,1,.4459.36007,2.63143,2.63143,0,0,1,.35345.65836c-.275-.098-.56169-.16508-.8328-.27423C141.98214,43.87718,141.29054,43.41,141.57206,43.17934Zm.27309,4.6957c-.83757-.35491.60034-1.404,1.23726-1.68985C142.95087,46.8877,142.60533,48.19738,141.84515,47.875Zm1.56287-2.129a.62334.62334,0,0,1-.14531-.94223.52009.52009,0,0,1,.85-.06743.83845.83845,0,0,1,.122.98414A.63056.63056,0,0,1,143.408,45.746Zm3.06941,1.922c-.35355.77358-1.48237-.92963-1.784-1.63628a4.75193,4.75193,0,0,1,.8603.493C145.83513,46.7063,146.6749,47.23624,146.47743,47.668Z"/><path class="cls-2" d="M143.5254,47.41765c-.33938.56144.51859,1.02421.81829.62821C144.68364,47.48439,143.94132,46.724,143.5254,47.41765Z"/><path class="cls-2" d="M145.47341,44.97447c-.33966.56118.51857,1.0239.81829.62793C146.63135,45.04125,145.88906,44.28087,145.47341,44.97447Z"/><path class="cls-2" d="M143.31249,42.74938c-.33965.56146.51858,1.02391.818.62826C144.47016,42.81615,143.72814,42.05579,143.31249,42.74938Z"/><path class="cls-2" d="M142.282,45.73213c.33964-.56145-.40265-1.32183-.8183-.62824C141.12405,45.66507,141.98229,46.12783,142.282,45.73213Z"/><path class="cls-2" d="M11.464,11.60971c16.63274-.80032,33.27135-1.4763,49.9062-2.23295,16.99774-.77328,55.78522-2.252,72.76208-3.40408q1.61445-.1094,3.228-.22413a.11413.11413,0,0,0-.011-.22787c-16.81641,1.19219-55.44608,2.68062-72.286,3.45847-16.81868.77714-33.64154,1.46166-50.45942,2.25274q-1.57556.07409-3.15089.15A.11413.11413,0,0,0,11.464,11.60971Z"/><path class="cls-2" d="M139.26088,45.22007c-16.63244.8003-55.05963,2.13442-71.69447,2.8911-16.99774.77328-33.99665,1.59387-50.97365,2.74592q-1.61422.10938-3.2282.22414a.11413.11413,0,0,0,.011.22787c16.81657-1.1922,33.65781-2.02247,50.49774-2.80032,16.81882-.77715,55.43-2.11985,72.24785-2.9109q1.57554-.07407,3.15074-.14994A.11412.11412,0,0,0,139.26088,45.22007Z"/><path class="cls-2" d="M141.94317,10.61829l1.42066,29.50386a.11413.11413,0,0,0,.22786-.011L142.171,10.60732A.11413.11413,0,0,0,141.94317,10.61829Z"/><path class="cls-2" d="M6.89832,16.72991,8.319,46.23376a.11413.11413,0,0,0,.22787-.011L7.12619,16.71894A.11413.11413,0,0,0,6.89832,16.72991Z"/><path class="cls-2" d="M25.55517,38.9899a34.97336,34.97336,0,0,1-.66468-5.44888c-.28487-5.41577-.53882-9.97693.3489-15.01287,1.67828-.5079,5.068-.25395,6.6822.03091a42.49585,42.49585,0,0,1,.318,8.58352,4.13482,4.13482,0,0,1-3.00986-.15789A12.67747,12.67747,0,0,0,28.724,22.8983l-.98268.25395A41.78245,41.78245,0,0,0,28.342,33.38312l1.07763-.18991c0-1.26754-.18991-3.00986-.28486-4.05437a13.41391,13.41391,0,0,1,2.28113.03092c.60065,0,.88551.41184.8546,1.26754-.03092,1.55241-.095,6.55633-.63377,8.52058A55.67322,55.67322,0,0,1,25.55517,38.9899Z"/><path class="cls-2" d="M36.60532,34.90351a33.8982,33.8982,0,0,1,.03091,4.02235c-.56973.032-2.312.095-3.51555.064a9.8727,9.8727,0,0,1-.28487-4.18134A11.4688,11.4688,0,0,1,36.60532,34.90351Z"/><path class="cls-2" d="M37.17284,27.42855a31.11463,31.11463,0,0,1,.8546-9.15435c1.45745.032,3.13573-.06294,4.973-.06294,1.26755,0,1.89911.3478,1.89911,1.07653a54.39816,54.39816,0,0,1,0,6.84119,14.09749,14.09749,0,0,1-3.04078.31689c-.22082-1.42543-.09495-2.534-.37982-3.48353l-.63377.03091a23.3949,23.3949,0,0,0-.28487,4.4353,28.11037,28.11037,0,0,0,.53882,6.61926h.82368a33.88628,33.88628,0,0,0-.22082-4.909,25.98528,25.98528,0,0,0,2.94582.03092c.34669,0,.50569.44386.47477,1.3625-.064,2.566-.318,6.62037-.53881,8.36269-1.42654.60175-4.56227.28486-5.86073.37982C37.51954,35.37829,37.42458,32.05265,37.17284,27.42855Z"/><path class="cls-2" d="M49.58327,34.90351a33.90031,33.90031,0,0,1,.03092,4.02235c-.56973.032-2.312.095-3.51555.064a9.87253,9.87253,0,0,1-.28487-4.18134A11.46873,11.46873,0,0,1,49.58327,34.90351Z"/><path class="cls-2" d="M62.72243,38.86293c-.82368.3478-5.60678.25284-6.68441.15789-.03091-5.82761-.12587-13.6835-.03091-20.65167a38.61518,38.61518,0,0,1,6.05064-.06293c-.095,1.5513.095,3.16664-.064,4.75107a13.4158,13.4158,0,0,0-2.75592-.032c.03092.57084.064,1.2035.064,2.18618.8546-.09606,1.67828,0,2.566-.064a14.11646,14.11646,0,0,1,.22083,3.70657c-.63377-.032-1.23442.06293-1.93223,0-.09495,1.83727,0,3.61051.03092,5.57476.82368-.095,1.80636.03091,2.63-.064C62.8483,35.41031,62.78647,38.32411,62.72243,38.86293Z"/><path class="cls-2" d="M63.66757,39.21073c-.37982-7.06313.159-13.55652-.28487-20.7146a13.45294,13.45294,0,0,1,4.0875-.127,127.63948,127.63948,0,0,0-.254,15.7427c.41073.22193,1.45745-.032,2.28113.03092-.12808,1.64736-.12808,3.67454-.318,5.19493A53.09291,53.09291,0,0,0,63.66757,39.21073Z"/><path class="cls-2" d="M83.64792,36.67675a7.82544,7.82544,0,0,1-2.248,2.18618c-1.80636.095-3.70767.127-5.386.127a171.8714,171.8714,0,0,1-.22083-20.58873c1.26534-.032,3.10261,0,4.40107,0a3.72723,3.72723,0,0,1,2.725,1.48837c.60285.66579.98267,1.04561.98267,1.33048a41.75244,41.75244,0,0,1-.41294,6.36642,4.95423,4.95423,0,0,0-1.10855,1.39341,6.37831,6.37831,0,0,1,1.48837,2.0592A28.73849,28.73849,0,0,1,83.64792,36.67675ZM79.08565,28.0303c.3489.22193,1.04672,0,1.5215-.159,0-1.64626-.22083-3.32564-.22083-4.973a1.71165,1.71165,0,0,0-1.52149.25395C78.89574,24.22877,78.9907,27.74543,79.08565,28.0303Zm1.61645,7.221c-.18991-1.45634-.22083-3.23068-.37982-4.33923l-1.17259.18991c.064,1.48947.12587,2.50306.223,4.49823Z"/><path class="cls-2" d="M84.43406,27.65048c0-3.38969.03092-6.33551,1.04451-9.28133a23.66778,23.66778,0,0,1,5.79669-.18991c1.26754,2.94582,1.17259,6.96817,1.10855,10.13592-.064,3.51556-.18991,6.68331-.56973,10.23088a12.509,12.509,0,0,1-6.08156.28487C84.65489,35.47324,84.43406,32.62238,84.43406,27.65048Zm3.4206,6.08155c.66469-.064.98268.09495,1.55241-.22193-.18991-3.45262.03092-7.31708-.37982-10.6118-.28487.127-1.3625.032-1.80636.18991A93.148,93.148,0,0,0,87.85466,33.732Z"/><path class="cls-2" d="M100.773,38.10218c-.03091.60175-.47477.88772-1.39341.88772-1.42433,0-3.99033.3478-5.25787-.159-.98268-.60175-.63377-6.90524-.31578-7.56993a6.96343,6.96343,0,0,1,1.93.34781,11.81194,11.81194,0,0,0,.477,3.04077H97.3524a11.77964,11.77964,0,0,0,.12587-2.375c-.98047-1.04562-2.502-2.15416-3.89538-3.70657a31.79439,31.79439,0,0,1,.03092-10.42079,26.24331,26.24331,0,0,1,6.55854.159c.6956,1.67827.63156,5.54273.85459,7.75983-.223.60175-2.9149.63377-3.07169-.095.03092-1.14056-.095-2.28-.12808-3.45261l-1.42433.44386a24.51372,24.51372,0,0,0,.03092,3.04077,29.82788,29.82788,0,0,1,4.52914,3.19867C101.02694,32.33751,100.86795,35.2204,100.773,38.10218Z"/><path class="cls-2" d="M109.19531,39.81358c.18991.3478-2.18618.5057-2.725.5057-1.10855,0-1.45745-1.32938-1.96314-1.7103-.064-.095-.82369.47588-1.48837.82368-1.14167-3.23069-1.3625-7.94975-1.42654-11.71925a67.725,67.725,0,0,1,.5079-9.2493,32.80166,32.80166,0,0,1,6.27146-.22193c.41074,0,.60065.38092.66469,1.14056.254,2.47105.41074,5.70174.56973,8.33067.18991,3.38858,0,6.3344-.03091,9.787a4.98615,4.98615,0,0,0-1.26755.44386Zm-2.75592-6.62037a58.42794,58.42794,0,0,0-.254-10.2,4.12013,4.12013,0,0,0-1.51928-.03091,77.81534,77.81534,0,0,0,.66469,10.42078Z"/><path class="cls-2" d="M110.67705,37.15263c-.37982-6.1456-.41074-12.54293-.3467-18.59357.25174-.28486,2.69187-.28486,3.64143.032.28486,4.941,0,10.19886.56973,15.10893l1.07763-.34891v-.03091c0-4.7831-.28487-9.66115-.28487-14.85608,1.17259-.032,2.502.159,3.5796.09495.18991,6.08156.09495,13.11377-.159,18.87843-.03092.69671-.88772,1.23553-1.83727,1.45746a11.51864,11.51864,0,0,1-4.75-.22193C111.69064,38.1342,111.40578,37.94429,110.67705,37.15263Z"/><path class="cls-2" d="M126.73332,38.86293c-.82368.3478-5.60677.25284-6.68441.15789-.03091-5.82761-.12587-13.6835-.03091-20.65167a38.61518,38.61518,0,0,1,6.05064-.06293c-.095,1.5513.09495,3.16664-.064,4.75107a13.4158,13.4158,0,0,0-2.75592-.032c.03092.57084.064,1.2035.064,2.18618.8546-.09606,1.67828,0,2.566-.064a14.11646,14.11646,0,0,1,.22083,3.70657c-.63377-.032-1.23442.06293-1.93223,0-.09495,1.83727,0,3.61051.03092,5.57476.82368-.095,1.80636.03091,2.63-.064C126.85919,35.41031,126.79736,38.32411,126.73332,38.86293Z"/></svg>