<svg id="Layer_1" data-name="Layer 1" xmlns="http://www.w3.org/2000/svg" viewBox="0 0 150.8992 56.49323"><defs><style>.cls-1{fill:#fabc1a;}.cls-2{fill:#48276c;}</style></defs><title>imagen-cumbaya-ubicanos-03-05</title><polygon class="cls-1" points="150.899 52.314 4.072 56.149 0 4.537 146.623 0 150.899 52.314"/><path class="cls-2" d="M6.20112,11.32621a1.1423,1.1423,0,0,0,.08676.92131l-.0161.00522a5.58125,5.58125,0,0,0-1.252.60928.74356.74356,0,0,0,.01443,1.12374c.58427.43964,1.32433-.82,1.52861-1.40445a.756.756,0,0,0,.88157.07653,3.11465,3.11465,0,0,0,.63915,1.16592,1.14448,1.14448,0,0,0,1.29359.261c.36917-.217.10572-.7319-.102-.95328-.40923-.4359-1.03786-.46242-1.55617-.69975.02253-.02609.04666-.04985.067-.07848a.90776.90776,0,0,0-.0816-1.20406c.83373-.26555,2.36506-1.35668,1.53446-2.17822a.84878.84878,0,0,0-1.28894.2982,4.32009,4.32009,0,0,0-.57232,1.6522.91428.91428,0,0,0-.95392.067C6.17031,10.09622,4.99932,8.21214,4.1231,9.0778,3.33337,9.85811,5.48021,11.15841,6.20112,11.32621ZM5.23722,13.755c-.13965-.05306-.18348-.33345-.16005-.45533.03438-.17831.24493-.29579.38715-.37731a6.67168,6.67168,0,0,1,.76869-.31922,3.49875,3.49875,0,0,1-.32321.56572C5.81372,13.31359,5.4664,13.8421,5.23722,13.755Zm3.974.0748c-.14808.121-.439.02561-.59821-.01581a.90186.90186,0,0,1-.44575-.36008,2.63194,2.63194,0,0,1-.35376-.65834c.2752.098.5617.16508.833.27422C8.801,13.132,9.49262,13.59917,9.21126,13.82982ZM8.93832,9.13411c.83742.35492-.60034,1.404-1.23726,1.68986C7.83259,10.12146,8.17784,8.81179,8.93832,9.13411Zm-1.56318,2.129a.62317.62317,0,0,1,.14547.94223.5201.5201,0,0,1-.85.06743.83842.83842,0,0,1-.12187-.98415A.63014.63014,0,0,1,7.37514,11.26316Zm-3.06937-1.922c.35363-.77359,1.48233.92963,1.78428,1.63627a4.74759,4.74759,0,0,1-.86042-.493C4.94818,10.30286,4.10827,9.77292,4.30577,9.34113Z"/><path class="cls-2" d="M7.25792,9.59151c.33953-.56145-.51874-1.0242-.81818-.62821C6.09983,9.52476,6.842,10.28515,7.25792,9.59151Z"/><path class="cls-2" d="M5.31006,12.03469c.33951-.56118-.51873-1.02393-.81832-.62794C4.15193,11.96791,4.8941,12.7283,5.31006,12.03469Z"/><path class="cls-2" d="M6.6528,13.63152c-.33979.5615.40237,1.32185.81818.62825C7.81047,13.69832,6.95237,13.23586,6.6528,13.63152Z"/><path class="cls-2" d="M8.50143,11.277c-.3398.56146.40237,1.32185.81833.62824C9.65926,11.34409,8.801,10.88133,8.50143,11.277Z"/><path class="cls-2" d="M141.1162,5.11319a.91269.91269,0,0,0,.03682,1.2092c.02328.02684.0487.04821.07336.072-.46582.26986-1.06858.35747-1.43231.783-.21143.24719-.45212.75781-.09594.9964a1.10336,1.10336,0,0,0,1.25316-.3036,2.67523,2.67523,0,0,0,.57424-1.27252.783.783,0,0,0,.8629-.16259,3.32415,3.32415,0,0,0,.64247.8978c.22549.24193.64246.6135.98844.3753A.7402.7402,0,0,0,144,6.59687c-.3783-.32794-.90956-.33089-1.3496-.52l-.00389-.00039a1.195,1.195,0,0,0-.01649-.92944,4.11946,4.11946,0,0,0,1.40617-.97979c.37242-.34387.91883-.97746.44787-1.45707-.87186-.88795-1.91938,1.25254-2.10251,2.125a.90988.90988,0,0,0-.95827.023c-.22248-.79165-1.027-2.77514-2.0417-1.76277C138.54568,3.92936,140.29516,4.91632,141.1162,5.11319Zm-1.18436,2.83762c-.17784-.031-.09826-.24955-.05209-.35318a1.00686,1.00686,0,0,1,.41306-.4383,7.59669,7.59669,0,0,1,.87832-.39887C140.99855,7.37575,140.6399,8.07373,139.93184,7.95081Zm3.91885-.49709c-.21217.25109-.82669-.56717-1.10075-1.02088.23547.07223.47983.11993.71011.20849C143.78944,6.7685,144.16157,7.08544,143.85069,7.45372Zm.47679-4.46385c.3528.45941-.97387,1.46543-1.62311,1.792C142.91716,4.038,143.8001,2.30243,144.32748,2.98987Zm-2.04523,2.154a.84736.84736,0,0,1-.02691.99131.521.521,0,0,1-.85252.01456.67307.67307,0,0,1,.87943-1.00587Zm-2.58551-1.915c.68906-.45071,1.19324.89151,1.39347,1.56705C140.42088,4.58759,138.93386,3.72777,139.69674,3.22889Z"/><path class="cls-2" d="M142.16731,2.8188c-.33637-.36537-1.1459.17769-.75415.70393C141.8938,4.17319,142.55963,3.345,142.16731,2.8188Z"/><path class="cls-2" d="M144.34107,5.06379c-.33638-.36537-1.14618.1777-.75417.70365C144.06727,6.41789,144.73307,5.58971,144.34107,5.06379Z"/><path class="cls-2" d="M142.40364,7.48591c-.33608-.365-1.1459.17772-.75388.70394C142.13013,8.8403,142.79566,8.01216,142.40364,7.48591Z"/><path class="cls-2" d="M140.33747,5.31991c-.33636-.36507-1.14616.178-.75416.704C140.06369,6.67432,140.72949,5.84614,140.33747,5.31991Z"/><path class="cls-2" d="M9.66711,51.86762a.913.913,0,0,0-.03667-1.20921c-.0233-.02683-.04885-.0482-.0735-.072.46581-.26986,1.06869-.35748,1.43245-.783.21129-.24719.45182-.75779.09579-.99639A1.10341,1.10341,0,0,0,9.832,49.1106a2.67521,2.67521,0,0,0-.57424,1.27253.78285.78285,0,0,0-.86278.16259,3.33065,3.33065,0,0,0-.6426-.8978c-.22564-.24192-.64246-.6135-.98832-.37531a.74012.74012,0,0,0,.01916,1.1113c.37848.328.90945.33093,1.34963.52l.0057.00122a1.1853,1.1853,0,0,0,.01454.92865,4.12094,4.12094,0,0,0-1.406.97979c-.37257.34387-.91871.97746-.4479,1.45707.87173.888,1.91941-1.25254,2.10268-2.125a.9096.9096,0,0,0,.95812-.023c.22264.79164,1.027,2.77514,2.04155,1.76277C12.23779,53.05144,10.48815,52.06449,9.66711,51.86762ZM10.85132,49.03c.178.031.09856.24953.05209.35317a1.00551,1.00551,0,0,1-.41294.4383,7.6,7.6,0,0,1-.87814.39886C9.78476,49.60505,10.14341,48.90708,10.85132,49.03Zm-3.91869.49708c.21228-.2511.82669.56717,1.10086,1.02087-.23543-.07223-.48-.12-.71008-.20848C6.99388,50.21231,6.62175,49.89537,6.93263,49.52709ZM6.45572,53.991c-.35269-.45942.97414-1.46545,1.62322-1.792C7.86615,52.94286,6.98337,54.67838,6.45572,53.991Zm2.04534-2.154a.84736.84736,0,0,1,.02691-.99131.52094.52094,0,0,1,.85252-.01456.67308.67308,0,0,1-.87943,1.00587Zm2.58567,1.915c-.68921.45072-1.19324-.89151-1.39378-1.567C10.36243,52.39322,11.8496,53.253,11.08673,53.75191Z"/><path class="cls-2" d="M8.61613,54.162c.33609.36539,1.14593-.17769.754-.70392C8.88951,52.80761,8.22384,53.63579,8.61613,54.162Z"/><path class="cls-2" d="M6.44237,51.917c.33625.36535,1.146-.17769.7542-.70365C6.71589,50.56292,6.05021,51.3911,6.44237,51.917Z"/><path class="cls-2" d="M8.37967,49.4949c.33621.365,1.1459-.17772.754-.70395C8.65318,48.14051,7.9875,48.96865,8.37967,49.4949Z"/><path class="cls-2" d="M10.446,51.66089c.33623.36508,1.146-.178.75418-.704C10.71948,50.3065,10.0538,51.13467,10.446,51.66089Z"/><path class="cls-2" d="M144.582,45.65461a1.14165,1.14165,0,0,0-.0866-.92132l.0161-.00525a5.58157,5.58157,0,0,0,1.2521-.60926.74342.74342,0,0,0-.01454-1.12373c-.58412-.43965-1.32464.82-1.52877,1.40442a.75568.75568,0,0,0-.88126-.07651,3.11543,3.11543,0,0,0-.6393-1.16591,1.14432,1.14432,0,0,0-1.29344-.261c-.36932.217-.10572.73191.10181.95329.40938.43589,1.03786.46242,1.556.69976-.02222.02607-.04666.04984-.06669.07846a.90756.90756,0,0,0,.08146,1.20407c-.83385.26556-2.36522,1.35669-1.53462,2.17822a.84894.84894,0,0,0,1.2891-.2982,4.31494,4.31494,0,0,0,.57231-1.6522.91457.91457,0,0,0,.95408-.067c.2532.89216,1.42435,2.77623,2.30039,1.91058C147.45,47.1227,145.303,45.8224,144.582,45.65461Zm.964-2.42882c.13965.05306.18349.33345.16021.45532-.03453.17832-.24509.2958-.38745.37732a6.662,6.662,0,0,1-.76855.31921,3.52019,3.52019,0,0,1,.32306-.56571C144.9696,43.66722,145.31676,43.13869,145.54609,43.22579Zm-3.974-.0748c.14823-.121.43889-.02561.59821.01581a.90364.90364,0,0,1,.4459.36007,2.63143,2.63143,0,0,1,.35345.65836c-.275-.098-.56169-.16508-.8328-.27423C141.98214,43.84883,141.29054,43.38164,141.57206,43.151Zm.27309,4.6957c-.83757-.35491.60034-1.404,1.23726-1.68985C142.95087,46.85935,142.60533,48.169,141.84515,47.84669Zm1.56287-2.129a.62335.62335,0,0,1-.14531-.94224.5201.5201,0,0,1,.85-.06742.83845.83845,0,0,1,.122.98414A.63056.63056,0,0,1,143.408,45.71765Zm3.06941,1.922c-.35355.77358-1.48237-.92963-1.784-1.63628a4.7525,4.7525,0,0,1,.8603.493C145.83513,46.678,146.6749,47.20789,146.47743,47.63969Z"/><path class="cls-2" d="M143.5254,47.3893c-.33938.56144.51859,1.02421.81829.62821C144.68364,47.456,143.94132,46.69566,143.5254,47.3893Z"/><path class="cls-2" d="M145.47341,44.94611c-.33966.56119.51857,1.02391.81829.62794C146.63135,45.0129,145.88906,44.25252,145.47341,44.94611Z"/><path class="cls-2" d="M143.31249,42.721c-.33965.56146.51858,1.02391.818.62826C144.47016,42.7878,143.72814,42.02744,143.31249,42.721Z"/><path class="cls-2" d="M142.282,45.70378c.33964-.56145-.40265-1.32183-.8183-.62824C141.12405,45.63672,141.98229,46.09948,142.282,45.70378Z"/><path class="cls-2" d="M11.464,11.58136c16.63274-.80032,33.27135-1.4763,49.9062-2.233,16.99774-.77328,55.78522-2.252,72.76208-3.40408q1.61445-.10939,3.228-.22413a.11413.11413,0,0,0-.011-.22787c-16.81641,1.19219-55.44608,2.68061-72.286,3.45847-16.81868.77714-33.64154,1.46166-50.45942,2.25274q-1.57556.07407-3.15089.15A.11413.11413,0,0,0,11.464,11.58136Z"/><path class="cls-2" d="M139.26088,45.19172c-16.63244.8003-55.05963,2.13442-71.69447,2.8911-16.99774.77327-33.99665,1.59387-50.97365,2.74592q-1.61422.10938-3.2282.22414a.11413.11413,0,0,0,.011.22787c16.81657-1.1922,33.65781-2.02247,50.49774-2.80032,16.81882-.77715,55.43-2.11985,72.24785-2.9109q1.57554-.07409,3.15074-.14994A.11412.11412,0,0,0,139.26088,45.19172Z"/><path class="cls-2" d="M141.94317,10.58994l1.42066,29.50385a.11413.11413,0,0,0,.22786-.011L142.171,10.579A.11413.11413,0,0,0,141.94317,10.58994Z"/><path class="cls-2" d="M6.89832,16.70156,8.319,46.20541a.11413.11413,0,0,0,.22787-.011L7.12619,16.69059A.11413.11413,0,0,0,6.89832,16.70156Z"/><path class="cls-2" d="M35.56276,38.52957a37.47544,37.47544,0,0,1-.71327-5.83423c-.30474-5.8-.57636-10.68357.3732-16.07725,1.79752-.54213,5.4279-.27051,7.157.03423a45.55236,45.55236,0,0,1,.34008,9.19189,4.42173,4.42173,0,0,1-3.22186-.17,13.59212,13.59212,0,0,0-.54323-4.37567l-1.05113.27162a44.57427,44.57427,0,0,0,.64481,10.95519l1.15271-.20316c0-1.357-.20316-3.22186-.307-4.34145a14.24408,14.24408,0,0,1,2.44234.03423c.64481,0,.94955.44055.91643,1.357-.03312,1.66172-.10158,7.02006-.67794,9.12343A59.67869,59.67869,0,0,1,35.56276,38.52957Z"/><path class="cls-2" d="M44.61884,36.562c-.40632-6.58062-.44165-13.43175-.3732-19.90969.27162-.30474,2.884-.30474,3.8998.03423.30694,5.291,0,10.921.61168,16.17883l1.15272-.3732v-.03423c0-5.12206-.30474-10.3446-.30474-15.90721,1.25429-.03423,2.67862.16893,3.83133.10158.20537,6.51216.10158,14.04234-.16783,20.21443-.03533.74639-.94955,1.32275-1.96756,1.56014a12.31435,12.31435,0,0,1-5.08783-.23739C45.7031,37.61314,45.39836,37.41,44.61884,36.562Z"/><path class="cls-2" d="M63.74681,38.59692c-.17-1.76329-.33787-6.6822-.60948-8.41127-.44166,3.25609-.64482,6.74956-.88331,8.4455l-2.237-.03423s-.68014-5.52838-.98488-7.42749c-.20316,2.47547-.20316,6.10474-.47478,7.36014a14.83339,14.83339,0,0,1-3.18873-.13581c.23849-7.29278.06846-14.51711-.06625-21.74144,1.11959-.27162,2.50859-.10158,4.00137-.27162.3732,1.96756,1.28963,7.32591,1.79753,11.32839.74639-3.05182,1.42433-8.17388,2.036-11.22681l3.32343.03423.17-.03423c-.20316,7.0554.20316,15.02612.37319,22.01306A24.48072,24.48072,0,0,0,63.74681,38.59692Z"/><path class="cls-2" d="M77.31437,36.053a8.38551,8.38551,0,0,1-2.407,2.34076c-1.93444.10158-3.96824.13581-5.76577.13581a183.78269,183.78269,0,0,1-.23849-22.04729c1.35808-.03312,3.32343,0,4.71464,0a3.99006,3.99006,0,0,1,2.91711,1.59437c.64481.71216,1.05113,1.11959,1.05113,1.42433a44.76023,44.76023,0,0,1-.43944,6.818,5.28976,5.28976,0,0,0-1.18805,1.49168,6.8592,6.8592,0,0,1,1.59437,2.205A30.80483,30.80483,0,0,1,77.31437,36.053ZM72.4319,26.79376c.3732.23739,1.11738,0,1.62749-.17,0-1.7633-.23849-3.56083-.23849-5.32523a1.832,1.832,0,0,0-1.62749.27162C72.22653,22.72394,72.33032,26.48792,72.4319,26.79376ZM74.161,34.5271c-.20316-1.56014-.23849-3.46035-.40632-4.64729l-1.2565.20426c.06845,1.59326.13691,2.67862.23849,4.81622Z"/><path class="cls-2" d="M89.4576,38.59692a19.91819,19.91819,0,0,1-4.71464,0c-.20316-2.54392-.23849-4.40879-.5079-6.44481H83.11547c-.51011,3.05292-.51011,4.71464-.78172,6.58062a37.88821,37.88821,0,0,1-3.93292,0c.77952-7.39436,1.22117-14.7545,2.34076-22.14776a37.85359,37.85359,0,0,0,5.49416-.20427C87.38846,23.26606,88.0664,30.253,89.4576,38.59692ZM84.6745,27.03115c-.23628-1.96756-.5079-3.62928-.77951-6.07162-.5079,2.714-.61169,4.30832-.848,6.20743Z"/><path class="cls-2" d="M91.15355,38.56269c.13691-3.45924-.06625-7.59752-.10158-10.81937a63.3431,63.3431,0,0,0-2.95024-11.29416,40.1358,40.1358,0,0,1,4.51148-.10158,48.3789,48.3789,0,0,0,1.22117,6.27367c.541-1.62749.81264-4.57883,1.559-6.24055a23.56655,23.56655,0,0,1,3.46035.03423c-.77952,3.29031-2.17073,8.41127-3.0187,11.80316-.10158,3.29031-.06846,7.36014-.13691,10.37883C94.61389,38.52957,92.30626,38.83431,91.15355,38.56269Z"/><path class="cls-2" d="M108.96318,38.59692a19.91819,19.91819,0,0,1-4.71464,0c-.20316-2.54392-.23849-4.40879-.5079-6.44481h-1.11959c-.51011,3.05292-.51011,4.71464-.78172,6.58062a37.8882,37.8882,0,0,1-3.93292,0c.77952-7.39436,1.22117-14.7545,2.34076-22.14776a37.8534,37.8534,0,0,0,5.49415-.20427C106.894,23.26606,107.572,30.253,108.96318,38.59692ZM106.3508,13.532c-.71106.23739-4.13828,2.10227-4.6793,2.23808l-1.15492-1.25429a34.0927,34.0927,0,0,1,4.47835-2.84977Zm-2.17072,13.49911c-.23628-1.96756-.5079-3.62928-.77951-6.07162-.5079,2.714-.61169,4.30832-.848,6.20743Z"/></svg>