<svg id="Layer_1" data-name="Layer 1" xmlns="http://www.w3.org/2000/svg" viewBox="0 0 150.8992 56.50352"><defs><style>.cls-1{fill:#fabc1a;}.cls-2{fill:#48276c;}</style></defs><title>imagen-condado-ubicanos-03</title><polygon class="cls-1" points="150.899 52.539 4.072 56.375 0 4.762 146.623 0.225 150.899 52.539"/><path class="cls-2" d="M6.20112,11.55136a1.14228,1.14228,0,0,0,.08676.9213l-.0161.00522a5.58129,5.58129,0,0,0-1.252.60929.74355.74355,0,0,0,.01443,1.12373c.58427.43965,1.32433-.82,1.52861-1.40444a.756.756,0,0,0,.88157.07653,3.11481,3.11481,0,0,0,.63915,1.16592,1.14448,1.14448,0,0,0,1.29359.261c.36917-.217.10572-.7319-.102-.95328-.40923-.43589-1.03786-.46242-1.55617-.69975.02253-.02608.04666-.04984.067-.07847a.90775.90775,0,0,0-.0816-1.20406c.83373-.26556,2.36506-1.35668,1.53446-2.17822a.84878.84878,0,0,0-1.28894.29819,4.32015,4.32015,0,0,0-.57232,1.6522.91428.91428,0,0,0-.95392.067c-.25336-.89215-1.42435-2.77623-2.30057-1.91058C3.33337,10.08325,5.48021,11.38356,6.20112,11.55136Zm-.9639,2.4288c-.13965-.053-.18348-.33345-.16005-.45532.03438-.17831.24493-.2958.38715-.37731a6.66991,6.66991,0,0,1,.76869-.31922,3.49918,3.49918,0,0,1-.32321.56572C5.81372,13.53874,5.4664,14.06725,5.23722,13.98016Zm3.974.0748c-.14808.121-.439.02562-.59821-.01581a.90184.90184,0,0,1-.44575-.36007,2.63229,2.63229,0,0,1-.35376-.65834c.2752.098.5617.16507.833.27422C8.801,13.35713,9.49262,13.82432,9.21126,14.055Zm-.27294-4.6957c.83742.35492-.60034,1.404-1.23726,1.68985C7.83259,10.3466,8.17784,9.03693,8.93832,9.35926Zm-1.56318,2.129a.62317.62317,0,0,1,.14547.94223.52011.52011,0,0,1-.85.06742.83841.83841,0,0,1-.12187-.98414A.63014.63014,0,0,1,7.37514,11.48831Zm-3.06937-1.922c.35363-.77359,1.48233.92963,1.78428,1.63627a4.74756,4.74756,0,0,1-.86042-.493C4.94818,10.528,4.10827,9.99807,4.30577,9.56627Z"/><path class="cls-2" d="M7.25792,9.81666c.33953-.56145-.51874-1.02421-.81818-.62822C6.09983,9.74991,6.842,10.51029,7.25792,9.81666Z"/><path class="cls-2" d="M5.31006,12.25983c.33951-.56117-.51873-1.02393-.81832-.62793C4.15193,12.19306,4.8941,12.95344,5.31006,12.25983Z"/><path class="cls-2" d="M6.6528,13.85667c-.33979.56149.40237,1.32185.81818.62824C7.81047,13.92347,6.95237,13.461,6.6528,13.85667Z"/><path class="cls-2" d="M8.50143,11.50217c-.3398.56146.40237,1.32184.81833.62824C9.65926,11.56923,8.801,11.10648,8.50143,11.50217Z"/><path class="cls-2" d="M141.1162,5.33833a.9127.9127,0,0,0,.03682,1.20921c.02328.02683.0487.0482.07336.072-.46582.26985-1.06858.35747-1.43231.783-.21143.24719-.45212.75781-.09594.9964a1.10338,1.10338,0,0,0,1.25316-.3036,2.67523,2.67523,0,0,0,.57424-1.27252.78306.78306,0,0,0,.8629-.1626,3.324,3.324,0,0,0,.64247.89781c.22549.24193.64246.6135.98844.3753A.7402.7402,0,0,0,144,6.822c-.3783-.32794-.90956-.33089-1.3496-.52l-.00569-.00119a1.1852,1.1852,0,0,0-.01469-.92864,4.11962,4.11962,0,0,0,1.40617-.9798c.37242-.34386.91883-.97746.44787-1.45706-.87186-.88795-1.91938,1.25254-2.10251,2.125a.90986.90986,0,0,0-.95827.023c-.22248-.79165-1.027-2.77515-2.0417-1.76277C138.54568,4.15451,140.29516,5.14147,141.1162,5.33833ZM139.93184,8.176c-.17784-.031-.09826-.24955-.05209-.35318a1.00683,1.00683,0,0,1,.41306-.43831,7.59663,7.59663,0,0,1,.87832-.39886C140.99855,7.6009,140.6399,8.29887,139.93184,8.176Zm3.91885-.4971c-.21217.2511-.82669-.56717-1.10075-1.02087.23547.07222.47983.11993.71011.20848C143.78944,6.99365,144.16157,7.31058,143.85069,7.67886Zm.47679-4.46385c.3528.45941-.97387,1.46543-1.62311,1.792C142.91716,4.2631,143.8001,2.52757,144.32748,3.215Zm-2.04523,2.154a.84736.84736,0,0,1-.02691.99131.521.521,0,0,1-.85252.01455.67306.67306,0,0,1,.87943-1.00586Zm-2.58551-1.915c.68906-.45072,1.19324.8915,1.39347,1.567C140.42088,4.81274,138.93386,3.95292,139.69674,3.454Z"/><path class="cls-2" d="M142.16731,3.044c-.33637-.36538-1.1459.17769-.75415.70392C141.8938,4.39834,142.55963,3.57016,142.16731,3.044Z"/><path class="cls-2" d="M144.34107,5.28894c-.33638-.36538-1.14618.1777-.75417.70365C144.06727,6.643,144.73307,5.81486,144.34107,5.28894Z"/><path class="cls-2" d="M142.40364,7.71106c-.33608-.36506-1.1459.17771-.75388.70394C142.13013,9.06545,142.79566,8.23731,142.40364,7.71106Z"/><path class="cls-2" d="M140.33747,5.54506c-.33636-.36507-1.14616.178-.75416.70395C140.06369,6.89946,140.72949,6.07128,140.33747,5.54506Z"/><path class="cls-2" d="M9.66711,52.09276a.913.913,0,0,0-.03667-1.20921c-.0233-.02683-.04885-.04819-.0735-.072.46581-.26986,1.06869-.35748,1.43245-.783.21129-.24719.45182-.7578.09579-.9964a1.1034,1.1034,0,0,0-1.25315.3036,2.67513,2.67513,0,0,0-.57424,1.27252.78287.78287,0,0,0-.86278.16259,3.331,3.331,0,0,0-.6426-.8978c-.22564-.24192-.64246-.6135-.98832-.3753a.74011.74011,0,0,0,.01916,1.11129c.37848.328.90945.33093,1.34963.52l.0057.00122a1.1853,1.1853,0,0,0,.01454.92865,4.12094,4.12094,0,0,0-1.406.97979c-.37257.34387-.91871.97745-.4479,1.45707.87173.888,1.91941-1.25255,2.10268-2.125a.9096.9096,0,0,0,.95812-.023c.22264.79165,1.027,2.77515,2.04155,1.76278C12.23779,53.27659,10.48815,52.28963,9.66711,52.09276Zm1.18421-2.83761c.178.031.09856.24953.05209.35318a1.00551,1.00551,0,0,1-.41294.4383,7.59994,7.59994,0,0,1-.87814.39885C9.78476,49.8302,10.14341,49.13222,10.85132,49.25515Zm-3.91869.49708c.21228-.2511.82669.56718,1.10086,1.02088-.23543-.07223-.48-.12-.71008-.20849C6.99388,50.43745,6.62175,50.12051,6.93263,49.75223Zm-.47691,4.46386c-.35269-.45941.97414-1.46544,1.62322-1.792C7.86615,53.168,6.98337,54.90352,6.45572,54.21609Zm2.04534-2.154a.84736.84736,0,0,1,.02691-.99131.521.521,0,0,1,.85252-.01455.67308.67308,0,0,1-.87943,1.00586Zm2.58567,1.915c-.68921.45072-1.19324-.89151-1.39378-1.567C10.36243,52.61836,11.8496,53.47817,11.08673,53.97706Z"/><path class="cls-2" d="M8.61613,54.38715c.33609.36538,1.14593-.17769.754-.70392C8.88951,53.03276,8.22384,53.86093,8.61613,54.38715Z"/><path class="cls-2" d="M6.44237,52.14216c.33625.36535,1.146-.1777.7542-.70366C6.71589,50.78807,6.05021,51.61624,6.44237,52.14216Z"/><path class="cls-2" d="M8.37967,49.72c.33621.36505,1.1459-.17771.754-.70394C8.65318,48.36565,7.9875,49.1938,8.37967,49.72Z"/><path class="cls-2" d="M10.446,51.886c.33623.36507,1.146-.178.75418-.704C10.71948,50.53165,10.0538,51.35982,10.446,51.886Z"/><path class="cls-2" d="M144.582,45.87975a1.14162,1.14162,0,0,0-.0866-.92131l.0161-.00525a5.582,5.582,0,0,0,1.2521-.60926.74342.74342,0,0,0-.01454-1.12373c-.58412-.43966-1.32464.82-1.52877,1.40442a.75568.75568,0,0,0-.88126-.07652,3.11551,3.11551,0,0,0-.6393-1.16591,1.14432,1.14432,0,0,0-1.29344-.261c-.36932.217-.10572.7319.10181.95329.40938.43589,1.03786.46242,1.556.69975-.02222.02608-.04666.04985-.06669.07846a.90756.90756,0,0,0,.08146,1.20407c-.83385.26556-2.36522,1.35669-1.53462,2.17823a.84894.84894,0,0,0,1.2891-.2982,4.31506,4.31506,0,0,0,.57231-1.6522.91457.91457,0,0,0,.95408-.067c.2532.89216,1.42435,2.77624,2.30039,1.91059C147.45,47.34785,145.303,46.04755,144.582,45.87975Zm.964-2.42881c.13965.053.18349.33345.16021.45531-.03453.17832-.24509.29581-.38745.37733a6.66381,6.66381,0,0,1-.76855.31921,3.51933,3.51933,0,0,1,.32306-.56571C144.9696,43.89236,145.31676,43.36383,145.54609,43.45094Zm-3.974-.0748c.14823-.121.43889-.02561.59821.01581a.90357.90357,0,0,1,.4459.36006,2.63178,2.63178,0,0,1,.35345.65836c-.275-.098-.56169-.16508-.8328-.27423C141.98214,44.074,141.29054,43.60679,141.57206,43.37614Zm.27309,4.69569c-.83757-.35491.60034-1.404,1.23726-1.68985C142.95087,47.08449,142.60533,48.39418,141.84515,48.07183Zm1.56287-2.129a.62335.62335,0,0,1-.14531-.94224.5201.5201,0,0,1,.85-.06742.83845.83845,0,0,1,.122.98414A.63056.63056,0,0,1,143.408,45.9428Zm3.06941,1.922c-.35355.77359-1.48237-.92963-1.784-1.63628a4.75252,4.75252,0,0,1,.8603.493C145.83513,46.9031,146.6749,47.433,146.47743,47.86483Z"/><path class="cls-2" d="M143.5254,47.61444c-.33938.56145.51859,1.02421.81829.62821C144.68364,47.68118,143.94132,46.92081,143.5254,47.61444Z"/><path class="cls-2" d="M145.47341,45.17126c-.33966.56118.51857,1.02391.81829.62794C146.63135,45.238,145.88906,44.47767,145.47341,45.17126Z"/><path class="cls-2" d="M143.31249,42.94618c-.33965.56145.51858,1.02391.818.62825C144.47016,43.01295,143.72814,42.25258,143.31249,42.94618Z"/><path class="cls-2" d="M142.282,45.92893c.33964-.56146-.40265-1.32184-.8183-.62824C141.12405,45.86187,141.98229,46.32462,142.282,45.92893Z"/><path class="cls-2" d="M11.464,11.8065c16.63274-.80031,33.27135-1.47629,49.9062-2.233,16.99774-.77327,55.78522-2.252,72.76208-3.40407q1.61445-.1094,3.228-.22414a.11412.11412,0,0,0-.011-.22786C120.53289,6.90966,81.90322,8.39809,65.06329,9.176c-16.81868.77713-33.64154,1.46165-50.45942,2.25273q-1.57556.07409-3.15089.15A.11413.11413,0,0,0,11.464,11.8065Z"/><path class="cls-2" d="M139.26088,45.41687c-16.63244.80029-55.05963,2.13441-71.69447,2.8911-16.99774.77327-33.99665,1.59386-50.97365,2.74591q-1.61422.10938-3.2282.22415a.11413.11413,0,0,0,.011.22786c16.81657-1.19219,33.65781-2.02246,50.49774-2.80032,16.81882-.77714,55.43-2.11984,72.24785-2.91089q1.57554-.07409,3.15074-.14995A.11412.11412,0,0,0,139.26088,45.41687Z"/><path class="cls-2" d="M141.94317,10.81509l1.42066,29.50385a.11413.11413,0,0,0,.22786-.011L142.171,10.80411A.11413.11413,0,0,0,141.94317,10.81509Z"/><path class="cls-2" d="M6.89832,16.92671,8.319,46.43056a.11413.11413,0,0,0,.22787-.011L7.12619,16.91573A.11413.11413,0,0,0,6.89832,16.92671Z"/><path class="cls-2" d="M8.40354,39.18622a34.97442,34.97442,0,0,1-.66469-5.44888C7.454,28.32157,7.2,23.76041,8.08776,18.72447c1.67828-.5079,5.068-.25395,6.6822.03091a42.49585,42.49585,0,0,1,.318,8.58352,4.13482,4.13482,0,0,1-3.00986-.15789,12.67775,12.67775,0,0,0-.50569-4.08639l-.98268.25395a41.78255,41.78255,0,0,0,.60065,10.23088l1.07763-.18992c0-1.26754-.18991-3.00986-.28487-4.05436a13.41411,13.41411,0,0,1,2.28114.03091c.60065,0,.88551.41184.8546,1.26754-.03092,1.55241-.095,6.55633-.63378,8.52058A55.673,55.673,0,0,1,8.40354,39.18622Z"/><path class="cls-2" d="M15.55831,27.8468c0-3.38969.03092-6.33551,1.04451-9.28133a23.66826,23.66826,0,0,1,5.79669-.18991c1.26754,2.94582,1.17258,6.96817,1.10854,10.13592-.064,3.51556-.18991,6.68331-.56973,10.23088a12.509,12.509,0,0,1-6.08155.28487C15.77914,35.66957,15.55831,32.8187,15.55831,27.8468Zm3.4206,6.08155c.66468-.064.98267.095,1.55241-.22193-.18991-3.45262.03091-7.31708-.37983-10.6118-.28486.127-1.36249.032-1.80635.18991A93.14569,93.14569,0,0,0,18.97891,33.92835Z"/><path class="cls-2" d="M29.10821,39.31209c-.82369-3.00875-1.23663-4.909-1.93223-7.56992-.064,1.86929.12587,5.54274.12587,7.38-1.32938.064-2.02719-.06293-2.85087-.06293.159-5.82871-.12587-18.56155-.18991-20.33478.95176,0,1.8704-.127,2.85087-.191.66468,1.48947,1.58332,6.39844,1.99627,7.28616.18991-1.74232-.159-5.28989-.159-7.09514.94955-.09606,1.86819-.191,2.28114-.191.60064,0,.88772.127.88772.5068-.34891,6.81028.18991,14.00038.06183,20.27184A12.48577,12.48577,0,0,0,29.10821,39.31209Z"/><path class="cls-2" d="M33.0632,18.75538c1.83728-.44275,4.1162-.09495,5.44778-.15789.63378.25285,2.9127,1.67828,3.0717,2.69187.12587,5.54384,0,8.67958.25395,13.20872a2.50024,2.50024,0,0,1-.79277,1.58333A19.33316,19.33316,0,0,1,38.511,38.93227c-1.04671.82368-4.05436.41184-4.94209.064C33.78972,32.186,33.47394,25.6286,33.0632,18.75538ZM38.098,34.1812a28.59912,28.59912,0,0,0-.12587-9.85106,3.03826,3.03826,0,0,0-1.48837.18991c.18991,2.471.41074,6.46248.47478,9.4083Z"/><path class="cls-2" d="M52.21988,39.24916a18.58419,18.58419,0,0,1-4.40328,0c-.18991-2.37609-.22083-4.11731-.47478-6.01862H46.29511c-.47478,2.85087-.47478,4.40327-.72652,6.14559a35.68047,35.68047,0,0,1-3.67455,0c.72873-6.90523,1.13947-13.77845,2.184-20.68368a35.1551,35.1551,0,0,0,5.132-.18991C50.28765,24.93189,50.92142,31.45731,52.21988,39.24916ZM47.75256,28.44855c-.22082-1.83728-.47477-3.38968-.72873-5.66971-.47477,2.53287-.56973,4.02234-.79055,5.79558Z"/><path class="cls-2" d="M52.2795,18.75538c1.83727-.44275,4.1162-.09495,5.44778-.15789.63377.25285,2.9127,1.67828,3.07169,2.69187.12587,5.54384,0,8.67958.254,13.20872a2.50022,2.50022,0,0,1-.79276,1.58333,19.33373,19.33373,0,0,1-2.53288,2.85086c-1.04672.82368-4.05437.41184-4.94209.064C53.006,32.186,52.69024,25.6286,52.2795,18.75538ZM57.31434,34.1812a28.59888,28.59888,0,0,0-.12588-9.85106,3.03822,3.03822,0,0,0-1.48836.18991c.18991,2.471.41073,6.46248.47477,9.4083Z"/><path class="cls-2" d="M61.58732,27.8468c0-3.38969.03092-6.33551,1.04451-9.28133a23.66826,23.66826,0,0,1,5.79669-.18991c1.26754,2.94582,1.17259,6.96817,1.10855,10.13592-.064,3.51556-.18991,6.68331-.56974,10.23088a12.509,12.509,0,0,1-6.08155.28487C61.80815,35.66957,61.58732,32.8187,61.58732,27.8468Zm3.4206,6.08155c.66469-.064.98268.095,1.55241-.22193-.18991-3.45262.03091-7.31708-.37982-10.6118-.28487.127-1.3625.032-1.80636.18991A93.14569,93.14569,0,0,0,65.00792,33.92835Z"/><path class="cls-2" d="M80.39288,25.24878c.06183-.41184.03092-1.39342.06183-1.80526l-1.01359-.032a7.273,7.273,0,0,0-.12587,2.62894,29.94063,29.94063,0,0,0,3.10482,1.64736,1.1137,1.1137,0,0,1,.79055,1.23552c.064,3.86446.34891,7.0002-.34669,10.168-1.61645.3478-5.227.66468-6.4945-.5068a26.61471,26.61471,0,0,1-.34891-7.15918c.47478-.31689,1.80636-.06294,2.37609-.032.12587.95065.18991,2.12324.28487,2.81995.41294.18991,1.23663.50679,1.33158-.127V31.04546c-1.45745-1.17148-2.85087-1.61534-3.95941-2.78793a32.53822,32.53822,0,0,1-.159-9.28022,6.5368,6.5368,0,0,1,3.29473-.60175c.94955,0,3.70546.25285,3.83133.69671.79277,1.61534.44386,4.87805.095,6.36642A4.72022,4.72022,0,0,1,80.39288,25.24878Z"/><path class="cls-2" d="M89.79345,39.37613c-.3489-3.23068-.095-7.12716-.37982-10.45281H88.27417c.06183,4.75108-.095,7.03221-.03313,10.23088-1.36249.06294-2.184-.06293-3.32564,0,.03092-3.10371-.28486-6.8423-.3489-10.64272-.06183-3.19977,0-7.66487-.18991-9.62912a12.19872,12.19872,0,0,1,3.54867-.15789A33.666,33.666,0,0,0,88.336,23.9183c.66469-.15789,1.04672-.22193,1.07763-.44276a21.78075,21.78075,0,0,0-.03091-4.75107,18.54137,18.54137,0,0,1,4.21115-.159c-.28486,3.13573-.41073,7.56992-.53881,10.67474-.06184,3.00876.064,7.31708-.06184,10.07188C92.29541,39.502,90.80705,39.24916,89.79345,39.37613Z"/><path class="cls-2" d="M94.19231,27.8468c0-3.38969.03092-6.33551,1.04451-9.28133a23.66826,23.66826,0,0,1,5.79669-.18991c1.26754,2.94582,1.17258,6.96817,1.10854,10.13592-.064,3.51556-.18991,6.68331-.56973,10.23088a12.509,12.509,0,0,1-6.08155.28487C94.41314,35.66957,94.19231,32.8187,94.19231,27.8468Zm3.4206,6.08155c.66469-.064.98268.095,1.55241-.22193-.18991-3.45262.03091-7.31708-.37982-10.6118-.28487.127-1.3625.032-1.80636.18991A93.14569,93.14569,0,0,0,97.61291,33.92835Z"/><path class="cls-2" d="M103.08719,39.24916c-.06183-6.81028-.22083-14.41222-.3467-20.93653,1.86819.15789,3.86225,0,5.82761.06293.98046,0,1.29845.60175,1.45745,1.29846a35.87445,35.87445,0,0,1,.25174,11.65631,8.14045,8.14045,0,0,1-3.23069.72873,57.33118,57.33118,0,0,0-.25174,7.00019A23.8457,23.8457,0,0,1,103.08719,39.24916Zm3.57959-17.1041-.94955.18992c.095,1.74231.22083,4.973.31578,7.12716l1.23663-.127c.03091-1.90021,0-4.46621-.159-6.62037C106.98477,22.335,106.82578,22.113,106.66678,22.14506Z"/><path class="cls-2" d="M111.37921,39.24916c-.06183-6.81028-.22082-14.41222-.34669-20.93653,1.86819.15789,3.86446,0,5.8276.06293.98047,0,1.29846.60175,1.45745,1.29846a35.87472,35.87472,0,0,1,.25175,11.65631,8.14048,8.14048,0,0,1-3.23069.72873,57.32714,57.32714,0,0,0-.25174,7.00019A23.84583,23.84583,0,0,1,111.37921,39.24916Zm3.5796-17.1041-.94956.18992c.095,1.74231.22083,4.973.31579,7.12716l1.23662-.127c.03092-1.90021,0-4.46621-.159-6.62037C115.2768,22.335,115.1178,22.113,114.95881,22.14506Z"/><path class="cls-2" d="M123.63286,39.21714c-.60065.032-2.81774.064-3.86446-.03092-.06183-3.10481.064-7.03221-.12587-10.57978-.18991-3.35766-.12587-6.65129-.09495-9.978a22.03241,22.03241,0,0,1,4.1184-.06294c.12587,3.38968-.095,6.93726,0,10.38987C123.79185,32.66081,123.63286,35.63865,123.63286,39.21714Z"/><path class="cls-2" d="M129.58633,39.31209c-.82368-3.00875-1.23662-4.909-1.93223-7.56992-.064,1.86929.12588,5.54274.12588,7.38-1.32938.064-2.02719-.06293-2.85087-.06293.159-5.82871-.12587-18.56155-.18991-20.33478.95176,0,1.8704-.127,2.85087-.191.66468,1.48947,1.58332,6.39844,1.99626,7.28616.18991-1.74232-.159-5.28989-.159-7.09514.94955-.09606,1.86819-.191,2.28113-.191.60065,0,.88773.127.88773.5068-.34891,6.81028.18991,14.00038.06183,20.27184A12.48585,12.48585,0,0,0,129.58633,39.31209Z"/><path class="cls-2" d="M134.20381,39.31209a59.68708,59.68708,0,0,1-.79277-10.32583c.03313-3.35766-.12587-7.03111.72873-10.1039a18.96476,18.96476,0,0,1,7.56992.25284,51.14466,51.14466,0,0,1-.22082,7.31708c-.75965.064-2.12214.032-2.94583.064-.09495-.69671.064-1.96425-.09495-2.78793h-1.14167a41.61118,41.61118,0,0,0-.47478,5.51182c-.03091.98157.18991,3.73748.28487,5.00392.3489.127,1.55241.159,1.74232-.12587l-.095-2.534c0-.22193-.6956-.191-1.2035-.22193a24.07474,24.07474,0,0,1-.18991-3.7695c.98267.032,2.53508.18991,3.54867.18991.56974,0,.8546.127.8546.41184a57.83155,57.83155,0,0,1-.37982,11.08658C138.85883,39.40705,136.70577,38.99631,134.20381,39.31209Z"/></svg>