<svg id="Layer_1" data-name="Layer 1" xmlns="http://www.w3.org/2000/svg" viewBox="0 0 150.8992 56.40832"><defs><style>.cls-1{fill:#fabc1a;}.cls-2{fill:#48276c;}</style></defs><title>imagen-elbatan-ubicanos</title><polygon class="cls-1" points="150.899 52.573 4.072 56.408 0 4.796 146.623 0.259 150.899 52.573"/><path class="cls-2" d="M6.20112,11.58512a1.14228,1.14228,0,0,0,.08676.9213l-.0161.00523a5.58083,5.58083,0,0,0-1.252.60928.74355.74355,0,0,0,.01443,1.12373c.58427.43965,1.32433-.82,1.52861-1.40444a.756.756,0,0,0,.88157.07653,3.11481,3.11481,0,0,0,.63915,1.16592,1.14448,1.14448,0,0,0,1.29359.261c.36917-.217.10572-.7319-.102-.95328-.40923-.43589-1.03786-.46242-1.55617-.69975.02253-.02608.04666-.04984.067-.07847a.90776.90776,0,0,0-.0816-1.20406c.83373-.26556,2.36506-1.35668,1.53446-2.17822A.84878.84878,0,0,0,7.94991,9.528a4.32015,4.32015,0,0,0-.57232,1.6522.9143.9143,0,0,0-.95392.067c-.25336-.89215-1.42435-2.77623-2.30057-1.91057C3.33337,10.117,5.48021,11.41732,6.20112,11.58512Zm-.9639,2.42881c-.13965-.05306-.18348-.33346-.16005-.45533.03438-.17831.24493-.29579.38715-.37731a6.66991,6.66991,0,0,1,.76869-.31922,3.49875,3.49875,0,0,1-.32321.56572C5.81372,13.5725,5.4664,14.101,5.23722,14.01393Zm3.974.07479c-.14808.121-.439.02562-.59821-.0158a.90191.90191,0,0,1-.44575-.36008,2.63194,2.63194,0,0,1-.35376-.65834c.2752.098.5617.16508.833.27422C8.801,13.39089,9.49262,13.85808,9.21126,14.08872ZM8.93832,9.393c.83742.35492-.60034,1.404-1.23726,1.68985C7.83259,10.38036,8.17784,9.07069,8.93832,9.393Zm-1.56318,2.129a.62317.62317,0,0,1,.14547.94223.52011.52011,0,0,1-.85.06742.83841.83841,0,0,1-.12187-.98414A.63014.63014,0,0,1,7.37514,11.52207ZM4.30577,9.6c.35363-.7736,1.48233.92962,1.78428,1.63626a4.74756,4.74756,0,0,1-.86042-.493C4.94818,10.56176,4.10827,10.03183,4.30577,9.6Z"/><path class="cls-2" d="M7.25792,9.85042c.33953-.56145-.51874-1.02421-.81818-.62822C6.09983,9.78367,6.842,10.54406,7.25792,9.85042Z"/><path class="cls-2" d="M5.31006,12.29359c.33951-.56117-.51873-1.02393-.81832-.62793C4.15193,12.22682,4.8941,12.9872,5.31006,12.29359Z"/><path class="cls-2" d="M6.6528,13.89043c-.33979.56149.40237,1.32185.81818.62825C7.81047,13.95723,6.95237,13.49477,6.6528,13.89043Z"/><path class="cls-2" d="M8.50143,11.53593c-.3398.56146.40237,1.32185.81833.62824C9.65926,11.603,8.801,11.14024,8.50143,11.53593Z"/><path class="cls-2" d="M141.1162,5.3721a.91269.91269,0,0,0,.03682,1.2092c.02328.02683.0487.04821.07336.072-.46582.26986-1.06858.35747-1.43231.783-.21143.24719-.45212.75781-.09594.9964a1.10338,1.10338,0,0,0,1.25316-.3036,2.67523,2.67523,0,0,0,.57424-1.27252.783.783,0,0,0,.8629-.1626,3.324,3.324,0,0,0,.64247.89781c.22549.24193.64246.6135.98844.3753A.7402.7402,0,0,0,144,6.85578c-.3783-.32794-.90956-.33089-1.3496-.52l-.00389-.00039a1.195,1.195,0,0,0-.01649-.92944,4.11946,4.11946,0,0,0,1.40617-.97979c.37242-.34387.91883-.97747.44787-1.45707-.87186-.88795-1.91938,1.25254-2.10251,2.125a.90986.90986,0,0,0-.95827.023c-.22248-.79165-1.027-2.77515-2.0417-1.76277C138.54568,4.18827,140.29516,5.17523,141.1162,5.3721Zm-1.18436,2.83762c-.17784-.031-.09826-.24955-.05209-.35318a1.00688,1.00688,0,0,1,.41306-.43831,7.59663,7.59663,0,0,1,.87832-.39886C140.99855,7.63466,140.6399,8.33264,139.93184,8.20972Zm3.91885-.49709c-.21217.25109-.82669-.56718-1.10075-1.02088.23547.07222.47983.11993.71011.20848C143.78944,7.02741,144.16157,7.34435,143.85069,7.71263Zm.47679-4.46386c.3528.45941-.97387,1.46544-1.62311,1.792C142.91716,4.29686,143.8001,2.56133,144.32748,3.24877Zm-2.04523,2.154a.84736.84736,0,0,1-.02691.99131.521.521,0,0,1-.85252.01456.67307.67307,0,0,1,.87943-1.00587Zm-2.58551-1.915c.68906-.45072,1.19324.8915,1.39347,1.56705C140.42088,4.8465,138.93386,3.98668,139.69674,3.4878Z"/><path class="cls-2" d="M142.16731,3.07771c-.33637-.36537-1.1459.17769-.75415.70393C141.8938,4.4321,142.55963,3.60392,142.16731,3.07771Z"/><path class="cls-2" d="M144.34107,5.3227c-.33638-.36538-1.14618.1777-.75417.70365C144.06727,6.6768,144.73307,5.84862,144.34107,5.3227Z"/><path class="cls-2" d="M142.40364,7.74482c-.33608-.36506-1.1459.17771-.75388.70394C142.13013,9.09921,142.79566,8.27107,142.40364,7.74482Z"/><path class="cls-2" d="M140.33747,5.57882c-.33636-.36507-1.14616.178-.75416.70395C140.06369,6.93322,140.72949,6.105,140.33747,5.57882Z"/><path class="cls-2" d="M9.66711,52.12653a.913.913,0,0,0-.03667-1.20921c-.0233-.02684-.04885-.0482-.0735-.072.46581-.26985,1.06869-.35747,1.43245-.783.21129-.24719.45182-.7578.09579-.99639a1.1034,1.1034,0,0,0-1.25315.30359A2.67513,2.67513,0,0,0,9.25779,50.642a.78285.78285,0,0,0-.86278.1626,3.33065,3.33065,0,0,0-.6426-.8978c-.22564-.24193-.64246-.61351-.98832-.37531a.74012.74012,0,0,0,.01916,1.1113c.37848.328.90945.33092,1.34963.52l.00374.00043a1.19583,1.19583,0,0,0,.0165.92944,4.12094,4.12094,0,0,0-1.406.97979c-.37257.34387-.91871.97745-.4479,1.45707.87173.888,1.91941-1.25255,2.10268-2.125a.90964.90964,0,0,0,.95812-.023c.22264.79164,1.027,2.77514,2.04155,1.76277C12.23779,53.31035,10.48815,52.3234,9.66711,52.12653Zm1.18421-2.83762c.178.031.09856.24954.05209.35318a1.00551,1.00551,0,0,1-.41294.4383,7.6017,7.6017,0,0,1-.87814.39886C9.78476,49.864,10.14341,49.166,10.85132,49.28891ZM6.93263,49.786c.21228-.2511.82669.56717,1.10086,1.02087-.23543-.07223-.48-.12-.71008-.20849C6.99388,50.47121,6.62175,50.15428,6.93263,49.786Zm-.47691,4.46386c-.35269-.45942.97414-1.46545,1.62322-1.792C7.86615,53.20177,6.98337,54.93728,6.45572,54.24986Zm2.04534-2.154a.84736.84736,0,0,1,.02691-.99131A.521.521,0,0,1,9.38049,51.09a.67308.67308,0,0,1-.87943,1.00586Zm2.58567,1.915c-.68921.45072-1.19324-.89151-1.39378-1.567C10.36243,52.65212,11.8496,53.51194,11.08673,54.01082Z"/><path class="cls-2" d="M8.61613,54.42091c.33609.36538,1.14593-.17769.754-.70392C8.88951,53.06652,8.22384,53.8947,8.61613,54.42091Z"/><path class="cls-2" d="M6.44237,52.17592c.33625.36535,1.146-.1777.7542-.70365C6.71589,50.82183,6.05021,51.65,6.44237,52.17592Z"/><path class="cls-2" d="M8.37967,49.75381c.33621.365,1.1459-.17772.754-.70395C8.65318,48.39942,7.9875,49.22756,8.37967,49.75381Z"/><path class="cls-2" d="M10.446,51.9198c.33623.36507,1.146-.178.75418-.704C10.71948,50.56541,10.0538,51.39358,10.446,51.9198Z"/><path class="cls-2" d="M144.582,45.91351a1.14163,1.14163,0,0,0-.0866-.92131l.0161-.00525a5.582,5.582,0,0,0,1.2521-.60926.74342.74342,0,0,0-.01454-1.12373c-.58412-.43966-1.32464.82-1.52877,1.40442a.75566.75566,0,0,0-.88126-.07651,3.11547,3.11547,0,0,0-.6393-1.16592,1.14434,1.14434,0,0,0-1.29344-.261c-.36932.217-.10572.7319.10181.95329.40938.43589,1.03786.46242,1.556.69976-.02222.02607-.04666.04984-.06669.07846a.90756.90756,0,0,0,.08146,1.20407c-.83385.26556-2.36522,1.35668-1.53462,2.17822a.84894.84894,0,0,0,1.2891-.2982,4.315,4.315,0,0,0,.57231-1.6522.91457.91457,0,0,0,.95408-.067c.2532.89215,1.42435,2.77623,2.30039,1.91058C147.45,47.38161,145.303,46.08131,144.582,45.91351Zm.964-2.42881c.13965.05305.18349.33345.16021.45532-.03453.17831-.24509.2958-.38745.37732a6.66381,6.66381,0,0,1-.76855.31921,3.51933,3.51933,0,0,1,.32306-.56571C144.9696,43.92613,145.31676,43.39759,145.54609,43.4847Zm-3.974-.0748c.14823-.121.43889-.02561.59821.01581a.90364.90364,0,0,1,.4459.36007,2.63154,2.63154,0,0,1,.35345.65835c-.275-.098-.56169-.16507-.8328-.27423C141.98214,44.10774,141.29054,43.64055,141.57206,43.4099Zm.27309,4.6957c-.83757-.35492.60034-1.404,1.23726-1.68986C142.95087,47.11825,142.60533,48.42794,141.84515,48.1056Zm1.56287-2.129a.62335.62335,0,0,1-.14531-.94224.5201.5201,0,0,1,.85-.06742.83845.83845,0,0,1,.122.98414A.63056.63056,0,0,1,143.408,45.97656Zm3.06941,1.922c-.35355.77359-1.48237-.92962-1.784-1.63627a4.7525,4.7525,0,0,1,.8603.493C145.83513,46.93686,146.6749,47.4668,146.47743,47.89859Z"/><path class="cls-2" d="M143.5254,47.64821c-.33938.56144.51859,1.02421.81829.6282C144.68364,47.71494,143.94132,46.95457,143.5254,47.64821Z"/><path class="cls-2" d="M145.47341,45.205c-.33966.56118.51857,1.02391.81829.62794C146.63135,45.27181,145.88906,44.51143,145.47341,45.205Z"/><path class="cls-2" d="M143.31249,42.97994c-.33965.56146.51858,1.02391.818.62825C144.47016,43.04671,143.72814,42.28635,143.31249,42.97994Z"/><path class="cls-2" d="M142.282,45.96269c.33964-.56146-.40265-1.32184-.8183-.62824C141.12405,45.89563,141.98229,46.35839,142.282,45.96269Z"/><path class="cls-2" d="M11.464,11.84026c16.63274-.80031,33.27135-1.47629,49.9062-2.233,16.99774-.77327,55.78522-2.252,72.76208-3.40407q1.61445-.1094,3.228-.22414a.11412.11412,0,0,0-.011-.22786c-16.81641,1.19219-55.44608,2.68061-72.286,3.45847-16.81868.77714-33.64154,1.46166-50.45942,2.25273q-1.57556.07408-3.15089.15A.11412.11412,0,0,0,11.464,11.84026Z"/><path class="cls-2" d="M139.26088,45.45063c-16.63244.8003-55.05963,2.13441-71.69447,2.8911-16.99774.77327-33.99665,1.59386-50.97365,2.74591q-1.61422.10939-3.2282.22415a.11413.11413,0,0,0,.011.22786c16.81657-1.19219,33.65781-2.02246,50.49774-2.80032,16.81882-.77714,55.43-2.11984,72.24785-2.91089q1.57554-.07409,3.15074-.15A.11412.11412,0,0,0,139.26088,45.45063Z"/><path class="cls-2" d="M141.94317,10.84885l1.42066,29.50385a.11413.11413,0,0,0,.22786-.011L142.171,10.83788A.11413.11413,0,0,0,141.94317,10.84885Z"/><path class="cls-2" d="M6.89832,16.96047,8.319,46.46432a.11413.11413,0,0,0,.22787-.011L7.12619,16.9495A.11413.11413,0,0,0,6.89832,16.96047Z"/><path class="cls-2" d="M39.803,18.38444c-.20316,1.18694.10158,2.71395-.17,3.6635a35.74006,35.74006,0,0,0-3.79821-.06845,8.39687,8.39687,0,0,0,.23849,3.32454,23.52088,23.52088,0,0,1,3.72976.06735,28.109,28.109,0,0,1-.60948,4.443,21.2858,21.2858,0,0,0-3.0187.10268,32.47871,32.47871,0,0,0,.20316,5.15519,20.03325,20.03325,0,0,0,3.1534.16893c0,1.42544-.06846,3.69774-.23628,5.22365-1.66283.20316-5.1563.10158-6.81912.13581-.6426-6.85114-.77951-15.22928-.74418-22.21622C34.172,18.38444,37.6323,18.486,39.803,18.38444Z"/><path class="cls-2" d="M41.43272,40.5333c-.40632-7.5644.17-14.51711-.30474-22.182a14.36467,14.36467,0,0,1,4.37457-.13581,137.26741,137.26741,0,0,0-.27162,16.85677c.44166.23739,1.56125-.03423,2.44234.03423-.1347,1.7633-.1347,3.934-.34007,5.56151A56.54145,56.54145,0,0,0,41.43272,40.5333Z"/><path class="cls-2" d="M55.74447,18.38444a27.54838,27.54838,0,0,1,6.03739-.23739c1.59436.74639,2.00289,3.96824,2.1376,5.76577a23.43769,23.43769,0,0,1-.13471,5.32522c-.37319.3732-.848.81375-1.22117,1.18694a2.57823,2.57823,0,0,1,1.32275,1.866c.60948,2.57814-.17,6.78378-1.05113,8.005a23.30159,23.30159,0,0,1-7.0554-.06846C55.74447,33.13894,55.60977,23.40492,55.74447,18.38444Zm4.98626,17.5358a19.18134,19.18134,0,0,0-.03313-3.69773c-.54323,0-1.018.13581-1.56124.13581a13.81139,13.81139,0,0,0,.10158,3.73086Zm-.27162-7.90336c.68014-1.15272.8833-4.98516,0-5.93471a2.59112,2.59112,0,0,0-1.18584.16893c.03313,2.03492-.13691,3.42612.06846,5.90158Z"/><path class="cls-2" d="M75.8242,40.36327a19.91819,19.91819,0,0,1-4.71464,0c-.20316-2.54392-.2385-4.4088-.5079-6.44481H69.48207c-.51011,3.05292-.51011,4.71463-.78173,6.58062a37.8908,37.8908,0,0,1-3.93291,0c.77951-7.39437,1.22117-14.75451,2.34076-22.14777a37.85205,37.85205,0,0,0,5.49415-.20426C73.75505,25.03241,74.433,32.01935,75.8242,40.36327ZM71.0411,28.7975c-.23628-1.96757-.5079-3.62928-.77952-6.07162-.5079,2.714-.61168,4.30832-.848,6.20742Z"/><path class="cls-2" d="M81.45526,23.33646c-.37319,5.18942-.17,11.63423-.17,17.061a11.83108,11.83108,0,0,0-4.10295.10158c0-6.07162.1347-12.41375-.61169-18.48537l-1.35587-.1358c-.06846-.40632,0-2.74708-.17-3.5266,2.95024-.10268,5.49416.20316,8.71822,0,0,0-.13691,3.45924-.13691,4.98515C82.98117,23.33646,82.10008,23.30224,81.45526,23.33646Z"/><path class="cls-2" d="M94.41114,40.36327a19.91819,19.91819,0,0,1-4.71464,0c-.20316-2.54392-.23849-4.4088-.5079-6.44481H88.069c-.51011,3.05292-.51011,4.71463-.78174,6.58062a37.89061,37.89061,0,0,1-3.9329,0c.77952-7.39437,1.22117-14.75451,2.34076-22.14777a37.852,37.852,0,0,0,5.49415-.20426C92.342,25.03241,93.01993,32.01935,94.41114,40.36327ZM91.79876,15.29839c-.71106.23739-4.13828,2.10227-4.6793,2.23807l-1.15493-1.25429a34.09269,34.09269,0,0,1,4.47836-2.84976ZM89.628,28.7975c-.23628-1.96757-.5079-3.62928-.77952-6.07162-.5079,2.714-.61168,4.30832-.848,6.20742Z"/><path class="cls-2" d="M100.58544,40.43062c-.88331-3.22185-1.32275-5.25677-2.06914-8.10543-.06846,2.00069.1347,5.93471.1347,7.90227-1.42433.06846-2.17072-.06735-3.05182-.06735.17-6.24165-.13691-19.87546-.20316-21.77567,1.0158,0,2.00069-.13581,3.05182-.20316.71327,1.59436,1.69594,6.85113,2.1376,7.80068.20316-1.86488-.17-5.66419-.17-7.59752,1.018-.10158,2.00069-.20316,2.44234-.20316.64481,0,.94955.1358.94955.54212-.37319,7.29279.20316,14.9919.06846,21.70722A13.39016,13.39016,0,0,0,100.58544,40.43062Z"/><path class="cls-2" d="M105.64015,35.92024a34.51671,34.51671,0,0,1,4.17141.16894c.03312.61058.10158,2.64549.06845,3.93512-1.15492.54213-3.76508.23739-4.34144.10158A13.31078,13.31078,0,0,1,105.64015,35.92024ZM109.71,24.72767a17.87117,17.87117,0,0,0-.06846,4.30721c-.60948.03423-2.7802.03423-4.06983,0a21.16579,21.16579,0,0,1-.03312-4.40879A13.09725,13.09725,0,0,1,109.71,24.72767Z"/></svg>