<svg id="Layer_1" data-name="Layer 1" xmlns="http://www.w3.org/2000/svg" viewBox="0 0 55.01643 80.61102"><defs><style>.cls-1{fill:#3f1011;}.cls-1,.cls-2,.cls-3{fill-rule:evenodd;}.cls-2{fill:#ffe13e;}.cls-3{fill:#61bdaf;}</style></defs><title>ima</title><path class="cls-1" d="M46.3993,47.68863c-2.456.38736-2.252,6.45921-.919,7.81688C47.43754,54.55989,46.81746,49.61088,46.3993,47.68863Z"/><path class="cls-1" d="M38.35141,78.7363c3.72719.72515,6.02035-1.94082,6.66933-5.0604C41.97353,73.63265,39.55673,76.17519,38.35141,78.7363Z"/><path class="cls-1" d="M10.06252,77.58666c3.888,3.1852,7.50188,3.34175,14.71725,2.7588,5.89062-.476,9.92269-2.07078,13.34081-4.59877a25.78894,25.78894,0,0,0,3.91055-3.22043c.95617-1.29585,1.23424-3.69429,1.37855-5.51971.73549-9.19754-.74392-20.41.23061-29.20981,2.12015,1.9883,4.19706-.23482,5.75052-1.84,1.3372-1.38257,2.456-2.02332,3.21621-2.9875,2.61048-3.28415,1.84208-8.50532,2.3035-14.25985.31542-3.94557.01034-4.76777-2.07269-7.819a42.64292,42.64292,0,0,0-2.98961-4.60088C45.17539,1.25193,37.32117-1.15874,30.99171.54114c-3.4139.91481-5.93386,3.37064-8.97074,5.06019.15657,1.68131,1.0528,2.625,1.37835,4.13925-8.03546.70468-15.84221,1.636-21.15579,5.05829-4.92643,10.716-.39559,24.05489.91883,37.029.69223,6.84236.83443,19.53629,3.91054,23.45718A32.987,32.987,0,0,0,10.06252,77.58666Z"/><path class="cls-2" d="M35.12907,2.83831c.66332.031,1.506-.12153,1.84187.23081C36.85766,3.38855,34.89614,3.62759,35.12907,2.83831Z"/><path class="cls-2" d="M28.92113,4.45169c-1.0241,1.04056-2.64339,1.498-3.45124,2.7588C25.25366,5.84037,27.209,4.65971,28.92113,4.45169Z"/><path class="cls-2" d="M34.89825,4.68039a14.64462,14.64462,0,0,0-.22659,6.44064A20.80137,20.80137,0,0,1,32.13945,4.9112,7.66376,7.66376,0,0,0,34.89825,4.68039Z"/><path class="cls-2" d="M41.80052,5.37051c-.36689,3.23478-1.00554,6.20182-1.38045,9.42836-1.42181.96841-.06182,3.30271-2.29949,3.44913-.684-3.93122-1.879-8.95449-.69012-13.3368C39.03962,4.30548,40.4572,5.03885,41.80052,5.37051Z"/><path class="cls-2" d="M35.3618,18.70942c-.77264.76228-2.17567.89013-3.67976.92094a92.75979,92.75979,0,0,0-5.5197-10.5799,6.75471,6.75471,0,0,1,3.90844-2.98962C32.11667,9.99207,33.32412,14.766,35.3618,18.70942Z"/><path class="cls-2" d="M50.99786,14.79887a61.15,61.15,0,0,1-7.819,3.68185c-1.14563-3.67573,2.46-5.56085,4.60088-7.35969C48.68613,12.51394,49.4444,14.05516,50.99786,14.79887Z"/><path class="cls-3" d="M25.93152,15.02969c.33588,1.88723,1.63174,2.81238,2.07058,4.60067-8.40426-.103-15.68756.22258-23.45929-1.14964,1.77394-1.21969,5.21062-.77051,6.89805-2.07058-.2574-.43061-.26984-1.1085-1.14753-.919C14.6077,13.5564,20.85066,13.80578,25.93152,15.02969Z"/><path class="cls-2" d="M50.99786,20.78021a25.94275,25.94275,0,0,1-4.59856-.45952c1.14542-1.07959,3.20988-1.24036,4.37007-2.30139C51.66351,18.0769,51.21222,20.34115,50.99786,20.78021Z"/><path class="cls-2" d="M42.95017,20.78021h.45951c1.53914,1.67709,4.07533,2.3611,7.35969,2.29928a12.95216,12.95216,0,0,1-1.14775,3.21832,33.39212,33.39212,0,0,1-6.44275-.69034C42.73792,24.36521,43.03456,22.38093,42.95017,20.78021Z"/><path class="cls-3" d="M3.62379,21.46822c1.1952.29052,2.12014,3.90865.68821,4.60088C3.29422,25.32328,3.73517,23.11873,3.62379,21.46822Z"/><path class="cls-3" d="M35.59048,21.92985c-1.85432,1.5946-5.70305,1.19711-7.819,2.528-2.24168.17111-4.6051-.45741-6.90227-.45741-1.54333,0-3.616.97052-4.59666-.46352C23.36218,24.47239,30.005,23.24026,35.59048,21.92985Z"/><path class="cls-2" d="M40.64877,26.0691c-8.37134,4.0095-22.28918,6.47166-32.88762,4.13926-1.63809-2.43537,1.07957-4.60089,3.2223-4.82959,1.25492-.13376,2.74868.72536,4.368.69033a26.04437,26.04437,0,0,0,2.98962-.69033c3.61179-.54792,7.75949.75215,11.26833.46163a22.14364,22.14364,0,0,0,10.5799-3.68185C41.21125,22.59529,40.38083,24.88022,40.64877,26.0691Z"/><path class="cls-3" d="M6.61341,23.5369c.5749.19368.90256.63252,1.60914.69434-.25951.4285-.892.4842-1.14965.91883A2.05718,2.05718,0,0,1,6.61341,23.5369Z"/><path class="cls-2" d="M43.17887,27.67826a9.81859,9.81859,0,0,0,4.60088.92094c-1.24458,1.20745-3.14426,1.7636-4.37007,2.98961C42.88012,30.74193,43.3293,28.90829,43.17887,27.67826Z"/><path class="cls-2" d="M38.578,66.54514c-7.09786,1.44839-17.12583,3.62213-25.52586,2.07057C11.888,56.36484,9.81525,45.02245,8.22255,33.198c1.52877.22448,2.46426.80975,3.90865.92094,1.57413.11962,2.80627-.55214,4.37006-.69013,6.64868-.58927,11.79347,1.96973,17.24925-.45951,1.30218-.57894,1.84-1.71,2.98961-2.5301,1.11884-.79941,2.52-.71713,3.44914-1.84C40.10678,40.78214,40.22217,55.15528,38.578,66.54514Z"/><path class="cls-2" d="M50.079,29.97965c.58927,1.13108-1.38256,2.08725-2.53009,2.7588a8.72642,8.72642,0,0,1-4.37007,1.61127C45.78724,33.198,48.66777,32.3224,50.079,29.97965Z"/><path class="cls-2" d="M4.54281,31.358c.79941.04536.87368.814,1.60916.92114,1.42581,12.1437,3.60568,23.53145,4.83148,35.877-.853.32766-1.5927-.25128-2.30139.45952C7.02143,56.47813,5.913,43.78631,4.54281,31.358Z"/><path class="cls-3" d="M8.91288,70.227c1.10027.892,3.0183.96419,2.7588,3.21832-1.20745.05148-1.57414-1.945-2.5301-1.37856C8.62236,71.89585,9.05086,70.777,8.91288,70.227Z"/><path class="cls-3" d="M36.05,70.227c-1.28973,4.22787-7.12676,5.90285-14.029,5.2889a7.44042,7.44042,0,0,1-.45739-2.30139C26.8917,73.604,31.67571,71.54773,36.05,70.227Z"/><path class="cls-3" d="M16.73187,73.4453a4.28276,4.28276,0,0,0,1.84.2306,3.57081,3.57081,0,0,1,.4595,1.84H17.1935C17.26143,74.60106,16.65992,74.36012,16.73187,73.4453Z"/><path class="cls-2" d="M43.40968,5.13991c1.21758.243,2.89067,2.01488,4.13926,2.98961a24.9878,24.9878,0,0,0-4.13926,4.37007C43.02021,10.70287,45.16716,6.91173,43.40968,5.13991Z"/><path class="cls-3" d="M13.74225,73.21449a4.99672,4.99672,0,0,1,.68823,1.84187C13.63318,75.0091,14.01231,73.7873,13.74225,73.21449Z"/></svg>