<svg id="Layer_1" data-name="Layer 1" xmlns="http://www.w3.org/2000/svg" viewBox="0 0 64.35375 41.94191"><defs><style>.cls-1{fill:#3d1314;}.cls-1,.cls-2{fill-rule:evenodd;}.cls-2{fill:#ffe13e;}</style></defs><title>limon-480</title><path class="cls-1" d="M57.03506,7.27648C42.71316,4.62487,25.42906,4.21923,10.25182.86784,7.48458.25778,5.06043-.75246,3.43992.90455c-.68814.70331-.42325,1.50135-.8422,2.41873C1.73376,5.21968.32291,6.88481,0,8.381a49.37644,49.37644,0,0,0,.75941,6.41588C-2.31846,22.95768,5.4743,34.462,15.34353,38.81272c.88789.73.837-1.104,1.44253-.782,4.4898,1.55056,10.04377,3.77254,15.96043,3.90337,5.78794.125,15.74688-1.23376,20.83434-4.7244,3.46751-2.37626,3.8666-5.09228,5.63739-7.912,3.05872-4.88146,4.05622-6.98837,4.76561-11.93758.62578-4.32148,1.2352-11.44775-5.16936-11.98166C57.63923,5.8139,57.85425,7.00264,57.03506,7.27648Z"/><path class="cls-2" d="M49.795,34.01849c-3.27866,4.85395-8.34544,3.72444-12.36068,4.817.95558-1.51667,2.97816-.67807,4.56858-1.06917C44.71277,37.105,47.11318,35.33856,49.795,34.01849Z"/><path class="cls-2" d="M43.52961,28.14473c-6.45789-4.53656-5.5286-10.85189-7.698-16.13515C39.89977,14.90623,48.607,21.73021,48.066,25.97481,46.58438,27.69489,45.0435,27.42305,43.52961,28.14473Z"/><path class="cls-2" d="M52.60808,18.4609c-2.61384-1.42464-5.58279-3.32944-8.44594-5.06437C41.46274,11.77,37.993,10.55264,36.99546,8.10612c5.509-.4434,11.06336.62257,16.59858.939A17.15442,17.15442,0,0,1,52.60808,18.4609Z"/><path class="cls-2" d="M35.39236,32.64253c-2.15069-.051-4.3284-1.04456-6.50046-1.81551.77087-4.93313,2.80211-9.90844,3.93718-14.85483,1.94409,4.17421,3.14835,9.962,4.34416,14.7707Z"/><path class="cls-2" d="M24.57016,28.204c-1.905-.10858-3.8552-1.56292-5.813-3.309,3.08434-4.79327,7.97168-9.63478,12.4432-13.65475.83,1.18715-.23911,2.55584-.61435,3.70267C29.27226,18.95155,28.4624,23.80689,24.57016,28.204Z"/><path class="cls-2" d="M15.44818,30.70836c.11777.37872-1.26166,2.3-1.78942,1.53039-.59974-.74417,1.32753-1.17418.296-2.22107-.822-.73886-1.60749-.34738-2.38441.26321l-1.13947-1.06824c.466-.68447.97149-.348,1.43721-1.1512C13.043,28.43747,14.27358,30.44091,15.44818,30.70836Z"/><path class="cls-2" d="M34.07509,8.93754A2.47107,2.47107,0,0,1,31.6311,7.359c.79288-.21541,1.60362.222,2.39631.10558C34.41559,7.94363,33.90265,8.45,34.07509,8.93754Z"/><path class="cls-2" d="M14.51051,18.77324c-2.19164-2.81213.19809-5.77375-.829-8.62531C18.48137,6.84154,23.43361,8.15779,28.33308,7.833c.50706.53623.464,1.09.97113,1.62964C24.32422,11.01848,19.4795,16.87139,14.51051,18.77324Z"/><path class="cls-2" d="M10.33256,26.27016c-.53431.50886-1.08819.469-1.62278.97429-.71776-.775-1.0136-1.56375-1.73125-2.33536.543-.24517,1.10264-.02088,1.63632-.6069C9.60041,24.94475,9.51356,25.62376,10.33256,26.27016Z"/><path class="cls-2" d="M21.27342,17.26527c-.94456,2.21414-6.7421,6.08386-6.52373,8.86408,1.02165,1.29968,1.96636.1213,2.96452.64151,2.65322,2.2894,5.284,4.03031,7.84242,3.42828a7.8374,7.8374,0,0,0,2.124,3.06155c1.54356,1.06685,9.09627,1.96448,10.85662-.16873,1.68386-2.03837-.19968-5.00568-.42624-7.53145,1.744.58363.91758,1.75482,1.74314,2.70451,3.49095,4.02364,8.87013,1.49333,10.77343-2.74238-.137-2.81576-3.09307-5.54225-5.05408-8.30406C47.798,18.53049,51.657,19.755,52.70476,21.40513c2.62626-.59274,3.209-4.40483,3.6406-6.93072.34188-1.97683-.62-3.98422.20291-5.15866,1.87438.48535,1.021,3.06606.88924,4.76085-.13375,1.67979.11387,3.83232-.191,5.52778-.61921,3.452-3.38877,8.758-6.08525,11.0584-2.69012,2.29325-6.54255,2.14548-9.24138,4.53-.18272.31428.32632.603.57835.90311-8.371,2.78036-19.32007.03142-27.85766-7.57C8.487,23.04459,6.74535,13.84514,8.06892,7.38184a23.14581,23.14581,0,0,0-.64251-2.74A48.1037,48.1037,0,0,1,20.34592,5.69765C17.35608,6.5215,13.64,5.64195,11.08286,9.498c-.78044,1.16649-1.09361,6.89616.09253,8.64723.80167,1.17656,2.46352,1.62267,2.86058,3.03641C16.49093,21.26235,18.86567,18.64758,21.27342,17.26527Z"/><path class="cls-2" d="M33.01911,38.97808c-4.57655.82218-11.83064-1.59743-16.53868-4.80343l1.42367-1.5186C22.63955,35.48169,27.58043,39.45535,33.01911,38.97808Z"/><path class="cls-2" d="M7.60657,21.57365c-.4658.80017-.96812.46341-1.43427,1.14807A38.73067,38.73067,0,0,1,4.52069,11.5485C5.6122,14.15057,5.55261,18.38605,7.60657,21.57365Z"/></svg>