<svg id="Layer_1" data-name="Layer 1" xmlns="http://www.w3.org/2000/svg" viewBox="0 0 101.31305 113.10583"><defs><style>.cls-1{fill:#3f1011;}.cls-1,.cls-2,.cls-3,.cls-4,.cls-5,.cls-6{fill-rule:evenodd;}.cls-2{fill:#61bdaf;}.cls-3{fill:#e97aad;}.cls-4{fill:#e95539;}.cls-5{fill:#9aae20;}.cls-6{fill:#fff;}</style></defs><title>pinata</title><path class="cls-1" d="M89.54694,37.96918a8.59488,8.59488,0,0,0,3.40052-.60532c1.77331-.77734,3.36095-3.83921,2.63322-5.68948.58714-.19322,1.57094-.68187,1.03807-1.48408-.65456-.49329-1.32026.041-1.64163-.11774,1.08228-1.71042.59989-2.19258-.764-2.08013a18.17377,18.17377,0,0,0-3.72112.84733c.69531-.78137,2.14556-.21355,2.64058-1.08482.52669-.92812-.5933-1.7696-1.60526-2.00041-3.90708-.88347-7.29094,4.05159-8.99359,8.62391A90.872,90.872,0,0,1,68.76758,37.3232c-2.67133.43084-5.39668.96349-8.00421,1.215a6.08357,6.08357,0,0,1-1.20166.20255c-2.37448-.24249-3.15418-1.86381-4.12855-3.35636-.61679-.94407-1.25221-1.7802-1.72618-2.55889a29.92726,29.92726,0,0,1-2.251-5.52145,74.24284,74.24284,0,0,0-4.09607-8.04055c-.17731-.33142-1.31644-2.41619-1.12678-2.76a5.64413,5.64413,0,0,1,1.28011-.36292c1.32037-.31715,3.21734-.04058,4.20275-.60727.93581-.53732,2.0011-2.36045,1.75614-3.32542-1.45459.70424-2.9725,2.28666-4.52011,2.04927,2.03994-1.84963,3.04924-5.38754,2.10946-7.24975-.49308-.5195-1.19529-.81627-1.68122-.438-.27642.42715.29649.56867.24178.92039a8.42481,8.42481,0,0,1-1.75674,3.12548c.50373-1.65515,1.415-3.75483.19246-4.804-.94641.21221-1.00606,1.21256-1.278,1.96423a15.67945,15.67945,0,0,1-3.35351,5.53061c-.40094-1.2618-.92081-2.93575-1.36871-4.682a48.76232,48.76232,0,0,0-1.13031-4.76171C40.544,2.88461,38.97356,1.90909,38.042,2.425a43.41515,43.41515,0,0,0,2.73893,9.56444,10.57914,10.57914,0,0,1-3.73575-7.5613c-1.15063.9778-.40647,2.65349-.07241,3.76426a10.72884,10.72884,0,0,0,1.72739,3.55933,9.12018,9.12018,0,0,1-2.0474-2.71918c-.71988-1.216-1.48662-3.22108-2.84624-2.71622A4.809,4.809,0,0,0,34.331,9.07781a8.5685,8.5685,0,0,0,3.36862,3.47591c-1.947-.36281-3.01525-2.07853-4.12918-3.15593-.63355.32984-.3937,1.207-.156,1.92217a7.32248,7.32248,0,0,0,.96419,1.88c1.44845,1.84627,4.28843,1.03963,6.04713,2.11213-.33045,2.95975.29238,5.59944-.06427,8.56738a31.64348,31.64348,0,0,1-.46946,6.56626c.21027,2.00348.20791,3.98788.32905,5.96362a25.788,25.788,0,0,1,.09091,6.04612c-4.81059-.98479-9.66651-1.16058-14.3355-1.73714a33.62775,33.62775,0,0,1-4.80519-.59311c-.24692-.07-.48506-.29266-.721-.3588-1.396-.39039-2.86549-.1578-4.28406-.63366-.27145-.17576.056-.55247-.24141-.71931-.97191-1.00955-.93242-2.35776-1.32786-3.56153a3.08787,3.08787,0,0,0-.44633-3.12258c-.42529.822.12378,1.68331.04515,2.52381-.03214.34343-.23053.62651-.27822.96014-.16073,1.10928.545,1.93377.60467,3.00229-.8228-1.6953-1.16673-4.49248-1.81106-6.6025-.5205-1.69863-1.372-2.77063-2.96624-1.67832-.15508.365.51613.45154.64155.72047.49822,1.97045.93577,3.95868,1.57089,5.88272-.08106-.03918-.06307-.11247-.11952-.16007a13.38658,13.38658,0,0,1-2.168-3.47894c-.35513-1.04544-.40762-3.02017-1.28676-3.44136-.47-.22473-.69549.07352-1.16069.12223-.43708.0457-.96153-.29414-1.20141.20321-.06454.37751.43285.565.68277.83918.15583,2.64,2.00675,4.71276,3.57405,6.8796C7.19389,35.95419,5.516,33.93469,5.54421,31.34424a11.00664,11.00664,0,0,0-2.16239-.27638c-.361,2.96819,1.34812,5.24433,3.41383,7.401a10.41782,10.41782,0,0,1-3.1659-2.678c-.87326-1.06176-1.48725-3.27993-2.7279-3.15766-.51078.79766.07406,1.83984.48482,2.641.94849,1.85225,2.96364,3.08825,5.73229,4.3557C5.214,40.5205,2.60959,39.3216.11125,38.43857c-.64307,1.7923,1.64236,2.89583,3.24842,3.71827a13.83853,13.83853,0,0,1-2.68349-.83631,2.79333,2.79333,0,0,0,.283,1.64144c.35185.54881,1.43833.85331,1.56315,1.47914,1.59153,1.00959,2.89352.349,4.08437.23276.32478-.03255.64838.12826.96039.07757a14.52048,14.52048,0,0,0,3.04106-1.28463A13.53446,13.53446,0,0,1,13.64905,42.18c1.42972-.24078,1.59633.47283,2.6044,1.397,2.49823,2.28984,4.99113,4.10251,7.53713,6.15246,1.08324.87184,2.31751,1.57588,3.20591,2.39679,1.23117,1.14015,2.10836,2.56119,3.40958,3.59765-.0499.57176.20778,1.04167.08235,1.64022-1.29613,1.31639-2.31338,2.9575-3.635,4.48983a46.70231,46.70231,0,0,0-3.43483,5.09033,84.06982,84.06982,0,0,1-5.39228,7.01524c-.68349.833-1.13708,1.75868-1.75882,2.52535-.7802.9648-1.84613,1.86528-1.79617,3.00578A8.82108,8.82108,0,0,0,8.42448,77.98c-1.15032.12635-3.28227.09491-3.72181,1.04561-.28691.62108.44211,1.23162.08251,1.84289a13.44459,13.44459,0,0,1,7.68542-.574c-1.582.95232-4.15437,1.63688-6.11994,2.45181-.53693.22264-1.81886.61885-2.00093,1.00529a2.86557,2.86557,0,0,0,.32494,1.76025c.53579.76955,1.82926.83053,2.40416,1.59714a20.68646,20.68646,0,0,0,6.918-4.05482c-1.13594,2.71876-3.08209,3.01991-4.75564,4.131.01693.37185.39485.62432.64041.91959a20.10594,20.10594,0,0,0,2.36122-.52416c2.0794-.94416,3.853-3.99546,3.9938-6.41111,1.04139,1.48,1.03384,4.29941-.031,6.284-.22526.42467-.7836.47916-.51851,1.04271.49384.07146,1.62405.08921,2.002-.404.51681-.6754.39239-2.68622.394-3.80322a32.21075,32.21075,0,0,0-.32575-3.56233c7.56371-1.86468,14.10671-6.77438,21.96522-7.764,2.81415,3.58245,4.35959,7.68105,6.06385,11.71971,1.85285,4.387,3.42544,9.13583,6.34866,12.95971-2.21472,2.13866-5.5494,4.35121-6.31258,8.25828-.032.53844,1.27694.5557.84335.91933,1.79987-.9408,3.0813-3.42042,4.67483-4.97215-.86567,3.0269-1.81524,6.08321-1.42647,8.69007a1.951,1.951,0,0,0,2.16034-.12358,10.3149,10.3149,0,0,0,.198-1.4015c.30541,1.12216.74093,3.37961,2.44721,2.31748.05655.64083-.48,1.21337.00276,1.60115.878.708,1.90351-.91165,2.15889-1.72522.855-2.72476-.7195-5.86738-1.25523-7.72369a23.019,23.019,0,0,0,1.28646,2.8398c.798,1.51241,2.117,3.82865,3.48552,1.63667a5.31608,5.31608,0,0,0-1.40353-2.00028,21.41438,21.41438,0,0,1-3.29412-6.4395c1.99032,1.78528,2.4369,5.28027,4.77561,6.8769.56893.38873,1.536.85164,2.08269.43715.39637-.48132.22135-.90966.87858-.96261-1.2105-1.07878-3.15888-1.74247-4.129-3.35545-.989-1.645-.59136-4.66278-3.17044-4.47826a157.83823,157.83823,0,0,1,4.60067-26.10994c7.6985.19419,16.65279,4.13793,24.227,3.96313a10.65729,10.65729,0,0,0,2.89074,4.63755c.25637.209.66429.31061.92118.559.615.59642.83353,1.43521,1.40532,2.001,2.30578,2.27952,5.20924,1.6916,7.20657.58731.10289-.19575-.32371-.552-.12-.56.65458-.05591,1.6198.69221,2.08093.036a1.97978,1.97978,0,0,0-.204-1.60033c-.42166-.39843-1.44779-.37263-2.08105-.63691-3.34353-1.40084-5.97184-5.00709-9.019-6.19018a18.36066,18.36066,0,0,0,2.48362.63678c2.78484,1.00457,4.67789,3.37569,6.97419,4.47135a2.01839,2.01839,0,0,0,.99845-.80161c-1.08274-1.09744-1.896-2.77545-3.61067-3.79821-1.10787-.66135-2.518-1.14383-3.64474-1.715,3.72056-.05743,6.76634,3.43887,9.25783,5.50911,1.75973-.8927.14226-2.68644-1.08715-3.84115A39.35269,39.35269,0,0,0,93.565,71.27082c-2.353-1.50056-5.02027-.954-6.04267.69088-1.28923-1.2589-2.62484-2.50289-4.051-3.71724-.14912-.19524.06054-.508-.16072-.67915-.08985.13247-.11954.44048-.31889.24038-4.697-4.25671-9.968-8.32057-14.99444-12.46522,1.08637-2.20878,2.56572-3.16125,3.8365-4.49026a45.07051,45.07051,0,0,0,7.31049-9.2595,13.09892,13.09892,0,0,1,.67912-1.36292c.74788-1.05644,2.24558-1.77434,2.95562-3.12753C84.81833,36.62766,87.32153,37.96378,89.54694,37.96918Z"/><path class="cls-2" d="M.59263,39.27853a14.24417,14.24417,0,0,0,7.08919,1.63006C5.82046,42.17,2.27943,41.53292.59263,39.27853Z"/><path class="cls-2" d="M4.54434,32.14783c.3848.45331.30411,1.05.522,1.55944A9.71624,9.71624,0,0,0,9.23863,37.9839c.19774.12894.21746-.27939.4395-.0814a18.52366,18.52366,0,0,0,1.923,1.15822,8.5434,8.5434,0,0,1-7.45623-6.71234C4.27665,32.28118,4.3685,32.08713,4.54434,32.14783Z"/><path class="cls-2" d="M7.86355,30.29939c.74322,1.12972.69244,2.504,1.248,3.7217a15.52674,15.52674,0,0,0,3.6897,4.43654c-3.22716-1.89912-4.607-4.997-5.33846-7.95719C7.52085,30.209,7.78341,30.52191,7.86355,30.29939Z"/><path class="cls-2" d="M2.2003,42.87918c2.4604.50417,4.35643-.67666,6.564-.931C6.85539,42.796,4.44352,45.589,2.2003,42.87918Z"/><path class="cls-2" d="M6.76043,40.35078a6.52694,6.52694,0,0,1,2.6017-.0037C8.52414,40.86405,7.80905,40.511,6.76043,40.35078Z"/><path class="cls-2" d="M7.56734,43.95137a14.74289,14.74289,0,0,1,4.15913-1.92772c-1.00876.708-2.63431,1.29948-3.84033,2.08737C7.78071,44.05808,7.67414,44.00415,7.56734,43.95137Z"/><path class="cls-3" d="M15.68794,40.89579a24.06268,24.06268,0,0,1,2.84342.314q-.36006.72258-.71889,1.4446C17.00665,42.09973,15.90533,41.646,15.68794,40.89579Z"/><path class="cls-3" d="M20.89492,41.68707a7.01433,7.01433,0,0,0-.75712,2.924c-.37977-.47282-1.25546-.78022-1.44213-1.31889a3.285,3.285,0,0,1,.957-1.72343A4.58226,4.58226,0,0,1,20.89492,41.68707Z"/><path class="cls-2" d="M39.72721,4.06326c1.04747,2.51964,1.431,5.26157,2.17417,7.88426-.4498-1.14285-1.52125-2.42648-1.20555-3.602-.53961-1.30961-.532-2.8037-1.16783-4.08141C39.56866,4.12386,39.67144,4.16423,39.72721,4.06326Z"/><path class="cls-4" d="M24.7782,42.32161A7.09745,7.09745,0,0,0,23.46549,46.968c-.50577-.03391-.91555-.67224-1.44365-.91869.19733-1.3345.26669-2.62609.59436-4.00494C23.23615,41.83745,24.05489,42.21991,24.7782,42.32161Z"/><path class="cls-2" d="M12.42991,79.57467c-2.47444-.34408-4.98425-.79554-6.92446.45138-.15925-.147-.08171-.37254-.24182-.52.04009-.08067.08095-.16126.12082-.24072C7.61814,79.02554,9.61158,78.06931,12.42991,79.57467Z"/><path class="cls-2" d="M38.141,13.47438c.32469-.16046.80411.13843,1.24242.31737C39.02872,13.86255,38.5447,13.54974,38.141,13.47438Z"/><path class="cls-2" d="M25.73991,42.59923c2.52511.16324,5.26854.97988,7.76838,1.06783-1.61241,2.16434-4.2775,5.37041-4.18958,8.41525-1.8692-1.37683-3.02555-2.99192-5.05206-4.31448C24.24713,46.27577,24.22039,44.17356,25.73991,42.59923Z"/><path class="cls-2" d="M14.39357,80.8521C12.79,83.8974,9.92885,84.92327,7.51785,86.22742c.21895-.62791.965-.98374,1.55773-1.32246C10.83326,83.89644,12.982,83.07156,14.39357,80.8521Z"/><path class="cls-3" d="M46.16174,21.26752c-1.51784-.21152-2.64491.74183-3.9215,1.247.08558-1.83088.26067-3.69219.231-5.48349C45.13067,15.98776,45.2765,19.95147,46.16174,21.26752Z"/><path class="cls-4" d="M46.68323,22.227c1.282,2.06355,1.397,4.51723,2.85285,6.522-1.58855-.6338-3.13784-1.3047-4.56554-1.07393-1.07935.17347-1.841,1.1161-2.92133,1.045.0067-1.53653-.09462-3.03745-.00578-4.60272C43.50952,23.24479,44.88408,22.10751,46.68323,22.227Z"/><path class="cls-3" d="M20.06706,74.2764a7.0636,7.0636,0,0,0,1.84846,3.51938c-1.6091.91069-3.34659,1.43772-4.99922,2.2104-.24515-.29617-.68731-.52687-.8836-.8389A50.8179,50.8179,0,0,0,20.06706,74.2764Z"/><path class="cls-2" d="M52.74947,34.74793c-1.41908-.24837-2.85712-.55951-4.24543-.71264-.4458-1.56532-.30868-3.32328-1.489-4.642-.14375,1.67394,1.039,3.25468.84855,4.72335a.48159.48159,0,0,0-.5187.03925c-.48461-1.61858-.37425-3.78936-1.5306-4.96008-.30312.76773.13625,1.68332.36363,2.48055a10.94944,10.94944,0,0,1,.64545,2.521c-1.727-.10727-3.13277.74316-4.56168,1.52921a54.74568,54.74568,0,0,0-.04821-5.72518c2.34851-1.18844,4.72359-2.17228,7.96625.06666.54508.37628.98155,1.74568,1.36568,2.4794C51.94748,33.32035,52.38031,34.051,52.74947,34.74793Zm-7.12765-1.14845a6.00243,6.00243,0,0,0-.80786-4.00172A7.76952,7.76952,0,0,0,45.62182,33.59948Z"/><path class="cls-4" d="M24.26275,69.065a11.46191,11.46191,0,0,0,2.57366,6.4805c-1.35815.80059-2.86658,1.14342-4.20167,2.00963a7.61782,7.61782,0,0,1-1.36863-4.882C22.20263,71.28351,23.27576,70.30255,24.26275,69.065Z"/><path class="cls-2" d="M29.137,62.89168c.9225,3.52941,1.82353,6.70365,5.14061,9.35908-2.17014,1.162-4.44631,2.00843-6.68109,2.97383-.38918-.22652-.48529-.54885-.683-.83983A14.12979,14.12979,0,0,0,31.23177,71.336c-1.65209.38126-2.966,1.76945-4.43886,2.6893-.23876-.1212-.16853-.34471-.36066-.48016.942-.84733,2.54136-1.44,3.55791-2.7282-1.37171.28852-2.40961,1.57273-3.67933,2.16841a1.43766,1.43766,0,0,1-.36238-1.08148,6.293,6.293,0,0,0,2.08124-1.1645c.62036-.427,1.473-.80294,1.75845-1.52316-.7623-.07169-1.40074.60394-2.00031,1.005-.65246.43316-1.26864.88826-1.91979,1.24282-.27889-.2847-.13735-.70976-.28295-1.03874,1.07633-.65811,2.53259-1.1903,3.27962-2.1687-.54415-.45217-1.11955.311-1.60038.60338-.556.33884-1.1567.61312-1.6392.88375-.226-.59135.11175-1.3739-.36378-1.88212C26.52594,66.12577,27.89481,64.69919,29.137,62.89168ZM27.502,67.779c-.26254-.57587-.9879.03753-.9181.44221C26.85063,67.9576,27.31142,68.26914,27.502,67.779Z"/><path class="cls-5" d="M37.22445,63.31915c.25776.70265-.68185.80113-1.12012,1.04191-1.44638.79608-3.11787,1.80186-4.51946,2.64957-.31845-.20461-.17972-.56259-.40113-.799A49.862,49.862,0,0,0,37.22445,63.31915Z"/><path class="cls-4" d="M41.202,47.89864a6.17087,6.17087,0,0,1,3.59716-3.0094c.89715,1.25936,1.19016,3.29484,1.89039,4.84108a7.82535,7.82535,0,0,0-2.3994,1.40677C43.62718,49.98891,43.0887,48.20371,41.202,47.89864Z"/><path class="cls-4" d="M45.68139,44.92945a.45583.45583,0,0,1,.35929-.122,11.538,11.538,0,0,1,1.5287,4.76243c-.66741.341-.7182-1.04375-.96271-2.08A6.4491,6.4491,0,0,0,45.68139,44.92945Z"/><path class="cls-4" d="M47.7621,44.56446a19.02242,19.02242,0,0,1,.36853,4.88408,16.72292,16.72292,0,0,0-1.28892-4.6423C47.07744,44.5154,47.5074,44.80207,47.7621,44.56446Z"/><path class="cls-3" d="M43.69171,52.73842c-.1118-.346.40709-.503.51827-.84124a10.402,10.402,0,0,1,2.88832,2.83715,1.86494,1.86494,0,0,0-.48047.36183C45.80545,54.34129,45.1494,52.62954,43.69171,52.73842Z"/><path class="cls-3" d="M43.77266,53.37788c1.17584.65323,1.55758,1.57146,2.44648,2.31928a4.7378,4.7378,0,0,0-.63782,1.68216c-1.23119.70918-2.60669.98783-3.80051,1.80767A7.85455,7.85455,0,0,1,43.77266,53.37788Z"/><path class="cls-4" d="M49.08276,44.52255a7.591,7.591,0,0,1,.20443,2.402c.02117.78155.26282,1.75117-.23551,2.28191-.60861-1.37656-.15995-3.10618-.52864-4.56255C48.63335,44.37784,48.90542,44.59151,49.08276,44.52255Z"/><path class="cls-3" d="M41.66094,59.62835a26.21315,26.21315,0,0,0,3.76065-1.528c.01025.37555-.2438.838-.07766,1.16128a9.66815,9.66815,0,0,0-3.64077.88656C41.66854,59.98179,41.76616,59.77229,41.66094,59.62835Z"/><path class="cls-3" d="M57.18639,54.35785c-1.032-.15709-2.21619.96043-3.15931,1.7265-1.31872-1.52223-4.02381-1.94183-5.56842-1.672a9.44618,9.44618,0,0,0-2.40708-3.39908,7.57031,7.57031,0,0,1,3.16-1.12584c2.7096,1.36749,5.84474.54676,7.61238,3.18866.34774.1281-.118.15462-.11981.44172a1.616,1.616,0,0,1,1.28309,1.0387,17.96625,17.96625,0,0,0-3.07869,2.76751c-.2939-.1693-.26384-.44592-.481-.64067A10.9732,10.9732,0,0,0,57.18639,54.35785Z"/><path class="cls-4" d="M49.72263,44.642c.21638-.15432.52838-.02172.8019-.00264a15.84877,15.84877,0,0,1,.04706,4.72508c-.28279-.1156-.48618.01135-.80086-.19869A18.36953,18.36953,0,0,0,49.72263,44.642Z"/><path class="cls-3" d="M45.38512,59.78067c.37.74277.22927,1.68854.80517,2.40055.09777.12263.406.18632.52051.36.20942.314.089.65874.60226,1.00177a9.1026,9.1026,0,0,0,5.80633.78994c.53216.51063.53156,1.20121,1.40371,1.59835-1.76234,1.01948-4.20482.95278-5.96225,1.33093-.34662-.01664.08655-.29548-.12216-.35961a9.49833,9.49833,0,0,1-6.65552-6.1136A25.105,25.105,0,0,0,45.38512,59.78067Z"/><path class="cls-4" d="M56.2119,46.27173c.42289.14057.14814-.49946.31973-.44043a15.64314,15.64314,0,0,1,6.13107,3.3525,46.47289,46.47289,0,0,0-4.63909,3.29169c-1.47217-2.0109-4.67871-3.09747-6.89126-3.03154a20.23688,20.23688,0,0,0,.07319-4.56491C52.61683,44.62665,54.65507,45.46114,56.2119,46.27173Z"/><path class="cls-2" d="M54.02981,57.68544c-.733,1.5318.21547,2.976-1.23388,4.48523-1.127,1.17251-3.80236,1.10113-5.20537.00988a4.30911,4.30911,0,0,1-.64984-5.324c.684-.93657,2.29847-1.1487,3.6014-1.00591C51.69514,55.97725,53.33273,56.31136,54.02981,57.68544Z"/><path class="cls-5" d="M41.68066,71.03784c.63341.04346,1.2232.904,1.72219.35766.25636-.24853-.10482-.62518.11784-.64113a12.62662,12.62662,0,0,0,3.405.5941c-.621,2.25568-.367,4.21846-.67,6.36692a9.15221,9.15221,0,0,0-1.60117-.19742C43.55415,75.3945,42.13005,73.379,41.68066,71.03784Z"/><path class="cls-5" d="M58.73168,45.4277A53.43485,53.43485,0,0,0,62.848,41.177c.22608.19133-.06464.55648.48193.63927-1.28173,1.41868-2.7,2.43267-3.95637,3.93063C59.15886,45.64035,58.9456,45.5339,58.73168,45.4277Z"/><path class="cls-5" d="M59.81533,46.06614C61.12628,44.733,62.5,43.58955,63.77158,42.137a2.27123,2.27123,0,0,0,.56058.47769c-1.21426,1.491-2.68239,2.221-3.83643,3.88969C60.2342,46.36962,60.16434,46.171,59.81533,46.06614Z"/><path class="cls-5" d="M47.48666,71.4286c.36971.35684.06736,1.01022.04212,1.52038-.07393,1.50855.07362,3.31652-.15139,4.92424-.75578-.05474-.29684-.89779-.24289-1.32a35.6437,35.6437,0,0,0,.27217-4.96477C47.43387,71.5354,47.46051,71.48265,47.48666,71.4286Z"/><path class="cls-2" d="M70.45192,38.76271a9.67255,9.67255,0,0,1,1.24258,1.719,13.69712,13.69712,0,0,0-4.31556,3.851,27.21651,27.21651,0,0,0,4.51738-3.452,16.29926,16.29926,0,0,0,1.04416,1.71973c-1.649,1.18817-3.21276,2.63248-4.7978,4.01162-.57511-.52857.22012-.91287.59918-1.20274,1.08919-.83065,2.86884-2.15008,3.39573-3.40746-.93285.09692-1.60818.99683-2.31876,1.64517a24.3709,24.3709,0,0,1-2.19844,1.80531c-.78826-1.42626-1.3148-2.94221-3.20931-3.99769a2.0016,2.0016,0,0,0-.56284-.88012c-.01393-.19632.28883-.43117.04007-.68128C66.02857,39.37605,68.28206,39.1954,70.45192,38.76271Z"/><path class="cls-3" d="M58.22919,55.07689c1.13888,2.20072.92906,5.20351-.38834,8.00707a10.68012,10.68012,0,0,0-2.84593-2.71739,11.11491,11.11491,0,0,0,.0357-2.48305A22.86723,22.86723,0,0,0,58.22919,55.07689Z"/><path class="cls-5" d="M48.61822,77.99177c-.85838.19706-.62911-.76445-.603-1.20016.09861-1.60056.24731-3.53635.1927-5.0035.09816-.2061.10765-.069.2002-.0019C48.40273,73.8811,48.59293,75.90874,48.61822,77.99177Z"/><path class="cls-5" d="M60.69624,46.70553c1.5492-.89089,2.82322-2.59846,4.3172-3.65034-.89175,1.65878-2.5741,2.67242-3.79679,4.01012C61.042,46.94478,60.98,46.78741,60.69624,46.70553Z"/><path class="cls-2" d="M45.25745,78.918c4.563.85565,8.943.36605,12.08622-2.38227-.00407,2.36126-.93707,5.0317-1.10958,7.44895a10.68119,10.68119,0,0,1-7.52171,2.65474C47.46222,84.098,46.64386,81.4132,45.25745,78.918Zm4.80709,1.99366a17.00348,17.00348,0,0,1,.283,1.84171c.09974.5721.08242,1.44219.683,1.63869.25193-1.46332-.3635-2.6364-.526-3.96083C50.29731,80.413,50.17175,80.63357,50.06454,80.91163Zm.92065.5596c.38969.94085.52066,2.31308,1.24721,2.9209.34188-1.12068-.46217-2.42576-.96671-3.4823C51.17229,81.09787,51.07965,81.2842,50.98519,81.47123Zm.76056-1.32277a11.71564,11.71564,0,0,0,.72282,1.9615,5.8597,5.8597,0,0,0,.96463,1.879c.51186-.65-.1638-1.48786-.44474-2.12115-.30672-.69269-.42818-1.63-1.0448-1.91974C51.889,80.048,51.78606,80.00726,51.74575,80.14846Zm1.31916-.44237c.60769,1.176.52806,2.93857,1.40807,3.80055-.35319-1.355-.24215-3.20552-1.24886-4.12068C53.1717,79.492,53.11868,79.59816,53.06491,79.70609Z"/><path class="cls-5" d="M49.0482,71.70613c.55867,2.08176.34353,4.42447.97273,6.48384-.25467.23768-.67684-.02676-1.00191.0011C49.40665,75.90231,48.7989,73.9483,49.0482,71.70613Z"/><path class="cls-4" d="M63.144,49.82323c.3758.29653.48047.68488.8019,1.00015-1.85243.5144-3.42528,1.86062-5.19961,2.61049-.245-.09574-.15646-.30393-.40065-.39923A31.005,31.005,0,0,1,63.144,49.82323Z"/><path class="cls-5" d="M61.57823,47.34382a17.02718,17.02718,0,0,0,3.91771-3.44948c.76.592.80237,1.42272,1.36475,2.08045-.06387.27243-.22694.25082-.32054.44007a.2116.2116,0,0,0,.40037,0c.55312,2.16672,3.09955,5.01476.09289,7.44513-.20553-.47352-1.09546-.80075-1.36112-.2769A8.9358,8.9358,0,0,0,61.57823,47.34382Z"/><path class="cls-3" d="M54.0375,62.68966c.04848-.15432.15817-.12645.11911-.03919.69.858,1.41359,1.70605,2.00707,2.59713C55.33807,64.4355,54.29432,63.69483,54.0375,62.68966Z"/><path class="cls-3" d="M54.875,61.00624c1.11711.67214,1.65881,1.8919,2.72571,2.35711a1.97274,1.97274,0,0,1-.9982,1.20256c-.82946-.87737-1.27926-1.88491-2.12541-2.758C54.60918,61.54113,54.74308,61.27331,54.875,61.00624Z"/><path class="cls-5" d="M53.892,71.61785c.10583.39525-.58612.10038-.6801.56145.70815.18449,1.14231-.44261,1.842-.28413,3.08826-1.90559,7.11016-2.88767,9.35523-7.54065a16.65184,16.65184,0,0,0,1.54709-8.13042c.87795-.07371.74968.76538,1.3236,1.15948-.1894.09852-.45692-.03655-.60068.20172.03568,1.58954,2.32776,2.42433,3.72944,3.556-.21719.55244-.11878,1.24121-.39687,2.00157-.3434.9412-1.24432,1.941-.87555,2.76458.46708-.3527.55877-1.104,1.037-1.68318a12.98126,12.98126,0,0,1-2.63338,5.2888c-.26639.09847-.32129-.48652-.68122-.839-.54111-.53174-1.75678-1.3401-2.403-.79722.487.72673,2.06811,1.44224,2.76492,1.87745-.05258.50972-.787.7031-1.03951,1.282-1.03644-.38975-2.195-.18762-3.08255-.63456-.44361-.22315-.6438-.8046-1.08239-1.0393-1.36872-.73148-3.31381.5258-3.68121,1.767-.10481.35853.17481.75956.12279,1.162-.14745,1.1038-.885,2.27692-.875,3.56323a15.54093,15.54093,0,0,1-7.28185,2.37447c-.0512-2.1637-.56171-4.17373-.53168-6.3646C51.32792,72.3352,52.40359,71.35694,53.892,71.61785Zm14.44449-5.309c.04785-.05287.08026-.15739.15869-.12117.37781-1.012-1.16507-1.87792-2.086-2.03773C66.094,65.15692,67.32411,65.96453,68.33648,66.30887Zm-2.67631,4.16834c.5213-.83143-.85041-1.55155-1.40434-1.6C64.074,69.61334,64.91663,70.46582,65.66017,70.47721Z"/><path class="cls-4" d="M64.54934,52.82335c.37505.2089.11666.62942.3619.88013-.99134.20412-2.724.56067-4.08211.9686-.69549.20883-1.54368.726-1.60176-.19719C60.91966,53.6796,62.8479,53.5892,64.54934,52.82335Z"/><path class="cls-4" d="M71.69238,38.68017c1.10477-.42014,2.34406-.44284,3.48128-.76726a5.79236,5.79236,0,0,1,1.72741,3.361c-.8325.968-1.6765,1.90043-2.51783,2.84548A17.9118,17.9118,0,0,0,71.69238,38.68017Z"/><path class="cls-2" d="M73.14181,43.40048a4.03557,4.03557,0,0,1,.4422,1.52157c-1.45356,1.83564-3.00371,3.38578-4.394,5.41266-.37726-1.03251-.55556-2.12914-.92659-3.16261C69.96671,46.14417,71.45475,44.47645,73.14181,43.40048Z"/><path class="cls-4" d="M49.15489,87.75936a13.38205,13.38205,0,0,0,6.80251-2.414,15.4206,15.4206,0,0,1-.47573,2.9635c-.33218,1.8685-.06752,3.49289-2.03575,3.687-.44823-1.38477-.251-2.98653-.96874-4.28262-.48093,1.34641.68128,3.06225.327,4.36437-.81262-.65063-.26046-2.3093-.88541-3.2422-.00076-.24427.19171-.55406-.04147-.71991-.59822,1.22437-.03652,2.6373-.03311,3.88363-1.04228.23-1.16484-.98484-1.60345-1.99961C49.81622,89.02328,49.44728,88.38824,49.15489,87.75936Z"/><path class="cls-5" d="M67.56052,57.62356c.28033.02525.3909-.30869.47956-.36224.77091.85476,2.28411,1.46032,2.446,2.51814A29.682,29.682,0,0,0,67.56052,57.62356Z"/><path class="cls-3" d="M51.60623,92.879a4.76969,4.76969,0,0,0,3.28156-.36563,40.97222,40.97222,0,0,0-.31367,4.24457c-.314.2553-.79576.01311-1.1204.24241A21.05678,21.05678,0,0,1,51.60623,92.879Z"/><path class="cls-2" d="M51.41773,100.08621a70.46161,70.46161,0,0,0-4.15364,5.7323c-.32208-.521.25785-1.42491.517-1.84355C48.73315,102.4407,50.39767,101.23192,51.41773,100.08621Z"/><path class="cls-2" d="M90.96833,26.67675c.109.20339-.44787.37025-.75849.52162a8.44479,8.44479,0,0,0-2.88052,2.16734C85.87873,31.106,84.838,33.96931,83.336,34.77714c-.038.151-.13861.12006-.2417.08086C84.88885,31.02983,87.35138,26.32843,90.96833,26.67675Z"/><path class="cls-2" d="M86.416,33.21025c1.381-3.42166,5.15371-3.84116,7.839-4.29682.02716.39472-.3891.97312-.39762,1.20263A13.1466,13.1466,0,0,0,86.416,33.21025Z"/><path class="cls-2" d="M85.49836,35.65409c2.65437-.13756,4.71917-2.3,7.08135-3.57468.4645-.25086,1.085-.76524,1.63911-.48372a4.00187,4.00187,0,0,1-1.67843,1.76557,12.29089,12.29089,0,0,1-2.11917,1.043A14.42627,14.42627,0,0,1,85.49836,35.65409Z"/><path class="cls-2" d="M54.13837,99.03991c.19631.00515.37767.75888.40217.99987.07458.71446-.12375,1.49144-.03572,2.28287.27614,2.51232,2.06845,5.2012,1.09316,8.046C55.1397,106.58372,53.47952,103.20127,54.13837,99.03991Z"/><path class="cls-2" d="M85.62056,36.41405a28.69293,28.69293,0,0,1,4.32422.75353C88.66751,37.408,87.09114,36.75262,85.62056,36.41405Z"/><path class="cls-2" d="M53.22256,102.085c.15762,1.70258.76917,4.02689,1.17134,6.083.21574,1.09868.8013,2.20951-.55744,2.72252A12.72523,12.72523,0,0,1,53.22256,102.085Z"/><path class="cls-4" d="M77.62351,65.53322c.03688-.152.13558-.12032.23854-.08145,1.419,1.4172,3.40572,2.64185,4.65116,4.11665a9.02761,9.02761,0,0,1-2.52584-1.75714C79.13941,67.0496,78.41152,66.22665,77.62351,65.53322Z"/><path class="cls-2" d="M59.75282,104.43523c.53291.40183,2.01885,1.18254,2.48432,1.63787C61.14109,106.34429,60.29132,104.99845,59.75282,104.43523Z"/><path class="cls-3" d="M83.395,70.40658c1.25893.6022,1.60525,2.088,2.4868,3.03992-.3395.71317-.8715.85139-1.35906,1.12216-.18206-.18152.23773-.19407.23924-.4799-.34621-.10519-.54575.2282-.79863.40024a6.95641,6.95641,0,0,0-1.96365-.4767C82.43781,73.0141,83.409,71.45528,83.395,70.40658Z"/><path class="cls-2" d="M92.00507,71.59434a18.98461,18.98461,0,0,1-3.92186,1.04775C88.73866,71.13757,90.524,71.30089,92.00507,71.59434Z"/><path class="cls-2" d="M97.06027,78.51178c-2.22663-1.50923-5.848-4.71561-8.77437-4.26921-.141-.04221-.10027-.14435-.20138-.19933-.03132-.16171.01211-.23931.20009-.20055C91.09043,73.61865,95.87946,76.13548,97.06027,78.51178Z"/><path class="cls-2" d="M88.65,76.5239c.01951-.075.06914-.06038.11951-.04011,2.67858,1.38235,4.545,3.67466,7.37516,4.87144.79941.33787,1.69716.27561,2.24409.91774C94.97022,82.134,90.29391,79.03886,88.65,76.5239Z"/><path class="cls-6" d="M90.9779,80.28342a12.40547,12.40547,0,0,0,3.64763,2.11541C93.13955,82.81157,91.47347,81.431,90.9779,80.28342Z"/><path class="cls-2" d="M13.11973,37.217c-1.36859-1.69955-1.16674-4.50382-1.89241-6.6424-.1548-.04972-.12743-.15778-.04032-.1201C12.10172,32.61742,12.302,35.02028,13.11973,37.217Z"/><path class="cls-2" d="M34.28683,7.1553c.93153.80148,1.41812,2.328,2.20847,3.39925C35.5714,9.752,35.12112,8.21118,34.28683,7.1553Z"/><path class="cls-2" d="M33.49281,10.359c-.00751-.319.32408.429.56075.68006a8.96855,8.96855,0,0,0,1.08372.83891.834.834,0,0,0,.07865.64111,17.56487,17.56487,0,0,0,2.12522,1.1559C35.12768,13.7654,34.38651,11.54628,33.49281,10.359Z"/><path class="cls-2" d="M5.39363,85.07039c-.182-.22916-.14017-.53238-.32132-.76111,2.52651-1.1737,5.40969-2.06033,8.04037-3.29489.04356-.02005.30239-.3176.32032-.04216A59.37886,59.37886,0,0,1,5.39363,85.07039Z"/><path class="cls-2" d="M6.756,85.749a2.24376,2.24376,0,0,1-.84146-.31951c.92514-.35909,1.82809-.78737,2.76067-1.12515A13.349,13.349,0,0,0,6.756,85.749Z"/><path class="cls-2" d="M43.43,15.30652c.6798-1.18388,1.88856-1.21354,2.839-1.68615,1.53256-.76059,2.44976-2.10327,3.75717-3.93-.41152,2.51465-2.05786,3.13383-3.63695,3.89A27.89,27.89,0,0,1,43.43,15.30652Z"/><path class="cls-2" d="M44.66627,13.024a27.92232,27.92232,0,0,0,2.79365-4.809C47.54813,9.80383,46.14339,12.70263,44.66627,13.024Z"/><path class="cls-2" d="M10.76141,87.34369c1.77827-.652,3.48056-2.72549,4.55532-5.73277C15.07074,84.10771,12.959,87.59151,10.76141,87.34369Z"/><path class="cls-5" d="M39.03859,48.022a14.06887,14.06887,0,0,0,1.401-.80349c-1.01728,1.42-2.47924,2.41376-3.39579,4.61038-.85354,2.04963-.6267,3.96459-.66937,5.96638-.03381,1.55176-.26242,2.965.246,4.12313-1.69.929-3.60048,1.20648-5.15993,2.53035.407.22333.97958-.05918,1.40118-.20232a35.6441,35.6441,0,0,1,4.081-1.56834c-1.90225,1.16271-3.97271,1.82516-5.80029,3.2125A31.4961,31.4961,0,0,1,29.975,61.81014a14.89762,14.89762,0,0,0,2.5983-2.80787c2.13609.23295,2.53607-2.45657,2.47531-4.16658a6.27756,6.27756,0,0,0-1.12238-.15945,1.74519,1.74519,0,0,0-.71783.8429c-1.15889-.83606-2.02827-1.76956-3.08761-2.63842a13.9352,13.9352,0,0,1,1.15457-4.3252c1.18562,1.14,3.38627,3.62276,5.24813,2.91363.02311-.43193-.64691-.277-.92013-.35811-1.18407-.44951-1.57867-1.163-2.44675-1.71749,1.31178.3259,2.83662,1.28778,3.88517.83392-.305-.40584-1.06827-.39245-1.76248-.678-1.3162-.53948-2.714-1.541-3.76507-1.2747.50985-1.6373,2.10283-3.03233,3.11543-4.4491,2.83052-.257,7.20649,1.9923,8.40257-1.81515-.36645-.23593-.52126.1642-.88-.03843.07735-.304.377.05961.44019-.28147-.00015-1.51235-.17144-2.96834-.2871-4.44174a23.498,23.498,0,0,1,1.9173-1.44573c2.77947-.2088,5.43711-.78027,8.65006.306.22273.26635.18318-.24826.35853-.12031.72616,1.09122,1.03035,2.3246,1.688,3.43964-.15547.13345-.36216.11653-.48007.36092.05831,1.54352,2.04658,1.26792,3.36574,2.0765.565.07344.85356-.82946.47906-1.16247.91176-.26812,1.90708-.28462,2.842-.48469-.64573,1.1924-1.99337,2.02011-2.79707,3.4082,1.24622-.13823,2.46734-2.06341,3.59787-3.20986.36165.10142.34934.32871.68214.439-1.42127,1.47347-2.9031,2.76268-4.27635,4.37236a37.1815,37.1815,0,0,0-8.65148-2.308,15.62687,15.62687,0,0,0-1.21391-7.20429c-.2218,1.81989.52383,3.73589.69008,5.644.04084.4551.3149,1.47856-.35774,1.52167-.2804-.12464-.17391-.56077-.20074-.8002-.09058-.81718-.18775-1.77156-.36547-2.68175a6.62764,6.62764,0,0,0-1.20653-3.40223c-.35157.62651.18194,1.22243.3242,1.762a43.16508,43.16508,0,0,1,.92787,5.16214,3.70589,3.70589,0,0,0-1.15976.12269c-.41038-2.13293-.53263-4.36128-1.57232-6.283-.59445.28471-.15578,1.063-.03783,1.4804.425,1.4996.87829,3.26957,1.32888,4.76337-1.56826.29991-3.20519.39452-4.44025,1.68855.07118.01738.11963-.03978.2-.00035C41.83084,45.21137,39.3996,46.28934,39.03859,48.022Zm-3.52018.8471c.6693.276,1.11319.83162,1.8022.59638a9.05058,9.05058,0,0,0-5.24777-2.112c-.04053.07971-.07983.16045-.11968.24C32.84087,48.239,34.30691,48.3711,35.51841,48.86908Zm3.08089-1.366c-1.94488-.75378-3.86074-1.42817-5.44621-1.1121C34.8057,47.05589,36.786,47.01912,38.5993,47.50312Zm6.193-7.61768c.24355.7401.05356,1.51966.72347,1.96124-.00624-1.77987-.2756-3.82257-1.5305-4.96155C43.66061,38.04463,44.46329,38.89453,44.79234,39.88544Z"/><path class="cls-4" d="M32.06817,68.2521a6.28223,6.28223,0,0,1-.40176-.80061,33.76328,33.76328,0,0,0,5.95924-3.13284c.56536.46339.66121,1.4161,1.52359,1.55922-.27266-1.26563-1.09881-2.34626-1.40628-3.60143-.09895-.4422.544.00165.63964-.48176-.104-.503-.53452-.14675-.88147-.23843-.39854-1.58162-.0747-3.71024-.00846-5.60486.0208-.60193-.16782-1.2238-.12363-1.761.20807-2.49835,2.35646-4.47581,3.71171-6.25059A26.1761,26.1761,0,0,1,43.85007,51.417c-.29513.38044-.69986.4378-.959.92318-.8966-.99669-1.52707-2.41876-2.40764-3.20019-.497.65456.16247,1.4063.52221,1.96236a12.93111,12.93111,0,0,0,1.32443,1.75828c-1.83943,1.797-1.41532,4.01521-1.59118,6.00807-.065.748-.36256,1.34534.04394,1.92185-.25342.16459-.20061-.32719-.52187-.35989a13.94183,13.94183,0,0,0,7.499,7.63415,7.35327,7.35327,0,0,0,4.84532-.08819A7.81829,7.81829,0,0,0,57.843,64.285c.56367.93559,2.5235,3.042,3.88718,2.43507-1.03256-.70571-2.4947-1.945-3.60618-2.59667-.07228-.41874.48133-.68.59832-1.20128A39.98043,39.98043,0,0,0,62.608,64.75644a12.81632,12.81632,0,0,0-3.76625-2.075,9.26357,9.26357,0,0,0,.82857-6.8869,34.61412,34.61412,0,0,1,5.36291-1.12943c.212.64665-1.09619.698-1.71987.84367-.74193.172-1.65807.12361-2.08034.76446.55165.40859,1.24939-.08411,1.88062-.16445.66-.08376,1.3319-.007,1.96058-.12266.29481.34525.19267.82529.16351,1.27937-1.67853.04385-3.42915-.13821-4.8427.68991,1.52844.5099,3.23882-.16222,4.88386.03117a5.96288,5.96288,0,0,0-.19779,1.20169c-1.6042.05965-3.42206-.51457-4.68355.56781.49109.57155,1.42282.28291,2.16334.27707.79237-.00476,1.60982.02544,2.36069.077-.47217,2.26518-1.86626,5.67978-3.67044,7.372-1.33609,1.25254-3.54973,1.8135-5.039,2.89074a3.81706,3.81706,0,0,1-.60248-1.00018,11.98835,11.98835,0,0,1-7.72435,1.05417,19.61079,19.61079,0,0,1-3.5646-.67533c-1.71511-.62725-2.99925-1.8405-4.76811-2.67407a2.44962,2.44962,0,0,0,1.00345,1.8007,9.6569,9.6569,0,0,0-1.52144-.158c-.20309.44618.20831.68653.16172,1.08026-1.49275.72508-2.982,1.461-4.43788,2.28961-.7187-1.18427-1.828-2.23628-2.49027-3.43789a59.22924,59.22924,0,0,0,5.71875-3.45319c.08865-.11842-.006-.17586.04013-.28087-.05268-.02629-.10661-.05211-.15973-.07973C35.85623,65.7467,34.02076,67.17266,32.06817,68.2521Zm24.7414.717c.149-.67071-.33157-1.133-.803-1.598A1.176,1.176,0,0,0,56.80957,68.96914Zm2.68074-1.16334a8.717,8.717,0,0,0-2.32515-2.35857c-.05573.09915-.159.05936-.19982.19932C57.718,66.31105,58.35171,67.71469,59.49031,67.8058Z"/><path class="cls-3" d="M44.69063,51.73613c-.00673-.22913.59757-.33576.84023-.48262.98627.98384,1.3438,2.17651,2.44754,3.11884-.69746.15606-.9617-1.042-1.64411-1.71816A3.44969,3.44969,0,0,0,44.69063,51.73613Z"/><path class="cls-3" d="M53.80062,63.9709c.51573.25038,1.02092,1.08156,1.76261,1.479-.18231.11892-.37794.20144-.55911.32135C54.5692,65.18179,54.17889,64.57885,53.80062,63.9709Z"/><path class="cls-4" d="M61.46753,52.98969c.53033-.60979,2.08808-.93683,2.55942-1.72676.4531-.03819.37713.67372.522.96078A12.42356,12.42356,0,0,0,61.46753,52.98969Z"/><path class="cls-3" d="M75.45506,37.95246c1.56248-.84876,4.07233-.59751,5.68-1.97138.26144.11361.16324.34638.48192.4409-1.23566,1.29245-2.67183,1.98736-3.7575,3.72882C77.3413,39.64831,77.02525,37.68626,75.45506,37.95246Z"/><path class="cls-2" d="M71.208,60.13873c.87732.3079,1.51965,1.27075,2.40554,1.79716A8.62317,8.62317,0,0,1,71.208,60.13873Z"/><path class="cls-2" d="M53.377,98.76259c-.28893.53206-.8055.38239-1.15969.72171C52.17617,99.50709,52.901,98.5108,53.377,98.76259Z"/><path class="cls-2" d="M73.86968,72.46543c-2.30245-.631-4.45636-.81676-6.72664-1.3508a12.411,12.411,0,0,0,2.8752-3.96768c.77193.56183,2.00888.50256,3.04474.91558.5746.22812,1.05177.75959,1.64233.71839-.79689-1.30754-3.17434-1.697-4.447-1.91362a19.17952,19.17952,0,0,0,1.07143-5.16695c1.80416,1.26511,3.52463,2.55647,5.292,3.83432C76.15658,67.62952,75.42912,70.8479,73.86968,72.46543Zm.3594-.72232c.081-.15757.26991.00771.31989-.23993-1.2309-.95065-3.36149-2.60862-4.8474-2.314C70.24041,70.34251,72.938,71.13352,74.22908,71.74311Zm-4.44856-3.31536c.24411.55472,1.01082.50435,1.72375.75848,1.07335.38284,2.4631,1.40913,3.08376.83608-1.15551-.96823-3.49155-2.06806-4.68831-1.8336C69.85992,68.26814,69.82029,68.34826,69.78052,68.42775Z"/><path class="cls-2" d="M84.738,35.17364c2.40779-1.31058,5.04275-3.67422,7.95916-4.13511C90.42115,32.74533,87.6658,34.74612,84.738,35.17364Z"/><path class="cls-2" d="M87.652,30.12666a6.3132,6.3132,0,0,1,3.83877-2.69024A14.5132,14.5132,0,0,0,87.652,30.12666Z"/><path class="cls-2" d="M51.15244,109.65439c-.32384-.20907-.132-.83533-.082-1.241.15982-1.268.52673-2.89182.83412-4.28336.02779-.05544.05294-.10836.0808-.16165A25.37643,25.37643,0,0,1,51.15244,109.65439Z"/><path class="cls-2" d="M56.34072,99.03691c1.21-.14854,1.21089,1.39062,1.64573,2.11911C57.36838,100.7385,57.2,99.59519,56.34072,99.03691Z"/><path class="cls-2" d="M88.42183,35.80821a18.32708,18.32708,0,0,0,6.2391-3.29175C93.50428,34.91249,90.7892,35.73485,88.42183,35.80821Z"/><path class="cls-2" d="M75.17612,63.41561a4.10767,4.10767,0,0,1,1.6843,1.43765C76.28723,64.37711,75.81115,63.8694,75.17612,63.41561Z"/><path class="cls-2" d="M56.06559,102.60011c.45819.80052.90333,1.796,1.52608,2.75943a24.4801,24.4801,0,0,1,1.96551,2.6798c-.68473.435-1.015-.43711-1.28177-.839A21.64442,21.64442,0,0,1,56.06559,102.60011Z"/><path class="cls-2" d="M91.02366,36.20528c.18-.15355,1.4611-.405,1.96032-.924C92.676,35.82279,91.67487,36.01859,91.02366,36.20528Z"/><path class="cls-4" d="M74.51,72.584c1.34191-1.13058,2.66276-4.26841,2.99352-6.20934,1.55989,1.25708,3.14123,2.507,4.8501,3.71493a20.19152,20.19152,0,0,1-1.79443,3.60521C78.55874,73.3763,76.50468,72.88961,74.51,72.584Zm5.4455-.28928c-.369-.31124-1.07041-.47046-1.44256-.9176.69129-.05576,1.36377.69749,2.00293.796.34966-.92124-1.3117-1.5612-2.00426-1.39825-.17476.23773-.17642.41655-.07893.56129C76.76152,71.26567,79.71293,74.28016,79.95546,72.29469Z"/><path class="cls-2" d="M86.08587,75.64745c.99783.4133.811,1.76548,1.32631,2.56016C86.88754,77.69,85.91662,76.39891,86.08587,75.64745Z"/><path class="cls-2" d="M88.45286,77.9258c.43447.79606,1.49325,1.86749,2.20591,2.998a3.94473,3.94473,0,0,0,1.56587,1.87883,7.54386,7.54386,0,0,0,3.16334.675,3.77677,3.77677,0,0,1-3.484-.23334C90.41012,82.21249,89.222,79.29851,88.45286,77.9258Z"/><path class="cls-2" d="M98.73783,75.947c-.10342-.248.70968.585.96267.87855.34643.40312.88234.94827.72267,1.36055C99.76685,77.47089,99.57628,76.59973,98.73783,75.947Z"/></svg>