<svg id="Layer_1" data-name="Layer 1" xmlns="http://www.w3.org/2000/svg" viewBox="0 0 168.85279 30.60571"><defs><style>.cls-1{fill:#fff;}</style></defs><title>Diseno-titulos</title><path class="cls-1" d="M168.84739,6.40957c-.00224-.03691-.00686-.07251-.01-.1089a2.439,2.439,0,0,0-.09561-.99922,2.546,2.546,0,0,0-.50057-.90618,2.61278,2.61278,0,0,0-.37715-.3584c-.01078-.01115-.02123-.02333-.0321-.03415a2.0261,2.0261,0,0,0-1.062-.59062,1.68593,1.68593,0,0,0-.63644.00275,2.79758,2.79758,0,0,0-1.08717-.18347,1.592,1.592,0,0,0-.20876.01288c-.0705.00807-.14376.01372-.2165.02632-.14311.0279-.302.06121-.42932.09546-.26993.06827-.54928.14334-.82569.20867A2.40976,2.40976,0,0,1,162.341,3.662a1.42828,1.42828,0,0,1-.70508-.45974,5.96049,5.96049,0,0,1-.43618-.54205l-.15738-.21575.00546.06938c.00443.04531.00924.11287.02244.19849a3.1436,3.1436,0,0,0,.1852.72454,2.03528,2.03528,0,0,0,.27095.48348,4.53355,4.53355,0,0,1,.32186.897,4.59916,4.59916,0,0,0,.21.83386,1.997,1.997,0,0,0,.35055.60662,1.70649,1.70649,0,0,0,1.03123.61442,2.0829,2.0829,0,0,0,1.34582-.34244,2.982,2.982,0,0,0,.89726-.97c.16476-.25794.2844-.502.39484-.70545a2.31434,2.31434,0,0,1,.32522-.48965.36212.36212,0,0,1,.35424-.1606,2.28562,2.28562,0,0,1,.68912.31467,2.104,2.104,0,0,1,.65851.99348,2.78466,2.78466,0,0,1-.09929,1.84349,2.976,2.976,0,0,1-.4903.83222c-.08035.14829-.12379.23624-.12379.23624s.08193-.04731.22826-.14362a3.10765,3.10765,0,0,0,.55978-.49646,2.81024,2.81024,0,0,0,.27688-.37771l-.00546.02524a3.875,3.875,0,0,1-.42741,1.01383,4.09718,4.09718,0,0,1-.7662.90758,7.06443,7.06443,0,0,1-2.3021,1.31422c-.06934.02543-.14292.04643-.21338.07069.06169-.05734.11861-.11081.16644-.15612l.1439-.13527c.30665-.15846.58586-.30268.82765-.42764.77861-.38466,1.21036-.598,1.21036-.598s-.45592.158-1.27806.44276c-.40664.15649-.9039.3478-1.48066.56976-.57364.22672-1.22641.4847-1.9474.76961-.17157.06588-.3478.1327-.52735.19966a26.70179,26.70179,0,0,1-6.71631.012c-1.228-.15855-2.49015-.36353-3.77535-.64447-1.28445-.28341-2.59611-.60984-3.92685-.99166-2.664-.75528-5.40937-1.6841-8.26206-2.60591-1.43008-.45829-2.86585-.91668-4.32439-1.39494-1.45766-.47631-2.93075-.96241-4.423-1.43946-1.48994-.48181-3.00247-.94482-4.52746-1.39732-1.53049-.43711-3.07175-.87189-4.63761-1.24036-.77908-.19728-1.56894-.36-2.35665-.53164-.39274-.09062-.79234-.15375-1.18834-.23176-.39754-.07111-.79219-.15631-1.1922-.2159-.79947-.12122-1.59568-.26092-2.4007-.34542-.40184-.04587-.80218-.10186-1.20467-.13914q-.60477-.04956-1.20858-.099c-.20143-.01479-.40221-.03653-.604-.04549L110.50337.0678,109.29478.02025Q108.69805.01346,108.103.00658c-.39652-.00583-.79289-.009-1.18969-.00425q-.59476.0035-1.18745.007-.59413.016-1.186.03173l-.59146.0175-.59146.03219c-.394.02436-.78669.03672-1.17943.071a35.94153,35.94153,0,0,0-4.65856.635L96.9476.92232c-.18986.04288-.38065.07947-.56748.13532q-.563.15516-1.12194.30926-.551.18471-1.0979.36805c-.18361.05758-.36166.12953-.53916.202l-.53253.21412c-.176.07386-.35643.13718-.52772.21949l-.5147.24235c-.34239.1613-.68609.31729-1.011.50314-.32741.1809-.66042.35083-.97878.53934q-.47257.29052-.94053.57816c-.15813.09313-.30716.19718-.45656.30007l-.44766.30707-.44518.30585c-.14768.10205-.28631.21347-.42927.31934l-.84613.63957c-.14017.11054-.27973.23031-.41882.34482-.13942.11529-.27889.22975-.40907.35387l-.39586.36394c-.12986.12272-.25192.25267-.37748.37818l-.01722.01806-.01721-.01806c-.12561-.12551-.24763-.25546-.37748-.37818q-.19737-.18134-.39591-.36394c-.13018-.12412-.2696-.23858-.409-.35387-.13914-.11451-.2787-.23428-.41882-.34482q-.42065-.3179-.84613-.63957c-.143-.10587-.28159-.21729-.42927-.31934l-.44518-.30585-.44766-.30707c-.1494-.10289-.29844-.20694-.45657-.30007q-.46794-.28765-.94057-.57816c-.31831-.18851-.65132-.35844-.97878-.53934-.32489-.18585-.66859-.34184-1.011-.50314l-.51475-.24235c-.17124-.08231-.35172-.14563-.52768-.21949L76.124,1.937c-.17754-.07251-.35555-.14446-.5392-.202L74.487,1.3669q-.55893-.15412-1.122-.30926c-.18678-.05585-.37757-.09244-.56748-.13532L72.22626.79681a35.94068,35.94068,0,0,0-4.65852-.635c-.39273-.0343-.78538-.04666-1.17942-.071L65.79681.05856l-.59146-.0175q-.59176-.01582-1.186-.03173-.59267-.00343-1.18749-.007c-.3968-.0048-.79313-.00158-1.18969.00425q-.595.00685-1.19183.01367L59.2418.0678l-.60532.02454c-.20176.009-.40253.0307-.604.04549q-.60381.04941-1.20859.099c-.40253.03728-.80287.09327-1.20466.13914-.80507.0845-1.60128.2242-2.40075.34542-.4.05959-.79466.14479-1.1922.2159-.396.078-.7956.14114-1.18829.23176-.78776.17166-1.57757.33436-2.3567.53164-1.56581.36847-3.10708.80325-4.63762,1.24036-1.52493.4525-3.03746.91551-4.5274,1.39732-1.49233.47705-2.96538.96315-4.423,1.43946-1.45854.47826-2.89436.93665-4.32439,1.39494-2.85269.92181-5.598,1.85063-8.262,2.60591-1.33079.38182-2.64244.70825-3.92694.99166-1.28516.28094-2.54735.48592-3.77535.64447a26.70108,26.70108,0,0,1-6.71622-.012c-.17964-.067-.35587-.13378-.52744-.19966l-1.9474-.76961c-.57676-.222-1.074-.41327-1.48066-.56976-.82214-.28477-1.278-.44276-1.278-.44276l1.21031.598.82765.42764.144.13527c.04783.04531.10475.09878.16643.15612-.07045-.02426-.144-.04526-.21342-.07069A7.06475,7.06475,0,0,1,2.48771,9.35311a4.099,4.099,0,0,1-.76624-.90758A3.87618,3.87618,0,0,1,1.29411,7.4317l-.00546-.02524a2.80592,2.80592,0,0,0,.27688.37771,3.109,3.109,0,0,0,.55973.49646c.14633.09631.22831.14362.22831.14362s-.04344-.088-.12384-.23624a2.97741,2.97741,0,0,1-.49025-.83222A2.78476,2.78476,0,0,1,1.64014,5.5123a2.10458,2.10458,0,0,1,.65851-.99348,2.2867,2.2867,0,0,1,.68912-.31467.3622.3622,0,0,1,.35429.1606,2.31473,2.31473,0,0,1,.32522.48965c.11039.20344.23008.44751.39478.70545a2.98285,2.98285,0,0,0,.89732.97,2.08287,2.08287,0,0,0,1.34581.34244,1.70674,1.70674,0,0,0,1.03123-.61442A1.99811,1.99811,0,0,0,7.687,5.65121a4.6,4.6,0,0,0,.21-.83386,4.53227,4.53227,0,0,1,.32186-.897,2.03531,2.03531,0,0,0,.2709-.48348A3.14358,3.14358,0,0,0,8.675,2.71229c.01316-.08562.018-.15318.0224-.19849l.00546-.06938-.15734.21575a5.96709,5.96709,0,0,1-.43617.54205,1.42863,1.42863,0,0,1-.70513.45974A2.4098,2.4098,0,0,1,6.3791,3.57471c-.27637-.06533-.55576-.1404-.82569-.20867-.12729-.03425-.28617-.06756-.42932-.09546-.07274-.0126-.146-.01825-.2165-.02632a1.592,1.592,0,0,0-.20876-.01288,2.79773,2.79773,0,0,0-1.08717.18347,1.68593,1.68593,0,0,0-.63644-.00275,2.02629,2.02629,0,0,0-1.062.59062c-.01087.01082-.02128.023-.032.03415a2.61077,2.61077,0,0,0-.37716.3584,2.546,2.546,0,0,0-.50056.90618,2.43727,2.43727,0,0,0-.09561.99922c-.00317.03639-.00784.072-.01.1089a3.32162,3.32162,0,0,0,.01213.53752c.01013.0908.01087.184.02926.27609l.0509.28015a4.18349,4.18349,0,0,0,.42974,1.12025,4.44444,4.44444,0,0,0,.8025,1.01411,7.44071,7.44071,0,0,0,2.399,1.46783,13.15758,13.15758,0,0,0,1.34941.44779,22.10528,22.10528,0,0,0,2.55239,1.7162l.50644.29143q.26394.14006.53925.286c.36493.2.75808.37958,1.1608.577.81525.37137,1.698.74917,2.65495,1.07719a24.12018,24.12018,0,0,0,3.069.846c.54336.109,1.10878.1955,1.68009.25318q.42708.03548.86017.07134c.28883.0202.5797.02468.87231.037a36.05912,36.05912,0,0,0,8.5808-.91462,57.54974,57.54974,0,0,0,5.79618-1.62265c.696-.15612,1.55559-.33315,2.52985-.60471.97515-.26867,2.08028-.57933,3.28733-.92848,1.18838-.39862,2.47433-.8459,3.83245-1.3279,1.335-.53453,2.7506-1.08661,4.18647-1.714,1.05167-.47094,2.075-.93856,3.06023-1.39611a30.71235,30.71235,0,0,0,2.77468-1.52583c.84692-.52133,1.65218-1.01709,2.40634-1.4814.75141-.45983,1.45952-.8675,2.115-1.22464a17.09568,17.09568,0,0,1,3.247-1.3745c.20171-.05459.38074-.10853.53761-.14712.15846-.03145.29265-.05809.40109-.0797l.33231-.06719-.3381.021-.412.02729c-.162.01843-.34748.04988-.558.08045a15.2335,15.2335,0,0,0-3.44373,1.05092c-.69822.30244-1.45271.65813-2.24392,1.06757-.79112.40874-1.62409.8633-2.49672,1.33317-.87408.46884-1.78447.95181-2.75452,1.37754-.99209.42806-2.01613.87734-3.06145,1.34558-1.4284.61591-2.81061,1.21185-4.12222,1.77741-1.32546.52488-2.57422,1.03585-3.72569,1.509-1.16771.423-2.23515.81888-3.17717,1.17364-.94113.35769-1.77377.62216-2.44614.8549-1.391.2989-3.41956.71553-5.87191,1.09581a48.50216,48.50216,0,0,1-8.40447.61129c-.28122-.0119-.56174-.01489-.83885-.03234l-.82495-.05949c-.54261-.04717-1.06935-.11642-1.591-.20614a28.29693,28.29693,0,0,1-2.98022-.69729c-.94262-.27011-1.82309-.58343-2.64379-.88812-.40534-.16415-.80348-.31-1.17466-.47607q-.2808-.12-.55017-.23526l-.51937-.24114c-.77693-.36129-1.44986-.71562-2.01851-1.03925q.41946.0942.85211.17184A22.13861,22.13861,0,0,0,12.33547,13.601c.25453.07074.51606.104.77922.15547.26367.04573.52973.09929.80049.13881.54308.06332,1.09656.15529,1.66455.18641a27.82891,27.82891,0,0,0,3.51545.06378,44.51482,44.51482,0,0,0,8.77028-1.40292c1.2551-.31211,2.39165-.63089,3.39376-.91393.50019-.145.96754-.27356,1.39616-.40794l1.16953-.37524c.36091-.076.76279-.16061,1.202-.253.4345-.1131.90595-.23582,1.41076-.36726,1.01616-.24968,2.14174-.61176,3.378-.99661,2.45753-.80712,5.28395-1.88594,8.266-3.09341,2.19344-.89507,4.27769-1.74078,6.18253-2.42393a42.52035,42.52035,0,0,1,5.21592-1.38468c.75939-.13471,1.44156-.29778,2.04977-.35816a7.42093,7.42093,0,0,0,1.57584-.305,2.398,2.398,0,0,0,.36731-.16252c.16891.00374.33819.00733.50682.011l1.15665.04913.57625.02594.57224.04022c.38051.02954.76247.04713,1.13906.086a34.33315,34.33315,0,0,1,4.41472.6678q.26638.06257.53193.12491c.17665.04251.355.07871.527.13349l1.03627.30138q.506.17784,1.00809.35419c.16881.05492.33175.12393.49408.19322l.48736.20405c.161.07027.32629.12966.48293.20819l.47094.23022c.31327.15291.62776.29951.92615.47659.30063.172.60569.33156.89895.51059q.436.276.86764.54933c.14567.08782.28425.18757.423.28607q.20842.14712.41588.2934l.41373.29148c.13732.09724.26774.20531.40142.30689l.79238.61418c.127.1027.2444.20717.36665.30992.12136.10269.243.20427.35573.31518l.34407.32373c.11292.109.21823.225.32737.33632.04937.0489.09421.1013.14138.15193-.22131.28962-.43216.584-.627.88621a16.34682,16.34682,0,0,0-1.00585,1.75082,15.59236,15.59236,0,0,0-.74408,1.81563,13.02076,13.02076,0,0,0-.42764,7.12351,11.32647,11.32647,0,0,0,1.13024,2.94433,12.02865,12.02865,0,0,0,1.43731,2.04273c-.08058.06429-.16065.12943-.242.19256l-.43408.31234a2.339,2.339,0,0,1-.2173.14465l-.21743.13569c-.14143.09514-.296.17189-.44691.25317l-.22644.12174-.23512.10746a10.52542,10.52542,0,0,1-1.95426.68319,13.76992,13.76992,0,0,1-2.04524.34715,16.48389,16.48389,0,0,1-4.08073-.14157,16.28375,16.28375,0,0,1-1.945-.42469c-.31812-.08241-.6258-.18972-.93427-.28925-.154-.05044-.30291-.11222-.45414-.16727-.15062-.05637-.30161-.111-.44686-.17671A11.63941,11.63941,0,0,1,63.93812,22.386l-.20489-.3541-.10176-.17605-.08665-.18086-.17409-.35909-.14259-.367-.07144-.18221c-.02132-.06135-.03732-.124-.05631-.18566q-.05578-.18554-.11092-.3695c-.02925-.1242-.05291-.249-.0802-.37258l-.04-.18524c-.01036-.062-.01629-.12444-.02478-.1864l-.04862-.37071-.01787-.36932-.00947-.18356.00625-.18248.01143-.36269.04-.35686c.0069-.05921.01157-.11861.02011-.17726l.03373-.17408.06649-.34589.09183-.33624c.01554-.05571.02907-.11189.04582-.1669l.05809-.16177.11418-.32181.13727-.30828.06747-.15337c.02483-.04974.0524-.0978.07825-.1467l.15575-.29088c.05441-.09477.11637-.184.1733-.27576a6.17938,6.17938,0,0,1,.36926-.52175,6.56387,6.56387,0,0,1,1.77051-1.57626,6.30885,6.30885,0,0,1,1.9285-.77684,6.20774,6.20774,0,0,1,1.77144-.13914c.06761.00331.13471.00373.20041.00905l.19345.02482.37216.04568c.07032.01512.13727.02837.20544.04223a2.80371,2.80371,0,1,0,1.42807-.12561c-.05935-.0356-.119-.07139-.1836-.10932q-.2682-.12683-.5762-.27245c-.21333-.08824-.45083-.16681-.70429-.25565l-.40365-.10237-.21249-.05259c-.07251-.01456-.14712-.02412-.22248-.03644a6.6169,6.6169,0,0,0-2.04179-.03994,7.09335,7.09335,0,0,0-2.34186.73727,7.61053,7.61053,0,0,0-2.23384,1.74811,7.38071,7.38071,0,0,0-.48.60234c-.075.10647-.15482.21123-.22682.322l-.20754.34131c-.03434.05758-.07032.11465-.10345.17344l-.0922.181-.18505.36693-.15944.38457-.07974.19476c-.02384.06612-.04432.13368-.06663.20082l-.13121.40711c-.03634.13863-.06826.2795-.10237.42073l-.05016.21291c-.01385.07172-.0237.14442-.03564.217l-.06775.439-.03463.44784-.01614.22616.00093.22775.00472.45964.04064.46245c.0076.07745.01292.15556.02286.233l.03938.23152c.0273.15459.05207.31085.0831.46632l.11908.4624c.02085.07723.039.15561.06252.23228l.07862.22784.16107.45834.19667.44728.1.22494.11469.21688.23423.43534A11.14988,11.14988,0,0,0,63.577,24.93672c.21342.26554.46044.49986.69724.74945.12253.11987.25163.23306.37827.35041s.2549.23377.39134.3402l.40505.32872.42325.30837.21356.15407.22075.14348.44537.28659.46072.26507.23232.132.238.12183c.1592.08058.31789.16443.47952.24258l.49165.22262c.16345.07726.33185.14259.50038.20954.16891.06552.33638.13774.50827.19789.34416.11917.68893.245,1.04355.3443a17.959,17.959,0,0,0,2.17267.511,18.21294,18.21294,0,0,0,4.604.21408,15.65252,15.65252,0,0,0,2.36864-.382,12.50608,12.50608,0,0,0,2.33934-.80349l.28691-.1306.281-.14819c.18725-.09957.37664-.19508.55665-.31267l.27329-.16951c.09229-.056.1823-.11348.26475-.17516q.25413-.18177.50906-.36414.25707-.19758.51008-.40435.25268.20688.51.40435l.50906.36414c.0825.06168.17246.11917.2648.17516l.27324.16951c.18.11759.3694.2131.55665.31267l.281.14819.28691.1306a12.50855,12.50855,0,0,0,2.33934.80349,15.653,15.653,0,0,0,2.36869.382,18.21243,18.21243,0,0,0,4.60393-.21408,17.95677,17.95677,0,0,0,2.17267-.511c.35466-.09929.69939-.22513,1.04355-.3443.17189-.06015.33936-.13237.50827-.19789.16853-.06695.33693-.13228.50038-.20954l.4917-.22262c.16158-.07815.32027-.162.47952-.24258l.23792-.12183.23232-.132.46077-.26507.44532-.28659.22079-.14348.21352-.15407.42325-.30837.4051-.32872c.13643-.10643.26475-.22271.39129-.3402s.25574-.23054.37832-.35041c.2368-.24959.48381-.48391.69724-.74945a11.15737,11.15737,0,0,0,1.16967-1.63123q.11759-.21865.23418-.43534l.11474-.21688.1-.22494q.09869-.22467.19663-.44728.081-.2302.16111-.45834l.07858-.22784c.02356-.07667.04167-.155.06257-.23228l.119-.4624c.03107-.15547.05585-.31173.08315-.46632l.03933-.23152c.01-.07746.01526-.15557.02286-.233l.04069-.46245.00467-.45964.001-.22775-.01615-.22616-.03462-.44784-.06775-.439c-.01194-.07255-.02179-.14525-.03565-.217l-.05016-.21291c-.03415-.14123-.06607-.2821-.10237-.42073l-.13125-.40711c-.02226-.06714-.04279-.13466-.06663-.20082l-.0797-.19476-.15948-.38457-.185-.36693-.0922-.181c-.03313-.05879-.06915-.11586-.10349-.17344l-.20754-.34131c-.072-.11077-.15183-.21553-.22682-.322a7.37816,7.37816,0,0,0-.48-.60234,7.61092,7.61092,0,0,0-2.23384-1.74811,7.09384,7.09384,0,0,0-2.3419-.73727,6.617,6.617,0,0,0-2.04179.03994c-.07531.01232-.14992.02188-.22243.03644l-.21249.05259-.40365.10237c-.25351.08884-.491.16741-.70434.25565l-.5762.27245c-.06458.03793-.12421.07372-.1836.10932a2.80431,2.80431,0,1,0,1.42807.12561c.06817-.01386.13512-.02711.20549-.04223l.37211-.04568.19345-.02482c.0657-.00532.13284-.00574.20045-.00905a6.20744,6.20744,0,0,1,1.7714.13914,6.30885,6.30885,0,0,1,1.9285.77684,6.56386,6.56386,0,0,1,1.77055,1.57626,6.17672,6.17672,0,0,1,.36922.52175c.057.09178.11889.181.1733.27576l.15579.29088c.02581.0489.05343.097.07825.1467l.06743.15337.13732.30828.11413.32181.05814.16177c.01675.055.03028.11119.04577.1669l.09183.33624.06653.34589.03369.17408c.00854.05865.01321.11805.02016.17726l.04.35686.01139.36269.0063.18248-.00948.18356-.01787.36932-.04866.37071c-.00849.062-.01437.12439-.02473.1864l-.04.18524c-.02729.12361-.051.24838-.08016.37258l-.11091.3695c-.019.06164-.035.12431-.05632.18566l-.07148.18221-.14255.367-.17408.35909-.08665.18086-.10181.17605q-.102.17643-.20489.3541a11.63917,11.63917,0,0,1-5.49681,4.37193c-.14521.06575-.2962.12034-.44686.17671-.15118.055-.30007.11683-.4541.16727-.30851.09953-.61614.20684-.93431.28925a16.28293,16.28293,0,0,1-1.945.42469,16.48437,16.48437,0,0,1-4.08078.14157,13.76851,13.76851,0,0,1-2.0452-.34715,10.52478,10.52478,0,0,1-1.9543-.68319l-.23507-.10746-.22644-.12174c-.15095-.08128-.30553-.158-.447-.25317l-.21743-.13569a2.34567,2.34567,0,0,1-.2173-.14465l-.434-.31234c-.08133-.06313-.16144-.12822-.242-.19256a12.028,12.028,0,0,0,1.43731-2.04273A11.32292,11.32292,0,0,0,88.998,20.67242a13.0212,13.0212,0,0,0-.42759-7.12351,15.60819,15.60819,0,0,0-.74409-1.81563,16.35353,16.35353,0,0,0-1.00584-1.75082c-.19481-.30217-.40566-.59659-.62693-.88621.04713-.05063.092-.103.14129-.15193.10914-.11133.2145-.22732.32737-.33632l.34411-.32373c.11269-.11091.23433-.21249.35569-.31518.12225-.10275.23965-.20722.36665-.30992l.79243-.61418c.13368-.10158.264-.20965.40141-.30689l.41369-.29148.41593-.2934c.13872-.0985.27734-.19825.423-.28607q.4317-.27324.86769-.54933c.29325-.179.59827-.33861.8989-.51059.29839-.17708.61288-.32368.9262-.47659l.47089-.23022c.15668-.07853.3219-.13792.48293-.20819l.48736-.20405c.16238-.06929.32527-.1383.49413-.19322q.502-.17629,1.008-.35419.51632-.15013,1.03627-.30138c.172-.05478.35032-.091.527-.13349q.26547-.06243.53192-.12491a34.33253,34.33253,0,0,1,4.41468-.6678c.37659-.03891.75855-.0565,1.13906-.086l.57228-.04022.57621-.02594,1.1567-.04913c.16858-.00369.33791-.00728.50682-.011a2.39735,2.39735,0,0,0,.36726.16252,7.42069,7.42069,0,0,0,1.57589.305c.60816.06038,1.29037.22345,2.04972.35816a42.51843,42.51843,0,0,1,5.216,1.38468c1.9048.68315,3.9891,1.52886,6.18249,2.42393,2.98207,1.20747,5.8085,2.28629,8.266,3.09341,1.2362.38485,2.36182.74693,3.37794.99661.50481.13144.97626.25416,1.41076.36726.43925.09243.84109.17708,1.202.253.35117.11268.74222.23815,1.16958.37524.42862.13438.896.26292,1.39611.40794,1.00216.283,2.1387.60182,3.39381.91393A44.5147,44.5147,0,0,0,150.65,14.14545a27.829,27.829,0,0,0,3.51545-.06378c.56794-.03112,1.12147-.12309,1.6645-.18641.27081-.03952.53686-.09308.80054-.13881.26311-.05151.52464-.08473.77922-.15547a22.1391,22.1391,0,0,0,4.72734-1.67892q.43332-.07685.85215-.17184c-.56869.32363-1.24157.678-2.01855,1.03925l-.51932.24114q-.26933.11528-.55017.23526c-.37123.16611-.76933.31192-1.17471.47607-.82065.30469-1.70112.618-2.64379.88812a28.296,28.296,0,0,1-2.98017.69729c-.52166.08972-1.0484.159-1.591.20614l-.825.05949c-.27711.01745-.55763.02044-.8389.03234a48.50148,48.50148,0,0,1-8.40442-.61129c-2.4524-.38028-4.48093-.79691-5.87191-1.09581-.67237-.23274-1.505-.49721-2.44619-.8549-.942-.35476-2.00941-.75062-3.17717-1.17364-1.15147-.47313-2.40023-.9841-3.7257-1.509-1.3116-.56556-2.69381-1.1615-4.12221-1.77741-1.04532-.46824-2.06936-.91752-3.0614-1.34558-.97006-.42573-1.88049-.9087-2.75457-1.37754-.87263-.46987-1.7056-.92443-2.49667-1.33317-.79126-.40944-1.54575-.76513-2.24392-1.06757a15.23392,15.23392,0,0,0-3.44378-1.05092c-.21053-.03057-.396-.062-.558-.08045l-.412-.02729-.3381-.021.33236.06719c.10844.02161.24258.04825.401.0797.15692.03859.33595.09253.53761.14712a17.09615,17.09615,0,0,1,3.24707,1.3745c.65543.35714,1.36354.76481,2.115,1.22464.75417.46431,1.55942.96007,2.4063,1.4814a30.71779,30.71779,0,0,0,2.77468,1.52583c.98531.45755,2.00861.92517,3.06023,1.39611,1.43587.62739,2.85148,1.17947,4.18647,1.714,1.35812.482,2.64412.92928,3.8325,1.3279,1.207.34915,2.31218.65981,3.28733.92848.97425.27156,1.83387.44859,2.52985.60471a57.549,57.549,0,0,0,5.79618,1.62265,36.05883,36.05883,0,0,0,8.5808.91462c.2926-.01227.58348-.01675.87226-.037q.433-.03591.86022-.07134c.57126-.05768,1.13673-.14418,1.68008-.25318a24.12218,24.12218,0,0,0,3.06906-.846c.957-.328,1.8397-.70582,2.65494-1.07719.40272-.19742.79588-.377,1.16081-.577q.27519-.14592.5392-.286l.50649-.29143a22.10969,22.10969,0,0,0,2.55239-1.7162,13.16143,13.16143,0,0,0,1.3494-.44779,7.44049,7.44049,0,0,0,2.399-1.46783,4.447,4.447,0,0,0,.80251-1.01411,4.1848,4.1848,0,0,0,.42973-1.12025l.05091-.28015c.01834-.09211.01913-.18529.02926-.27609A3.33305,3.33305,0,0,0,168.84739,6.40957ZM166.8468,3.54932c-.10713-.02151-.20647-.03882-.29792-.04922-.09276-.0063-.17582-.013-.25047-.01363l-.03677-.01684a1.70579,1.70579,0,0,1,.48512.04866c.04652.01106.09435.0259.14273.0427ZM2.99836,3.51829a1.70611,1.70611,0,0,1,.48512-.04866l-.03672.01684c-.07465.00061-.15776.00733-.25047.01363-.09145.0104-.19079.02771-.298.04922L2.85563,3.561C2.904,3.54419,2.95189,3.52935,2.99836,3.51829Zm2.25843,7.30358c-.15687-.10755-.28859-.20246-.39036-.27581l-.05053-.03583c.146.07535.29653.15318.45545.2353.11982.06281.245.128.3723.194C5.51277,10.90231,5.38441,10.86256,5.25679,10.82187Zm57.8016-9.121a7.714,7.714,0,0,1-1.55284.12552c-.62585-.002-1.32766.09523-2.10711.16452a33.46248,33.46248,0,0,0-5.40732,1.04766c-1.99485.60559-4.12,1.39625-6.31448,2.29146-2.98917,1.21031-5.74906,2.39706-8.13137,3.35275-1.19683.45848-2.28484.90562-3.26475,1.24045-.48736.17708-.94248.34239-1.362.49483-.42428.13657-.81244.26162-1.16109.37384l-1.194.25c-.43641.09061-.916.17488-1.426.275-1.02157.193-2.17687.421-3.43953.65016a64.15325,64.15325,0,0,1-8.65,1.09571c-1.16449.03892-2.303.05824-3.39712-.01577-.54909-.015-1.08264-.087-1.60915-.12724-.26219-.028-.51975-.06929-.77577-.102-.25462-.03844-.51167-.05856-.75533-.11422a20.99618,20.99618,0,0,1-2.09974-.47061,30.484,30.484,0,0,0,4.27082-.09565c1.25683-.13182,2.549-.31146,3.86125-.5673,1.311-.25812,2.64911-.5601,4.002-.91649,2.70847-.7047,5.489-1.58116,8.34708-2.441,1.42775-.42586,2.89119-.8612,4.35692-1.31026,1.46759-.44788,2.949-.90524,4.44318-1.35183,1.49345-.45185,3.00215-.883,4.52046-1.30344,1.5213-.40426,3.05067-.8061,4.59446-1.14032.7696-.18057,1.54551-.32587,2.31978-.48069.38649-.08226.77694-.13662,1.16506-.20614.38909-.06267.77642-.13952,1.16654-.19066.78-.10433,1.5576-.22765,2.33878-.29591.39017-.0378.77945-.08595,1.16939-.11544q.58511-.038,1.16925-.076c.19466-.011.38909-.02907.58367-.03444l.58329-.01376q.583-.01359,1.16454-.02711l1.17615.0056c.39167.00042.7823.00354,1.17107.01451l.27362.00592C63.07762,1.69492,63.06912,1.69851,63.05839,1.70084ZM86.595,14.20662a12.84122,12.84122,0,0,1,.408,1.57384c.03826.2619.08865.52012.11492.77759.02235.2577.05856.51218.06094.76485a10.30108,10.30108,0,0,1-.25859,2.85829,9.27434,9.27434,0,0,1-.93217,2.39421,9.95093,9.95093,0,0,1-1.11555,1.58877A9.95171,9.95171,0,0,1,83.757,22.5754a9.27249,9.27249,0,0,1-.93212-2.39421,10.30108,10.30108,0,0,1-.25859-2.85829c.00233-.25267.03859-.50715.06094-.76485.02627-.25747.07666-.51569.11492-.77759a12.83187,12.83187,0,0,1,.408-1.57384,13.60288,13.60288,0,0,1,.6266-1.57453,14.40029,14.40029,0,0,1,.86031-1.53376c.07559-.12048.15454-.23951.23554-.35765.081.11814.15991.23717.2355.35765a14.39154,14.39154,0,0,1,.86031,1.53376A13.59393,13.59393,0,0,1,86.595,14.20662Zm70.6395-1.503c-.24361.05566-.50066.07578-.75528.11422-.256.03271-.51363.074-.77582.102-.52646.04027-1.06006.11222-1.60911.12724-1.09413.074-2.23267.05469-3.39716.01577a64.1543,64.1543,0,0,1-8.65-1.09571c-1.26261-.22919-2.41791-.45717-3.43953-.65016-.51-.10013-.98956-.1844-1.42593-.275l-1.194-.25c-.3486-.11222-.73681-.23727-1.16109-.37384-.41947-.15244-.87459-.31775-1.36191-.49483-.98-.33483-2.06791-.782-3.26474-1.24045-2.38231-.95569-5.1422-2.14244-8.13142-3.35275-2.1945-.89521-4.31958-1.68587-6.31443-2.29146a33.46216,33.46216,0,0,0-5.40737-1.04766c-.77945-.06929-1.48122-.16648-2.10706-.16452a7.71413,7.71413,0,0,1-1.55285-.12552l-.02986-.00835.27366-.00592c.38873-.011.77941-.01409,1.171-.01451l1.17615-.0056q.58155.01358,1.16454.02711l.58329.01376c.19458.00537.389.02342.58372.03444q.58407.038,1.1692.076c.38994.02949.77927.07764,1.16944.11544.78118.06826,1.55881.19158,2.33873.29591.39017.05114.77749.128,1.16654.19066.38817.06952.77857.12388,1.16506.20614.77427.15482,1.55022.30012,2.31978.48069,1.54379.33422,3.07316.73606,4.59446,1.14032,1.51831.42045,3.02706.85159,4.5205,1.30344,1.49415.44659,2.9756.904,4.44314,1.35183,1.46578.44906,2.92917.8844,4.357,1.31026,2.85806.85985,5.63857,1.73631,8.34708,2.441,1.35286.35639,2.691.65837,4.002.91649,1.31221.25584,2.60441.43548,3.86124.5673a30.4842,30.4842,0,0,0,4.27083.09565A20.99721,20.99721,0,0,1,157.23449,12.70357Zm6.867-1.76407c.12729-.066.25248-.13116.37225-.194l.45549-.2353-.05057.03583c-.10177.07335-.23344.16826-.39031.27581C164.36076,10.86256,164.23235,10.90231,164.10152,10.9395Z"/></svg>