<svg id="Layer_1" data-name="Layer 1" xmlns="http://www.w3.org/2000/svg" viewBox="0 0 399.6 91.8"><defs><style>.cls-1{fill:#008144;}.cls-2,.cls-3,.cls-4{fill:#fff;}.cls-3,.cls-4{font-size:25.02px;stroke:#fff;stroke-miterlimit:10;stroke-width:0.73px;font-family:Mayan;}.cls-3{letter-spacing:-0.02em;}.cls-4{letter-spacing:-0.1em;}.cls-5{fill:#cb7329;}.cls-6{fill:#813081;}.cls-7{fill:#81ac84;}.cls-8{fill:#047736;}</style></defs><title>Titulo-pagina-menu-1</title><polygon class="cls-1" points="202.2 0 98.4 45.9 202.2 91.8 306 45.9 202.2 0"/><path class="cls-2" d="M251.7,63.5h-.1a.6.6,0,0,0,0-.6l-.3-.6c-.1,0-.1-.1-.2-.2h0a1.1,1.1,0,0,0-.7-.3h-.3l-.7-.2a.1.1,0,0,0-.1.1h-1.5l-.4-.3-.3-.3h0a1.1,1.1,0,0,0,.1.5c0,.1.1.2.1.3s.2.3.2.5.1.3.2.5.1.2.2.3.3.4.6.4l.8-.2a1.5,1.5,0,0,0,.5-.6.8.8,0,0,0,.2-.4l.2-.3h.2s.4.1.4.2a1.3,1.3,0,0,1,.4.6,2,2,0,0,1,0,1.1l-.3.5h0l.4-.3a.3.3,0,0,0,.1-.2h0a1.4,1.4,0,0,1-.2.6l-.5.6a4,4,0,0,1-1.3.7h0l.5-.3.7-.3-.7.3-.9.3-1.2.4-.3.2h-3.9l-2.2-.4-2.4-.6L234.2,64l-2.6-.9-2.6-.8-2.6-.8-2.8-.8-1.4-.3h-1.4l-1.4-.2h-7l-2.7.4h-1.4l-.6.3h-1l-.3.2-.6.3-.5.3-.6.3-.3.2-.2.2-.3.2a.2.2,0,0,0-.2.2l-.5.3-.3.2-.2.2-.3.3-.2.2h0L202,64l-.3-.3-.2-.2a.2.2,0,0,1-.2-.2l-.5-.3-.3-.2-.3-.2-.2-.2-.3-.2-.5-.3-.6-.3-.6-.3-.3-.2h-1l-.6-.3h-1.3l-2.8-.4h-7l-1.4.2h-1.4l-1.4.3-2.8.8-2.6.8-2.6.8-2.6.9-4.8,1.5-2.3.6-2.3.4h-3.9l-.3-.2-1.2-.4-.9-.3-.7-.3.7.3.5.3h.1l-1.4-.7-.5-.6a1.4,1.4,0,0,1-.2-.6h0a.2.2,0,0,0,.2.2l.3.3h0l-.2-.5a1.5,1.5,0,0,1-.1-1.1,1.3,1.3,0,0,1,.4-.6c0-.1.4-.2.4-.2h.2l.2.3c.1.1.1.3.2.4s.3.5.6.6a2,2,0,0,0,.7.2,1.2,1.2,0,0,0,.7-.4c0-.1.1-.2.2-.3a4.3,4.3,0,0,1,.1-.5c0-.2.1-.5.2-.5s.1-.2.1-.3a1.1,1.1,0,0,0,.1-.5h0l-.3.3-.4.3h-1.5a.1.1,0,0,0-.1-.1.8.8,0,0,0-.6.2H154a.9.9,0,0,0-.6.3h-.1a.2.2,0,0,1-.2.2l-.3.6c0,.2-.1.4,0,.6h0v.7c.1.2.1.4.3.6l.4.6a3.8,3.8,0,0,0,1.5.9l.7.2,1.5,1.1h.3l.4.2.6.3,1.6.7,1.8.5h2A19.8,19.8,0,0,0,169,69l3.4-.9,1.5-.4,1.9-.5,2.3-.8,2.4-1,1.8-.8,1.7-.9,1.4-.9,1.2-.7a9.1,9.1,0,0,1,2-.8h-.1a7.1,7.1,0,0,0-2,.6l-1.3.6-1.5.8-1.6.8-1.8.8-2.4,1.1-2.2.8-1.9.7-1.4.5-3.5.7a25.3,25.3,0,0,1-5,.3H162l-1.7-.4-1.6-.6-.7-.2-.3-.2h-.3l-1.2-.6h.5l2.8,1h4a23.4,23.4,0,0,0,5.1-.9l2-.5.9-.2.6-.3h.8l.8-.2,2-.6,4.8-1.8,3.7-1.5,3.1-.8,1.2-.2.9-.2h2.5a10.9,10.9,0,0,1,2.6.4h.7l.6.2.6.2h.5l.3.2h.3l.5.3.6.3.5.3a.2.2,0,0,1,.2.2h.3l.2.2.3.2.4.4h.2l.2.2.3.2c0,.1.1.1.1.2h.1l-.3.5a3,3,0,0,0-.6,1.1,4.7,4.7,0,0,0-.5,1,7.6,7.6,0,0,0-.2,4.2,6.7,6.7,0,0,0,.6,1.7l.9,1.3h-.7c0,.1-.1.1-.2.2h-.3l-1.2.4-1.2.2a9.7,9.7,0,0,1-2.4-.1l-1.1-.2-.6-.2h-.5a7,7,0,0,1-3.2-2.6v-.2h-.2v-.4h-.1v-.5h-.1v-.4h0v-.5h.1v-.4h.1v-.2h.1v-.2c.1,0,.1-.1.1-.2l.3-.3a2.8,2.8,0,0,1,1-.9,3,3,0,0,1,1.1-.4,2.2,2.2,0,0,1,1.1-.1h.5a1.8,1.8,0,0,0-1,1.6,1.6,1.6,0,0,0,1.6,1.6,1.7,1.7,0,0,0,1.7-1.6,1.6,1.6,0,0,0-1.4-1.6.1.1,0,0,0-.1-.1l-.4-.2h-.9a2.4,2.4,0,0,0-1.2,0,3.3,3.3,0,0,0-1.3.4,4.5,4.5,0,0,0-1.4,1,.5.5,0,0,0-.2.4l-.2.2v.2h-.1V69h-.1v.8h0v.5h0v.9h0v.5c0,.1,0,.1.1.2h0v.7h0l.2.3.7.9.4.5.2.2.2.2.3.2h.5l.2.2h.9l.3.2h.5l.7.2,1.2.3a8.7,8.7,0,0,0,2.8.1l1.3-.2a3.4,3.4,0,0,0,1.4-.5h.4l.3-.2h.3l.3-.2.3-.3.3.3.3.2h.3l.4.2h.3a3.4,3.4,0,0,0,1.4.5l1.4.2a8.2,8.2,0,0,0,2.7-.1l1.2-.3.7-.2h.6l.2-.2h.9l.2-.2h.5l.3-.2.2-.2.2-.2.4-.5.7-.9.2-.3h0v-.7h.1v-.7h0v-.9h0V70h0v-.2c-.1,0-.1-.1-.1-.2v-.4h-.1v-.4h-.1V68l-.3-.4a5.7,5.7,0,0,0-1.3-1,4.3,4.3,0,0,0-1.4-.4,2.4,2.4,0,0,0-1.2,0h-.9l-.4.2h-.1a1.5,1.5,0,0,0-1.3,1.6,1.6,1.6,0,0,0,1.6,1.6,1.7,1.7,0,0,0,1.7-1.6,1.9,1.9,0,0,0-1.1-1.6h.5a2.1,2.1,0,0,1,1.1.1,3,3,0,0,1,1.1.4,3.1,3.1,0,0,1,1.1.9c0,.1.1.2.2.3s0,.2.1.2v.2h.1v.2h.1v.4h0v.5h0v.4h-.1v.5h0v.4h-.1l-.2.2a7,7,0,0,1-3.2,2.6h-.5l-.6.2-1.1.2a9.7,9.7,0,0,1-2.4.1l-1.2-.2-1.2-.4H204l-.2-.2h-.7l.9-1.3a4.3,4.3,0,0,0,.6-1.7,7.6,7.6,0,0,0-.2-4.2,4.7,4.7,0,0,0-.5-1,5.4,5.4,0,0,0-.5-1.1l-.4-.5h.1l.2-.2.2-.2.2-.2h.2l.5-.4c0-.1.1-.1.2-.2l.2-.2h.3c.1-.1.1-.2.2-.2l.5-.3.6-.3.5-.3h.3l.3-.2h.6l.5-.2.7-.2h.6a10.9,10.9,0,0,1,2.6-.4H215l1,.2,1.2.2,3,.8,3.7,1.5,4.8,1.8,2,.6.9.2h.7l.7.3.8.2,2,.5a23.4,23.4,0,0,0,5.1.9h4l2.8-1h.5l-1.2.6h-.3l-.3.2-.7.2-1.6.6-1.7.4h-1.9a26.4,26.4,0,0,1-5-.3l-3.4-.7-1.5-.5-1.9-.7-2.1-.8-2.5-1.1-1.8-.8-1.6-.8-1.5-.8-1.3-.6a7.1,7.1,0,0,0-2-.6h0l1.9.8,1.2.7,1.4.9,1.7.9,1.8.8,2.4,1,2.3.8,1.9.5,1.5.4,3.4.9a19.8,19.8,0,0,0,5.1.6h2l1.8-.5,1.6-.7.6-.3.4-.2h.3l1.5-1.1.8-.2a4.2,4.2,0,0,0,1.4-.9l.4-.6c.2-.2.2-.4.3-.6v-.4A.4.4,0,0,0,251.7,63.5Zm-1.2-1.7h0Zm-96.5,0h0Zm1.3,4.3h-.2l.2.2h0Zm34.1-5.4h-2.2l-3.2.6-3.7,1.4-4.8,2-1.9.7-.8.3-.7.2h-.7l-.8.2-2.1.4a24.6,24.6,0,0,1-5.1.6h-3.8a2.7,2.7,0,0,1-1.2-.3h2.5l2.2-.3,2.4-.6,4.9-1.4,2.6-.8,2.6-.8,2.7-.8,2.7-.6,1.3-.3h1.4l1.4-.2h4.3Zm13.8,7.4.3.9v.5c0,.1.1.3.1.4a8.8,8.8,0,0,1-.2,1.7,5.8,5.8,0,0,1-.5,1.4,8.6,8.6,0,0,1-.7,1,8.6,8.6,0,0,1-.7-1,5.8,5.8,0,0,1-.5-1.4,8.8,8.8,0,0,1-.2-1.7c0-.1.1-.3.1-.4a.9.9,0,0,1,.1-.5,2.9,2.9,0,0,1,.2-.9,3.6,3.6,0,0,1,.4-.9,4.1,4.1,0,0,1,.5-.9v-.2c.1,0,.1.1.1.2l.6.9Zm41.6-.9H241a25.5,25.5,0,0,1-5.1-.6l-2.1-.4-.8-.2h-.7l-.7-.2-.8-.3-1.9-.7-4.8-2-3.7-1.4-3.2-.6h2.1l1.4.2h1.4l1.3.3,2.7.6,2.7.8,2.6.8,2.6.8,4.9,1.4,2.4.6,2.2.3h2.6A3.1,3.1,0,0,1,244.8,67.2Zm4.1-1c0-.1.1-.1.2-.1l.2-.2h-.4Z"/><text class="cls-3" transform="translate(127.8 55)">COMPARTIR</text><text class="cls-4" transform="translate(184.3 34)">PA’</text><path class="cls-5" d="M23,57.7c-.3.3-1.2.2-1.6.2-3.4,0-1.4-3.2-2.9-3.1s-.2,3.1-2.4,3.1S14,57,14.8,56.7s1.5-3.3,3.4-3.1a1.7,1.7,0,0,1,1.1.4,1.7,1.7,0,0,1-.4-1.1c-.1-1.9,2.6-2.3,3.1-3.4s1.4-1.3,1.2,1.3-3.1,1.3-3.1,2.4,3.1-.6,3.1,2.9C23.2,56.4,23.3,57.4,23,57.7Z"/><path class="cls-5" d="M23,35.1c-.3-.3-1.2-.2-1.6-.3C18,34.8,20,38,18.5,38s-.2-3.1-2.4-3.1-2.1.9-1.3,1.2,1.5,3.2,3.4,3.1a2.5,2.5,0,0,0,1.1-.4,1.7,1.7,0,0,0-.4,1.1c-.1,1.9,2.6,2.3,3.1,3.4s1.4,1.2,1.2-1.4-3.1-1.2-3.1-2.3,3.1.5,3.1-2.9C23.2,36.3,23.3,35.4,23,35.1Z"/><path class="cls-5" d="M.4,35.1c.3-.3,1.2-.2,1.6-.3,3.4,0,1.4,3.2,2.9,3.2s.2-3.1,2.3-3.1,2.2.9,1.4,1.2-1.5,3.2-3.4,3.1a2.5,2.5,0,0,1-1.1-.4,2.5,2.5,0,0,1,.4,1.1c.1,1.9-2.6,2.3-3.1,3.4S-.1,44.5.2,41.9s3-1.2,3.1-2.3S.2,40.1.2,36.7C.2,36.3.1,35.4.4,35.1Z"/><path class="cls-5" d="M.4,57.7c.3.3,1.2.2,1.6.2,3.4,0,1.4-3.2,2.9-3.1s.2,3.1,2.3,3.1,2.2-.9,1.4-1.2-1.5-3.3-3.4-3.1a1.7,1.7,0,0,0-1.1.4,2.5,2.5,0,0,0,.4-1.1c.1-1.9-2.6-2.3-3.1-3.4S-.1,48.2.2,50.8s3,1.3,3.1,2.4S.2,52.6.2,56.1C.2,56.4.1,57.4.4,57.7Z"/><path class="cls-6" d="M22.7,46.4a1.6,1.6,0,0,0-.5-.9l-9.6-9.7a1.5,1.5,0,0,0-.9-.4,1.5,1.5,0,0,0-.9.4L1.1,45.5a2.5,2.5,0,0,0-.4.9,2.5,2.5,0,0,0,.4.9l9.7,9.6a1.6,1.6,0,0,0,.9.5,1.6,1.6,0,0,0,.9-.5l9.6-9.6A1.6,1.6,0,0,0,22.7,46.4Z"/><path class="cls-7" d="M18.2,46.4a.5.5,0,0,1-.2.4l-1.7,1.8a2,2,0,0,1-2.2.2,2,2,0,0,1-.2,2.2l-1.8,1.7a.5.5,0,0,1-.4.2l-.5-.2L9.5,51a1.8,1.8,0,0,1-.2-2.2,2,2,0,0,1-2.2-.2L5.4,46.8a.5.5,0,0,1-.2-.4.8.8,0,0,1,.2-.5l1.7-1.7A1.8,1.8,0,0,1,9.3,44a1.8,1.8,0,0,1,.2-2.2l1.7-1.7.5-.2a.5.5,0,0,1,.4.2l1.8,1.7a2,2,0,0,1,.2,2.2,1.8,1.8,0,0,1,2.2.2L18,45.9A.8.8,0,0,1,18.2,46.4Z"/><path class="cls-6" d="M47,57.7c-.3.3-1.2.2-1.6.2-3.4,0-1.4-3.2-2.8-3.1s-.2,3.1-2.4,3.1-2.1-.9-1.3-1.2,1.4-3.3,3.4-3.1a1.9,1.9,0,0,1,1.1.4,1.3,1.3,0,0,1-.4-1.1c-.2-1.9,2.6-2.3,3.1-3.4s1.4-1.3,1.2,1.3-3.1,1.3-3.1,2.4,3.1-.6,3.1,2.9C47.3,56.4,47.3,57.4,47,57.7Z"/><path class="cls-6" d="M47,35.1c-.3-.3-1.2-.2-1.6-.3C42,34.8,44,38,42.6,38s-.2-3.1-2.4-3.1-2.1.9-1.3,1.2,1.4,3.2,3.4,3.1a3,3,0,0,0,1.1-.4,1.3,1.3,0,0,0-.4,1.1c-.2,1.9,2.6,2.3,3.1,3.4s1.4,1.2,1.2-1.4-3.1-1.2-3.1-2.3,3.1.5,3.1-2.9C47.3,36.3,47.3,35.4,47,35.1Z"/><path class="cls-6" d="M24.5,35.1c.3-.3,1.2-.2,1.6-.3,3.4,0,1.4,3.2,2.9,3.2s.1-3.1,2.3-3.1,2.1.9,1.4,1.2-1.5,3.2-3.5,3.1a2.6,2.6,0,0,1-1-.4,1.5,1.5,0,0,1,.3,1.1c.2,1.9-2.6,2.3-3.1,3.4s-1.4,1.2-1.1-1.4,3-1.2,3-2.3-3.1.5-3.1-2.9C24.3,36.3,24.2,35.4,24.5,35.1Z"/><path class="cls-6" d="M24.5,57.7c.3.3,1.2.2,1.6.2,3.4,0,1.4-3.2,2.9-3.1s.1,3.1,2.3,3.1,2.1-.9,1.4-1.2-1.5-3.3-3.5-3.1c-.4,0-.5.1-1,.4a1.5,1.5,0,0,0,.3-1.1c.2-1.9-2.6-2.3-3.1-3.4s-1.4-1.3-1.1,1.3,3,1.3,3,2.4-3.1-.6-3.1,2.9C24.3,56.4,24.2,57.4,24.5,57.7Z"/><path class="cls-8" d="M46.8,46.4a1.6,1.6,0,0,0-.5-.9l-9.6-9.7a1.8,1.8,0,0,0-.9-.4,1.5,1.5,0,0,0-.9.4l-9.7,9.7a1.2,1.2,0,0,0,0,1.8l9.7,9.6a1.6,1.6,0,0,0,.9.5c.3,0,.6-.3.9-.5l9.6-9.6A1.6,1.6,0,0,0,46.8,46.4Z"/><path class="cls-7" d="M42.3,46.4a.5.5,0,0,1-.2.4l-1.8,1.8a1.9,1.9,0,0,1-2.2.2,1.8,1.8,0,0,1-.2,2.2l-1.7,1.7-.4.2-.5-.2L33.6,51a1.8,1.8,0,0,1-.2-2.2,1.9,1.9,0,0,1-2.2-.2l-1.8-1.8c-.1-.1-.1-.2-.1-.4a.7.7,0,0,1,.1-.5l1.8-1.7a1.8,1.8,0,0,1,2.2-.2,1.8,1.8,0,0,1,.2-2.2l1.7-1.7.5-.2.4.2,1.7,1.7a1.8,1.8,0,0,1,.2,2.2,1.8,1.8,0,0,1,2.2.2l1.8,1.7A.8.8,0,0,1,42.3,46.4Z"/><path class="cls-8" d="M71.9,57.7c-.3.3-1.2.2-1.6.2-3.4,0-1.4-3.2-2.9-3.1s-.1,3.1-2.3,3.1S63,57,63.7,56.7s1.5-3.3,3.5-3.1c.4,0,.5.1,1,.4a1.5,1.5,0,0,1-.3-1.1c-.2-1.9,2.6-2.3,3.1-3.4s1.4-1.3,1.1,1.3-3,1.3-3,2.4,3.1-.6,3.1,2.9C72.1,56.4,72.2,57.4,71.9,57.7Z"/><path class="cls-8" d="M71.9,35.1c-.3-.3-1.2-.2-1.6-.3-3.4,0-1.4,3.2-2.9,3.2s-.1-3.1-2.3-3.1-2.1.9-1.4,1.2,1.5,3.2,3.5,3.1a2.6,2.6,0,0,0,1-.4,1.5,1.5,0,0,0-.3,1.1c-.2,1.9,2.6,2.3,3.1,3.4s1.4,1.2,1.1-1.4-3-1.2-3-2.3,3.1.5,3.1-2.9C72.1,36.3,72.2,35.4,71.9,35.1Z"/><path class="cls-8" d="M49.4,35.1c.3-.3,1.2-.2,1.6-.3,3.4,0,1.4,3.2,2.8,3.2s.2-3.1,2.4-3.1,2.1.9,1.3,1.2-1.4,3.2-3.4,3.1a3,3,0,0,1-1.1-.4,1.3,1.3,0,0,1,.4,1.1c.2,1.9-2.6,2.3-3.1,3.4s-1.4,1.2-1.2-1.4,3.1-1.2,3.1-2.3-3.1.5-3.1-2.9C49.1,36.3,49.1,35.4,49.4,35.1Z"/><path class="cls-8" d="M49.4,57.7c.3.3,1.2.2,1.6.2,3.4,0,1.4-3.2,2.8-3.1s.2,3.1,2.4,3.1,2.1-.9,1.3-1.2-1.4-3.3-3.4-3.1A1.9,1.9,0,0,0,53,54a1.3,1.3,0,0,0,.4-1.1c.2-1.9-2.6-2.3-3.1-3.4s-1.4-1.3-1.2,1.3,3.1,1.3,3.1,2.4-3.1-.6-3.1,2.9C49.1,56.4,49.1,57.4,49.4,57.7Z"/><path class="cls-5" d="M71.6,46.4a1.5,1.5,0,0,0-.4-.9l-9.7-9.7a1.5,1.5,0,0,0-.9-.4,1.8,1.8,0,0,0-.9.4l-9.6,9.7a1.6,1.6,0,0,0-.5.9,1.6,1.6,0,0,0,.5.9l9.6,9.6c.3.2.6.5.9.5a1.6,1.6,0,0,0,.9-.5l9.7-9.6A1.5,1.5,0,0,0,71.6,46.4Z"/><path class="cls-7" d="M67.1,46.4c0,.2,0,.3-.1.4l-1.8,1.8a1.9,1.9,0,0,1-2.2.2,1.8,1.8,0,0,1-.2,2.2l-1.7,1.7-.5.2-.4-.2L58.4,51a2,2,0,0,1-.1-2.2,1.9,1.9,0,0,1-2.2-.2l-1.8-1.8a.5.5,0,0,1-.2-.4.8.8,0,0,1,.2-.5l1.8-1.7a1.8,1.8,0,0,1,2.2-.2,2,2,0,0,1,.1-2.2l1.8-1.7.4-.2.5.2,1.7,1.7A1.8,1.8,0,0,1,63,44a1.8,1.8,0,0,1,2.2.2L67,45.9A.7.7,0,0,1,67.1,46.4Z"/><path class="cls-5" d="M96,57.7c-.3.3-1.2.2-1.6.2-3.4,0-1.4-3.2-2.9-3.1s-.2,3.1-2.3,3.1S87,57,87.8,56.7s1.5-3.3,3.4-3.1a1.7,1.7,0,0,1,1.1.4,2.5,2.5,0,0,1-.4-1.1c-.1-1.9,2.6-2.3,3.1-3.4s1.5-1.3,1.2,1.3-3,1.3-3.1,2.4,3.1-.6,3.1,2.9C96.2,56.4,96.3,57.4,96,57.7Z"/><path class="cls-5" d="M96,35.1c-.3-.3-1.2-.2-1.6-.3C91,34.8,93,38,91.5,38s-.2-3.1-2.3-3.1-2.2.9-1.4,1.2,1.5,3.2,3.4,3.1a2.5,2.5,0,0,0,1.1-.4,2.5,2.5,0,0,0-.4,1.1c-.1,1.9,2.6,2.3,3.1,3.4s1.5,1.2,1.2-1.4-3-1.2-3.1-2.3,3.1.5,3.1-2.9C96.2,36.3,96.3,35.4,96,35.1Z"/><path class="cls-5" d="M73.4,35.1c.3-.3,1.2-.2,1.6-.3,3.4,0,1.4,3.2,2.9,3.2s.2-3.1,2.4-3.1,2.1.9,1.3,1.2-1.5,3.2-3.4,3.1a2.5,2.5,0,0,1-1.1-.4,1.7,1.7,0,0,1,.4,1.1c.1,1.9-2.6,2.3-3.1,3.4s-1.4,1.2-1.2-1.4,3.1-1.2,3.1-2.3-3.1.5-3.1-2.9C73.2,36.3,73.1,35.4,73.4,35.1Z"/><path class="cls-5" d="M73.4,57.7c.3.3,1.2.2,1.6.2,3.4,0,1.4-3.2,2.9-3.1s.2,3.1,2.4,3.1,2.1-.9,1.3-1.2-1.5-3.3-3.4-3.1a1.7,1.7,0,0,0-1.1.4,1.7,1.7,0,0,0,.4-1.1c.1-1.9-2.6-2.3-3.1-3.4s-1.4-1.3-1.2,1.3,3.1,1.3,3.1,2.4-3.1-.6-3.1,2.9C73.2,56.4,73.1,57.4,73.4,57.7Z"/><path class="cls-6" d="M95.7,46.4a2.5,2.5,0,0,0-.4-.9l-9.7-9.7a1.2,1.2,0,0,0-1.8,0l-9.7,9.7a2.5,2.5,0,0,0-.4.9,2.5,2.5,0,0,0,.4.9l9.7,9.6a1.1,1.1,0,0,0,1.8,0l9.7-9.6A2.5,2.5,0,0,0,95.7,46.4Z"/><path class="cls-7" d="M91.2,46.4a.5.5,0,0,1-.2.4l-1.7,1.8a2,2,0,0,1-2.2.2,1.8,1.8,0,0,1-.2,2.2l-1.7,1.7-.5.2a.5.5,0,0,1-.4-.2L82.5,51a2,2,0,0,1-.2-2.2,2,2,0,0,1-2.2-.2l-1.7-1.8a.5.5,0,0,1-.2-.4.8.8,0,0,1,.2-.5l1.7-1.7a1.8,1.8,0,0,1,2.2-.2,2,2,0,0,1,.2-2.2l1.8-1.7a.5.5,0,0,1,.4-.2l.5.2,1.7,1.7a1.8,1.8,0,0,1,.2,2.2,1.8,1.8,0,0,1,2.2.2L91,45.9A.8.8,0,0,1,91.2,46.4Z"/><path class="cls-6" d="M120.1,57.7c-.3.3-1.3.2-1.6.2-3.5,0-1.5-3.2-2.9-3.1s-.2,3.1-2.4,3.1-2.1-.9-1.3-1.2,1.5-3.3,3.4-3.1a1.9,1.9,0,0,1,1.1.4,1.7,1.7,0,0,1-.4-1.1c-.2-1.9,2.6-2.3,3.1-3.4s1.4-1.3,1.2,1.3-3.1,1.3-3.1,2.4,3.1-.6,3.1,2.9C120.3,56.4,120.4,57.4,120.1,57.7Z"/><path class="cls-6" d="M120.1,35.1c-.3-.3-1.3-.2-1.6-.3-3.5,0-1.5,3.2-2.9,3.2s-.2-3.1-2.4-3.1-2.1.9-1.3,1.2,1.5,3.2,3.4,3.1a3,3,0,0,0,1.1-.4,1.7,1.7,0,0,0-.4,1.1c-.2,1.9,2.6,2.3,3.1,3.4s1.4,1.2,1.2-1.4-3.1-1.2-3.1-2.3,3.1.5,3.1-2.9C120.3,36.3,120.4,35.4,120.1,35.1Z"/><path class="cls-6" d="M97.5,35.1c.3-.3,1.2-.2,1.6-.3,3.4,0,1.4,3.2,2.9,3.2s.1-3.1,2.3-3.1,2.2.9,1.4,1.2-1.5,3.2-3.5,3.1a2.6,2.6,0,0,1-1-.4,2.5,2.5,0,0,1,.4,1.1c.1,1.9-2.7,2.3-3.1,3.4s-1.5,1.2-1.2-1.4,3-1.2,3.1-2.3-3.2.5-3.2-2.9C97.3,36.3,97.2,35.4,97.5,35.1Z"/><path class="cls-6" d="M97.5,57.7c.3.3,1.2.2,1.6.2,3.4,0,1.4-3.2,2.9-3.1s.1,3.1,2.3,3.1,2.2-.9,1.4-1.2-1.5-3.3-3.5-3.1c-.4,0-.5.1-1,.4a2.5,2.5,0,0,0,.4-1.1c.1-1.9-2.7-2.3-3.1-3.4s-1.5-1.3-1.2,1.3,3,1.3,3.1,2.4-3.2-.6-3.2,2.9C97.3,56.4,97.2,57.4,97.5,57.7Z"/><path class="cls-8" d="M119.8,46.4a1.6,1.6,0,0,0-.5-.9l-9.6-9.7a1.2,1.2,0,0,0-1.8,0l-9.7,9.7a1.2,1.2,0,0,0,0,1.8l9.7,9.6a1.1,1.1,0,0,0,1.8,0l9.6-9.6A1.6,1.6,0,0,0,119.8,46.4Z"/><path class="cls-7" d="M115.3,46.4a.5.5,0,0,1-.2.4l-1.7,1.8a2,2,0,0,1-2.2.2A2.2,2.2,0,0,1,111,51l-1.8,1.7a.5.5,0,0,1-.4.2l-.5-.2L106.6,51a1.8,1.8,0,0,1-.2-2.2,1.9,1.9,0,0,1-2.2-.2l-1.8-1.8c-.1-.1-.1-.2-.1-.4a.7.7,0,0,1,.1-.5l1.8-1.7a1.8,1.8,0,0,1,2.2-.2,1.8,1.8,0,0,1,.2-2.2l1.7-1.7.5-.2a.5.5,0,0,1,.4.2l1.8,1.7a2.2,2.2,0,0,1,.2,2.2,1.8,1.8,0,0,1,2.2.2l1.7,1.7A.8.8,0,0,1,115.3,46.4Z"/><path class="cls-5" d="M302.3,57.7c-.3.3-1.3.2-1.6.2-3.4,0-1.4-3.2-2.9-3.1s-.2,3.1-2.4,3.1-2.1-.9-1.3-1.2,1.5-3.3,3.4-3.1a1.7,1.7,0,0,1,1.1.4,1.7,1.7,0,0,1-.4-1.1c-.2-1.9,2.6-2.3,3.1-3.4s1.4-1.3,1.2,1.3-3.1,1.3-3.1,2.4,3.1-.6,3.1,2.9C302.5,56.4,302.6,57.4,302.3,57.7Z"/><path class="cls-5" d="M302.3,35.1c-.3-.3-1.3-.2-1.6-.3-3.4,0-1.4,3.2-2.9,3.2s-.2-3.1-2.4-3.1-2.1.9-1.3,1.2,1.5,3.2,3.4,3.1a2.5,2.5,0,0,0,1.1-.4,1.7,1.7,0,0,0-.4,1.1c-.2,1.9,2.6,2.3,3.1,3.4s1.4,1.2,1.2-1.4-3.1-1.2-3.1-2.3,3.1.5,3.1-2.9C302.5,36.3,302.6,35.4,302.3,35.1Z"/><path class="cls-5" d="M279.7,35.1c.3-.3,1.2-.2,1.6-.3,3.4,0,1.4,3.2,2.9,3.2s.1-3.1,2.3-3.1,2.2.9,1.4,1.2-1.5,3.2-3.4,3.1a2.5,2.5,0,0,1-1.1-.4,2.5,2.5,0,0,1,.4,1.1c.1,1.9-2.6,2.3-3.1,3.4s-1.5,1.2-1.2-1.4,3-1.2,3.1-2.3-3.2.5-3.2-2.9C279.5,36.3,279.4,35.4,279.7,35.1Z"/><path class="cls-5" d="M279.7,57.7c.3.3,1.2.2,1.6.2,3.4,0,1.4-3.2,2.9-3.1s.1,3.1,2.3,3.1,2.2-.9,1.4-1.2-1.5-3.3-3.4-3.1a1.7,1.7,0,0,0-1.1.4,2.5,2.5,0,0,0,.4-1.1c.1-1.9-2.6-2.3-3.1-3.4s-1.5-1.3-1.2,1.3,3,1.3,3.1,2.4-3.2-.6-3.2,2.9C279.5,56.4,279.4,57.4,279.7,57.7Z"/><path class="cls-6" d="M302,46.4a1.6,1.6,0,0,0-.5-.9l-9.6-9.7a1.2,1.2,0,0,0-1.8,0l-9.7,9.7a1.2,1.2,0,0,0,0,1.8l9.7,9.6a1.1,1.1,0,0,0,1.8,0l9.6-9.6A1.6,1.6,0,0,0,302,46.4Z"/><path class="cls-7" d="M297.5,46.4a.5.5,0,0,1-.2.4l-1.7,1.8a2,2,0,0,1-2.2.2,2,2,0,0,1-.2,2.2l-1.8,1.7a.5.5,0,0,1-.4.2l-.5-.2L288.8,51a1.8,1.8,0,0,1-.2-2.2,2,2,0,0,1-2.2-.2l-1.7-1.8a.5.5,0,0,1-.2-.4.8.8,0,0,1,.2-.5l1.7-1.7a1.8,1.8,0,0,1,2.2-.2,1.8,1.8,0,0,1,.2-2.2l1.7-1.7.5-.2a.5.5,0,0,1,.4.2l1.8,1.7a2,2,0,0,1,.2,2.2,1.8,1.8,0,0,1,2.2.2l1.7,1.7A.8.8,0,0,1,297.5,46.4Z"/><path class="cls-6" d="M326.3,57.7c-.3.3-1.2.2-1.6.2-3.4,0-1.4-3.2-2.9-3.1s-.1,3.1-2.3,3.1-2.1-.9-1.3-1.2,1.4-3.3,3.4-3.1c.4,0,.5.1,1.1.4a1.3,1.3,0,0,1-.4-1.1c-.2-1.9,2.6-2.3,3.1-3.4s1.4-1.3,1.2,1.3-3.1,1.3-3.1,2.4,3.1-.6,3.1,2.9C326.6,56.4,326.6,57.4,326.3,57.7Z"/><path class="cls-6" d="M326.3,35.1c-.3-.3-1.2-.2-1.6-.3-3.4,0-1.4,3.2-2.9,3.2s-.1-3.1-2.3-3.1-2.1.9-1.3,1.2,1.4,3.2,3.4,3.1l1.1-.4a1.3,1.3,0,0,0-.4,1.1c-.2,1.9,2.6,2.3,3.1,3.4s1.4,1.2,1.2-1.4-3.1-1.2-3.1-2.3,3.1.5,3.1-2.9C326.6,36.3,326.6,35.4,326.3,35.1Z"/><path class="cls-6" d="M303.8,35.1c.3-.3,1.2-.2,1.6-.3,3.4,0,1.4,3.2,2.9,3.2s.1-3.1,2.3-3.1,2.1.9,1.3,1.2-1.4,3.2-3.4,3.1a2.6,2.6,0,0,1-1-.4,1.5,1.5,0,0,1,.3,1.1c.2,1.9-2.6,2.3-3.1,3.4s-1.4,1.2-1.1-1.4,3-1.2,3-2.3-3.1.5-3.1-2.9C303.5,36.3,303.5,35.4,303.8,35.1Z"/><path class="cls-6" d="M303.8,57.7c.3.3,1.2.2,1.6.2,3.4,0,1.4-3.2,2.9-3.1s.1,3.1,2.3,3.1,2.1-.9,1.3-1.2-1.4-3.3-3.4-3.1c-.4,0-.5.1-1,.4a1.5,1.5,0,0,0,.3-1.1c.2-1.9-2.6-2.3-3.1-3.4s-1.4-1.3-1.1,1.3,3,1.3,3,2.4-3.1-.6-3.1,2.9C303.5,56.4,303.5,57.4,303.8,57.7Z"/><path class="cls-8" d="M326,46.4a1.5,1.5,0,0,0-.4-.9l-9.7-9.7a1.5,1.5,0,0,0-.8-.4,1.5,1.5,0,0,0-.9.4l-9.7,9.7a1.2,1.2,0,0,0,0,1.8l9.7,9.6a1.6,1.6,0,0,0,.9.5,1.8,1.8,0,0,0,.8-.5l9.7-9.6A1.5,1.5,0,0,0,326,46.4Z"/><path class="cls-7" d="M321.5,46.4c0,.2,0,.3-.1.4l-1.8,1.8a1.9,1.9,0,0,1-2.2.2,1.8,1.8,0,0,1-.2,2.2l-1.7,1.7-.4.2-.5-.2L312.9,51a1.8,1.8,0,0,1-.2-2.2,1.9,1.9,0,0,1-2.2-.2l-1.8-1.8c-.1-.1-.1-.2-.1-.4a.7.7,0,0,1,.1-.5l1.8-1.7a1.8,1.8,0,0,1,2.2-.2,1.8,1.8,0,0,1,.2-2.2l1.7-1.7.5-.2.4.2,1.7,1.7a1.8,1.8,0,0,1,.2,2.2,1.8,1.8,0,0,1,2.2.2l1.8,1.7A.7.7,0,0,1,321.5,46.4Z"/><path class="cls-8" d="M351.2,57.7c-.3.3-1.2.2-1.6.2-3.4,0-1.4-3.2-2.9-3.1s-.1,3.1-2.3,3.1-2.2-.9-1.4-1.2,1.5-3.3,3.5-3.1c.4,0,.5.1,1,.4a1.5,1.5,0,0,1-.3-1.1c-.2-1.9,2.6-2.3,3-3.4s1.5-1.3,1.2,1.3-3,1.3-3.1,2.4,3.2-.6,3.2,2.9C351.4,56.4,351.5,57.4,351.2,57.7Z"/><path class="cls-8" d="M351.2,35.1c-.3-.3-1.2-.2-1.6-.3-3.4,0-1.4,3.2-2.9,3.2s-.1-3.1-2.3-3.1-2.2.9-1.4,1.2,1.5,3.2,3.5,3.1a2.6,2.6,0,0,0,1-.4,1.5,1.5,0,0,0-.3,1.1c-.2,1.9,2.6,2.3,3,3.4s1.5,1.2,1.2-1.4-3-1.2-3.1-2.3,3.2.5,3.2-2.9C351.4,36.3,351.5,35.4,351.2,35.1Z"/><path class="cls-8" d="M328.6,35.1c.3-.3,1.3-.2,1.7-.3,3.4,0,1.4,3.2,2.8,3.2s.2-3.1,2.4-3.1,2.1.9,1.3,1.2-1.5,3.2-3.4,3.1a3,3,0,0,1-1.1-.4,1.7,1.7,0,0,1,.4,1.1c.2,1.9-2.6,2.3-3.1,3.4s-1.4,1.2-1.2-1.4,3.1-1.2,3.1-2.3-3.1.5-3.1-2.9C328.4,36.3,328.3,35.4,328.6,35.1Z"/><path class="cls-8" d="M328.6,57.7c.3.3,1.3.2,1.7.2,3.4,0,1.4-3.2,2.8-3.1s.2,3.1,2.4,3.1,2.1-.9,1.3-1.2-1.5-3.3-3.4-3.1a1.9,1.9,0,0,0-1.1.4,1.7,1.7,0,0,0,.4-1.1c.2-1.9-2.6-2.3-3.1-3.4s-1.4-1.3-1.2,1.3,3.1,1.3,3.1,2.4-3.1-.6-3.1,2.9C328.4,56.4,328.3,57.4,328.6,57.7Z"/><path class="cls-5" d="M350.9,46.4a1.5,1.5,0,0,0-.4-.9l-9.7-9.7a1.2,1.2,0,0,0-1.8,0l-9.6,9.7a1.6,1.6,0,0,0-.5.9,1.6,1.6,0,0,0,.5.9l9.6,9.6a1.1,1.1,0,0,0,1.8,0l9.7-9.6A1.5,1.5,0,0,0,350.9,46.4Z"/><path class="cls-7" d="M346.4,46.4c0,.2,0,.3-.1.4l-1.8,1.8a1.9,1.9,0,0,1-2.2.2,1.8,1.8,0,0,1-.2,2.2l-1.7,1.7-.5.2-.4-.2L337.7,51a2,2,0,0,1-.1-2.2,2.1,2.1,0,0,1-2.3-.2l-1.7-1.8a.5.5,0,0,1-.2-.4.8.8,0,0,1,.2-.5l1.7-1.7a1.9,1.9,0,0,1,2.3-.2,2,2,0,0,1,.1-2.2l1.8-1.7.4-.2.5.2,1.7,1.7a1.8,1.8,0,0,1,.2,2.2,1.8,1.8,0,0,1,2.2.2l1.8,1.7A.7.7,0,0,1,346.4,46.4Z"/><path class="cls-5" d="M375.3,57.7c-.3.3-1.2.2-1.6.2-3.4,0-1.4-3.2-2.9-3.1s-.2,3.1-2.3,3.1-2.2-.9-1.4-1.2,1.5-3.3,3.4-3.1a1.7,1.7,0,0,1,1.1.4,1.7,1.7,0,0,1-.4-1.1c-.1-1.9,2.6-2.3,3.1-3.4s1.4-1.3,1.2,1.3-3,1.3-3.1,2.4,3.1-.6,3.1,2.9C375.5,56.4,375.6,57.4,375.3,57.7Z"/><path class="cls-5" d="M375.3,35.1c-.3-.3-1.2-.2-1.6-.3-3.4,0-1.4,3.2-2.9,3.2s-.2-3.1-2.3-3.1-2.2.9-1.4,1.2,1.5,3.2,3.4,3.1a2.5,2.5,0,0,0,1.1-.4,1.7,1.7,0,0,0-.4,1.1c-.1,1.9,2.6,2.3,3.1,3.4s1.4,1.2,1.2-1.4-3-1.2-3.1-2.3,3.1.5,3.1-2.9C375.5,36.3,375.6,35.4,375.3,35.1Z"/><path class="cls-5" d="M352.7,35.1c.3-.3,1.2-.2,1.6-.3,3.4,0,1.4,3.2,2.9,3.2s.2-3.1,2.4-3.1,2.1.9,1.3,1.2-1.5,3.2-3.4,3.1a2.5,2.5,0,0,1-1.1-.4,1.7,1.7,0,0,1,.4,1.1c.1,1.9-2.6,2.3-3.1,3.4s-1.4,1.2-1.2-1.4,3-1.2,3.1-2.3-3.1.5-3.1-2.9C352.5,36.3,352.4,35.4,352.7,35.1Z"/><path class="cls-5" d="M352.7,57.7c.3.3,1.2.2,1.6.2,3.4,0,1.4-3.2,2.9-3.1s.2,3.1,2.4,3.1,2.1-.9,1.3-1.2-1.5-3.3-3.4-3.1a1.7,1.7,0,0,0-1.1.4,1.7,1.7,0,0,0,.4-1.1c.1-1.9-2.6-2.3-3.1-3.4s-1.4-1.3-1.2,1.3,3,1.3,3.1,2.4-3.1-.6-3.1,2.9C352.5,56.4,352.4,57.4,352.7,57.7Z"/><path class="cls-6" d="M375,46.4a2.5,2.5,0,0,0-.4-.9l-9.7-9.7a1.2,1.2,0,0,0-1.8,0l-9.7,9.7a2.5,2.5,0,0,0-.4.9,2.5,2.5,0,0,0,.4.9l9.7,9.6a1.1,1.1,0,0,0,1.8,0l9.7-9.6A2.5,2.5,0,0,0,375,46.4Z"/><path class="cls-7" d="M370.5,46.4a.5.5,0,0,1-.2.4l-1.7,1.8a2,2,0,0,1-2.2.2,1.8,1.8,0,0,1-.2,2.2l-1.7,1.7-.5.2-.5-.2L361.8,51a1.8,1.8,0,0,1-.2-2.2,2,2,0,0,1-2.2-.2l-1.7-1.8a.5.5,0,0,1-.2-.4.8.8,0,0,1,.2-.5l1.7-1.7a1.8,1.8,0,0,1,2.2-.2,1.8,1.8,0,0,1,.2-2.2l1.7-1.7.5-.2.5.2,1.7,1.7a1.8,1.8,0,0,1,.2,2.2,1.8,1.8,0,0,1,2.2.2l1.7,1.7A.8.8,0,0,1,370.5,46.4Z"/><path class="cls-6" d="M399.4,57.7c-.3.3-1.3.2-1.7.2-3.4,0-1.4-3.2-2.8-3.1s-.2,3.1-2.4,3.1-2.1-.9-1.3-1.2,1.5-3.3,3.4-3.1a1.9,1.9,0,0,1,1.1.4,1.7,1.7,0,0,1-.4-1.1c-.2-1.9,2.6-2.3,3.1-3.4s1.4-1.3,1.2,1.3-3.1,1.3-3.1,2.4,3.1-.6,3.1,2.9C399.6,56.4,399.7,57.4,399.4,57.7Z"/><path class="cls-6" d="M399.4,35.1c-.3-.3-1.3-.2-1.7-.3-3.4,0-1.4,3.2-2.8,3.2s-.2-3.1-2.4-3.1-2.1.9-1.3,1.2,1.5,3.2,3.4,3.1a3,3,0,0,0,1.1-.4,1.7,1.7,0,0,0-.4,1.1c-.2,1.9,2.6,2.3,3.1,3.4s1.4,1.2,1.2-1.4-3.1-1.2-3.1-2.3,3.1.5,3.1-2.9C399.6,36.3,399.7,35.4,399.4,35.1Z"/><path class="cls-6" d="M376.8,35.1c.3-.3,1.2-.2,1.6-.3,3.4,0,1.4,3.2,2.9,3.2s.1-3.1,2.3-3.1,2.2.9,1.4,1.2-1.5,3.2-3.5,3.1a2.6,2.6,0,0,1-1-.4,2.5,2.5,0,0,1,.4,1.1c.1,1.9-2.7,2.3-3.1,3.4s-1.5,1.2-1.2-1.4,3-1.2,3.1-2.3-3.2.5-3.2-2.9C376.6,36.3,376.5,35.4,376.8,35.1Z"/><path class="cls-6" d="M376.8,57.7c.3.3,1.2.2,1.6.2,3.4,0,1.4-3.2,2.9-3.1s.1,3.1,2.3,3.1,2.2-.9,1.4-1.2-1.5-3.3-3.5-3.1c-.4,0-.5.1-1,.4a2.5,2.5,0,0,0,.4-1.1c.1-1.9-2.7-2.3-3.1-3.4s-1.5-1.3-1.2,1.3,3,1.3,3.1,2.4-3.2-.6-3.2,2.9C376.6,56.4,376.5,57.4,376.8,57.7Z"/><path class="cls-8" d="M399.1,46.4a1.6,1.6,0,0,0-.5-.9L389,35.8a1.2,1.2,0,0,0-1.8,0l-9.7,9.7a1.2,1.2,0,0,0,0,1.8l9.7,9.6a1.1,1.1,0,0,0,1.8,0l9.6-9.6A1.6,1.6,0,0,0,399.1,46.4Z"/><path class="cls-7" d="M394.6,46.4a.5.5,0,0,1-.2.4l-1.7,1.8a2.1,2.1,0,0,1-2.3.2,2,2,0,0,1-.1,2.2l-1.8,1.7-.4.2-.5-.2L385.9,51a1.8,1.8,0,0,1-.2-2.2,1.9,1.9,0,0,1-2.2-.2l-1.8-1.8c-.1-.1-.1-.2-.1-.4a.7.7,0,0,1,.1-.5l1.8-1.7a1.8,1.8,0,0,1,2.2-.2,1.8,1.8,0,0,1,.2-2.2l1.7-1.7.5-.2.4.2,1.8,1.7a2,2,0,0,1,.1,2.2,1.9,1.9,0,0,1,2.3.2l1.7,1.7A.8.8,0,0,1,394.6,46.4Z"/></svg>