<svg id="Layer_1" data-name="Layer 1" xmlns="http://www.w3.org/2000/svg" viewBox="0 0 169.39816 200.64923"><defs><style>.cls-1{fill:#fff;}</style></defs><title>delivery</title><path class="cls-1" d="M97.60013,143.07583a12.05773,12.05773,0,0,0-2.34.18485c-.916.26268-1.7435.87-2.665,1.06608a11.60087,11.60087,0,0,1-2.61754-.01964c.6097-2.49556-5.75609-.96062-2.82367-4.93389.55327-.74961.24582-2.09.5025-3.11606a21.945,21.945,0,0,1,1.05564-2.72056c.72156.655,1.98626,1.24686,2.07094,1.97587.37332,3.21277,1.84815,4.69776,5.17256,4.43607.674-.053,1.559.71313,2.0715,1.33024C98.25075,141.54825,97.781,142.39363,97.60013,143.07583Z"/><path class="cls-1" d="M80.46841,141.23624a11.89658,11.89658,0,0,1-1.80088.00181c-2.45732-.39379-4.93846-.71213-7.34114-1.32956-.7336-.1885-1.24427-1.24448-1.857-1.90321.76185-.45416,1.564-1.34856,2.27834-1.28325a58.3532,58.3532,0,0,1,7.62489,1.28427,2.95862,2.95862,0,0,1,1.66825,1.526C81.22522,139.91245,80.68871,140.64222,80.46841,141.23624Z"/><path class="cls-1" d="M107.71834,69.38872c.32831.245,1.21142.61368,1.58634,1.27182a2.45019,2.45019,0,0,1,.02493,2.18354,68.39533,68.39533,0,0,1-5.30917,6.34421c-.43442.45541-1.58807.22469-2.41069.30979-.06866-.74874-.48016-1.74466-.14846-2.20474C103.17815,74.91209,105.085,72.66783,107.71834,69.38872Z"/><path class="cls-1" d="M13.12682,32.76161c.18511,3.40717.41,6.72043.47869,10.03692.00718.347-.95241,1.04641-1.386.9897-.60095-.0786-1.55971-.66474-1.61756-1.12715-.3801-3.03787-.61176-6.09863-.74353-9.15833-.01858-.43082.70431-1.138,1.20648-1.278C11.56553,32.08513,12.22018,32.49806,13.12682,32.76161Z"/><path class="cls-1" d="M15.1573,95.21449c-.77452-.33182-2.08921-.54231-2.17461-.98826-.60775-3.17315-1.01213-6.38964-1.332-9.60717-.03455-.34774.85275-1.05235,1.36929-1.11386.50086-.05963,1.48966.4259,1.552.793.54155,3.18925.93925,6.40374,1.3227,9.61753C15.92859,94.20018,15.55828,94.53289,15.1573,95.21449Z"/><path class="cls-1" d="M14.064,66.99357c.04749,2.29743.23535,4.43045.08862,6.5402-.11269,1.62041,1.27,4.42391-1.64061,4.42389-2.51977,0-1.49236-2.71161-1.65305-4.29458a29.09876,29.09876,0,0,1-.03615-5.5596,2.7181,2.7181,0,0,1,1.428-1.67965C12.61582,66.233,13.34879,66.746,14.064,66.99357Z"/><path class="cls-1" d="M89.96963,111.42012c-.6518-.49574-2.04233-1.16361-1.96874-1.55894.59046-3.17163,1.412-6.30482,2.30225-9.40978a1.74817,1.74817,0,0,1,1.598-.59969c.54974.222,1.32892,1.07445,1.23923,1.49-.66371,3.07422-1.51507,6.10809-2.32453,9.15009C90.77388,110.64946,90.57567,110.76562,89.96963,111.42012Z"/><path class="cls-1" d="M96.09926,157.74079a42.77173,42.77173,0,0,1-2.55508-4.93808c-.31457-.82541.13533-1.94217.23853-2.92681.86678.43687,2.05484.6525,2.53778,1.35372a32.95533,32.95533,0,0,1,3.19726,5.8294c.36684.868.00854,2.04243-.02024,3.07759-.9475-.48426-1.90821-.94528-2.83245-1.47045C96.45574,158.54722,96.37305,158.20543,96.09926,157.74079Z"/><path class="cls-1" d="M168.50032,97.55262c-.76983-.68457-2.02813-1.26269-2.10031-1.96307a64.91206,64.91206,0,0,1-.19-8.33466,2.12287,2.12287,0,0,1,1.16-1.60069c.49539-.15327,1.74753.40774,1.76543.70838.19646,3.30184.226,6.614.26271,9.92387C169.4006,96.50856,169.09451,96.73411,168.50032,97.55262Z"/><path class="cls-1" d="M152.87836,127.84983a4.78246,4.78246,0,0,1-1.43737-1.34155,2.4866,2.4866,0,0,1-.07431-2.18907,75.90678,75.90678,0,0,1,5.57461-6.19749,1.57682,1.57682,0,0,1,2.56906,1.81185C157.72264,122.2872,155.73742,124.49081,152.87836,127.84983Z"/><path class="cls-1" d="M160.49449,74.50268c-.07494-1.43211-.70007-3.79354-.12774-4.13238,2.25059-1.33245,2.845,1.16965,3.76516,2.449a18.59736,18.59736,0,0,1,2.465,4.63971c.28134.80388-.25832,1.895-.42641,2.85618-.84036-.49439-1.93317-.80225-2.46623-1.5237a35.02112,35.02112,0,0,1-2.4164-4.36212Z"/><path class="cls-1" d="M63.55616,137.88822a6.81182,6.81182,0,0,1-1.70783-.01469c-2.50088-.69935-5.01952-1.36868-7.4464-2.277-.64792-.24254-.99454-1.29008-1.47949-1.968.81751-.38235,1.727-1.21222,2.436-1.0665a56.92887,56.92887,0,0,1,7.48053,2.1564,3.239,3.239,0,0,1,1.45066,1.76092C64.41753,136.776,63.84028,137.37667,63.55616,137.88822Z"/><path class="cls-1" d="M155.78059,68.1513a16.35693,16.35693,0,0,0-1.81693-1.38c-2.17176-1.23054-4.42715-2.3212-6.54255-3.63879-.63629-.39631-.92057-1.35777-1.36611-2.06033.83952-.33518,1.90192-1.1742,2.48-.91848a52.91927,52.91927,0,0,1,7.30208,3.94664c.59264.38318.59785,1.67492.873,2.54924Z"/><path class="cls-1" d="M14.16031,49.9201c-.07907,3.44975-.10849,6.75952-.297,10.06021-.02053.36-.96756.94067-1.467.92271-.50033-.018-1.38344-.63876-1.402-1.02843q-.2232-4.69846-.10533-9.40862c.01051-.41721.80886-1.04132,1.3318-1.15376C12.72237,49.20436,13.34018,49.63741,14.16031,49.9201Z"/><path class="cls-1" d="M167.67361,102.40374a7.89038,7.89038,0,0,1,.04642,2.12707c-1.10459,2.72551-2.19765,5.462-3.48964,8.09929a2.14466,2.14466,0,0,1-2.044.57864,2.17793,2.17793,0,0,1-.77677-1.99337,63.91334,63.91334,0,0,1,3.38243-7.84358C165.09769,102.78993,166.48159,102.77447,167.67361,102.40374Z"/><path class="cls-1" d="M18.53153,109.518a53.90367,53.90367,0,0,1-2.85809-6.13048c-.29439-.92479.21-2.10384.35315-3.16793.86672.58234,2.0058.983,2.54175,1.78605a23.08742,23.08742,0,0,1,2.46264,4.96816,16.11565,16.11565,0,0,1,.454,3.65483Z"/><path class="cls-1" d="M144.16367,133.72734a34.41476,34.41476,0,0,1-4.6416,2.33555c-.7412.24871-1.75049-.30156-2.63835-.4899.3808-.82285.5407-1.9737,1.18391-2.40682a39.66919,39.66919,0,0,1,6.05323-3.33688c.824-.36547,1.94478-.06169,2.93041-.06272a15.76827,15.76827,0,0,1-1.25429,2.82925A5.16867,5.16867,0,0,1,144.16367,133.72734Z"/><path class="cls-1" d="M115.723,140.65457c-.78707.91776-1.309,2.11551-1.9791,2.20513a66.54894,66.54894,0,0,1-8.54676.52161,2.21,2.21,0,0,1-1.61233-1.42923,2.10416,2.10416,0,0,1,1.22314-1.69457c2.92409-.33366,5.87378-.46618,8.81819-.57474C114.09893,139.66533,114.58878,140.11039,115.723,140.65457Z"/><path class="cls-1" d="M120.27788,140.82427c.42565-.85714.63476-2.05911,1.17269-2.23078a77.32281,77.32281,0,0,1,8.6048-2.19056c.53293-.10462,1.51852.64994,1.80214,1.24349a1.9888,1.9888,0,0,1-.88275,1.7423c-2.92128.87116-5.89333,1.58179-8.872,2.23971C121.69073,141.71944,121.14976,141.227,120.27788,140.82427Z"/><path class="cls-1" d="M8.64952,26.35228c-.81843-3.29122-1.61782-6.23545-2.221-9.21935a1.94061,1.94061,0,0,1,1.12769-1.5462c.64338-.03635,1.75858.46071,1.9173.96769A77.33967,77.33967,0,0,1,11.58,24.8802a2.42258,2.42258,0,0,1-1.13312,1.871C10.04537,26.99259,9.19949,26.49476,8.64952,26.35228Z"/><path class="cls-1" d="M102.57609,167.34666c-.00393-.5269-.487-2.18.07108-2.68714,1.48813-1.35211,2.382.26734,3.25841,1.308a62.67489,62.67489,0,0,1,4.05061,4.92683c.43457.63846.16287,1.75759.21341,2.65742-.88636-.17328-2.05221-.0513-2.60619-.57568C105.95866,171.457,104.59978,169.67824,102.57609,167.34666Z"/><path class="cls-1" d="M116.00111,63.74941a51.35338,51.35338,0,0,1,5.37471-2.38855c.7102-.23753,1.71608.409,2.587.65192-.51189.80868-.83982,1.91342-1.57165,2.36818a36.60572,36.60572,0,0,1-5.9461,2.97879c-.84356.33037-1.95265-.01729-2.941-.05651.38263-.88931.72063-1.8023,1.17277-2.65473C114.829,64.36166,115.27124,64.22865,116.00111,63.74941Z"/><path class="cls-1" d="M4.11225,3.22344A43.82747,43.82747,0,0,1,6.37751,8.28675c.18832.59177-.55755,1.48088-.87649,2.2341-.73238-.39976-1.77171-.61578-2.14109-1.23283A46.134,46.134,0,0,1,.11163,2.84367C-.20569,2.05448.24412.95682.34372,0A13.09693,13.09693,0,0,1,2.96786,1.33114,5.96075,5.96075,0,0,1,4.0307,3.26144Z"/><path class="cls-1" d="M113.77644,179.4285c.069-.65163-.101-1.80305.28181-2.0327a2.64788,2.64788,0,0,1,2.381-.09005,59.9071,59.9071,0,0,1,6.14706,5.18514c.45951.44381.25779,1.57239.36018,2.386-.751.08376-1.76169.52088-2.20929.19191C118.4295,183.37256,116.26607,181.4799,113.77644,179.4285Z"/><path class="cls-1" d="M140.35979,61.30911c-.73041.06271-1.2719.11991-1.81484.154-2.31571.14522-4.634.40245-6.94664.36045-.81676-.01485-1.62012-.76678-2.42959-1.18219.58143-.67831,1.09247-1.85356,1.75663-1.9476a58.1739,58.1739,0,0,1,8.04-.51156,2.76883,2.76883,0,0,1,1.80247,1.35534C140.98775,59.89465,140.52749,60.67051,140.35979,61.30911Z"/><path class="cls-1" d="M47.97105,129.73984c-.00892.67134.21881,1.47959-.084,1.83247-.38873.45294-1.37989.92036-1.80668.72286-2.76808-1.28117-5.48584-2.68485-8.12974-4.20547-.38581-.22186-.53131-1.36468-.33786-1.92628.14639-.42492,1.18815-.987,1.52662-.83018C42.07117,126.69154,44.93392,128.19886,47.97105,129.73984Z"/><path class="cls-1" d="M148.2864,197.86182c-1.41992-.67853-2.85364-1.32788-4.303-1.93671a2.2098,2.2098,0,0,0-1.86011.697c-.31689.34864-.10974,1.17322-.14672,2.0564,1.52148.66156,3.019,1.32367,4.5122,1.9707A5.88619,5.88619,0,0,1,148.2864,197.86182Z"/><path class="cls-1" d="M127.06148,190.00514c.12554-.77848.01805-1.63848.39657-2.03793a2.07774,2.07774,0,0,1,1.88317-.493c2.57938,1.4197,5.10074,2.95732,7.54255,4.60238a2.02944,2.02944,0,0,1,.46139,1.90009c-.2009.47762-1.33153,1.07985-1.674.901C132.82438,193.39078,130.06562,191.73554,127.06148,190.00514Z"/><path class="cls-1" d="M89.58327,117.0439a8.975,8.975,0,0,1,.22336,1.44106c-.03756,2.59046-.00564,5.18983-.23893,7.76429-.06305.69576-.96506,1.3155-1.482,1.97011-.59236-.573-1.6732-1.12873-1.69413-1.72181a77.01113,77.01113,0,0,1,.23331-8.58206c.03881-.50618.86141-1.10979,1.4524-1.35756C88.43674,116.40721,89.046,116.85214,89.58327,117.0439Z"/><path class="cls-1" d="M99.69734,83.67754a10.87244,10.87244,0,0,1-.15607,2.75127c-1.08409,2.454-2.18186,4.91188-3.48148,7.25368-.32136.57907-1.41544.72933-2.15431,1.0767-.255-.79458-.9254-1.74875-.69223-2.35586A52.91314,52.91314,0,0,1,96.61251,85.129C96.992,84.46456,98.27059,84.31375,99.69734,83.67754Z"/><path class="cls-1" d="M24.24547,117.326c.12636-.74614.00194-1.93162.46621-2.245a2.51442,2.51442,0,0,1,2.36139.2082,57.70751,57.70751,0,0,1,5.62672,5.30618c.46748.50421.31427,1.58388.446,2.39936-.82491.05331-1.94286.4771-2.42435.09625C28.55886,121.3803,26.57712,119.441,24.24547,117.326Z"/></svg>