<svg xmlns="http://www.w3.org/2000/svg" xmlns:xlink="http://www.w3.org/1999/xlink" viewBox="0 0 151.38338 59.70345"><defs><style>.cls-1{fill:#fdbb42;}.cls-2{fill:none;}.cls-3{isolation:isolate;}.cls-4{mix-blend-mode:multiply;}.cls-5{clip-path:url(#clip-path);}.cls-6{clip-path:url(#clip-path-2);}.cls-7{opacity:0.6;mix-blend-mode:overlay;}.cls-8{fill:#c93c42;}.cls-9{fill:#fff;}</style><clipPath id="clip-path"><rect class="cls-1" x="193.59384" y="-220.63808" width="1516" height="906.09061"/></clipPath><clipPath id="clip-path-2"><rect class="cls-2" x="193.59384" y="-225.11509" width="1516" height="910.06815"/></clipPath></defs><title>delivery</title><g class="cls-3"><g id="Layer_1" data-name="Layer 1"><g class="cls-4"><rect class="cls-1" x="193.59384" y="-220.63808" width="1516" height="906.09061"/><g class="cls-5"><rect class="cls-1" x="66.24984" y="-293.12532" width="1776.752" height="1060.12601"/></g></g><g class="cls-6"><g class="cls-7"><polygon class="cls-8" points="136.551 -430.726 46.784 -317.289 950.997 232.741 136.551 -430.726"/><polygon class="cls-8" points="-38.742 -164.755 -87.647 -30.876 950.997 232.741 -38.742 -164.755"/></g></g><path class="cls-9" d="M21.66493,39.6797c-.55889-.512-1.16109-.98468-1.66881-1.54321-1.74647-1.92132-3.38866-3.9448-5.23239-5.76546-.5049-.49857-1.57634-.42344-2.38779-.61159-.05153.89585-.4981,2.09345-.08495,2.63434a51.62435,51.62435,0,0,0,5.37774,5.99575c.54149.5166,1.7613.32216,2.66994.45392Z"/><path class="cls-9" d="M5.02606,16.45719c-.5585.6056-1.81707,1.51513-1.67435,1.88729,1.18028,3.07786,2.58285,6.07458,4.04445,9.03346.13157.26635,1.29373.32332,1.71982.06036a1.828,1.828,0,0,0,.72382-1.58454C8.65534,22.94491,7.32421,20.09561,6.02293,17.235,5.95547,17.08662,5.74027,17.0055,5.02606,16.45719Z"/><path class="cls-9" d="M73.24839,59.85746c3.38752-.40961,6.68946-.76373,9.96746-1.27222.343-.05321.865-1.11972.73388-1.53682-.1818-.57816-.92559-1.42052-1.391-1.39715-3.05771.15342-6.11217.457-9.14824.85877-.4275.05655-.99832.89129-1.049,1.41016C72.311,58.43743,72.83134,59.01039,73.24839,59.85746Z"/><path class="cls-9" d="M135.10439,51.00763c-.46132-.7051-.897-1.96323-1.351-1.96985-3.23048-.04728-6.46831.11327-9.69249.35721-.34846.02638-.88821,1.0226-.859,1.542.02829.5036.67821,1.393,1.05052,1.39063,3.23484-.02073,6.46955-.1875,9.70108-.36819C134.23949,51.9434,134.50282,51.52093,135.10439,51.00763Z"/><path class="cls-9" d="M107.12265,54.83359c2.27075-.35235,4.404-.5379,6.45615-1.0489,1.5762-.39248,4.57727.48217,4.07161-2.38419-.43774-2.48146-2.92963-.99861-4.51644-.88186a29.09907,29.09907,0,0,0-5.48135.93022,2.71813,2.71813,0,0,0-1.406,1.698C106.122,53.53951,106.75458,54.17222,107.12265,54.83359Z"/><path class="cls-9" d="M4.5803,10.88423a6.524,6.524,0,0,0,.07086-1.29385c-.47471-2.74476-.87714-5.51-1.55452-8.20547C2.94788.793,1.78872.455,1.09487,0,.70922.64855-.06822,1.34544.00481,1.93741c.3406,2.7612.85013,5.50829,1.462,8.22375A2.32885,2.32885,0,0,0,2.93694,11.5181C3.3988,11.64817,4.04868,11.11049,4.5803,10.88423Z"/><path class="cls-9" d="M90.32552,57.89443c3.38355-.67717,6.63788-1.28112,9.85564-2.04015.35092-.08276.75828-1.11626.65383-1.605-.10463-.4896-.86938-1.25144-1.25634-1.202q-4.66581.59642-9.28386,1.53075c-.40905.08283-.885.97747-.90485,1.512C89.37085,56.60269,89.90464,57.13588,90.32552,57.89443Z"/><path class="cls-9" d="M149.77656,51.84573a53.90516,53.90516,0,0,0-6.53378-1.74963c-.96187-.12926-2.03537.57225-3.05841.89811.72405.75238,1.31646,1.80454,2.20045,2.19283a23.08752,23.08752,0,0,0,5.32044,1.56212,16.11575,16.11575,0,0,0,3.67812-.18783Z"/><path class="cls-9" d="M66.1587,56.56168c-3.38336-.23423-6.42169-.51-9.465-.58562-.46372-.01151-1.37718.95483-1.32679,1.37915.076.63991.75921,1.65181,1.28606,1.72a77.34051,77.34051,0,0,0,8.56513.62811c.56884.01,1.40633-.81752,1.64572-1.44093C67.03177,57.82507,66.39456,57.07854,66.1587,56.56168Z"/><path class="cls-9" d="M25.85752,43.58879c-.35383.13014-1.38627.2115-1.78485.75645a2.17954,2.17954,0,0,0,.48414,2.08277A68.17336,68.17336,0,0,0,31.492,50.99222c.54239.30892,1.57265-.23877,2.37835-.39215-.23823-.791-.22641-1.92293-.75853-2.31317C30.9547,46.705,28.63037,45.35106,25.85752,43.58879Z"/><path class="cls-9" d="M42.59332,56.11138a43.82475,43.82475,0,0,0,5.37984,1.35121c.6155.08265,1.36151-.80634,2.04787-1.25127-.52091-.6518-.9142-1.6378-1.586-1.89437a46.13344,46.13344,0,0,0-6.91066-2.07938c-.83232-.1754-1.83514.45826-2.76012.72256a13.09751,13.09751,0,0,0,1.76677,2.353,5.961,5.961,0,0,0,2.0856.71134Z"/></g></g></svg>