<svg xmlns="http://www.w3.org/2000/svg" xmlns:xlink="http://www.w3.org/1999/xlink" viewBox="0 0 344.09339 167.31661"><defs><style>.cls-1{fill:#fdbb42;}.cls-2{fill:none;}.cls-3{isolation:isolate;}.cls-4{mix-blend-mode:multiply;}.cls-5{clip-path:url(#clip-path);}.cls-6{clip-path:url(#clip-path-2);}.cls-7{opacity:0.6;mix-blend-mode:overlay;}.cls-8{fill:#c93c42;}.cls-9{fill:#fff;}</style><clipPath id="clip-path"><rect class="cls-1" x="395.41588" y="-20.63082" width="1516" height="906.09061"/></clipPath><clipPath id="clip-path-2"><rect class="cls-2" x="395.41588" y="-25.10783" width="1516" height="910.06815"/></clipPath></defs><title>delivery</title><g class="cls-3"><g id="Layer_1" data-name="Layer 1"><g class="cls-4"><rect class="cls-1" x="395.41588" y="-20.63082" width="1516" height="906.09061"/><g class="cls-5"><rect class="cls-1" x="268.07188" y="-93.11806" width="1776.752" height="1060.12601"/></g></g><g class="cls-6"><g class="cls-7"><polygon class="cls-8" points="338.373 -230.718 248.606 -117.282 1152.819 432.748 338.373 -230.718"/><polygon class="cls-8" points="163.08 35.252 114.175 169.132 1152.819 432.748 163.08 35.252"/></g></g><path class="cls-9" d="M125.01255,76.47444a12.05828,12.05828,0,0,0,.747-2.22528c.1173-.94564-.11714-1.945.06364-2.86965a11.60043,11.60043,0,0,1,1.0439-2.40045c2.057,1.539,3.13963-4.91915,5.64582-.66416.47281.80278,1.82649,1.04524,2.66986,1.6835a21.947,21.947,0,0,1,2.08922,2.0374c-.88538.40714-1.92556,1.33871-2.62943,1.13093-3.10208-.91566-5.04626-.14079-6.10837,3.02024-.21537.64089-1.26708,1.15483-2.03566,1.38446C126.16294,77.67168,125.56929,76.90821,125.01255,76.47444Z"/><path class="cls-9" d="M133.419,61.43413a11.89733,11.89733,0,0,1,.70411-1.65754c1.32533-2.10642,2.59058-4.26432,4.10024-6.23282.46093-.601,1.63257-.657,2.47874-.96258.11926.8789.62776,1.96736.28771,2.599A58.35574,58.35574,0,0,1,136.82,61.69182a2.95862,2.95862,0,0,1-2.05771.93675C134.34031,62.64919,133.87918,61.8696,133.419,61.43413Z"/><path class="cls-9" d="M314.41787,34.00058c.6602-.37237,1.35368-.69662,1.97455-1.12588,2.13569-1.47664,4.19289-3.07637,6.40056-4.433.60457-.37149,1.63127-.056,2.46424-.05582-.15238.8843.01183,2.15186-.51293,2.58532a51.62426,51.62426,0,0,1-6.59423,4.62442c-.64429.38078-1.78853-.08445-2.70342-.16157Z"/><path class="cls-9" d="M188.83964,114.66174a4.701,4.701,0,0,1-1.79177.961,2.4502,2.4502,0,0,1-2.01864-.83281,68.39558,68.39558,0,0,1-3.756-7.3708c-.24872-.57814.41566-1.54909.65977-2.33925.71575.23027,1.79327.242,2.08655.72747C185.53745,108.32009,186.85487,110.954,188.83964,114.66174Z"/><path class="cls-9" d="M32.12479,119.519c.98.54067,1.7273.7139,1.99739,1.16984a1.93918,1.93918,0,0,1-.00282,1.75944q-2.72347,3.5231-5.69214,6.85176a1.83819,1.83819,0,0,1-1.72344.20343c-.45121-.22983-1.02-1.26874-.869-1.48348C27.836,125.1736,29.95506,122.41,32.12479,119.519Z"/><path class="cls-9" d="M335.87692,15.142c.4071.71621,1.4274,1.88677,1.20422,2.217-1.84568,2.73125-3.88954,5.3332-5.98236,7.885-.18839.22969-1.33334.02239-1.68893-.33011a1.828,1.828,0,0,1-.34677-1.70716c1.81154-2.56568,3.75248-5.04018,5.66692-7.53249C334.82926,15.545,335.05722,15.5146,335.87692,15.142Z"/><path class="cls-9" d="M259.60784,41.9915c-3.20716-1.165-6.3435-2.25658-9.42162-3.49314a1.7589,1.7589,0,0,1-.36736-1.663c.30783-.52208,1.22283-1.17443,1.67092-1.04642,2.94382.84087,5.85052,1.82727,8.7171,2.90516a1.88285,1.88285,0,0,1,.703,1.61083C260.84209,40.82023,260.20563,41.26068,259.60784,41.9915Z"/><path class="cls-9" d="M201.35513,19.38383c.60881-.58252,1.31771-1.70955,1.76145-1.61334,3.15749.68444,6.27516,1.573,9.36067,2.53966.33346.10449.634,1.197.48812,1.69628-.14143.48416-.97564,1.20358-1.33777,1.11706-3.14636-.75166-6.25957-1.64555-9.36655-2.55229C201.986,20.49094,201.82506,20.01986,201.35513,19.38383Z"/><path class="cls-9" d="M227.747,29.438c-2.13227-.85669-4.16828-1.51981-6.05176-2.48162-1.44661-.73873-4.56774-.56534-3.427-3.24312.98751-2.3182,3.07955-.31029,4.59887.16225a29.09965,29.09965,0,0,1,5.129,2.14559,2.7181,2.7181,0,0,1,.98566,1.972C229.01429,28.40371,228.25506,28.877,227.747,29.438Z"/><path class="cls-9" d="M157.1264,81.86044c.71153-.40538,1.87093-1.42293,2.20579-1.2003,2.68652,1.78621,5.24711,3.76991,7.75478,5.80585a1.74818,1.74818,0,0,1-.07456,1.7052c-.41973.41874-1.50931.80153-1.85644.55616-2.56818-1.81542-5.02571-3.78767-7.50713-5.72456C157.52022,82.90238,157.491,82.6745,157.1264,81.86044Z"/><path class="cls-9" d="M112.10891,69.34632a42.7739,42.7739,0,0,1,5.54441-.41541c.88266.03408,1.73378.88566,2.59921,1.36649-.74162.62623-1.40562,1.63474-2.24,1.80423a32.95485,32.95485,0,0,1-6.6161.65692c-.94231-.00267-1.8824-.79259-2.82347-1.22475.81685-.68192,1.6175-1.3851,2.46288-2.02959C111.22728,69.35824,111.57414,69.41613,112.10891,69.34632Z"/><path class="cls-9" d="M337.57131,9.81418a6.52384,6.52384,0,0,1,.22355-1.27636c1.08306-2.56632,2.10036-5.169,3.3697-7.64143.27875-.543,1.48433-.61011,2.26308-.89639.229.719.82872,1.57359.62374,2.13372-.95616,2.61266-2.07367,5.17338-3.28373,7.68015a2.32887,2.32887,0,0,1-1.73888.98937C338.54946,10.82549,338.038,10.15479,337.57131,9.81418Z"/><path class="cls-9" d="M36.78888,115.36494a8.66676,8.66676,0,0,1,.95708-1.71369,71.99421,71.99421,0,0,1,5.23362-5.37176c.55938-.49338,1.74075-.28166,2.6371-.393-.10291.89651.11213,2.05049-.36709,2.64226a56.05164,56.05164,0,0,1-5.155,5.44665,3.325,3.325,0,0,1-2.17507.59606C37.56552,116.56546,37.22358,115.85491,36.78888,115.36494Z"/><path class="cls-9" d="M139.10784,159.54382c.93151-.44,1.95652-1.371,2.62916-1.163a64.91308,64.91308,0,0,1,7.7424,3.09157,2.12289,2.12289,0,0,1,1.018,1.69456c-.05314.51582-1.06,1.44794-1.3436,1.34658-3.1147-1.11327-6.17352-2.38415-9.233-3.64753C139.71555,160.78126,139.628,160.41126,139.10784,159.54382Z"/><path class="cls-9" d="M13.50449,147.48705c.3142.94533,1.1201,2.10258.81795,2.67934a68.99922,68.99922,0,0,1-4.56673,7.31226,2.04,2.04,0,0,1-1.89037.53182c-.49041-.20372-1.12038-1.37329-.93933-1.68807,1.61135-2.80159,3.381-5.5127,5.135-8.23047C12.18312,147.90278,12.55315,147.87366,13.50449,147.48705Z"/><path class="cls-9" d="M117.35662,133.29785a4.78239,4.78239,0,0,1,1.79754-.79662,2.4866,2.4866,0,0,1,2.04308.78955,75.906,75.906,0,0,1,3.517,7.55751,1.57682,1.57682,0,0,1-2.67374,1.65346C120.57575,139.93465,119.32644,137.24463,117.35662,133.29785Z"/><path class="cls-9" d="M163.45144,161.21185c1.34691.49231,3.76443.84265,3.85187,1.502.34383,2.59275-2.19106,2.159-3.72871,2.50417a18.59713,18.59713,0,0,1-5.23463.44953c-.84983-.05622-1.6422-.98033-2.46058-1.51165.78419-.57938,1.4957-1.46413,2.36834-1.67181a35.02252,35.02252,0,0,1,4.96018-.51355Z"/><path class="cls-9" d="M143.12724,47.18688a6.81182,6.81182,0,0,1,.68282-1.56545c1.62353-2.02675,3.22639-4.08159,5.0132-5.95833.47706-.501,1.57664-.40939,2.39041-.58986.03137.902.43843,2.06391.02651,2.65908a56.92977,56.92977,0,0,1-4.91557,6.037,3.23906,3.23906,0,0,1-2.18858.6445C143.813,48.41525,143.48652,47.64876,143.12724,47.18688Z"/><path class="cls-9" d="M171.14214,159.36419a16.35648,16.35648,0,0,0,1.9817-1.13074c1.98324-1.51577,3.87055-3.1633,5.91178-4.59311a6.25548,6.25548,0,0,1,2.4309-.44937c-.02065.90372.3349,2.21-.12693,2.64161a52.91951,52.91951,0,0,1-6.49267,5.17123c-.58479.39506-1.77524-.10638-2.68743-.19594Z"/><path class="cls-9" d="M243.41691,36.21779c-3.14279-1.42473-6.17626-2.74892-9.139-4.2159-.32311-.16-.48623-1.25881-.274-1.71126.21263-.45326,1.12983-1.02244,1.49559-.88677q4.41009,1.636,8.69726,3.5904c.37972.17318.641,1.15226.53952,1.67743C244.639,35.17538,243.99841,35.57405,243.41691,36.21779Z"/><path class="cls-9" d="M134.96878,156.88205c-1.16547-.45235-1.689-.50346-1.97511-.79091-2.07459-2.08436-4.16376-4.16242-6.08377-6.38464a2.14465,2.14465,0,0,1,.26871-2.10728,2.17793,2.17793,0,0,1,2.13834.06657,63.91548,63.91548,0,0,1,5.89052,6.18581C135.623,154.36084,135.09486,155.6401,134.96878,156.88205Z"/><path class="cls-9" d="M186.87348,16.8825a53.9049,53.9049,0,0,1,6.76017-.22687c.96619.09159,1.85326,1.01767,2.77612,1.56643-.87544.56916-1.69042,1.46012-2.63931,1.63845a23.08675,23.08675,0,0,1-5.53586.31859,16.11548,16.11548,0,0,1-3.54038-1.01467Z"/><path class="cls-9" d="M115.36462,122.97686a34.41563,34.41563,0,0,1-.32964-5.18562c.06167-.77937.96347-1.49228,1.4847-2.23529.60778.67282,1.60391,1.27095,1.7503,2.03245a39.6683,39.6683,0,0,1,.69764,6.87675c.01332.90128-.70542,1.81338-1.09074,2.72057a15.76877,15.76877,0,0,1-2.11136-2.26275A5.16862,5.16862,0,0,1,115.36462,122.97686Z"/><path class="cls-9" d="M120.13764,94.09648c-.53589-1.08379-1.43328-2.03336-1.25311-2.685a66.54887,66.54887,0,0,1,2.86965-8.06749,2.21,2.21,0,0,1,1.94678-.92322,2.10417,2.10417,0,0,1,1.07966,1.7894c-.839,2.821-1.87309,5.58661-2.92715,8.338C121.68422,92.99,121.0828,93.26625,120.13764,94.09648Z"/><path class="cls-9" d="M118.19642,98.22048c.62176.72752,1.64562,1.391,1.59275,1.95314a77.32523,77.32523,0,0,1-1.357,8.775c-.11261.5313-1.19307,1.14233-1.85029,1.17065-.41988.01811-1.31126-1.01589-1.257-1.495.3434-3.029.85439-6.0418,1.41645-9.04C116.81915,99.16949,117.4842,98.86478,118.19642,98.22048Z"/><path class="cls-9" d="M267.25914,40.38423c3.34869.53689,6.37069.95531,9.35227,1.56981a1.9406,1.9406,0,0,1,.98057,1.64344c-.21871.60615-1.11306,1.43735-1.64169,1.38468a77.33977,77.33977,0,0,1-8.48532-1.32493c-.55637-.11888-1.185-1.11435-1.27726-1.77574C266.123,41.41748,266.91252,40.83437,267.25914,40.38423Z"/><path class="cls-9" d="M100.73315,71.54043c.48628.20289,2.19651.40628,2.44433,1.11851.66073,1.899-1.17949,2.08671-2.48032,2.48516A62.676,62.676,0,0,1,94.577,76.93981c-.7577.1496-1.68082-.539-2.52848-.84511.50679-.74755.85148-1.86794,1.551-2.1721C95.626,73.04155,97.795,72.48848,100.73315,71.54043Z"/><path class="cls-9" d="M309.44994,36.86038c.31524.20678,1.30254.51949,1.56757,1.14046a2.17955,2.17955,0,0,1-.94256,1.91934,68.17383,68.17383,0,0,1-7.78763,2.87779c-.59819.17827-1.47792-.5882-2.22806-.9198.41091-.71662.65536-1.82192,1.26193-2.08173C303.78015,38.74326,306.35042,37.95,309.44994,36.86038Z"/><path class="cls-9" d="M190.78176,124.492a51.35265,51.35265,0,0,1,.09109,5.88085c-.0598.74648-1.04883,1.41851-1.61362,2.12453-.54337-.78787-1.43122-1.52252-1.5628-2.374a36.6058,36.6058,0,0,1-.41018-6.63785c.02665-.90555.78116-1.78967,1.20457-2.68354.66822.70055,1.37571,1.36932,1.98274,2.11936C190.67783,123.17374,190.62689,123.63271,190.78176,124.492Z"/><path class="cls-9" d="M290.316,45.27427a43.82583,43.82583,0,0,1-5.546.0997c-.61824-.05866-1.14392-1.09331-1.71189-1.68193.65481-.51713,1.26087-1.38866,1.97333-1.48666a46.13476,46.13476,0,0,1,7.20186-.46286c.85042.01735,1.684.86136,2.52523,1.328A13.09748,13.09748,0,0,1,292.5054,44.963a5.96115,5.96115,0,0,1-2.19243.22131Z"/><path class="cls-9" d="M85.2283,77.10986c.57246.31887,1.69841.61368,1.75965,1.05589a2.64784,2.64784,0,0,1-.8503,2.22586,59.908,59.908,0,0,1-7.17942,3.62323c-.5884.24882-1.54764-.37906-2.33629-.60372.21725-.72371.21121-1.8249.68928-2.10776C79.77618,79.845,82.3653,78.59637,85.2283,77.10986Z"/><path class="cls-9" d="M183.48051,147.85849c.22856-.69656.38815-1.21715.5696-1.73.77394-2.18737,1.44583-4.421,2.39082-6.53221.33375-.7456,1.34038-1.19,2.03979-1.77192.39618.80075,1.27713,1.7315,1.10337,2.37939a58.175,58.175,0,0,1-2.68032,7.59737,2.76886,2.76886,0,0,1-1.95331,1.12711C184.53572,148.99054,184.00231,148.263,183.48051,147.85849Z"/><path class="cls-9" d="M156.7317,36.04192c-.61413-.27132-1.447-.37856-1.65293-.79549a2.14661,2.14661,0,0,1,.043-1.94545q3.39526-3.06683,7.05515-5.83124c.35532-.268,1.46374.046,1.9046.44409a1.77951,1.77951,0,0,1,.16548,1.72984C161.84836,31.80864,159.33969,33.85167,156.7317,36.04192Z"/><path class="cls-9" d="M56.46639,95.50982c.798.38027,1.63774.51286,1.83435.94089a2.20988,2.20988,0,0,1-.08774,1.98455q-3.19547,3.10106-6.66844,5.90746a2.18064,2.18064,0,0,1-1.97424-.18947c-.36039-.23866-.60383-1.43457-.3654-1.67613C51.53974,100.11163,53.98684,97.85693,56.46639,95.50982Z"/><path class="cls-9" d="M70.29125,85.18709c.667.4206,1.50032.65874,1.71948,1.16353a2.07773,2.07773,0,0,1-.28448,1.92573q-3.47552,2.725-7.19019,5.13548a2.02945,2.02945,0,0,1-1.92892-.32018c-.36067-.372-.47163-1.64822-.17284-1.8932C64.91792,89.16214,67.52192,87.27276,70.29125,85.18709Z"/><path class="cls-9" d="M152.10391,79.301a8.97628,8.97628,0,0,1-1.41332-.35927c-2.36851-1.04978-4.77246-2.03912-7.04955-3.2627-.61539-.33068-.832-1.40342-1.2317-2.13554.75927-.32042,1.69417-1.097,2.248-.88381a77.00708,77.00708,0,0,1,7.80411,3.578c.45047.23408.68341,1.22743.67975,1.86825C153.139,78.4957,152.49091,78.8818,152.10391,79.301Z"/><path class="cls-9" d="M178.83735,101.68249a10.87212,10.87212,0,0,1-2.47-1.22183c-1.83283-1.95911-3.66387-3.93232-5.309-6.04574-.4068-.5226-.11627-1.588-.14628-2.40395.83093.07684,1.97152-.166,2.43869.28643a52.91329,52.91329,0,0,1,5.36025,5.9782C179.17351,98.88516,178.81118,100.12054,178.83735,101.68249Z"/><path class="cls-9" d="M177.45077,19.07935c.63692.40867,1.77634.75881,1.88269,1.30875a2.51443,2.51443,0,0,1-1.117,2.09089,57.70635,57.70635,0,0,1-7.08687,3.09708c-.64708.23248-1.58034-.33159-2.38222-.53.27424-.7798.32249-1.97441.86157-2.26812C172.03029,21.45876,174.59113,20.39559,177.45077,19.07935Z"/><path class="cls-9" d="M15.70848,142.50891a19.39717,19.39717,0,0,1,1.02322-2.13037,55.70365,55.70365,0,0,1,3.77235-5.50716c.56525-.67968,1.7744-.82386,2.69039-1.21179.04363.971.46105,2.148.06083,2.87455a55.74023,55.74023,0,0,1-4.16708,6.251,2.57741,2.57741,0,0,1-1.85113.85653C16.75972,143.64034,16.28422,142.9636,15.70848,142.50891Z"/><path class="cls-9" d="M0,165.89232a49.39688,49.39688,0,0,1,3.60341-3.6814c.13182-.11238,1.14715.81156,1.75278,1.25492-.97254,1.30781-1.90751,2.64922-2.98883,3.85989A16.13812,16.13812,0,0,1,0,165.89232Z"/></g></g></svg>