<svg xmlns="http://www.w3.org/2000/svg" xmlns:xlink="http://www.w3.org/1999/xlink" viewBox="0 0 231.92578 100.70228"><defs><style>.cls-1{fill:#fdbb42;}.cls-2{fill:none;}.cls-3{isolation:isolate;}.cls-4{mix-blend-mode:multiply;}.cls-5{clip-path:url(#clip-path);}.cls-6{clip-path:url(#clip-path-2);}.cls-7{opacity:0.6;mix-blend-mode:overlay;}.cls-8{fill:#c93c42;}.cls-9{fill:#fff;}</style><clipPath id="clip-path"><rect class="cls-1" x="-1539.46628" y="-458.84926" width="1516" height="906.09061"/></clipPath><clipPath id="clip-path-2"><rect class="cls-2" x="-1539.46628" y="-463.32627" width="1516" height="910.06815"/></clipPath></defs><title>delivery-rappi-imagen-nueva</title><g class="cls-3"><g id="Layer_1" data-name="Layer 1"><g class="cls-4"><rect class="cls-1" x="-1539.46628" y="-458.84926" width="1516" height="906.09061"/><g class="cls-5"><rect class="cls-1" x="-1666.81028" y="-531.33651" width="1776.752" height="1060.12601"/></g></g><g class="cls-6"><g class="cls-7"><polygon class="cls-8" points="-0.219 692.114 94.887 582.629 -782.063 -5.47 -0.219 692.114"/><polygon class="cls-8" points="187.63 433.905 242.896 302.252 -782.063 -5.47 187.63 433.905"/><polygon class="cls-8" points="283.252 133.907 293.42 -7.392 -782.063 -5.47 283.252 133.907"/></g></g><path class="cls-9" d="M74.29688,79.24876c-.27234.95053-.51888,1.874-.73563,2.75426q-.40936,1.66325-.75123,3.01939c-.22383.88542-.38156,1.59778-.4698,2.11778a2.04461,2.04461,0,0,1-1.74869,1.69509,5.22684,5.22684,0,0,1-2.64235-.20313,6.18283,6.18283,0,0,1-2.4517-1.52656,3.83052,3.83052,0,0,1-1.14017-2.81512,22.24675,22.24675,0,0,1,.69477-4.38523c.45476-1.99239,1.11237-4.35629,1.95495-7.02552.83577-2.6495,1.84912-5.5676,3.01143-8.67393.99975-2.6693,2.1192-5.35575,3.33513-8.00462A2.73433,2.73433,0,0,1,75.523,54.62581a16.30756,16.30756,0,0,1,5.58852.18447,1.556,1.556,0,0,1,1.063,2.14978c-1.0179,2.27466-1.95693,4.54366-2.79525,6.75253-.6786,1.789-1.33,3.55868-1.94331,5.28043a.2029.2029,0,0,0,.276.25249A19.84548,19.84548,0,0,0,80.1291,67.917,17.75159,17.75159,0,0,0,83.635,64.96347a14.65089,14.65089,0,0,0,2.50476-3.77656,10.50733,10.50733,0,0,0,.945-4.41678A5.46408,5.46408,0,0,0,85.42911,52.354a7.085,7.085,0,0,0-4.65575-1.3992,11.211,11.211,0,0,0-5.72384,1.48558,17.11482,17.11482,0,0,0-4.46112,3.69557A18.00474,18.00474,0,0,0,67.701,60.744a11.00414,11.00414,0,0,0-1.01932,4.15315,1.67668,1.67668,0,0,1-1.23805,1.69409,3.38724,3.38724,0,0,1-2.26275-.101,4.84516,4.84516,0,0,1-2.09823-1.663,5.316,5.316,0,0,1-.95662-3.31584,9.35929,9.35929,0,0,1,1.39068-4.32693A18.13084,18.13084,0,0,1,65.523,52.3622a23.80826,23.80826,0,0,1,6.54259-3.94784,23.17926,23.17926,0,0,1,8.981-1.64977,24.69146,24.69146,0,0,1,5.67618.66356,17.69414,17.69414,0,0,1,5.05519,2.01028,11.81985,11.81985,0,0,1,3.65,3.35867,8.06685,8.06685,0,0,1,1.421,4.71275,11.61174,11.61174,0,0,1-1.24741,5.32867,15.473,15.473,0,0,1-3.3564,4.36608,21.90375,21.90375,0,0,1-4.90681,3.35215A32.24648,32.24648,0,0,1,82.47129,72.536a.174.174,0,0,0-.14185.20241c.03688.846.09732,1.67977.181,2.48532.09589.92357.22326,1.82488.37845,2.6788.15263.83946.3359,1.65734.5447,2.43128.162.59873.34242,1.18244.53647,1.73464.12369.35307.25361.69719.38639,1.0226a19.15058,19.15058,0,0,0,.869,1.85735,15.9415,15.9415,0,0,0,.98386,1.60459,13.36917,13.36917,0,0,0,1.08032,1.35294,11.402,11.402,0,0,0,1.15973,1.10528,10.04527,10.04527,0,0,0,1.225.8657,9.15274,9.15274,0,0,0,1.2792.6342A8.79031,8.79031,0,0,0,92.284,90.924a8.9436,8.9436,0,0,0,1.38529.1976,9.56777,9.56777,0,0,0,1.4443-.02071,10.7142,10.7142,0,0,0,1.505-.244,12.54386,12.54386,0,0,0,1.56176-.47945,14.70433,14.70433,0,0,0,1.60912-.72511c.20426-.1064.40994-.2193.615-.33789a1.49427,1.49427,0,0,1,1.73169,2.41822c-.28371.24853-.56854.49037-.85166.72343-.68429.56172-1.37139,1.08243-2.04177,1.54784-.63859.44313-1.286.85308-1.92487,1.2182-.32086.18369-.657.36483-.99777.53816a20.01282,20.01282,0,0,1-1.97678.87379,16.80336,16.80336,0,0,1-1.949.60257,14.44468,14.44468,0,0,1-1.91126.33135,13.19763,13.19763,0,0,1-1.33422.0688q-.26554,0-.53079-.01121a11.94823,11.94823,0,0,1-1.79808-.2139c-.29078-.057-.58242-.12653-.8681-.20682-.276-.0763-.55973-.16752-.84315-.27093a11.57631,11.57631,0,0,1-1.6026-.72768,12.26894,12.26894,0,0,1-1.48-.95832,13.32259,13.32259,0,0,1-1.11492-.94244,14.726,14.726,0,0,1-1.24315-1.33224,16.6163,16.6163,0,0,1-1.1121-1.5172,19.29939,19.29939,0,0,1-.98073-1.69154c-.30384-.58738-.58981-1.21209-.85081-1.85637-.25787-.63632-.49987-1.31379-.71832-2.01324-.21419-.687-.41135-1.41493-.585-2.16389-.17278-.74782-.32313-1.524-.44767-2.30729-.11093-.6918-.20484-1.4104-.27945-2.13979A.203.203,0,0,0,74.29688,79.24876Z"/><path class="cls-9" d="M188.51,51.2762a5.6857,5.6857,0,1,1-5.68527-5.68553A5.68589,5.68589,0,0,1,188.51,51.2762Z"/><path class="cls-9" d="M187.24047,74.209a1.63847,1.63847,0,0,0-1.35947-.70766,1.53748,1.53748,0,0,0-1.28315.67022c-.337.488-.75293,1.06727-1.23636,1.72189a23.043,23.043,0,0,1-1.7016,2.04588,18.92341,18.92341,0,0,1-1.72317,1.64472,1.93762,1.93762,0,0,1-1.14216.56952c-.14553,0-.4159,0-.47746-.71561a9.486,9.486,0,0,1,.33023-2.89641,34.26679,34.26679,0,0,1,1.24486-3.97515c.547-1.45833,1.09648-2.85114,1.63181-4.13969.55662-1.33932,1.03492-2.45283,1.46132-3.4042.42526-.94683.69165-1.563.79321-1.83253a2.011,2.011,0,0,0-.35944-2.22446,4.12542,4.12542,0,0,0-2.10021-1.29,5.73554,5.73554,0,0,0-2.72631-.04,3.66111,3.66111,0,0,0-2.42247,1.7663,39.61568,39.61568,0,0,0-1.97424,3.90137c-.8023,1.75722-1.57736,3.70834-2.30391,5.799-.44085,1.26784-.84768,2.557-1.21563,3.85458a10.96281,10.96281,0,0,1-3.60946,5.49617,22.89819,22.89819,0,0,1-1.95694,1.43232q-.45148.296-.90783.547a.10152.10152,0,0,1-.12993-.15022q.78726-1.03683,1.54473-2.23637a31.374,31.374,0,0,0,2.81085-5.84981,27.63132,27.63132,0,0,0,1.63126-6.42515,14.12477,14.12477,0,0,0-.21731-4.972A6.44513,6.44513,0,0,0,167.9398,59.462a5.01382,5.01382,0,0,0-3.4089-1.22586,7.81676,7.81676,0,0,0-4.29572,1.23693,17.05843,17.05843,0,0,0-2.41455,1.86983c-.061.05674-.1112.04994-.15546-.02014a3.10782,3.10782,0,0,0-.6576-.73208,4.88447,4.88447,0,0,0-2.21851-1.01945,5.11608,5.11608,0,0,0-2.57169.17461,3.30125,3.30125,0,0,0-2.00971,1.8297c-.81959,1.76571-1.68515,3.82648-2.57284,6.12513-.88542,2.29525-1.7487,4.69447-2.56716,7.13141q-.13575.40553-.27065.81109a10.9609,10.9609,0,0,1-3.72549,5.23589q-.68682.52766-1.41848,1.00634-.4515.296-.90839.54718a.10157.10157,0,0,1-.12994-.15037q.78726-1.03618,1.54444-2.23608a31.38056,31.38056,0,0,0,2.812-5.8501,27.64848,27.64848,0,0,0,1.63069-6.42515,14.11641,14.11641,0,0,0-.217-4.972,6.4434,6.4434,0,0,0-1.90162-3.33684,5.01408,5.01408,0,0,0-3.40831-1.22586,7.81768,7.81768,0,0,0-4.29658,1.23664,17.04523,17.04523,0,0,0-2.41453,1.8697c-.06072.05659-.11093.05007-.1549-.02029a3.1047,3.1047,0,0,0-.65875-.73122,4.87921,4.87921,0,0,0-2.21878-1.01974,5.10861,5.10861,0,0,0-2.57056.17461,3.30645,3.30645,0,0,0-2.01085,1.83c-.81987,1.76842-1.68543,3.82906-2.5717,6.125-.83179,2.15694-1.64089,4.39558-2.40829,6.66133A10.55213,10.55213,0,0,1,117.03,78.70463c-.3342.32485-.65989.619-.9745.87946a1.937,1.937,0,0,1-1.14216.56952c-.14553,0-.41647,0-.4769-.716a9.47359,9.47359,0,0,1,.32965-2.896,34.1614,34.1614,0,0,1,1.24486-3.97515c.541-1.44344,1.09054-2.83631,1.63182-4.13969.54669-1.31406,1.03861-2.45963,1.4616-3.4042.4332-.96555.69251-1.56557.7918-1.83281a2.00672,2.00672,0,0,0-.358-2.22418,4.13648,4.13648,0,0,0-2.13935-1.29139,5.75344,5.75344,0,0,0-2.72518-.03787,3.65345,3.65345,0,0,0-2.38475,1.76387c-.11574.188-.23631.39521-.36426.62527a.10127.10127,0,0,1-.1878-.02808,5.54938,5.54938,0,0,0-.53052-1.46359,4.28431,4.28431,0,0,0-1.60118-1.65537,5.14658,5.14658,0,0,0-2.67668-.64229c-2.51468,0-5.06509,1.16061-7.58006,3.44962-2.469,2.24786-4.51559,5.83363-6.08443,10.66086a26.89908,26.89908,0,0,0-1.28373,6.39507,14.06,14.06,0,0,0,.46442,4.9729,6.786,6.786,0,0,0,2.07722,3.29117,5.27225,5.27225,0,0,0,3.46564,1.2162,7.70621,7.70621,0,0,0,2.789-.5047A10.295,10.295,0,0,0,104.58,85.18411a.60906.60906,0,0,1,1.02528.24682,4.76954,4.76954,0,0,0,.62214,1.34118,3.494,3.494,0,0,0,3.09,1.44982,7.76265,7.76265,0,0,0,4.6356-1.72062,25.83051,25.83051,0,0,0,2.08828-1.73466.203.203,0,0,1,.33193.20781c-.39491,1.31294-.74924,2.52943-1.06841,3.67075-.53817,1.91862-.9759,3.57116-1.30131,4.91191a13.513,13.513,0,0,0-.49164,2.51283,4.043,4.043,0,0,0,1.01847,2.79426,5.535,5.535,0,0,0,2.25141,1.54189,4.81644,4.81644,0,0,0,1.60572.29618,3.78137,3.78137,0,0,0,.83038-.09107,1.99319,1.99319,0,0,0,1.59182-1.67948l.00367-.02212c.08881-.60059.25788-1.41451.503-2.41908.25448-1.04259.56371-2.22929.91946-3.52748.35093-1.29109.75236-2.72944,1.22613-4.397.21874-.77065.45364-1.57819.70329-2.41723a.20317.20317,0,0,1,.3705-.04367,5.70869,5.70869,0,0,0,.37079.56128,4.27438,4.27438,0,0,0,3.6421,1.55551c.33106.01475.66356.02241.98838.02241h.00057a18.25593,18.25593,0,0,0,6.76757-1.23664,27.223,27.223,0,0,0,5.39391-2.84787.203.203,0,0,1,.30923.22632c-.46243,1.52365-.87974,2.9498-1.24656,4.25933-.541,1.93212-.979,3.5845-1.30188,4.91177a13.61675,13.61675,0,0,0-.49108,2.5127,4.04341,4.04341,0,0,0,1.01876,2.79426,5.52628,5.52628,0,0,0,2.25141,1.54189,4.82037,4.82037,0,0,0,1.60515.29618,3.79924,3.79924,0,0,0,.83151-.09107,1.99341,1.99341,0,0,0,1.59153-1.67948l.004-.02241c.08823-.60257.25788-1.41649.503-2.41908.25391-1.042.56257-2.22843.91832-3.52719.35321-1.29677.75463-2.73483,1.227-4.397.219-.77222.45391-1.57989.703-2.41765a.20319.20319,0,0,1,.37051-.044,5.64913,5.64913,0,0,0,.37137.56185,4.27227,4.27227,0,0,0,3.64179,1.55566c.33108.01475.66328.02241.9884.02241h.00029a18.26167,18.26167,0,0,0,6.76784-1.23664,26.70526,26.70526,0,0,0,6.21323-3.43242q.4617-.34727.8996-.70215a.20288.20288,0,0,1,.33051.16114q-.00172.11617-.00171.23036a6.14606,6.14606,0,0,0,.90443,3.50748,3.49434,3.49434,0,0,0,3.09,1.44982,7.91035,7.91035,0,0,0,4.666-1.71779,26.32018,26.32018,0,0,0,4.149-3.8052,40.66821,40.66821,0,0,0,3.28492-4.21091c.9325-1.38925,1.56033-2.33921,1.91864-2.90448A1.23466,1.23466,0,0,0,187.24047,74.209Zm-78.67341-7.403a26.85257,26.85257,0,0,1-.63718,3.44634,32.18768,32.18768,0,0,1-1.27691,3.972c-.53251,1.3609-1.0999,2.64093-1.68686,3.80451a20.50234,20.50234,0,0,1-1.72969,2.88192,8.105,8.105,0,0,1-1.55891,1.67168,1.14376,1.14376,0,0,1-.61506.29178.19237.19237,0,0,1-.08568-.01872c-.06468-.02866-.28483-.177-.39972-.87067a9.859,9.859,0,0,1-.03036-2.43439,22.99754,22.99754,0,0,1,.60229-3.406,31.92,31.92,0,0,1,1.27748-3.97175c.53987-1.37847,1.10755-2.65851,1.688-3.80549a21.8378,21.8378,0,0,1,1.73225-2.91668,7.86771,7.86771,0,0,1,1.55465-1.69764,1.14762,1.14762,0,0,1,.61619-.29107.195.195,0,0,1,.08284.0166c.06724.03049.29816.18482.43915.88754A8.27067,8.27067,0,0,1,108.56706,66.806Zm27.54347.06072a31.58144,31.58144,0,0,1-.83975,3.42435,38.85851,38.85851,0,0,1-1.444,3.96947c-.62753,1.37379-1.27549,2.65567-1.92516,3.80933a24.21491,24.21491,0,0,1-1.90445,2.92349,8.52575,8.52575,0,0,1-1.65933,1.70615,1.24293,1.24293,0,0,1-.65449.29759.20249.20249,0,0,1-.08965-.01845c-.06213-.0278-.27178-.17163-.3637-.85533a8.32686,8.32686,0,0,1,.1342-2.44121,30.29332,30.29332,0,0,1,.8403-3.45356,38.25791,38.25791,0,0,1,1.44912-3.98154,33.466,33.466,0,0,1,1.88147-3.79061,24.70858,24.70858,0,0,1,1.93707-2.89327,8.87052,8.87052,0,0,1,1.66331-1.68019,1.25041,1.25041,0,0,1,.65647-.298.20165.20165,0,0,1,.08682.0173c.06241.0278.27291.17278.3654.85591A8.14584,8.14584,0,0,1,136.11053,66.86672Zm25.45716-.00015a31.64621,31.64621,0,0,1-.84,3.4245,39.01537,39.01537,0,0,1-1.444,3.96947c-.62668,1.37153-1.27465,2.65326-1.92573,3.80933a24.24605,24.24605,0,0,1-1.90331,2.92349,8.57064,8.57064,0,0,1-1.65906,1.706,1.24547,1.24547,0,0,1-.6559.29774.20246.20246,0,0,1-.08908-.01845c-.06213-.0278-.27235-.17219-.36342-.85505a8.28442,8.28442,0,0,1,.13447-2.44149,30.037,30.037,0,0,1,.83975-3.45356,38.408,38.408,0,0,1,1.44854-3.9814,33.43513,33.43513,0,0,1,1.88289-3.79088,24.38612,24.38612,0,0,1,1.93709-2.89341,8.82215,8.82215,0,0,1,1.66245-1.67977,1.25162,1.25162,0,0,1,.65647-.29816.20258.20258,0,0,1,.08682.0173c.06212.0278.27206.17278.3651.85591A8.11747,8.11747,0,0,1,161.56769,66.86657Z"/><path class="cls-9" d="M4.34766,41.47363A1.69834,1.69834,0,0,1,2.918,40.75879a1.993,1.993,0,0,1-.35742-.86426,50.27752,50.27752,0,0,1-.38672-6.40332,94.74864,94.74864,0,0,1,.71484-11.0498q.62546-5.6294,1.459-10.33448a10.77658,10.77658,0,0,0-1.16114,2.17432,1.99974,1.99974,0,0,1-.581.77441,1.48778,1.48778,0,0,1-.66992.34327,3.37612,3.37612,0,0,1-.417.04394A1.78368,1.78368,0,0,1,.0293,14.75781a1.78246,1.78246,0,0,1-.417-1.102,1.84077,1.84077,0,0,1,.14942-.71484A15.4,15.4,0,0,1,1.2207,10.186,13.3804,13.3804,0,0,1,3.06738,7.98193a10.88323,10.88323,0,0,1,2.17383-1.623A10.66857,10.66857,0,0,1,8.77051,4.959a16.58543,16.58543,0,0,1,2.666-.26806,13.94033,13.94033,0,0,1,5.98633,1.34033A9.65161,9.65161,0,0,1,22.04,10.32031a9.92931,9.92931,0,0,1,1.01172,4.49707,14.45276,14.45276,0,0,1-2.47168,7.71387,21.30221,21.30221,0,0,1-5.98633,6.01563A20.335,20.335,0,0,1,5.89648,31.794l-.02929,1.31054a52.83187,52.83187,0,0,0,.35742,6.34375v.23828a1.87166,1.87166,0,0,1-.16406.75977,1.74451,1.74451,0,0,1-.55078.66992,1.78793,1.78793,0,0,1-.89356.35742Zm8.48828-16.17285a16.72618,16.72618,0,0,0,4.64648-4.73535,10.82687,10.82687,0,0,0,1.877-5.8374A5.63553,5.63553,0,0,0,15.666,9.27783a10.29048,10.29048,0,0,0-4.25879-.92334,8.4725,8.4725,0,0,0-2.79981.47656Q8.458,9.874,8.30957,10.707A149.46841,149.46841,0,0,0,6.0752,28.041,16.67153,16.67153,0,0,0,12.83594,25.30078Z"/><path class="cls-9" d="M23.82617,11.98779a4.4529,4.4529,0,0,1-.68457-2.26318q0-1.51905,1.33985-1.519A2.02663,2.02663,0,0,1,26.17969,9.397a3.49826,3.49826,0,0,1,2.293-1.22119q.95361,0,.98339,1.22119a4.40778,4.40778,0,0,1-.26855,1.33985A5.24424,5.24424,0,0,1,27.49023,13.209a2.12307,2.12307,0,0,1-1.22168.47657A2.98792,2.98792,0,0,1,23.82617,11.98779Zm.86426,26.1792a11.50225,11.50225,0,0,1-.80469-4.34765q-.11865-2.05518-.11914-5.15332,0-5.50929.35742-10.51319L24.1543,17.23A1.70507,1.70507,0,0,1,25.167,15.71143a2.09284,2.09284,0,0,1,.95313-.209,1.80464,1.80464,0,0,1,1.51855,1.0127,2.26834,2.26834,0,0,1,.17871.95312l-.02929.95313q-.41748,6.90893-.417,11.58545,0,5.45069.44629,6.25488a1.77142,1.77142,0,0,1,.26856.92285,1.94581,1.94581,0,0,1-.22364.9082,1.76766,1.76766,0,0,1-.65527.7002,1.82,1.82,0,0,1-2.5166-.626Zm.3125-31.86767a1.96226,1.96226,0,0,1-.625-.65528,1.63559,1.63559,0,0,1-.22363-.834,1.97655,1.97655,0,0,1,.29785-1.07227,1.7403,1.7403,0,0,1,1.48926-.8042h.11914a2.3326,2.3326,0,0,0,1.6084-.50634,4.09643,4.09643,0,0,0,.86328-1.16162,1.7407,1.7407,0,0,1,.64062-.7295,1.88848,1.88848,0,0,1,1.05762-.2832,1.68494,1.68494,0,0,1,1.459.77441A1.8821,1.8821,0,0,1,31.9873,2.04a4.416,4.416,0,0,1-1.16113,2.38281,5.41616,5.41616,0,0,1-1.877,1.519,5.99046,5.99046,0,0,1-2.76953.65528h-.26856A1.79374,1.79374,0,0,1,25.00293,6.29932Z"/><path class="cls-9" d="M41.459,40.833a1.70832,1.70832,0,0,1-.64062-.68457A2.02065,2.02065,0,0,1,40.5957,39.21l.29688-8.78613q-.416.65478-1.667,2.7998A28.31726,28.31726,0,0,1,36.8125,37.0957a4.87,4.87,0,0,1-2.44238,2.02442,3.70235,3.70235,0,0,1-.77442.11914A3.27026,3.27026,0,0,1,30.94531,37.959,6.98545,6.98545,0,0,1,29.665,33.37207a17.14542,17.14542,0,0,1,1.01172-5.48047,17.56233,17.56233,0,0,1,2.83008-5.33105,7.65718,7.65718,0,0,1,3.51464-2.6211,5.54059,5.54059,0,0,1,1.75684-.29785,5.41038,5.41038,0,0,1,2.44238.5957l.38672-12.62744a1.971,1.971,0,0,1,.28321-.92334,1.72856,1.72856,0,0,1,.66992-.64062,1.98759,1.98759,0,0,1,.95312-.22315,1.89135,1.89135,0,0,1,.90918.28272,1.98419,1.98419,0,0,1,.63965.64062,1.61358,1.61358,0,0,1,.23828.86377L44.28809,39.3291a1.70059,1.70059,0,0,1-.95313,1.54883,2.00218,2.00218,0,0,1-.95312.23828A1.97524,1.97524,0,0,1,41.459,40.833Zm-5.42089-9.42676Q37.46777,28.875,38.332,27.624a11.19622,11.19622,0,0,1,2.65039-2.88867,3.2217,3.2217,0,0,0-2.293-1.40039,2.38467,2.38467,0,0,0-1.48925.68555,8.68934,8.68934,0,0,0-1.84668,2.38281,16.686,16.686,0,0,0-1.90625,5.47949,15.04645,15.04645,0,0,0-.17872,2.14453q0,1.34034.44629,1.54883Z"/><path class="cls-9" d="M48.69629,36.79785q-1.78711-3.36621-1.78711-9.71,0-9.501,3.06738-13.93848a5.77,5.77,0,0,1,4.8252-2.91845A5.42265,5.42265,0,0,1,58.67383,11.958a9.85216,9.85216,0,0,1,2.44238,4.438,16.35132,16.35132,0,0,1,.53613,4.2583q0,2.80077-.65527,3.48535a1.69593,1.69593,0,0,1-1.01269.53613l-9.38184,2.41211v.47656A18.58239,18.58239,0,0,0,51.61523,34.415q.8628,2.17383,2.0254,2.17383,1.16161,0,1.84667-1.54883a2.53647,2.53647,0,0,0,.0293-2.085,2.258,2.258,0,0,1-.11914-.71485,1.87241,1.87241,0,0,1,.35742-1.10156,1.69835,1.69835,0,0,1,1.42969-.71484,1.862,1.862,0,0,1,1.16113.38672,1.74861,1.74861,0,0,1,.56641.74511,6.3968,6.3968,0,0,1-.23828,5.36133,6.13315,6.13315,0,0,1-2.59082,2.71,5.01272,5.01272,0,0,1-2.502.65528Q50.51222,40.28223,48.69629,36.79785ZM57.959,21.42871l.0293-.86328a10.65142,10.65142,0,0,0-.833-4.40772q-1.07226-2.23388-2.35351-2.23388-1.19093,0-2.293,2.05517A19.09624,19.09624,0,0,0,50.751,23.27539Z"/><path class="cls-9" d="M74.90625,39.17969a1.679,1.679,0,0,1-.71484-1.459v-.208q.32666-3.1875.47656-8.22071l.0293-1.93652a52.321,52.321,0,0,0-.417-7.35645q-.50537-3.27465-.80371-3.36474-.59619.06006-1.42968,1.90625a65.15452,65.15452,0,0,0-2.97852,9.94677q-.59619,2.44336-1.08691,4.37891a21.5567,21.5567,0,0,1-.90821,2.91895q-.80419,1.87646-2.02539,1.876a1.54941,1.54941,0,0,1-1.40039-.92285,8.69287,8.69287,0,0,1-.71484-4.16992q0-2.05518.14941-7.625.17871-4.52637.17871-8.4585,0-1.84571-.08984-2.978V13.3877a1.82552,1.82552,0,0,1,.834-1.54883,1.78736,1.78736,0,0,1,1.0127-.29785,1.93979,1.93979,0,0,1,.84961.19384,1.67648,1.67648,0,0,1,.66992.59571,2.046,2.046,0,0,1,.32715.9082q.06006,1.16161.05957,2.88867,0,3.48486-.08887,6.67139a37.54167,37.54167,0,0,1,2.2041-5.71826q2.08447-4.13892,4.52735-4.13965a3.00556,3.00556,0,0,1,1.8457.62549,6.917,6.917,0,0,1,1.99609,3.395,39.32,39.32,0,0,1,.95313,10.12646q0,3.90234-.23828,7.59473-.17871,2.32325-.29785,3.21679a1.71445,1.71445,0,0,1-1.0127,1.459,2.04223,2.04223,0,0,1-.80469.17871A1.78485,1.78485,0,0,1,74.90625,39.17969Z"/><path class="cls-9" d="M82.083,32.53809a10.292,10.292,0,0,1-1.72754-6.0459,11.8583,11.8583,0,0,1,.56641-3.66309,7.90225,7.90225,0,0,1,2.293-3.58887,5.54082,5.54082,0,0,1,3.72364-1.29541,5.12345,5.12345,0,0,1,2.26367.50586,6.72793,6.72793,0,0,1,2.94824,3.0376,12.41434,12.41434,0,0,1,1.251,5.62891,10.15776,10.15776,0,0,1-1.13184,4.915,5.554,5.554,0,0,1-5.21191,3.15722A5.76781,5.76781,0,0,1,82.083,32.53809Zm6.43359-1.6084a3.70948,3.70948,0,0,0,.89356-1.51856,7.8,7.8,0,0,0,.32812-2.29394,9.491,9.491,0,0,0-.32812-2.47168,6.55089,6.55089,0,0,0-.56543-1.50391,3.95116,3.95116,0,0,0-.81934-1.08691,1.63556,1.63556,0,0,0-1.02734-.44727,2.19194,2.19194,0,0,0-1.13184.29785,2.66021,2.66021,0,0,0-.86426.834,5.38273,5.38273,0,0,0-.5957,1.22168,8.53862,8.53862,0,0,0-.38672,2.38281,8.78663,8.78663,0,0,0,.34277,2.44141,4.87644,4.87644,0,0,0,1.042,1.96582,2.18874,2.18874,0,0,0,1.68261.77441A1.94961,1.94961,0,0,0,88.5166,30.92969Z"/><path class="cls-9" d="M100.25195,38.46484a5.81989,5.81989,0,0,1-3.96191-1.459,6.19053,6.19053,0,0,1-1.96484-4.16992V32.7168a1.86722,1.86722,0,0,1,.77343-1.54883,1.89378,1.89378,0,0,1,2.5918.44726,1.977,1.977,0,0,1,.32715.92286,2.28381,2.28381,0,0,0,.70019,1.668,2.15749,2.15749,0,0,0,1.47461.56641,2.75295,2.75295,0,0,0,1.13184-.23828,2.08768,2.08768,0,0,0,1.10156-1.99609,4.4713,4.4713,0,0,0-.92285-2.41211,16.73267,16.73267,0,0,0-1.90625-1.90625,20.89727,20.89727,0,0,1-2.502-2.502,8.49666,8.49666,0,0,1-1.69825-3.54394,8.939,8.939,0,0,1-.208-1.84668A5.80134,5.80134,0,0,1,97.7793,15.354a7.2481,7.2481,0,0,1,4.14062-1.22168,7.5758,7.5758,0,0,1,2.15918.313,6.51678,6.51678,0,0,1,1.96582.96729,5.61054,5.61054,0,0,1,1.50391,1.624,4.8169,4.8169,0,0,1,.71484,1.81592,10.1211,10.1211,0,0,1,.11914,1.26562q0,3.42627-2.05566,3.42579a1.822,1.822,0,0,1-1.29492-.52149,1.74187,1.74187,0,0,1-.55078-1.32519A1.8387,1.8387,0,0,1,104.541,21.25a4.865,4.865,0,0,0,.14843-1.10156,2.49646,2.49646,0,0,0-.26757-1.13184,2.3663,2.3663,0,0,0-1.46-1.07178,3.66247,3.66247,0,0,0-1.042-.14941,3.62545,3.62545,0,0,0-2.05566.5957,2.27875,2.27875,0,0,0-.98242,1.99561,4.47792,4.47792,0,0,0,.55078,2.17383,8.27737,8.27737,0,0,0,1.623,2.02539l.9834.89355a18.37328,18.37328,0,0,1,2.74024,2.8291,7.54673,7.54673,0,0,1,1.30957,4.11036v.17871a5.48045,5.48045,0,0,1-1.459,3.96191,6.08843,6.08843,0,0,1-4.05078,1.90527Z"/><path class="cls-9" d="M131.168,40.252q-5.54-1.311-6.85059-7.56445a31.36211,31.36211,0,0,1-.44726-5.59961q0-4.40772.35742-8.75635H123.543a1.739,1.739,0,0,1-.92285-.25293,1.83246,1.83246,0,0,1-.89356-1.59375,1.79879,1.79879,0,0,1,.23828-.9375,1.88358,1.88358,0,0,1,.65528-.65527,1.79779,1.79779,0,0,1,.95215-.25342h.95312l.417-4.16943a1.78438,1.78438,0,0,1,.35742-.89356,1.83369,1.83369,0,0,1,1.46-.74463,1.95178,1.95178,0,0,1,1.13183.32764,1.84008,1.84008,0,0,1,.74414,1.54834V10.856q-.208,1.87646-.38672,3.8125l4.34864.02978a1.74872,1.74872,0,0,1,.92285.25342,1.972,1.972,0,0,1,.66992.66992,1.74386,1.74386,0,0,1,.25293.92285,1.79653,1.79653,0,0,1-.25293.95313,1.83244,1.83244,0,0,1-1.59277.89355l-4.67676-.02929q-.35742,4.55638-.35742,8.75537a25.99085,25.99085,0,0,0,.38769,4.82519,5.60182,5.60182,0,0,0,4.11035,4.73633,11.3624,11.3624,0,0,0,2.501.26758,29.00646,29.00646,0,0,0,5.54-.65527,1.44188,1.44188,0,0,1,.38769-.05957,1.8757,1.8757,0,0,1,1.84668,1.84668,1.72587,1.72587,0,0,1-.55175,1.35546,8.36623,8.36623,0,0,1-3.35059.90821,24.13641,24.13641,0,0,1-3.72266.29785A14.45239,14.45239,0,0,1,131.168,40.252Zm13.55176.11914a1.80554,1.80554,0,0,1-.74512-1.459v-.209q.17871-1.93506.35742-4.61622a10.05538,10.05538,0,0,1-5.36133,1.51954,7.90894,7.90894,0,0,1-3.32031-.68555,5.42418,5.42418,0,0,1-2.39746-2.11426,4.91279,4.91279,0,0,1-.77441-2.74023,5.42244,5.42244,0,0,1,1.57812-3.8418,6.98072,6.98072,0,0,1,5.30176-1.96582,17.12657,17.12657,0,0,1,5.27148,1.01269v-1.043q0-7.74316-1.54883-9.85791a1.5434,1.5434,0,0,0-1.1914-.77442h-.208a2.35369,2.35369,0,0,0-1.668.98291,5.63689,5.63689,0,0,0-1.34082,3.87158,8.09588,8.09588,0,0,0,.44727,2.561,1.53625,1.53625,0,0,1,.11914.56641,1.78017,1.78017,0,0,1-.44727,1.2207,1.81388,1.81388,0,0,1-2.62109.17871,1.52735,1.52735,0,0,1-.53613-.77441,10.05555,10.05555,0,0,1-.59571-2.47168c-.04-.61524-.05957-1.05274-.05957-1.31006a9.707,9.707,0,0,1,.9834-4.34864,7.06441,7.06441,0,0,1,4.16992-3.93115,5.14711,5.14711,0,0,1,1.6377-.26806,5.0737,5.0737,0,0,1,1.99609.417,6.23075,6.23075,0,0,1,2.62012,2.38232,12.23889,12.23889,0,0,1,1.54883,4.76514,59.17818,59.17818,0,0,1,.38769,7.92236q0,3.69288-.23828,8.10156-.35742,5.95606-.77441,6.49219a1.8656,1.8656,0,0,1-1.54883.77442A1.69638,1.69638,0,0,1,144.71973,40.37109ZM141.294,31.46582a5.13208,5.13208,0,0,0,2.29394-1.63769,3.46362,3.46362,0,0,0,.50586-.834,13.59446,13.59446,0,0,0-4.76562-1.043,4.77555,4.77555,0,0,0-1.37012.17871,3.2096,3.2096,0,0,0-.99707.47657,1.98219,1.98219,0,0,0-.59571.67089,1.565,1.565,0,0,0-.19433.7295,1.6774,1.6774,0,0,0,.209.86328,2.82944,2.82944,0,0,0,2.59082,1.043A6.12285,6.12285,0,0,0,141.294,31.46582Z"/><path class="cls-9" d="M162.14258,41.02637a1.80009,1.80009,0,0,1-.66992-.66992,1.7693,1.7693,0,0,1-.25391-.90821q0-.65625.05957-2.05469.06006-.89355.10449-2.085.04542-1.19091.10449-2.59179.08937-2.29248.14844-5.80762,0-1.48829-.02929-2.88867-.14941-6.55226-1.16114-6.64209-.62548,0-1.37011,1.90576a48.346,48.346,0,0,0-1.51954,4.73633q-.68554,2.44189-2.53125,10.36426a22.55289,22.55289,0,0,1-.89355,3.00878q-.8042,1.96437-2.02539,1.96485a1.56717,1.56717,0,0,1-1.42969-.92285,8.60461,8.60461,0,0,1-.71484-4.13965q0-3.12744.17871-7.6543.14942-5.65869.14844-8.45849,0-1.81641-.05957-2.97852v-.11914a1.72129,1.72129,0,0,1,.80468-1.519,1.75714,1.75714,0,0,1,1.0127-.32764,1.82048,1.82048,0,0,1,.84863.2085,1.96986,1.96986,0,0,1,.68555.5957,1.69371,1.69371,0,0,1,.3125.92334q.08935,1.42968.08887,3.75244l-.08887,5.09277a41.02875,41.02875,0,0,1,2.2041-5.98584q1.99512-4.11034,4.4375-4.11035a2.56213,2.56213,0,0,1,1.6377.59571q2.23388,1.96581,2.7998,9.44091a28.30344,28.30344,0,0,1,1.99609-4.73535q1.75635-3.21606,3.87207-3.21631a3.53376,3.53376,0,0,1,3.06739,1.75684,11.23448,11.23448,0,0,1,1.33984,3.96142,45.603,45.603,0,0,1,.47656,7.0879q0,2.65136-.26758,6.374-.1494,2.17529-.26855,3.17187a1.68116,1.68116,0,0,1-1.042,1.415,1.93237,1.93237,0,0,1-.74512.14844,1.7542,1.7542,0,0,1-1.13184-.35742,1.70414,1.70414,0,0,1-.74414-1.459v-.209q.35744-2.82861.47657-7.6543l.02929-1.668a37.55532,37.55532,0,0,0-.416-6.22461q-.50684-2.5913-.80469-2.68066-.68554.06006-1.51855,2.23438a41.93688,41.93688,0,0,0-1.51954,5.15234q-1.19091,5.00391-1.90625,8.78613a26.08343,26.08343,0,0,1-1.13183,4.37793,1.81731,1.81731,0,0,1-1.69727,1.251A1.76509,1.76509,0,0,1,162.14258,41.02637Z"/><path class="cls-9" d="M179.35742,45.167a1.67562,1.67562,0,0,1-.81933-.22363,1.92424,1.92424,0,0,1-.66993-.626,1.79069,1.79069,0,0,1-.29785-.9082q-.08936-2.47266-.08886-5.00391,0-7.74316.68457-19.18066.50536-9.38086.56543-12.74658a1.69635,1.69635,0,0,1,.92382-1.54883,1.88671,1.88671,0,0,1,.95313-.23828,1.6717,1.6717,0,0,1,.9082.25342,1.8636,1.8636,0,0,1,.87891,1.623q-.06006,3.30615-.74512,16.23145a9.48129,9.48129,0,0,1,2.05566-2.02539,6.83765,6.83765,0,0,1,4.16993-1.33985,5.14847,5.14847,0,0,1,3.18652.92286,5.87148,5.87148,0,0,1,2.05469,4.88476,11.88677,11.88677,0,0,1-1.042,4.58692,14.41607,14.41607,0,0,1-1.96582,3.33593,11.40309,11.40309,0,0,1-6.55274,4.34864,10.69412,10.69412,0,0,1-2.41211.2373q0,2.79932.11914,5.51074a1.98234,1.98234,0,0,1-.22363.95313,1.72839,1.72839,0,0,1-.64063.66992,1.99338,1.99338,0,0,1-.92285.2832Zm6.52246-12.86719a10.73961,10.73961,0,0,0,2.8291-3.93164,8.81542,8.81542,0,0,0,.74512-3.30566,2.20786,2.20786,0,0,0-.40234-1.48926A1.49987,1.49987,0,0,0,187.876,23.127a3.76009,3.76009,0,0,0-2.29395.77442,9.14822,9.14822,0,0,0-2.85937,4.61621,27.35865,27.35865,0,0,0-1.10157,4.64648l-.11914.92285A6.813,6.813,0,0,0,185.87988,32.2998Z"/><path class="cls-9" d="M194.30859,11.98779a4.4529,4.4529,0,0,1-.68457-2.26318q0-1.51905,1.33985-1.519a2.02663,2.02663,0,0,1,1.69824,1.1914,3.49828,3.49828,0,0,1,2.293-1.22119q.95361,0,.9834,1.22119a4.40784,4.40784,0,0,1-.26856,1.33985,5.2443,5.2443,0,0,1-1.69726,2.47216,2.12309,2.12309,0,0,1-1.22168.47657A2.98792,2.98792,0,0,1,194.30859,11.98779Zm.86426,26.1792a11.50245,11.50245,0,0,1-.80469-4.34765q-.11865-2.05518-.11914-5.15332,0-5.50929.35743-10.51319l.03027-.92285a1.70507,1.70507,0,0,1,1.01269-1.51855,2.09284,2.09284,0,0,1,.95313-.209,1.80464,1.80464,0,0,1,1.51855,1.0127,2.26834,2.26834,0,0,1,.17871.95312l-.02929.95313q-.41748,6.90893-.417,11.58545,0,5.45069.44628,6.25488a1.77132,1.77132,0,0,1,.26856.92285,1.94592,1.94592,0,0,1-.22363.9082,1.76776,1.76776,0,0,1-.65528.7002,1.82,1.82,0,0,1-2.5166-.626Z"/><path class="cls-9" d="M202.26172,36.79785q-1.78711-3.36621-1.78711-9.71,0-9.501,3.06738-13.93848a5.77,5.77,0,0,1,4.8252-2.91845,5.42265,5.42265,0,0,1,3.87207,1.72705,9.85226,9.85226,0,0,1,2.44238,4.438,16.35132,16.35132,0,0,1,.53613,4.2583q0,2.80077-.65527,3.48535a1.69593,1.69593,0,0,1-1.0127.53613L204.168,27.08789v.47656a18.58239,18.58239,0,0,0,1.01269,6.85059q.8628,2.17383,2.02539,2.17383,1.16163,0,1.84668-1.54883a2.53647,2.53647,0,0,0,.0293-2.085,2.258,2.258,0,0,1-.11914-.71485,1.87241,1.87241,0,0,1,.35742-1.10156,1.69835,1.69835,0,0,1,1.42969-.71484,1.862,1.862,0,0,1,1.16113.38672,1.74861,1.74861,0,0,1,.56641.74511,6.3968,6.3968,0,0,1-.23828,5.36133,6.13315,6.13315,0,0,1-2.59082,2.71,5.01272,5.01272,0,0,1-2.502.65528Q204.07765,40.28223,202.26172,36.79785Zm9.26269-15.36914.0293-.86328a10.65142,10.65142,0,0,0-.833-4.40772q-1.07226-2.23388-2.35351-2.23388-1.19092,0-2.293,2.05517a19.09624,19.09624,0,0,0-1.75781,7.29639ZM206.625,6.29932a1.96551,1.96551,0,0,1-.626-.65528,1.64436,1.64436,0,0,1-.22265-.834,1.97655,1.97655,0,0,1,.29785-1.07227,1.7403,1.7403,0,0,1,1.48926-.8042h.11914a2.3326,2.3326,0,0,0,1.6084-.50634,4.09643,4.09643,0,0,0,.86328-1.16162,1.7407,1.7407,0,0,1,.64062-.7295,1.88513,1.88513,0,0,1,1.05664-.2832,1.68658,1.68658,0,0,1,1.46.77441,1.88211,1.88211,0,0,1,.29786,1.0127,4.41927,4.41927,0,0,1-1.16211,2.38281,5.4038,5.4038,0,0,1-1.876,1.519,5.99046,5.99046,0,0,1-2.76953.65528h-.26856A1.79069,1.79069,0,0,1,206.625,6.29932Z"/><path class="cls-9" d="M228.4707,39.17969a1.679,1.679,0,0,1-.71484-1.459v-.208q.32665-3.1875.47656-8.22071l.0293-1.93652a52.32118,52.32118,0,0,0-.417-7.35645q-.50538-3.27465-.80371-3.36474-.5962.06006-1.42969,1.90625a65.15452,65.15452,0,0,0-2.97852,9.94677q-.59619,2.44336-1.08691,4.37891a21.5584,21.5584,0,0,1-.9082,2.91895q-.80421,1.87646-2.0254,1.876a1.54941,1.54941,0,0,1-1.40039-.92285,8.69287,8.69287,0,0,1-.71484-4.16992q0-2.05518.14941-7.625.17872-4.52637.17872-8.4585,0-1.84571-.08985-2.978V13.3877a1.82551,1.82551,0,0,1,.834-1.54883A1.78733,1.78733,0,0,1,218.582,11.541a1.93976,1.93976,0,0,1,.84961.19384,1.67648,1.67648,0,0,1,.66992.59571,2.046,2.046,0,0,1,.32715.9082q.06006,1.16161.05957,2.88867,0,3.48486-.08887,6.67139a37.54056,37.54056,0,0,1,2.20411-5.71826q2.08446-4.13892,4.52734-4.13965a3.00554,3.00554,0,0,1,1.8457.62549,6.91689,6.91689,0,0,1,1.9961,3.395,39.32054,39.32054,0,0,1,.95312,10.12646q0,3.90234-.23828,7.59473-.17871,2.32325-.29785,3.21679a1.71444,1.71444,0,0,1-1.0127,1.459,2.04223,2.04223,0,0,1-.80468.17871A1.78488,1.78488,0,0,1,228.4707,39.17969Z"/><path class="cls-9" d="M.74414,85.48438A1.76256,1.76256,0,0,1,0,83.96484v-.14843q.59472-5.064.71387-13.37305Q.77393,66.7505.80371,62.9375q.08935-7.2378.208-11.25781a1.83,1.83,0,0,1,.92383-1.5791,1.85079,1.85079,0,0,1,.834-.208,2.14183,2.14183,0,0,1,1.07227.23828,1.75122,1.75122,0,0,1,.834,1.51855v.11914q-.08935,3.66359-.14941,7.50586,3.33545-6.10547,6.19531-6.67187a4.57143,4.57143,0,0,1,.98242-.14844q2.65137,0,3.54492,3.2461a11.47325,11.47325,0,0,1,.38672,3.00781,20.80992,20.80992,0,0,1-.86328,5.92773A21.76569,21.76569,0,0,1,12.792,69.5791,12.28976,12.28976,0,0,1,9.73926,73.332a5.65054,5.65054,0,0,1-3.27637,1.22168,4.94333,4.94333,0,0,1-2.1748-.53613q-.11867,6.04541-.625,10.18555a1.71467,1.71467,0,0,1-1.0127,1.46,1.97883,1.97883,0,0,1-.77441.17871A1.83106,1.83106,0,0,1,.74414,85.48438ZM8.60742,69.28125a20.11964,20.11964,0,0,0,3.15625-7.77344,16.62708,16.62708,0,0,0,.47656-3.63379q0-1.727-.625-1.72754-.44678,0-1.37011,1.07227a23.22828,23.22828,0,0,0-2.60645,4.06543,49.84415,49.84415,0,0,0-2.42676,5.376,18.475,18.475,0,0,0-.626,1.78711,1.38714,1.38714,0,0,1-.17871.38769v.417q1.13232,1.459,2.14453,1.459h.05957A3.106,3.106,0,0,0,8.60742,69.28125Z"/><path class="cls-9" d="M18.67383,70.88965a10.292,10.292,0,0,1-1.72754-6.0459,11.8583,11.8583,0,0,1,.56641-3.66309,7.90235,7.90235,0,0,1,2.29294-3.58886,5.53879,5.53879,0,0,1,3.72366-1.2959,5.12331,5.12331,0,0,1,2.26367.50586,6.73151,6.73151,0,0,1,2.94824,3.03808,12.41437,12.41437,0,0,1,1.251,5.62891,10.15776,10.15776,0,0,1-1.13184,4.915A5.554,5.554,0,0,1,23.64844,73.541,5.7678,5.7678,0,0,1,18.67383,70.88965Zm6.43359-1.6084A3.70944,3.70944,0,0,0,26.001,67.7627a7.80009,7.80009,0,0,0,.32812-2.29395,9.491,9.491,0,0,0-.32812-2.47168,6.55107,6.55107,0,0,0-.56543-1.50391,3.95116,3.95116,0,0,0-.81934-1.08691,1.63556,1.63556,0,0,0-1.02734-.44727,2.19188,2.19188,0,0,0-1.13184.29786,2.66008,2.66008,0,0,0-.86426.834,5.38273,5.38273,0,0,0-.5957,1.22168,8.53862,8.53862,0,0,0-.38672,2.38281,8.78627,8.78627,0,0,0,.34278,2.44141,4.87606,4.87606,0,0,0,1.042,1.96582,2.18874,2.18874,0,0,0,1.68261.77441A1.94961,1.94961,0,0,0,25.10742,69.28125Z"/><path class="cls-9" d="M32.15137,76.69727A1.83,1.83,0,0,1,31.541,76.042a1.73046,1.73046,0,0,1-.208-.833v-.50683q0-2.02441.208-5.33106.05859-1.63768.05957-3.21679,0-4.0503-.417-14.32617V51.709a1.6381,1.6381,0,0,1,.22364-.834,1.9665,1.9665,0,0,1,.625-.65527,1.803,1.803,0,0,1,.9082-.29785,2.00666,2.00666,0,0,1,.93848.22363,1.73587,1.73587,0,0,1,.68554.625,1.93793,1.93793,0,0,1,.28223.93847l.14941,3.544a9.19433,9.19433,0,0,1,2.17383-2.44141,4.69255,4.69255,0,0,1,2.85938-.92382A5.26677,5.26677,0,0,1,43.21582,52.96a6.81772,6.81772,0,0,1,1.90625,2.53125,1.62813,1.62813,0,0,1,.209.77442,1.98534,1.98534,0,0,1-.32812,1.01269,1.76543,1.76543,0,0,1-.77441.65527,1.64389,1.64389,0,0,1-.74414.17871A1.84089,1.84089,0,0,1,41.78711,57.04q-.65625-1.459-1.75781-1.459a2.43183,2.43183,0,0,0-1.81641.92286q-1.40038,1.5498-2.23437,5.89746a44.21161,44.21161,0,0,0-.71485,5.80761q-.11865,7.29786-.56543,7.92286a1.8418,1.8418,0,0,1-1.63867.86328A1.79374,1.79374,0,0,1,32.15137,76.69727Z"/></g></g></svg>