<svg xmlns="http://www.w3.org/2000/svg" xmlns:xlink="http://www.w3.org/1999/xlink" viewBox="0 0 193.06837 82.87877"><defs><style>.cls-1{fill:none;}.cls-2{isolation:isolate;}.cls-3{clip-path:url(#clip-path);}.cls-4{opacity:0.6;mix-blend-mode:overlay;}.cls-5{fill:#c93c42;}.cls-6{fill:#fff;}</style><clipPath id="clip-path"><rect class="cls-1" x="467.88332" y="-581.77728" width="1516" height="910.06815"/></clipPath></defs><title>delivery</title><g class="cls-2"><g id="Layer_1" data-name="Layer 1"><g class="cls-3"><g class="cls-4"><polygon class="cls-5" points="175.082 95.05 217.527 230.882 1225.287 -123.921 175.082 95.05"/></g></g><path class="cls-6" d="M21.3107,50.61622c-.40957,1.42944-.78032,2.81823-1.10627,4.142q-.61563,2.50124-1.12973,4.54066c-.33661,1.33152-.5738,2.40279-.7065,3.18479a3.07475,3.07475,0,0,1-2.62975,2.54914,7.86018,7.86018,0,0,1-3.97365-.30548,9.29792,9.29792,0,0,1-3.68695-2.29569,5.76049,5.76049,0,0,1-1.71463-4.23348A33.4556,33.4556,0,0,1,7.408,51.60346c.68388-2.99624,1.67283-6.55114,2.93993-10.56522,1.25685-3.98442,2.78077-8.37277,4.52869-13.04416,1.50345-4.01419,3.18693-8.05418,5.01547-12.03763a4.112,4.112,0,0,1,3.26247-2.36909,24.52391,24.52391,0,0,1,8.40422.27742,2.34,2.34,0,0,1,1.59857,3.23291c-1.53075,3.42072-2.94289,6.83292-4.20359,10.15469-1.02051,2.69034-2.00006,5.35167-2.92243,7.9409a.30513.30513,0,0,0,.41512.3797,29.84518,29.84518,0,0,0,3.63489-1.99792,26.695,26.695,0,0,0,5.27231-4.44156,22.03264,22.03264,0,0,0,3.76675-5.67932,15.80149,15.80149,0,0,0,1.4211-6.64212c0-3.02631-.8379-5.2608-2.48982-6.64116a10.65459,10.65459,0,0,0-7.00147-2.10417,16.85941,16.85941,0,0,0-8.60771,2.23408,25.73791,25.73791,0,0,0-6.70879,5.55752,27.07626,27.07626,0,0,0-4.34225,6.92978,16.54843,16.54843,0,0,0-1.5329,6.24566A2.52143,2.52143,0,0,1,7.99679,31.5814,5.09383,5.09383,0,0,1,4.594,31.42952a7.28635,7.28635,0,0,1-3.15539-2.50091A7.99435,7.99435,0,0,1,0,23.94214a14.07485,14.07485,0,0,1,2.09134-6.507,27.26609,27.26609,0,0,1,6.02491-7.25188,35.80445,35.80445,0,0,1,9.839-5.93691,34.858,34.858,0,0,1,13.50589-2.481,37.13209,37.13209,0,0,1,8.536.99787A26.60922,26.60922,0,0,1,47.59932,5.7864a17.77508,17.77508,0,0,1,5.489,5.05088,12.13123,12.13123,0,0,1,2.137,7.08721,17.46206,17.46206,0,0,1-1.8759,8.01343A23.26865,23.26865,0,0,1,48.302,32.50379a32.93956,32.93956,0,0,1-7.379,5.04107,48.49351,48.49351,0,0,1-7.31929,2.97641.26161.26161,0,0,0-.21333.30439c.05546,1.27223.14635,2.52609.27219,3.73751.14421,1.3889.33576,2.74432.56914,4.02848.22953,1.2624.50513,2.49237.81913,3.65624.2436.90039.51494,1.77819.80677,2.60862.186.53095.38139,1.04845.58106,1.53781a28.79863,28.79863,0,0,0,1.30677,2.79315,23.97581,23.97581,0,0,0,1.47957,2.413,20.10245,20.10245,0,0,0,1.62462,2.03459,17.14471,17.14471,0,0,0,1.744,1.66217,15.10428,15.10428,0,0,0,1.8422,1.30187,13.765,13.765,0,0,0,1.92369.95374,13.22063,13.22063,0,0,0,2.00089.62094,13.4499,13.4499,0,0,0,2.08324.29716,14.38789,14.38789,0,0,0,2.172-.03115,16.11432,16.11432,0,0,0,2.26327-.3669,18.86339,18.86339,0,0,0,2.34862-.721,22.10879,22.10879,0,0,0,2.41985-1.09045c.30719-.16.61649-.32979.92494-.50812a2.24714,2.24714,0,0,1,2.60417,3.6366c-.42665.37374-.855.73744-1.28075,1.08792-1.029.84473-2.06234,1.6278-3.07049,2.32769-.96033.6664-1.93391,1.28289-2.89468,1.832-.48253.27624-.98809.54865-1.50048.80931a30.1001,30.1001,0,0,1-2.97275,1.314,25.27192,25.27192,0,0,1-2.931.90616,21.72106,21.72106,0,0,1-2.87422.49829,19.84546,19.84546,0,0,1-2.00644.10348q-.39934,0-.79822-.01687a17.96676,17.96676,0,0,1-2.704-.32167c-.43728-.08575-.87586-.19027-1.30548-.311-.41511-.11474-.84174-.25192-1.26795-.40742a17.4082,17.4082,0,0,1-2.41-1.09432,18.45188,18.45188,0,0,1-2.22575-1.44115,20.039,20.039,0,0,1-1.67665-1.41727,22.14679,22.14679,0,0,1-1.8695-2.00347,24.98791,24.98791,0,0,1-1.6724-2.28163,29.02327,29.02327,0,0,1-1.47486-2.54379c-.45692-.88333-.887-1.82278-1.27949-2.79167-.38778-.95692-.75172-1.97573-1.08022-3.02758-.32211-1.03309-.61861-2.12782-.87971-3.25414-.25983-1.1246-.48593-2.29187-.67322-3.46978-.16682-1.04035-.308-2.121-.42025-3.21789A.30534.30534,0,0,0,21.3107,50.61622Z"/><path class="cls-6" d="M193.06837,8.55011A8.55034,8.55034,0,1,1,184.51867,0,8.55063,8.55063,0,0,1,193.06837,8.55011Z"/><path class="cls-6" d="M191.1592,43.03732a2.464,2.464,0,0,0-2.04443-1.06422,2.31208,2.31208,0,0,0-1.92963,1.0079c-.50686.73382-1.13228,1.605-1.85928,2.58945a34.65627,34.65627,0,0,1-2.55893,3.07666,28.45863,28.45863,0,0,1-2.59137,2.47339,2.91386,2.91386,0,0,1-1.71762.85646c-.21885,0-.62545,0-.718-1.07616a14.266,14.266,0,0,1,.49661-4.35572,51.53072,51.53072,0,0,1,1.87206-5.978c.82254-2.1931,1.64893-4.28765,2.454-6.22542.83707-2.01412,1.55635-3.68865,2.19759-5.11936.63952-1.42387,1.04013-2.35052,1.19286-2.75582a3.02424,3.02424,0,0,0-.54054-3.34521,6.20387,6.20387,0,0,0-3.15836-1.93991,8.62533,8.62533,0,0,0-4.09993-.06015,5.50578,5.50578,0,0,0-3.643,2.65622,59.58238,59.58238,0,0,0-2.96893,5.867c-1.20653,2.64257-2.37208,5.57672-3.46469,8.7208-.663,1.90661-1.27477,3.84523-1.82811,5.79664a16.48627,16.48627,0,0,1-5.428,8.26534,34.43382,34.43382,0,0,1-2.94292,2.154q-.679.44508-1.36522.82265a.15267.15267,0,0,1-.19539-.22591q1.1839-1.55924,2.323-3.36314A47.18229,47.18229,0,0,0,162.868,43.0177a41.55308,41.55308,0,0,0,2.45314-9.66236,21.24112,21.24112,0,0,0-.3268-7.47714,9.69227,9.69227,0,0,0-2.86013-5.018,7.53989,7.53989,0,0,0-5.12642-1.84348,11.755,11.755,0,0,0-6.46,1.86013,25.65212,25.65212,0,0,0-3.63108,2.81192c-.09172.08532-.16723.07509-.23379-.0303a4.67393,4.67393,0,0,0-.98892-1.10092,7.34537,7.34537,0,0,0-3.33628-1.53309,7.69386,7.69386,0,0,0-3.8674.26259,4.96456,4.96456,0,0,0-3.02227,2.75156c-1.23252,2.65535-2.53418,5.7544-3.86913,9.21119-1.33151,3.45167-2.62974,7.0597-3.86058,10.72446q-.20413.60986-.407,1.21974a16.48336,16.48336,0,0,1-5.60252,7.87392q-1.03287.79351-2.13316,1.51337-.679.44508-1.36607.82287a.15275.15275,0,0,1-.19541-.22613q1.1839-1.55824,2.32258-3.3627a47.19056,47.19056,0,0,0,4.22878-8.79758,41.579,41.579,0,0,0,2.45229-9.66236,21.22879,21.22879,0,0,0-.32639-7.47714,9.68981,9.68981,0,0,0-2.85971-5.018,7.54037,7.54037,0,0,0-5.12555-1.84348,11.75645,11.75645,0,0,0-6.46134,1.85969,25.63311,25.63311,0,0,0-3.63105,2.81172c-.09131.0851-.16682.0753-.23294-.03051a4.6693,4.6693,0,0,0-.99065-1.09963,7.3376,7.3376,0,0,0-3.33669-1.53353,7.68264,7.68264,0,0,0-3.8657.26259,4.97227,4.97227,0,0,0-3.024,2.752c-1.233,2.65941-2.53462,5.75826-3.86743,9.211-1.25087,3.24368-2.46762,6.61023-3.62166,10.01754a15.86873,15.86873,0,0,1-4.12041,6.53044c-.50258.48851-.99235.93093-1.46548,1.32256a2.91294,2.91294,0,0,1-1.71763.85646c-.21885,0-.6263,0-.71717-1.07682a14.24675,14.24675,0,0,1,.49574-4.35506,51.37108,51.37108,0,0,1,1.87206-5.978c.81361-2.17071,1.64-4.26535,2.454-6.22542.82213-1.97614,1.5619-3.69887,2.198-5.11936.65146-1.452,1.04141-2.35436,1.19074-2.75624a3.01777,3.01777,0,0,0-.53843-3.34479,6.2206,6.2206,0,0,0-3.21722-1.94205,8.65217,8.65217,0,0,0-4.09822-.05694,5.49412,5.49412,0,0,0-3.58628,2.65257c-.174.28265-.35537.59432-.54779.9403a.1523.1523,0,0,1-.28242-.04223,8.34564,8.34564,0,0,0-.79781-2.201,6.44294,6.44294,0,0,0-2.4079-2.4894,7.73967,7.73967,0,0,0-4.02529-.96589c-3.78166,0-7.61706,1.74536-11.39916,5.18764-3.713,3.38042-6.7907,8.77283-9.15,16.03218a40.45076,40.45076,0,0,0-1.93051,9.61713,21.1438,21.1438,0,0,0,.6984,7.47842,10.205,10.205,0,0,0,3.12381,4.94938,7.9285,7.9285,0,0,0,5.21174,1.829,11.589,11.589,0,0,0,4.1942-.759A15.48167,15.48167,0,0,0,66.8515,59.542a.91593.91593,0,0,1,1.54185.37119,7.17225,7.17225,0,0,0,.9356,2.0169,5.25443,5.25443,0,0,0,4.64687,2.1803A11.67377,11.67377,0,0,0,80.947,61.52285a38.8403,38.8403,0,0,0,3.14042-2.60864.30525.30525,0,0,1,.49917.31252c-.59388,1.97443-1.12673,3.80383-1.6067,5.52019-.80932,2.88529-1.4676,5.37043-1.957,7.3867a20.32142,20.32142,0,0,0-.73934,3.77889,6.08005,6.08005,0,0,0,1.5316,4.20211,8.32382,8.32382,0,0,0,3.38575,2.31874,7.24332,7.24332,0,0,0,2.41474.44541,5.686,5.686,0,0,0,1.24875-.137,2.99744,2.99744,0,0,0,2.39384-2.52566l.00552-.03327c.13356-.90319.38781-2.12719.75642-3.63789.3827-1.56789.84773-3.35248,1.38272-5.30475.52774-1.94158,1.13143-4.10462,1.8439-6.61237.329-1.15893.6822-2.37334,1.05763-3.63511a.30554.30554,0,0,1,.55718-.06569,8.58347,8.58347,0,0,0,.5576.84408c1.15489,1.54783,2.99753,2.33453,5.47712,2.33923.49786.02219.99788.0337,1.48636.0337h.00086a27.454,27.454,0,0,0,10.1773-1.85969,40.93919,40.93919,0,0,0,8.11156-4.28274.30531.30531,0,0,1,.465.34035c-.69541,2.29132-1.323,4.436-1.87461,6.40533-.81359,2.90559-1.47232,5.39049-1.95782,7.38649a20.47784,20.47784,0,0,0-.7385,3.77869,6.08068,6.08068,0,0,0,1.532,4.20211,8.31076,8.31076,0,0,0,3.38575,2.31874,7.24918,7.24918,0,0,0,2.41388.44541,5.713,5.713,0,0,0,1.25046-.137,2.99777,2.99777,0,0,0,2.3934-2.52566l.006-.03371c.13268-.90615.38781-2.13016.75642-3.63789.38183-1.567.846-3.35119,1.381-5.30431.53117-1.95013,1.13484-4.11272,1.84519-6.61237.32936-1.16129.68262-2.3759,1.05719-3.63575a.30556.30556,0,0,1,.55718-.06612,8.49655,8.49655,0,0,0,.55848.84493c1.1536,1.54773,2.99623,2.33475,5.47666,2.33945.49788.02219.99746.0337,1.48638.0337h.00044a27.46272,27.46272,0,0,0,10.17772-1.85969,40.15978,40.15978,0,0,0,9.34366-5.16181q.69433-.52221,1.35286-1.05592a.3051.3051,0,0,1,.497.24234q-.0026.17471-.00258.34641a9.24261,9.24261,0,0,0,1.36011,5.27467,5.25492,5.25492,0,0,0,4.64687,2.1803,11.89586,11.89586,0,0,0,7.01682-2.58327,39.58118,39.58118,0,0,0,6.23948-5.72239,61.15763,61.15763,0,0,0,4.94-6.33251c1.40234-2.08921,2.34648-3.5178,2.88532-4.36786A1.85673,1.85673,0,0,0,191.1592,43.03732ZM72.84738,31.90436a40.38349,40.38349,0,0,1-.95821,5.18273,48.40358,48.40358,0,0,1-1.92027,5.97327c-.8008,2.04657-1.65406,3.97153-2.53675,5.72135A30.83032,30.83032,0,0,1,64.831,53.11564a12.18789,12.18789,0,0,1-2.34433,2.51393,1.72,1.72,0,0,1-.925.4388.28922.28922,0,0,1-.12885-.02816c-.09727-.0431-.42833-.26623-.60112-1.30934A14.82688,14.82688,0,0,1,60.78607,51.07a34.58551,34.58551,0,0,1,.90574-5.12213A48.00323,48.00323,0,0,1,63.61293,39.975c.81188-2.073,1.66557-3.998,2.53846-5.72284a32.83965,32.83965,0,0,1,2.605-4.3862,11.83215,11.83215,0,0,1,2.33794-2.553,1.72591,1.72591,0,0,1,.92664-.43772.2931.2931,0,0,1,.12458.025c.10111.04585.44838.27794.66042,1.3347A12.43865,12.43865,0,0,1,72.84738,31.90436Zm41.42083.0913a47.49173,47.49173,0,0,1-1.26284,5.14966,58.4349,58.4349,0,0,1-2.17156,5.96943c-.9437,2.066-1.91812,3.9937-2.89512,5.7286a36.41453,36.41453,0,0,1-2.864,4.39645,12.82158,12.82158,0,0,1-2.49537,2.56577,1.86915,1.86915,0,0,1-.98424.44753.30469.30469,0,0,1-.13482-.02774c-.09343-.04181-.40872-.25811-.54694-1.28628a12.52257,12.52257,0,0,1,.20181-3.67118,45.55685,45.55685,0,0,1,1.26367-5.19359,57.5344,57.5344,0,0,1,2.17924-5.98758,50.32447,50.32447,0,0,1,2.82942-5.70044,37.15855,37.15855,0,0,1,2.913-4.351,13.33906,13.33906,0,0,1,2.50135-2.52673,1.88038,1.88038,0,0,1,.98722-.44816.30339.30339,0,0,1,.13056.026c.09386.04181.41042.25983.5495,1.28716A12.24945,12.24945,0,0,1,114.26821,31.99566Zm38.28337-.00021a47.5917,47.5917,0,0,1-1.26326,5.14987,58.66881,58.66881,0,0,1-2.17155,5.96943c-.94242,2.06256-1.91686,3.99007-2.896,5.7286a36.463,36.463,0,0,1-2.86227,4.39645,12.88881,12.88881,0,0,1-2.49495,2.56555,1.873,1.873,0,0,1-.98637.44775.30469.30469,0,0,1-.134-.02774c-.09343-.04181-.40957-.259-.54653-1.28587a12.4589,12.4589,0,0,1,.20223-3.67159,45.17026,45.17026,0,0,1,1.26284-5.19359,57.75868,57.75868,0,0,1,2.17837-5.98736,50.28016,50.28016,0,0,1,2.83155-5.70086,36.67179,36.67179,0,0,1,2.91306-4.35121,13.267,13.267,0,0,1,2.50006-2.5261,1.88222,1.88222,0,0,1,.98722-.44838.30486.30486,0,0,1,.13056.026c.09342.04181.40913.25983.54906,1.28716A12.20821,12.20821,0,0,1,152.55158,31.99545Z"/></g></g></svg>