<svg id="Layer_1" data-name="Layer 1" xmlns="http://www.w3.org/2000/svg" viewBox="0 0 85.44787 128.48674"><defs><style>.cls-1{fill:#fff;}</style></defs><title>delivery</title><path class="cls-1" d="M39.0053,37.823a6.722,6.722,0,0,1-1.28967.22164c-.531-.01607-1.06151-.2305-1.58633-.2098a6.46687,6.46687,0,0,0-1.4115.37026c.67229,1.26452-2.97791,1.30989-.84766,3.05364.40192.329.42,1.09542.69964,1.6145a12.23493,12.23493,0,0,0,.94414,1.32482c.29985-.453.90181-.94657.8474-1.35207-.23973-1.78709.353-2.792,2.18511-3.10742.37145-.064.74432-.5995.93641-1.00332C39.5667,38.55887,39.19676,38.16668,39.0053,37.823Z"/><path class="cls-1" d="M30.00216,41.17074a6.633,6.633,0,0,0-.97323.24646c-1.27353.55039-2.57029,1.06329-3.78357,1.727-.37045.20264-.50127.84333-.74181,1.28342.474.14069,1.03027.51371,1.40726.38027a32.53142,32.53142,0,0,0,3.94311-1.74152,1.6494,1.6494,0,0,0,.69165-1.05367C30.59294,41.782,30.2028,41.4614,30.00216,41.17074Z"/><path class="cls-1" d="M54.59654,76.24427a2.62084,2.62084,0,0,0,.68232-.9051A1.366,1.366,0,0,0,54.9923,74.156a38.13,38.13,0,0,0-3.74011-2.69816c-.29729-.18635-.88888.09681-1.345.16386.06578.414-.01971,1.00858.22272,1.21157C51.38466,73.88393,52.72326,74.83446,54.59654,76.24427Z"/><path class="cls-1" d="M8.52334,109.03c-.36814-1.86625-.70188-3.68723-1.12045-5.4885-.04379-.18847-.65834-.43449-.88478-.34428-.31389.125-.75135.57345-.71907.83122.21205,1.69353.50743,3.379.85664,5.05021.04916.23532.53688.51806.82744.52472C7.77276,109.61,8.06971,109.29691,8.52334,109.03Z"/><path class="cls-1" d="M1.03935,75.009c-.37286.2857-1.05424.58006-1.0391.83273.10763,1.79789.3311,3.59125.60036,5.37357.02911.19262.60532.45139.89284.41365.2788-.0366.74632-.43478.72955-.64167-.14561-1.79749-.37241-3.58885-.60682-5.37788C1.59543,75.45106,1.34965,75.32218,1.03935,75.009Z"/><path class="cls-1" d="M4.32624,90.40639c-.29-1.24777-.48159-2.426-.85074-3.54571-.28353-.86.07831-2.56464-1.49423-2.1647-1.36138.34621-.43372,1.67007-.303,2.54739a16.22206,16.22206,0,0,0,.74436,3.0087,1.51528,1.51528,0,0,0,1.00228.71128C3.6483,91.01631,3.97382,90.63843,4.32624,90.40639Z"/><path class="cls-1" d="M39.23219,55.97428c-.284.35739-.94355.90929-.84947,1.11276.75479,1.63244,1.62913,3.21236,2.53676,4.76758a.97458.97458,0,0,0,.94577.10443c.2665-.1955.57036-.76309.4648-.97527-.781-1.56974-1.6578-3.0919-2.51311-4.62421C39.7726,56.28015,39.64955,56.24462,39.23219,55.97428Z"/><path class="cls-1" d="M36.17945,30.106a23.8447,23.8447,0,0,0-.702,3.019c-.05654.48917.34,1.03072.531,1.54852.40828-.35513,1.02053-.63487,1.18511-1.08008a18.37146,18.37146,0,0,0,.92645-3.5888,4.49528,4.49528,0,0,0-.43379-1.66c-.44538.39182-.90109.77291-1.32828,1.18364C36.26124,29.62133,36.26353,29.81736,36.17945,30.106Z"/><path class="cls-1" d="M83.566,52.6765c-.32186.47563-.92225.96087-.865,1.34918a36.18835,36.18835,0,0,0,1.0425,4.52915,1.18348,1.18348,0,0,0,.84668.70543c.28871.01474.88813-.4604.85649-.62529-.34753-1.81091-.78665-3.60448-1.2216-5.39775C84.19587,53.11688,83.99951,53.03708,83.566,52.6765Z"/><path class="cls-1" d="M70.963,38.454a2.66618,2.66618,0,0,0-.59225.9223,1.38618,1.38618,0,0,0,.26063,1.19292,42.3157,42.3157,0,0,0,3.86338,2.58242,1.22213,1.22213,0,0,0,1.17952-.13409,1.21739,1.21739,0,0,0-.04047-1.1978C74.34455,40.79379,72.9692,39.876,70.963,38.454Z"/><path class="cls-1" d="M82.40769,66.22988c.15629.784.143,2.14576.49878,2.25019,1.399.41066,1.37637-1.02284,1.69773-1.84049a10.36726,10.36726,0,0,0,.69433-2.84543c.04154-.473-.39994-.98836-.62282-1.48455-.3861.38258-.93423.69906-1.1231,1.16208a19.52443,19.52443,0,0,0-.70617,2.68878Z"/><path class="cls-1" d="M21.32485,45.30334a3.79716,3.79716,0,0,0-.92068.24259c-1.25508.72147-2.52388,1.42915-3.71026,2.25338-.31674.22006-.36007.83365-.52894,1.26656.49422.09424,1.09962.41764,1.46265.2415a31.73711,31.73711,0,0,0,3.74527-2.19288,1.80567,1.80567,0,0,0,.54182-1.15071C21.94306,45.78592,21.54865,45.54068,21.32485,45.30334Z"/><path class="cls-1" d="M80.73355,70.30908a9.1172,9.1172,0,0,1-.792.99524c-1.00428.96324-2.073,1.86239-3.03483,2.86491-.28932.30154-.31081.86006-.455,1.30085.49963.06574,1.1889.37308,1.46611.15549A29.50123,29.50123,0,0,0,81.3207,72.49c.26754-.28846.09287-.98707.12137-1.49725Z"/><path class="cls-1" d="M6.72414,99.61759c-.51672-1.853-.98737-3.63711-1.54273-5.39451-.06055-.19165-.652-.37528-.91937-.29695-.26784.07846-.65967.53519-.61614.74826q.525,2.56915,1.23583,5.09775c.063.224.58009.45147.87807.44036C6.04559,100.20186,6.31988,99.883,6.72414,99.61759Z"/><path class="cls-1" d="M82.45282,50.16913a4.39872,4.39872,0,0,0-.26718-1.15559c-.97127-1.32076-1.93781-2.649-2.99821-3.89639a1.1956,1.1956,0,0,0-1.18385-.03179,1.21416,1.21416,0,0,0-.14579,1.18371A35.63028,35.63028,0,0,0,80.763,50.042C81.008,50.31441,81.75786,50.13262,82.45282,50.16913Z"/><path class="cls-1" d="M.89708,66.81755a30.049,30.049,0,0,0-.70183,3.70486c-.032.5401.4025,1.10781.62607,1.663.38825-.43371.94863-.80666,1.12784-1.3142a12.87,12.87,0,0,0,.64789-3.02255,8.984,8.984,0,0,0-.25688-2.037Z"/><path class="cls-1" d="M65.44705,36.47592a19.18629,19.18629,0,0,0-2.82866-.62409c-.43462-.03253-.90432.40344-1.35813.62719.3188.39225.56332.99206.97034,1.13769a22.116,22.116,0,0,0,3.72891.97113,4.37246,4.37246,0,0,0,1.59186-.36875,8.791,8.791,0,0,0-1.0664-1.35625A2.88155,2.88155,0,0,0,65.44705,36.47592Z"/><path class="cls-1" d="M49.12937,36.641c-.55133-.3877-.99788-.96311-1.37224-.91945a37.09775,37.09775,0,0,0-4.6893.8925,1.232,1.232,0,0,0-.67473.99372,1.173,1.173,0,0,0,.89366.74748c1.62567-.2215,3.23754-.55519,4.84325-.9011C48.38785,37.39864,48.59135,37.09088,49.12937,36.641Z"/><path class="cls-1" d="M51.567,35.92351c.34774.40461.62587,1.02527.94009,1.04411a43.10343,43.10343,0,0,0,4.95.00122c.30231-.0167.73112-.55979.8028-.91945.04581-.22977-.44777-.80907-.71632-.82-1.698-.06928-3.40138-.04486-5.10107.009C52.2073,35.24574,51.98268,35.58612,51.567,35.92351Z"/><path class="cls-1" d="M6.985,113.108c.01,1.89063-.01733,3.59117.06679,5.28619.01282.25827.5879.726.82171.68043.35259-.06876.88682-.49054.90291-.78626a43.11289,43.11289,0,0,0-.00586-4.78767c-.018-.31666-.51278-.74794-.86927-.85518C7.65116,112.57022,7.26255,112.95541,6.985,113.108Z"/><path class="cls-1" d="M38.35889,24.02625c.07028.28521.0364,1.24475.40762,1.442.98979.52605,1.25023-.47173,1.58074-1.15436a34.94048,34.94048,0,0,0,1.51151-3.21842c.14707-.40466-.1535-.972-.24983-1.46507-.45507.21541-1.10171.30969-1.329.66912C39.62167,21.34077,39.13189,22.4885,38.35889,24.02625Z"/><path class="cls-1" d="M59.84638,78.153a28.6279,28.6279,0,0,0,3.232.552c.41635.03075.871-.45677,1.30812-.70767-.38768-.36658-.71664-.91839-1.17452-1.06354a20.40791,20.40791,0,0,0-3.62184-.79238,4.41579,4.41579,0,0,0-1.58116.43462c.32892.4279.637.87473.99838,1.27315C59.129,77.98327,59.3862,77.99437,59.84638,78.153Z"/><path class="cls-1" d="M7.7115,126.22739a24.43213,24.43213,0,0,0,.52817-3.04685c.02044-.34559-.50471-.72348-.78051-1.0866-.34077.31661-.87261.57612-.9874.96026a25.71875,25.71875,0,0,0-.86953,3.928c-.063.47.33083,1.00122.51611,1.50449A7.30126,7.30126,0,0,0,7.35321,127.407a3.32313,3.32313,0,0,0,.309-1.18894Z"/><path class="cls-1" d="M42.75017,15.95977c.12681.34258.19315.988.43154,1.0595a1.47609,1.47609,0,0,0,1.2988-.2785,33.39555,33.39555,0,0,0,2.60868-3.646c.18729-.30292-.07676-.88495-.13323-1.33859-.41723.05793-1.02337-.03936-1.22.19987C44.7222,13.18955,43.81339,14.50937,42.75017,15.95977Z"/><path class="cls-1" d="M73.34215,76.12458c-.40325.06648-.70366.11-1.00168.16617-1.27108.23972-2.55894.41927-3.80265.75973-.43923.12024-.77.63687-1.15022.97253.40733.28659.84492.85133,1.21667.81089a32.43,32.43,0,0,0,4.41416-.82832c.33662-.085.66807-.59729.78761-.97991C73.87576,76.8025,73.52049,76.44656,73.34215,76.12458Z"/><path class="cls-1" d="M14.02414,51.84712c-.09706-.36148-.08508-.82945-.29719-.97849-.27226-.1913-.872-.30766-1.07543-.14231Q10.67227,52.3351,8.837,54.11547c-.178.17288-.09955.81031.08213,1.08715a.992.992,0,0,0,.93886.23877C11.2554,54.3047,12.595,53.097,14.02414,51.84712Z"/><path class="cls-1" d="M58.86242,1.259q-1.01089.84254-2.05871,1.63759a1.23188,1.23188,0,0,1-1.10074-.121c-.21912-.14482-.22049-.61879-.36183-1.09087C56.07227,1.11823,56.7904.55474,57.50822,0A3.28137,3.28137,0,0,0,58.86242,1.259Z"/><path class="cls-1" d="M48.47455,8.42008c.1748.40335.23489.88275.49427,1.04656a1.15829,1.15829,0,0,0,1.08517.0076q1.79778-1.68216,3.44272-3.52291a1.13134,1.13134,0,0,0-.0118-1.09c-.17416-.23044-.86777-.40047-1.02822-.25677C51.12294,5.79907,49.85987,7.07242,48.47455,8.42008Z"/><path class="cls-1" d="M38.25075,52.989a5.00476,5.00476,0,0,0-.07733-.80927c-.37622-1.3944-.71613-2.80318-1.1959-4.16205-.12966-.36724-.70215-.57813-1.07138-.86077-.24132.39094-.74891.83972-.67872,1.163a42.92878,42.92878,0,0,0,1.30522,4.60465c.09051.26814.61788.48123.97123.5339C37.71878,53.49048,37.98679,53.16639,38.25075,52.989Z"/><path class="cls-1" d="M48.29968,69.62641a6.06106,6.06106,0,0,0-.46234-1.465c-.92289-1.17689-1.8537-2.354-2.87762-3.44065-.25319-.2687-.86494-.19956-1.31187-.28571-.02857.46432-.2597,1.072-.0503,1.36793a29.49782,29.49782,0,0,0,2.836,3.46312C46.72993,69.57291,47.44143,69.47871,48.29968,69.62641Z"/><path class="cls-1" d="M2.91139,61.814c.17078.38576.26645,1.04335.56034,1.14886a1.4017,1.4017,0,0,0,1.2472-.43694A32.16957,32.16957,0,0,0,7.02986,58.886c.18329-.33665-.04783-.89892-.08869-1.35761-.453.08454-1.11524.00918-1.323.2811C4.68475,59.03083,3.88052,60.35089,2.91139,61.814Z"/></svg>