<svg id="Layer_1" data-name="Layer 1" xmlns="http://www.w3.org/2000/svg" viewBox="0 0 31.80816 31.34731"><defs><style>.cls-1{fill:#1d71b8;}</style></defs><title>delivery</title><path class="cls-1" d="M23.93724,5.44073c-.83739.50888-1.66527,1.02782-2.51443,1.50921-.11445.06488-.36356-.01517-.50386-.10264a11.83778,11.83778,0,0,0-5.29794-1.774A11.66592,11.66592,0,1,0,26.1836,18.22971a21.50739,21.50739,0,0,0-.08388-3.6926.78387.78387,0,0,1,.26859-.74958c.70014-.58822,1.38111-1.19927,2.08253-1.81255A14.60626,14.60626,0,0,1,2.672,25.105,14.61056,14.61056,0,0,1,23.93724,5.44073Z"/><path class="cls-1" d="M14.74014,16.64667c.48619-.65015.93056-1.27588,1.40693-1.87622A27.00741,27.00741,0,0,1,26.51824,6.71633a11.9226,11.9226,0,0,1,3.85921-.98507,3.08791,3.08791,0,0,1,.81343.04466c.64113.12033.81071.587.37668,1.07928a5.33628,5.33628,0,0,1-.83782.72113A68.49606,68.49606,0,0,0,23.845,13.31978,43.07749,43.07749,0,0,0,16.92244,22.134a5.24894,5.24894,0,0,1-.51471.75528,2.24824,2.24824,0,0,1-3.40481.14185,5.57334,5.57334,0,0,1-.87619-1.20056A36.22086,36.22086,0,0,0,7.3117,14.925c-1.03291-1.11505-.96236-1.60293.209-2.57147a2.56953,2.56953,0,0,1,3.55211-.07,13.80622,13.80622,0,0,1,3.07649,3.49467C14.33527,16.05761,14.52679,16.33341,14.74014,16.64667Z"/></svg>