<svg xmlns="http://www.w3.org/2000/svg" xmlns:xlink="http://www.w3.org/1999/xlink" viewBox="0 0 60.98128 189.56113"><defs><style>.cls-1{fill:none;}.cls-2{isolation:isolate;}.cls-3{clip-path:url(#clip-path);}.cls-4{opacity:0.6;mix-blend-mode:overlay;}.cls-5{fill:#fff;}</style><clipPath id="clip-path"><rect class="cls-1" x="328.22362" y="353.74666" width="1516" height="910.06815"/></clipPath></defs><title>delivery</title><g class="cls-2"><g id="Layer_1" data-name="Layer 1"><path class="cls-5" d="M48.89823,76.22859a6.00809,6.00809,0,0,0,.77481.87638c.37908.286.86889.43353,1.2231.74172a5.78165,5.78165,0,0,1,.77655,1.04816c-1.17641.505,1.34234,2.57986-1.11848,2.60283-.46428.00432-.90589.52841-1.39136.73367a10.93683,10.93683,0,0,1-1.39962.39489c.04459-.48359-.09871-1.16454.16619-1.41671,1.16742-1.11138,1.31678-2.14363.21639-3.38895a1.60014,1.60014,0,0,1-.091-1.22346C48.095,76.42727,48.57238,76.361,48.89823,76.22859Z"/><path class="cls-5" d="M53.29938,83.60148a5.92947,5.92947,0,0,1,.54037.71654c.57955,1.09649,1.19629,2.17983,1.67041,3.32157.14477.3486-.12268.86837-.20136,1.30975-.40914-.16727-1.00564-.21864-1.1937-.52267a29.08219,29.08219,0,0,1-1.77348-3.421,1.47441,1.47441,0,0,1,.10773-1.12155C52.54548,83.69681,52.99684,83.69176,53.29938,83.60148Z"/><path class="cls-5" d="M20.09351,168.57386c-.00355.37771-.03616.75782-.00537,1.13271.106,1.28959.28459,2.57594.3208,3.86673.00992.35347-.38182.71822-.58924,1.0778-.34386-.28589-.932-.53049-.98851-.86493a25.72657,25.72657,0,0,1-.35527-3.998c-.004-.37294.48163-.75116.74263-1.127Z"/><path class="cls-5" d="M16.52494,94.28055a2.3428,2.3428,0,0,1,.03106-1.01277,1.22108,1.22108,0,0,1,.862-.66424,34.08572,34.08572,0,0,1,4.11712.213c.31151.03652.56535.565.84573.86708-.27756.25171-.55081.714-.83341.71978C20.08478,94.43328,18.61974,94.3465,16.52494,94.28055Z"/><path class="cls-5" d="M53.43365,25.41167c-.47735.28853-.73814.56806-1.00222.57118a.96637.96637,0,0,1-.75891-.43913q-.84319-2.05272-1.54142-4.1629a.916.916,0,0,1,.34113-.79471c.21153-.1376.80165-.1246.85678-.006C52.05982,22.15262,52.72553,23.75536,53.43365,25.41167Z"/><path class="cls-5" d="M22.89441,182.5324c-.41054-.0025-1.16986.14666-1.25689-.0319-.71981-1.47665-1.33446-3.00668-1.91525-4.54535-.05228-.13851.32219-.58123.56288-.647a.911.911,0,0,1,.82336.2752c.65682,1.4207,1.24206,2.87457,1.8416,4.32144C22.98119,181.97979,22.93757,182.08577,22.89441,182.5324Z"/><path class="cls-5" d="M30.28555,142.92132c1.30122-1.0947,2.55313-2.17708,3.85313-3.19825.136-.10684.70207.06567.8094.2553.14879.26284.20269.82025.0359.98185-1.09574,1.06167-2.24508,2.0711-3.42393,3.04043a.9383.9383,0,0,1-.87042-.09744C30.484,143.74572,30.45229,143.3613,30.28555,142.92132Z"/><path class="cls-5" d="M54.54506,123.39832c.1.40784.41011.99441.25813,1.162-1.08139,1.19286-2.241,2.31773-3.42631,3.40926-.12811.118-.67457-.02421-.85384-.21146-.17383-.18157-.2768-.72079-.14932-.8556,1.10764-1.17132,2.26844-2.29293,3.43323-3.40865C53.91006,123.39515,54.1535,123.4429,54.54506,123.39832Z"/><path class="cls-5" d="M43.63544,132.29026c.90058-.70735,1.69363-1.42133,2.57768-1.99511.679-.44069,1.381-1.83136,2.25315-.67238.75507,1.00334-.63252,1.40679-1.21469,1.94513a14.50171,14.50171,0,0,1-2.20293,1.68037,1.35458,1.35458,0,0,1-1.09672-.06528C43.76656,133.09484,43.75119,132.64925,43.63544,132.29026Z"/><path class="cls-5" d="M38.57986,88.75284c-.00208.40809.14866,1.16192-.0308,1.25108-1.43984.71529-2.93361,1.32706-4.43675,1.903-.17032.06526-.66092-.24446-.71765-.45661-.07631-.28543.02962-.85112.22195-.93992,1.423-.65693,2.88617-1.22706,4.34-1.8163C38.032,88.66353,38.13764,88.70765,38.57986,88.75284Z"/><path class="cls-5" d="M55.18739,72.43176a21.31587,21.31587,0,0,1-1.20064,2.49713c-.2344.3726-.8139.5281-1.2369.78206-.08578-.47605-.35593-1.01374-.22142-1.41616a16.42254,16.42254,0,0,1,1.36311-3.01994c.23568-.40616.81071-.61543,1.23152-.91416.0911.52239.19541,1.04308.26325,1.56848C55.40168,72.04816,55.29035,72.1835,55.18739,72.43176Z"/><path class="cls-5" d="M24.77291,184.59a3.25135,3.25135,0,0,1,.49542.4142c.83841,1.10635,1.70887,2.19335,2.46039,3.35676.165.25548-.106.79269-.17626,1.20016-.36741-.08007-.88565-.03387-1.07646-.26178-.89-1.06309-1.71742-2.18292-2.49851-3.32927a1.16059,1.16059,0,0,1,.00565-.997C24.09283,184.76061,24.5097,184.70672,24.77291,184.59Z"/><path class="cls-5" d="M54.06626,28.45929a4.31914,4.31914,0,0,1,.50165.83973,35.8798,35.8798,0,0,1,1.01657,3.59658c.07378.3643-.31167.82165-.48671,1.23634-.36145-.26756-.91319-.462-1.0494-.81613a27.93456,27.93456,0,0,1-1.06847-3.58127,1.657,1.657,0,0,1,.284-1.08742C53.35464,28.49579,53.74652,28.525,54.06626,28.45929Z"/><path class="cls-5" d="M9.52567,61.6384c-.0419.51167.105,1.186-.1523,1.42456a32.3485,32.3485,0,0,1-3.26181,2.57322,1.05794,1.05794,0,0,1-.985.01775c-.20948-.15133-.36131-.818-.247-.91525,1.25588-1.06764,2.5659-2.07194,3.87284-3.07837C8.84016,61.59277,9.0217,61.64707,9.52567,61.6384Z"/><path class="cls-5" d="M45.99329,10.41142c-.48633-.09963-1.18655-.03973-1.36036-.31374a34.38368,34.38368,0,0,1-2.02034-3.79163,1.01659,1.01659,0,0,1,.2409-.94851c.21-.161.87176-.14191.9626.01461.8085,1.393,1.53853,2.83179,2.27532,4.26553C46.14269,9.73746,46.06316,9.90447,45.99329,10.41142Z"/><path class="cls-5" d="M26.27088,58.78008a2.38336,2.38336,0,0,1-.10346.97434c-.14055.306-.563.69451-.8494.68556a37.82673,37.82673,0,0,1-4.13824-.36261c-.29771-.04235-.74966-.49428-.74705-.7537.00288-.28648.448-.81332.69867-.8122C22.60429,58.518,24.07662,58.64819,26.27088,58.78008Z"/><path class="cls-5" d="M2.74648,71.73331c-.54779.459-1.30076,1.41552-1.60719,1.28916-1.205-.49688-.38678-1.48333-.15308-2.23311A9.26761,9.26761,0,0,1,2.095,68.41748c.23579-.35291.832-.465,1.26507-.68608A3.96383,3.96383,0,0,1,3.49239,69.17a17.45283,17.45283,0,0,1-1.01285,2.26932Z"/><path class="cls-5" d="M57.03413,91.339a3.39443,3.39443,0,0,1,.50591.68444c.47094,1.20538.95915,2.40885,1.32468,3.6474.09758.33067-.21568.78259-.3403,1.17884-.39722-.21095-1.0002-.32441-1.15463-.65039a28.37012,28.37012,0,0,1-1.38294-3.62483,1.61417,1.61417,0,0,1,.26647-1.10531C56.33312,91.3293,56.74529,91.37914,57.03413,91.339Z"/><path class="cls-5" d="M1.63,75.51356a8.15175,8.15175,0,0,0-.005,1.137c.1608,1.23351.40236,2.4584.5116,3.69555.03287.37212-.26479.77343-.411,1.16136C1.34048,81.27365.688,81.102.61662,80.7952A26.37227,26.37227,0,0,1,0,76.705c-.025-.35081.48778-.74.75349-1.1115Z"/><path class="cls-5" d="M36.80815,137.36812c1.39734-1.00226,2.72407-1.98234,4.09485-2.89636.14948-.09969.6645.10339.807.30764a.90958.90958,0,0,1,.0106.86642q-1.804,1.49682-3.71483,2.86131c-.16928.12084-.657-.01-.8585-.18457C36.954,138.15517,36.94135,137.7794,36.80815,137.36812Z"/><path class="cls-5" d="M11.70506,60.51391c.48538-.39059.63775-.6039.83306-.65588,1.41626-.37689,2.83343-.76164,4.27073-1.03749a1.06881,1.06881,0,0,1,.84292.64051,1.08539,1.08539,0,0,1-.561.90664A31.85291,31.85291,0,0,1,12.954,61.37123C12.63073,61.42388,12.20987,60.87746,11.70506,60.51391Z"/><path class="cls-5" d="M59.22942,117.7686a26.86165,26.86165,0,0,1-1.58464,2.9751c-.28.39435-.90064.54683-1.36725.80868a4.35294,4.35294,0,0,1-.05047-1.5473,11.50528,11.50528,0,0,1,1.24031-2.46934,8.03112,8.03112,0,0,1,1.31926-1.276Z"/><path class="cls-5" d="M31.22266,60.48891a17.15053,17.15053,0,0,1,2.32088,1.14837c.32114.22061.40447.78739.59553,1.19736-.44176.09494-.94793.37613-1.31314.2498a19.76914,19.76914,0,0,1-3.1426-1.4104c-.39243-.21857-.60733-.7559-.90309-1.14806a7.85856,7.85856,0,0,1,1.50243-.34836A2.576,2.576,0,0,1,31.22266,60.48891Z"/><path class="cls-5" d="M42.50346,69.73784c.60129.03839,1.23461-.11271,1.47111.12727a33.16509,33.16509,0,0,1,2.7688,3.24691,1.10134,1.10134,0,0,1-.086,1.07029,1.04857,1.04857,0,0,1-1.04127.02075c-1.00909-1.06435-1.94576-2.19917-2.8713-3.33907C42.59622,70.681,42.62665,70.35254,42.50346,69.73784Z"/><path class="cls-5" d="M41.20613,67.87329c-.46885.08736-1.01012.36427-1.23968.20152a38.53344,38.53344,0,0,1-3.45074-2.7699,1.17455,1.17455,0,0,1-.04489-1.09021.9911.9911,0,0,1,.95829-.1706c1.22227.90217,2.39583,1.87266,3.55037,2.86156C41.1392,67.04247,41.10523,67.40543,41.20613,67.87329Z"/><path class="cls-5" d="M29.07509,146.62473c-1.06528,1.31213-1.99809,2.5127-3.0055,3.647a.9671.9671,0,0,1-.95359.0143,1.1508,1.1508,0,0,1-.18921-1.05343,38.53916,38.53916,0,0,1,2.684-3.33367,1.20729,1.20729,0,0,1,1.08456-.10946C28.91177,145.877,28.967,146.363,29.07509,146.62473Z"/><path class="cls-5" d="M57.07149,66.97429c-.20863.15945-.72211.8472-1.09128.77692-.98432-.18739-.60735-1.02861-.4556-1.6894a31.23419,31.23419,0,0,1,.748-3.08927c.124-.36436.651-.59152.9942-.88129.19661.40486.59453.83254.55173,1.21026C57.69456,64.3957,57.39348,65.46981,57.07149,66.97429Z"/><path class="cls-5" d="M20.09533,165.71721c-.16774.08464-.54849.43306-.88255.39293a1.08617,1.08617,0,0,1-.594-.88466,33.97273,33.97273,0,0,1,.69586-4.07849c.07192-.30264.6218-.49168.95167-.733.20712.35577.62348.73641.58467,1.063C20.6936,162.8007,20.39635,164.10783,20.09533,165.71721Z"/><path class="cls-5" d="M11.79744,92.67232a25.59354,25.59354,0,0,1-2.56166-1.42439c-.3074-.21162-.35138-.80589-.51562-1.22546a3.56928,3.56928,0,0,1,1.41393-.08383,18.24239,18.24239,0,0,1,2.96792,1.475c.38433.23689.57824.7827.85877,1.188-.46877.11413-.93359.25313-1.40851.32853C12.39246,92.95556,12.207,92.81933,11.79744,92.67232Z"/><path class="cls-5" d="M21.2251,155.36214a21.83986,21.83986,0,0,1,1.33735-2.41925c.1792-.25232.75674-.22175,1.15223-.32046.06029.41142.28572.89.1507,1.222a22.99129,22.99129,0,0,1-1.59268,3.22453c-.21916.36284-.791.51266-1.20186.75972a6.5269,6.5269,0,0,1-.25631-1.44379,2.9707,2.9707,0,0,1,.45014-1.00164Z"/><path class="cls-5" d="M58.52606,58.894c-.28015.16779-.68768.58053-.89384.4969a1.31956,1.31956,0,0,1-.74936-.92111,29.85641,29.85641,0,0,1,.22265-4.00145c.039-.316.54885-.57383.84214-.8584.25838.27392.73531.5454.73845.8222C58.70221,55.85937,58.59687,57.288,58.52606,58.894Z"/><path class="cls-5" d="M3.52648,83.70425c.24384.272.42888.47052.60514.67651.75174.87857,1.54886,1.72459,2.22514,2.65805.23884.32968.18016.87489.25731,1.32169-.44432-.02826-1.06543.12042-1.3019-.11586a28.99094,28.99094,0,0,1-2.613-3.04815,1.37985,1.37985,0,0,1-.00044-1.12386C2.77509,83.87806,3.22194,83.82884,3.52648,83.70425Z"/><path class="cls-5" d="M58.45974,99.98651c.27-.19762.52358-.5305.75485-.51564.29684.01906.78.27366.82922.50278.31933,1.48613.5748,2.98893.76157,4.49736.02727.22011-.38419.6205-.66578.71176-.21306.069-.74905-.17734-.788-.35911C59.01389,103.24922,58.75624,101.65762,58.45974,99.98651Z"/><path class="cls-5" d="M57.74082,41.8967c-.36279.24988-.629.57944-.86278.55778-.30255-.028-.77317-.28717-.835-.53183-.36234-1.4343-.6604-2.88808-.89073-4.34937-.03872-.24559.30345-.67057.57318-.8052.19274-.09619.76965.09637.8146.25943C56.98026,38.6243,57.34463,40.242,57.74082,41.8967Z"/><path class="cls-5" d="M58.75658,50.43473c-.3476.18328-.65783.48379-.93031.45277-.28325-.03224-.72556-.357-.7606-.60213-.20763-1.4525-.35091-2.91724-.42758-4.38249a1.01137,1.01137,0,0,1,.61834-.7531c.25038-.06312.829.20662.86039.39659C58.3778,47.12548,58.54539,48.72,58.75658,50.43473Z"/><path class="cls-5" d="M40.935,87.22147a4.47382,4.47382,0,0,1,.50688-.52076c1.04275-.76129,2.06822-1.55293,3.16325-2.23149.29593-.18338.813-.00992,1.22856-.00024-.05064.40755.05194,1.00447-.178,1.19053a38.37949,38.37949,0,0,1-3.48718,2.47878c-.21318.13623-.7-.01045-.97579-.17153C41.025,87.8688,41.01961,87.49289,40.935,87.22147Z"/><path class="cls-5" d="M24.61812,93.19266c.63933-.4367.86777-.69825,1.14229-.76229,1.302-.30369,2.60967-.60309,3.93158-.78734.32688-.04556.71456.34506,1.07428.53518-.24.33962-.419.89251-.73064.98159a26.36979,26.36979,0,0,1-3.91517.82627C25.74217,94.034,25.299,93.57013,24.61812,93.19266Z"/><path class="cls-5" d="M60.62623,113.15366c-.335.17327-.76973.57805-1.03363.48709a1.25308,1.25308,0,0,1-.62471-1.00266,28.76014,28.76014,0,0,1,.42677-3.83053c.06069-.33724.53651-.59976.82174-.89659.26842.31249.77217.63065.7648.9365C60.94809,110.2212,60.76972,111.59144,60.62623,113.15366Z"/><path class="cls-5" d="M47.594,12.602a9.67,9.67,0,0,1,.66509.972,27.76075,27.76075,0,0,1,1.43873,2.99938c.15275.41321-.086.97114-.14646,1.46316-.4301-.22285-1.04215-.33559-1.25619-.68921a27.77635,27.77635,0,0,1-1.66161-3.35493A1.28439,1.28439,0,0,1,46.72449,12.98C46.84386,12.77427,47.25438,12.73741,47.594,12.602Z"/><path class="cls-5" d="M41.40824,0a24.61757,24.61757,0,0,1,.69253,2.472c.01571.08488-.63591.29328-.97806.4444-.32257-.74539-.669-1.48293-.92256-2.25111A8.0441,8.0441,0,0,1,41.40824,0Z"/></g></g></svg>